<svg id="Layer_2" data-name="Layer 2" xmlns="http://www.w3.org/2000/svg" viewBox="0 0 800 800"><defs><style>.cls-1{fill:#266dab;}.cls-2{fill:#d4d4cb;}.cls-12,.cls-3,.cls-4,.cls-7,.cls-8,.cls-9{fill:none;stroke-miterlimit:10;stroke-width:3px;}.cls-3{stroke:#848285;}.cls-4{stroke:#403f3d;}.cls-5{fill:#848285;}.cls-6{fill:#d5d0c6;}.cls-7{stroke:#555452;}.cls-8{stroke:#fffeff;}.cls-9{stroke:#bfd4e8;}.cls-10{fill:#fff;}.cls-11{fill:#d7d2cf;}.cls-12{stroke:#fffcf9;}</style></defs><rect class="cls-1" width="800" height="800"/><polygon class="cls-2" points="704.12 309.41 704.12 534.04 106.55 534.04 106.55 308.75 704.12 309.41"/><polygon class="cls-3" points="702.71 310.02 702.71 533.06 107.34 533.06 107.34 309.97 702.71 310.02"/><polyline class="cls-4" points="704.82 306.75 704.82 535.01 107.27 535.03"/><polygon class="cls-5" points="700.08 313.25 700.08 347.76 110.78 347.76 110.78 313.32 700.08 313.25"/><polygon class="cls-6" points="667.6 319.39 667.68 340.11 692.92 340.22 692.92 319.43 667.6 319.39"/><polyline class="cls-7" points="693.76 317.3 693.69 341.13 667.57 340.8"/><polyline class="cls-8" points="692.27 318.69 666.51 318.71 666.5 342.33"/><polyline class="cls-9" points="105.82 536.5 105.82 308.23 703.31 308.23"/><path d="M683.21,337v-4.92h-2.43v-2.45h-2.4v2.45H676V337h-2.49v-5h2.43v-2.45h2.43v-2.41h-2.43V324.7h-2.43v-2.51H676v2.45h2.43v2.48h2.4v-2.48h2.43v-2.45h2.49v2.51h-2.43v2.45h-2.46v2.41h2.46V332h2.43v5Z"/><path d="M306.36,411.82v2.06h-6.1V420h-2.08V403.58h8.18v2h2v6.2Zm-.05-6.17h-6.05v6.14h6.05Z"/><path d="M314.46,420V405.67h-2v-2.09h4.1V420Z"/><path d="M328.77,418v2h-6.15v-2h-2v-8.25h2v-2h6.15v2h2v4.15h-8.13V418h6.05v-2h2.08V418Zm0-8.2h-6.05v2h6.05Z"/><path d="M336.88,420v-2h-2v-4.13h2v-2H343v-2h-6.1v-2.09H343v2h2V420Zm6.1-6.12h-6.05V418H343Z"/><path d="M355.24,418v2h-4.1v-2h-2v-2.06h2.07v2h4v-2h-2v-2h-2v-2.11h-2v-2.09h2v-2h4.1v2h2v2.09h-2.05v-2h-4v2h2v2.09h2v2h2V418Z"/><path d="M369.49,418v2h-6.15v-2h-2v-8.25h2v-2h6.15v2h2v4.15h-8.13V418h6.06v-2h2.07V418Zm0-8.2h-6.06v2h6.06Z"/><path d="M383.7,420v-2h-2v-8.25h2v-2h6.11v-4.11h2.07V420Zm6.11-10.24h-6.06V418h6.06Z"/><path d="M404.11,418v2H398v-2h-2v-8.25h2v-2h6.15v2h2V418Zm-.05-8.2H398V418h6.05Z"/><path d="M418.32,420V409.78h-6.05V420h-2.08V407.69h8.18v2h2V420Z"/><path d="M426.53,407.74v2h-2.08v-2.09h2v-2h-2v-2.09h4.1v4.16Z"/><path d="M436.71,409.78V420h-2.08V409.78h-2v-2.09h2v-4.11h2.08v4.11h2v2.09Z"/><path d="M453,418v2h8.13v2.09h-8.18v-2h-2V418h-2v-6.14h2v-2.09h2v-2h8.18v2h2V418Zm8.11-8.18H453v2.06h-2v6.09h2v-4.1H455v-2h4.1v4.07h2Zm-4.08,4.1h-2v2h2Z"/><path d="M485.51,420V409.78h-4V420h-2.1V409.78h-4V420H473.3V407.69h6.11v2h2v-2h4.11v2h2V420Z"/><path d="M499.79,418v2h-6.15v-2h-2v-8.25h2v-2h6.15v2h2v4.15h-8.13V418h6.05v-2h2.08V418Zm-.05-8.2h-6.05v2h6.05Z"/><path class="cls-10" d="M125.55,336.23v2h-8.18V321.83h8.18v2h2V328h-2v2h2v6.22Zm0-12.34h-6V328h6Zm0,6.15h-6v6.16h6Z"/><path class="cls-10" d="M133.66,338.27v-2h-2V332.1h2v-2h6.1v-2h-6.1v-2.09h6.15v2h2v10.3Zm6.1-6.12h-6v4.05h6Z"/><path class="cls-10" d="M154.07,336.23v2h-6.16v-2h-2V328h2v-2h6.16v2h2v2.09H154v-2H148v8.18H154v-2h2.07v2.07Z"/><path class="cls-10" d="M168.25,338.27l0-2h-2.05v-2.07h-4v4.11h-2.07V321.83h2.07v10.24h2v-2h2V328h2l0-2h2.05V328h-2v2h-2.05v4.05h2.05l0,2.09h2v2.07Z"/><path class="cls-10" d="M176.43,338.27v-2h-2v-10.3h2.08V336.2h6.05V325.93h2.08v12.34Z"/><path class="cls-10" d="M196.84,336.23v2h-6.1v4.1h-2.08V325.93h8.18v2h2v8.26Zm-.05-8.21h-6v8.18h6Z"/><path class="cls-10" d="M217.15,338.27v-8.21h-2v4.1h-2v-4.1h-2v8.21H209V321.83h2.08v4.1h2V330h2v-4.11h2.05v-4.1h2.08v16.44Z"/><path class="cls-10" d="M225.31,338.27v-2h-2V332.1h2v-2h6.1v-2h-6.1v-2.09h6.15v2h2v10.3Zm6.1-6.12h-6v4.05h6Z"/><path class="cls-10" d="M245.67,338.27V328h-6.06v10.25h-2.07V325.93h8.18v2h2v10.3Z"/><path class="cls-10" d="M253.82,338.27v-2h-2V332.1h2v-2h6.11v-2h-6.11v-2.09H260v2h2v10.3Zm6.11-6.12h-6.06v4.05h6.06Z"/><path class="cls-10" d="M274.23,340.33v2h-6.15v-2.06h6.1v-2h-6.1v-2h-2V328h2v-2h8.18v14.4ZM274.18,328h-6.05v8.18h6.05Z"/><path class="cls-10" d="M288.49,336.23v2h-6.15v-2h-2V328h2v-2h6.15v2h2v4.15h-8.13v4.08h6.05v-2h2.08v2.07Zm-.05-8.21h-6.05v2h6.05Z"/><path class="cls-10" d="M298.67,328v2h-2v8.21h-2.08V325.93h2.08v2h2v-2h4.13V328Z"/><polygon class="cls-11" points="473.1 466.77 473.1 505.13 335.9 505.13 335.9 466.82 473.1 466.77"/><polyline class="cls-12" points="473.09 465.81 334.84 465.81 334.84 507.06"/><polyline class="cls-7" points="474.11 464.91 474.11 506.23 336.09 506.23"/><path d="M365.77,484.54v10.25H363.7V484.54h-2v-2.09h2v-4.1h2.07v4.1h2v2.09Z"/><path d="M380,494.79V484.54h-6.06v10.25h-2.07V478.35h2.07v4.1H380v2h2v10.3Z"/><path d="M388.13,494.79v-2h-2v-4.13h2v-2h6.11v-2h-6.11v-2.09h6.16v2h2v10.3Zm6.11-6.12h-6.06v4.05h6.06Z"/><path d="M408.5,494.79V484.54h-6.06v10.25h-2.07V482.45h8.17v2h2v10.3Z"/><path d="M422.73,494.79l0-2H420.7v-2.07h-4v4.11h-2.08V478.35h2.08v10.24h2v-2h2v-2.06h2l0-2h2.05v2.09h-2v2h-2v4.05h2l0,2.09h2v2.07Z"/><path d="M437,494.79v-2h-2v-10.3h2.08v10.27h6.05V482.45h2.08v12.34Z"/></svg>