<svg xmlns="http://www.w3.org/2000/svg" viewBox="0 0 800 800"><defs><style>.cls-1{fill:#b47d8e;}.cls-2{fill:#edcacf;}.cls-10,.cls-11,.cls-13,.cls-3,.cls-4,.cls-6,.cls-7,.cls-8,.cls-9{fill:none;}.cls-10,.cls-11,.cls-13,.cls-14,.cls-3,.cls-4,.cls-6,.cls-7,.cls-8,.cls-9{stroke:#ce6c7c;}.cls-11,.cls-3,.cls-7{stroke-linejoin:round;}.cls-3{stroke-width:18px;}.cls-10,.cls-11,.cls-4,.cls-8,.cls-9{stroke-linecap:round;}.cls-10,.cls-13,.cls-14,.cls-4,.cls-6,.cls-8,.cls-9{stroke-miterlimit:10;}.cls-13,.cls-4{stroke-width:4px;}.cls-14,.cls-5{fill:#ce6c7c;}.cls-11,.cls-6,.cls-7,.cls-9{stroke-width:2px;}.cls-8{stroke-width:3px;}.cls-10{stroke-width:5px;}.cls-12{opacity:0.07;}</style></defs><g id="Layer_1" data-name="Layer 1"><rect class="cls-1" width="800" height="800"/></g><g id="Layer_4" data-name="Layer 4"><path class="cls-2" d="M209.05,568.49s-176,4-180-161.92c0,0,4.16-175.07,179-175.07,40.46,0,163.87,30.36,164.88,175.07,0,0-5.06,156.86-163.86,161.92"/><path class="cls-3" d="M209.05,568.49s-176,4-180-161.92c0,0,4.16-175.07,179-175.07,40.46,0,163.87,30.36,164.88,175.07,0,0-5.06,156.86-163.86,161.92"/><path class="cls-4" d="M207.4,310.39s95-3.47,94.68,96.81c0,0-2.08,84-95.38,90.22,0,0-74.9.32-92.89-81.33a47.61,47.61,0,0,1-.72-16.19C116.07,376.31,131.16,312.65,207.4,310.39Z"/><path class="cls-5" d="M78.05,418.81l21.88-.73a6.24,6.24,0,0,0,3.53-1.19,5,5,0,0,0,2.21-4.06c0-3.83-2.32-4.79-4.79-4.79s-7.93.14-7.93.14-1.51-.28-2.47-2.88S84.6,392,70.37,392.71,53.13,405.3,53.13,414.2s9.3,14.37,11.9,14.92,7.26,1.51,9,.14c1.27-1,3.29-6.57-.27-7.53s-13.41-2.46-13.55-10,5.75-10.41,8.35-10.55,7.66.14,10,2.19,3.56,6.71,3.56,6.71l-5.53.23a8.61,8.61,0,0,0-3.08.68c-1.37.61-2.9,1.75-2.75,3.75s2,3,3.55,3.55A10.41,10.41,0,0,0,78.05,418.81Z"/><path class="cls-5" d="M70.39,390.34c-1-1.48-2-3.78,0-5.71a4.2,4.2,0,0,1,3.38-1.06l25.09,2.8a4.59,4.59,0,0,1,4,4.69c-.41,3.84-2.33,4.66-6,4.25-3.09-.35-18.54-2.5-23.59-3.2A4.32,4.32,0,0,1,70.39,390.34Z"/><path class="cls-5" d="M71.26,371.5l3-9a6.07,6.07,0,0,1,5.43-4.25,5.94,5.94,0,0,1,3.51,1c4,2.63,13.11,11.74,13.11,11.74s.37,1,1.37-.62c.77-1.26,2.73-4.89,3.58-6.48a2.38,2.38,0,0,0-.18-2.6l0,0c-1.56-2-9.49-11.36-9.49-11.36S89.91,347.49,89,349c-.51.86-1.51,2.73-2.27,4.15a4.79,4.79,0,0,1-4,2.6,2.38,2.38,0,0,1-1-.14c-1.35-.54-3.74-2.62-1.87-8.24a35.84,35.84,0,0,1,4-8.06A6.35,6.35,0,0,1,88,336.49a4.26,4.26,0,0,1,4.62,1.63s7.89,10.18,11.1,13c.54.47,2.12,1.37,2.87,0,.35-.64.76-1.56,1.09-2.36a4.54,4.54,0,0,1,2.84-2.59,3.85,3.85,0,0,1,3.78,1.25c1.52,2,2,2.45.64,6.45s-4.87,9.26-6.33,13.37c-1.37,3.83-4.64,13.34-5.39,15.22s-3.86,4.87-7.73.87c-2.8-2.89-8.14-7.45-10.83-9.82a28.86,28.86,0,0,1-2.21-2.22c-.69-.72-1.69-1.57-2.44.68-1.12,3.37-1.25,6.49-4,7.12-2.41.54-4.52-.25-5.1-4.32A7.22,7.22,0,0,1,71.26,371.5Z"/><path class="cls-5" d="M129.54,321l-23.8-5.18a4.66,4.66,0,0,0-3.8.76c-2.7,2.1-1.16,5.95-1.16,5.95l11.08,21.12a7,7,0,0,0,2.91,3,4.12,4.12,0,0,0,4.43-.14,3,3,0,0,0,1.28-2.24A5.66,5.66,0,0,0,120,341l-1.7-3.6a1.68,1.68,0,0,1,.39-2l5-4.54c.45-.42,1.92-1.8,5.15-.74,2.95.95,5.52.57,5.84-3.35a4.91,4.91,0,0,0-1.91-4.24A7.32,7.32,0,0,0,129.54,321Zm-14.47,8.26c-.51,0-4.25-3.51-3.79-4.5.78-1.7,7.15.79,7.32,1.55C118.84,327.37,116.07,329.26,115.07,329.26Z"/><path class="cls-5" d="M143.45,313.49a6.29,6.29,0,0,0,3.08,2.3,4.35,4.35,0,0,0,4.05-.6c3.18-2.3,3.18-4.87,1.15-7.26-1.58-1.85-7.83-9.82-10.57-13.31a1.88,1.88,0,0,1,.49-2.76h0c1.49-.92,4.82-5.4,2.64-7.48-1.59-1.52-4.69-2.74-8.4.45l-12,8.29-.07.06a5.46,5.46,0,0,0-1.38,6.52c1.86,3.89,6.9.62,8,.09.19-.1.37-.2.54-.31a2,2,0,0,1,2.6.51Z"/><path class="cls-5" d="M156,306.69,147.32,284a5,5,0,0,1-.25-.94c-.19-1.22-.31-4,2.26-5.17,3.35-1.49,5.86.84,7.16,3.26,1.19,2.21,7.18,20.44,7.76,23.15.32,1.49.49,4.28-1.63,5.3-2.34,1.13-4.12.64-6-1.79A4.56,4.56,0,0,1,156,306.69Z"/><path class="cls-5" d="M164.85,299.72l2.37-23.18s1-3.55,4.44-3.75,4.93,3.06,6.11,4.83,5.52,7.9,5.52,7.9,1.48,1.28,2.17-.5,1.78-11.14,2.27-12.72,2.27-3.06,5-3.36,5.13,2.57,6,4.24,9.56,21.12,9.56,21.12,1.78,5.23-2.17,6.61-6.51-2.57-7.39-4.34-5.23-11.65-5.23-11.65l-1.9,14.24a6.83,6.83,0,0,1-1.51,3.53,4.36,4.36,0,0,1-5.44,1.17,7,7,0,0,1-3.44-3.37l-6.84-13.59-.79,15.88s-.16,5-5.13,4.74C163.71,307.27,164.85,299.72,164.85,299.72Z"/><path class="cls-5" d="M210,293.09l1.43-21.46a5.2,5.2,0,0,1,4.89-3.92c4-.12,14.3,1.71,14.3,1.71s3.54,1.11,2.93,4.53-3.06,3.06-5.13,2.81c-1.53-.18-6.45-.49-8.93-.64-1.06-.07-2.33,2.13-1,3,.73.51,7.3.76,7.3.76s9.13.24,9.42,1.94,1.17,6.17-3.6,6.29c-3.82.1-7.26,0-8.47-.07q-.37,0-.75-.06c-1-.13-4.4-.44-4.55,1.09-.08.75-.18,1.39-.22,1.91a1.72,1.72,0,0,0,1.65,1.83l6.39.29s4.88,0,5.13,3.3-1.71,5.87-5,5.75-12.08-.29-13.32-1.1C210.2,299.64,209.75,296.3,210,293.09Z"/><path class="cls-5" d="M250.13,304.57l7.19-16.71a1.13,1.13,0,0,0-.51-1.45l-4.25-2.24a5.74,5.74,0,0,1-2.23-2,3.55,3.55,0,0,1,0-3.79c1.25-2.36,4.68-2.22,8.3-.93,3.33,1.18,11.19,4,15,5.8l.49.26c1.34.76,3.78,2.15,2.56,5.64-1.1,3.15-5,2.46-7.14,2a17.56,17.56,0,0,1-2.19-.63,1.12,1.12,0,0,0-1.42.6L258.44,308s-2.24,4.4-6.11,3C249.27,309.88,248.61,307.5,250.13,304.57Z"/><path class="cls-5" d="M263.12,310.3l14.05-18.19s3.42-3.55,7-1.35-1.22,7.21-1.71,8.06c-.23.4-.56.93-.85,1.38a1.17,1.17,0,0,0,.33,1.59l4.64,3.91a1.48,1.48,0,0,0,1.83-.13l2.93-3.39a4.83,4.83,0,0,1,4.08-1.28,3.13,3.13,0,0,1,1.81,1c1.68,1.91,1.22,4.15-1.47,7.81-1.93,2.64-7.89,8.82-10.91,12.93-1,1.34-2.19,3-2.56,3.41-.07.08-2.47,3.74-5.2,2.1-3.05-1.83-2.81-3.42-1.83-5.25.75-1.42,4.85-6.4,6.68-8.59a1.31,1.31,0,0,0-.22-1.89l-4.34-3.28a1.43,1.43,0,0,0-1.9.16l-6.57,7s-3.12,3.23-6.1,1c-1.75-1.31-1.06-4-.49-5.5A6,6,0,0,1,263.12,310.3Z"/><path class="cls-5" d="M299.62,312a5.63,5.63,0,0,1,1.77-1c1.72-.62,5-1.24,7.43,1.77s4.76,6.13,6.05,7.85a5.87,5.87,0,0,1,1.16,3c.16,1.72.17,4.19-1,4.93-1.8,1.16-4.23-.32-6-2.54-1.39-1.72-3.41-4.25-4.26-5.32a1,1,0,0,0-1-.32c-.87.27-2.27.85-1.82,1.67s8,9,8.52,11.08c.4,1.64.4,3.55-1,4.35-2.24,1.24-6.28-.36-9.13-5.12s-3.18-5.13-4.72-4.36a10.69,10.69,0,0,0-2.8,1.8,1.35,1.35,0,0,0-.19,1.91c1.2,1.45,3.3,4,3.9,5,.84,1.38,1.89,3.4.52,5.09a5.57,5.57,0,0,1-8.62-.86c-3.93-5.7-6-9.56-6.49-11.1s2.29-4.49,2.73-4.95l.12-.11Z"/><path class="cls-5" d="M327.68,345.33c-1.16-2.34-5-2.43-5-2.43l-9.52.27L298.32,343a5.4,5.4,0,0,0-3.29,1,3.38,3.38,0,0,0-.59.54,5.91,5.91,0,0,0-.8,4.13c.17,1.35,1.51,3.22,3,3.33,1.07.08,3.51.13,4.87.21a1.58,1.58,0,0,1,1.36.94l3.34,7.65a1.59,1.59,0,0,1-.11,1.47c-.32.5-.85,1.3-1.73,2.49-1.8,2.43-2.16,5.57.45,7.55s5.39-1.17,5.39-1.17,14.44-16.81,16.08-19C327.67,350.28,328.85,347.66,327.68,345.33Zm-12,7.26L313,356.2a1.12,1.12,0,0,1-1.89-.18l-1.83-3.72a.79.79,0,0,1,.75-1.14l5.14.29A.71.71,0,0,1,315.66,352.59Z"/><path class="cls-5" d="M310.25,372.17l16.67-6.77s-3-7.53.43-9.14c5.37-2.52,7.74,4.22,8.51,6.71s3.21,9.39,3.21,9.39,2.34,6-1.14,7.38c-3.83,1.56-5.68-2.41-7.05-5.59l-18.3,7.16s-5.33,1.2-6.63-1.74S307.67,373,310.25,372.17Z"/><path class="cls-5" d="M340.5,382.93c-2-2.36-8.3-1.46-8.3-1.46l-19.81,2.93s-.58.09-2.44.58-2.14,2.93-1.95,4.4a4.68,4.68,0,0,0,1.76,3.41c.61.35,7.75-2.35,8.79-.5.58,1-2.75,2.89-3.84,3.56a41.9,41.9,0,0,0-4.25,2.85,3.43,3.43,0,0,0-1.16,3.66c.43,1.49,1.17,3.23,2.31,3.61,2,.68,4.42-1.41,6.74-3.41s3.86-2.4,5.32-2.4,3.15,4.34,7.46,4.06c5.89-.4,7.48-3.76,8.87-6.05C341,396.52,342.45,385.29,340.5,382.93Zm-7.61,11.43a4.05,4.05,0,0,1-4.6-.93c-.85-.88-1-2.94.19-3.1,1.48-.21,3.87-.67,4.88.51C334,391.64,334,394,332.89,394.36Z"/><path class="cls-5" d="M308.43,412s-.36-5,6-4.87c5.2.1,16.63,1.11,20.55,1.46a6.76,6.76,0,0,1,3.73,1.45,5.5,5.5,0,0,1,2.11,4.88c-.36,4.75-.91,12.25-1.4,13.71a3.82,3.82,0,0,1-3.74,2.81c-1.95-.12-3-3-3-5.33,0-1.72.28-5.33.18-7-.06-1.05.11-1.53-1.24-1.71-.67-.09-1.57-.26-1.84,1.06-.46,2.18-.85,8.58-1.19,11.53-.17,1.49-1.34,3.62-3.49,3.53-1.95-.09-3.5-2.64-3.5-4.71s1.41-8.29.72-10.9c-.22-.87-1.55-1.48-3.49-1.6s-3.1-.49-3.31,1.19c-.27,2.08-.37,8.88-2.19,11.56s-5.48,0-6-2.68S308.43,412,308.43,412Z"/><path class="cls-5" d="M93.14,452.8c-2.19-2.6-3.62-6.77-.57-13a.41.41,0,0,1,.05-.09c.48-.76,7.53-11.58,18.25-2.32a3,3,0,0,1,.34.37c.7.91,3.4,4.67,3.18,7.94a.82.82,0,0,0,.33.74c1,.7,3.47,2.75,1.28,4.52a34.47,34.47,0,0,1-3.37,2.38,4.12,4.12,0,0,1-5.11-.59,2.36,2.36,0,0,1-.87-2.51,20.63,20.63,0,0,1,1.07-2.19,2.35,2.35,0,0,0,.08-2.17c-1-2-3.19-5.62-6.55-3.86-4.57,2.39-2.29,6.24-.42,7.38a4.79,4.79,0,0,1,2.57,3.86c-.1,1.71-.78,3.16-2,3.52a13.94,13.94,0,0,1-2.14,0C96.41,456.4,95,455,93.14,452.8Z"/><path class="cls-5" d="M105.71,463.43l7.81-5.55s-.06-.8-.1-1a2,2,0,0,1,1.07-1.81l2.75-1.57a1,1,0,0,1,1.3.22l3.71,4.89a1.19,1.19,0,0,1-.35,1.76c-1,.58-1.38,1-2,.9-2.65-.38-2.75.2-3,1.1-.51,1.58,1,4.39,3,4.08.83-.12,1.4-.4,2-2.34a2.17,2.17,0,0,1,1.31-1.27c.44-.18,1.6-.51,2.15.15l3.77,4.22c.69.81.29,1.6-.44,2.38a15.12,15.12,0,0,1-2.21,1.92c-.64.32-1.68-1-1.68-1l-8,6.24s-1.73,4.63-2.66,5.35a2.25,2.25,0,0,1-2.72-.51l-4.18-5.91a1.15,1.15,0,0,1,.23-1.56l1.75-1.4a2.37,2.37,0,0,1,1.83-.49c.8.13,1.85.19,2.11-.24a3.7,3.7,0,0,0-.46-3.88c-.53-.61-2.67-1.25-3.33-.77a2.31,2.31,0,0,0-.82,1.47,2.53,2.53,0,0,1-1.13,1.6l-1.67,1.08a1.52,1.52,0,0,1-2.1-.42l-4.4-6.47s.36-1.69,1.89-1.79A21.69,21.69,0,0,1,105.71,463.43Z"/><path class="cls-5" d="M129.75,471.45a3.49,3.49,0,0,1,3.29.92c1.26,1.2,3.15,3.07,3.26,3.63.16.79.17,2.88-1.41,3.73a6.92,6.92,0,0,1-3.34.23s-5,5.51-5.19,6.61c-.29,1.58-1.15,4.92,2.76,2.71a27.46,27.46,0,0,0,7-6.21,3.88,3.88,0,0,1,.91-3.61c1.5-1.41,2.66-1.39,3.77-.18a46.43,46.43,0,0,1,3.27,3.61,2.54,2.54,0,0,1-.5,3.05c-1,1.13-3.62.46-3.62.46s-2.37,3.27-4,5.61c-1.48,2.1-6.54,6.08-10.74,4.12-6.3-2.95-6.52-8.74-5.62-10.95s7.91-8.1,7.91-8.1-.59-3.13.62-4.64A3,3,0,0,1,129.75,471.45Z"/><path class="cls-5" d="M141.6,489.58a9.84,9.84,0,0,1,10.83-1.94,10.25,10.25,0,0,1,3.84,3.18s.07.45,2.11.68a3.44,3.44,0,0,1,2.87,3.54c-.15,1.14-2.94,6.42-3.32,6.5s-5-1.29-5.06-3.32-.06-3.79-3.09-4.46c-3.7-.81-6.7,1.59-6,4.76s2.51,4.42,3.79,4.42,4.8-.67,5.77-.12,2.57,2,2.57,3.1-2.11,4.23-6.41,4.75-9.59-2-11.32-6.79-1.08-7.36-.42-9.46C138.18,493,140.08,491,141.6,489.58Z"/><path class="cls-5" d="M158.56,510.46l4.08-10.71a3,3,0,0,1-.9-2.85c.5-1.59.72-2.1,2.52-1.81,1.22.2,3.73.86,5.23,1.26a2.5,2.5,0,0,1,1.89,2.25,1.86,1.86,0,0,1-.34,1.18,3.84,3.84,0,0,1-2.11,1.54l-1.11,3.37,4.38-2.17s-1-2.23.21-3,1.88-1,3.9-.43,5.4,1.37,6.13,2.89-1.43,3.34-2.51,3.12-3,1.29-3.86,1.92-2.93,2-2.87,2.75a25.78,25.78,0,0,0,1.79,5.84,1.9,1.9,0,0,0,.79.57,2,2,0,0,1,1.75,2.68c-.22,1-1.95,3.25-4,2.45-1.35-.51-3.93-1.39-5.57-1.95-.92-.31-1.58-.72-1.63-1.7,0-.32,0-1.08,0-1.4,0-1.15,1.08-1.83,2.24-1.9s-2-4.49-2-4.49a29.15,29.15,0,0,0-1.28,4c0,.13.65.44.69.74.18,1.18-.71,3.35-1.75,3.76-1.3.5-7.11-1.92-7.8-2.79s-1.31-1.85-.12-3.95C156.74,510.75,158.56,510.46,158.56,510.46Z"/><path class="cls-5" d="M189,518.46l.46-9.05a1.22,1.22,0,0,0-.4-1c-.51-.48-1.29-1.32-1.29-2a19.15,19.15,0,0,1,.29-2.56,1.39,1.39,0,0,1,1.69-1.24c1.83.15,9.43.51,12.17.52a4.13,4.13,0,0,1,2.38.71,1.81,1.81,0,0,1,.92,1.36,52.88,52.88,0,0,1-.52,5.79,1.91,1.91,0,0,1-2.94,1.12c-1.73-1.12-2.16-3.45-3.2-3.63a20.89,20.89,0,0,0-2.78-.1.72.72,0,0,0-.7.69l-.06,1.65a.78.78,0,0,0,.67.81c1,.1,2.56,0,3.53.59a2,2,0,0,1-.12,2.82,19.71,19.71,0,0,1-3.38.85.7.7,0,0,0-.54.68l.08,2.21a.54.54,0,0,0,.53.52c1.25,0,4.25.6,5.14-.73,1.21-1.81,2.65-2.34,3.25-.74.67,1.79,0,4.9-.3,6.51-.1.61,0,1.59-2,1.36-1.44-.18-8.3-.51-11.89-.79-1.78-.13-3.31-.72-3.71-2.45a2.07,2.07,0,0,1-.06-.64c.06-1,1.37-1.88,2.14-2.34A1.25,1.25,0,0,0,189,518.46Z"/><path class="cls-5" d="M207.36,519.58s4.23-.35,4.09,2.61-1,3.45-3.81,2.68S204.34,520.22,207.36,519.58Z"/><path class="cls-5" d="M228.68,500.9H228c-3.09.1-15.58,1.24-14,13,1.76,13.44,14.7,10.23,16.89,9.71,3.24-.77,6.32-5.1,6.78-8.14a2.34,2.34,0,0,0-1.9-2.85c-2-.28-4.61.4-5.77,2s-3.19,3.61-6.17,2-2.36-6.54-1.47-7.36a6.63,6.63,0,0,1,4.54-1.62c2,.06,2.49,2.39,5.82,1.37a4.76,4.76,0,0,0,3.25-6.18c-.74-1.9-2.84-3.55-4.34-3.32s-1,1.36-2,1.36Z"/><path class="cls-5" d="M243,513.69l-3.25-8.21a3.19,3.19,0,0,0-.94-1.2c-.82-.35-2.34-1.15-2.69-2-.43-1.08-.53-3.34.87-4.2a34.87,34.87,0,0,1,5.63-2,6.09,6.09,0,0,1,1.28-.1,2.53,2.53,0,0,1,2,.9c.59.84.74,2.94.07,3.74a3.21,3.21,0,0,0-.61,1.5,1.23,1.23,0,0,0,.23,1h0a1.38,1.38,0,0,0,1.66.3c.79-.25,2.08-.76,3.09-1.14.68-.25.62-1.27.32-1.93l-.19-.44a1.2,1.2,0,0,0-.7-.66c-.81-.3-2.42-1.07-2.67-2.66-.33-2.14,3.05-3.25,4.21-3.74,1.49-.63,4.47-1.67,5.54-1.07s1.94,2.07,1.47,4.28a8.47,8.47,0,0,0-.23,2.95.85.85,0,0,0,.09.31l2.81,6.42c.12.28.47,1.53.76,1.65,1.05.43,2.8.22,2.38,2.56a5.26,5.26,0,0,1-1.89,2.53c-1.67,1.26-3.77,2.41-5.9,2.26-1.61-.12-2.85-1.11-1.66-3.66a1.19,1.19,0,0,0,0-1l-.41-.93a1.25,1.25,0,0,0-1.41-.71,21.58,21.58,0,0,0-3.49,1.08,1.23,1.23,0,0,0-.62,1.54l.11.31c.15.42.52,1.05,1,1.12a2.37,2.37,0,0,1,2.2,2.39c-.07,2.13-1.91,3.16-3.11,3.63s-6.21,1.33-6.81-.93c-.52-1.94.86-2.39,1.19-3Z"/><path class="cls-5" d="M267.53,504a1.14,1.14,0,0,1,.08.85c-.28.93-.71,3.09,1.16,3.74s8.74-4.76,11.46-7a4.3,4.3,0,0,0,1.53-2.82,4.62,4.62,0,0,0-.76-3.51c-1.58-1.76-3.19-1.58-4-1s-1.69,2.22-2.36,3.61a1.58,1.58,0,0,1-.15.24,1.78,1.78,0,0,1-2.74,0h0a1.1,1.1,0,0,1,.19-1.63c1.31-.92,3.42-2.6,3.42-3.87,0-.65.05-1.43-.71-1.59-2.17-.43-7,3.08-7.64,2.88-1-.32-1.8-1.8-1.3-2.41.75-.92,4-1.35,5.93-2.07s3-.9,3.19-1.76c.6-2.33-2-6-4.4-5.37-2.12.57-8.77,5.56-10.44,6.77a3,3,0,0,0-.68.66,3.21,3.21,0,0,0,.8,5c3.28,2.25,2.86,1.39,4.06,3.34C265.12,499.59,266.9,502.83,267.53,504Z"/><path class="cls-5" d="M279.18,485.6l5.36,6a.83.83,0,0,1,.21.77c-.14.62-.3,1.74.2,2.24.71.71,2.23,1.34,4.62,0,1.82-1,6.16-5.62,7.82-8.05a5.46,5.46,0,0,0-.53-6.17c-.94-1-2.4-1.69-3.82-.62s-1.6,3.29-2.13,4.26a8.49,8.49,0,0,1-1.32,1.58,1.46,1.46,0,0,1-2.07,0l0-.06a1.45,1.45,0,0,1,.23-2.21c1.06-.71,3.13-2.69,2.34-3.67-1.18-1.45-2.11-1.31-3.47-.51-1.19.7-2.4,1.36-3.15,1.74a.68.68,0,0,1-.9-.26l-.55-.9a.87.87,0,0,1,.44-1.28c2.19-.79,7.11-2.83,6.28-5-1.07-2.76-2.85-4.36-5.07-3.12s-7.55,6.49-7.55,6.49l-1.23,1.2a4,4,0,0,0-.52,5.25,2.27,2.27,0,0,0,1.75,1C278.56,484.38,279.18,485.6,279.18,485.6Z"/><path class="cls-5" d="M287.38,468.18a3.65,3.65,0,0,1,.31-3.39c1.51-2.35,4.4-6.7,5.57-7.43a3,3,0,0,1,3.88.78c.47.77,1.92,1.71.47,3.8A26.64,26.64,0,0,1,294,465.2c-.39.39-.77,1.32-.15,1.16s4.11-3.57,6.36-3.41,5.94.85,6.75,2.64,2.25,4.19.85,7.37a33.22,33.22,0,0,1-4.5,7.06c-.54.63-1.39.7-2.79.55s-4.42-1.71-4.5-3a9,9,0,0,1,1-4.11,15.47,15.47,0,0,1,3.88-1.71c.46-.08,1.47-2.17-.39-1.63s-3,3.57-7.68,3C289.8,472.65,288.17,470,287.38,468.18Z"/><path class="cls-5" d="M301.79,457l6.5,2.86a2.52,2.52,0,0,1,1.48,1.84c.26,1.34.28,2.87,1.39,3.33.94.39,2.51.3,3.82-2.81,1-2.51,4.18-9.3,5.36-11.86a1,1,0,0,0-.59-1.34l-4.67-1.56s-1.34-.57-1.64.63c-.07.26-.17.61-.29,1-.45,1.43.39,2.43.71,3.23a3.2,3.2,0,0,1-.09,1.26c-.2,1-.7,2.41-1.4,2.31-.43-.06-2-.57-3.19-1a1,1,0,0,1-.48-1.52c1-1.32,2.5-3.5,2.36-4.45-.2-1.4-1.75-3.16-3-1.91a10.5,10.5,0,0,0-1.92,2.94S305,452.4,304,452s-1.78-2.3-1-3.91,5.12-1.51,4.42-4.12-5.12-4.62-6.32-3.31-4.91,9.18-5.21,9.8l0,.07c-.2.33-1.84,3.15-1.09,4.19s2.41,2.61,3.62,2.51c.79-.07,1.39-.69,1.84-.71A4.81,4.81,0,0,1,301.79,457Z"/><path class="cls-6" d="M203,534.1s-9.65,9.47-13,11.24c-1.91,1-4.17,1.72-5.66.55-1-.76-2-4,.21-5.15C188,539.05,203.27,533.84,203,534.1Z"/><path class="cls-7" d="M204.3,533s-22.74,11.53-24.19,3.18c-.24-1.4,1.47-2.71,3.8-3.21a2.42,2.42,0,0,1,.54-.06l19.85.09,16.46.08s6.31.17,4.15,5.49-11.47-.5-13-1.17-7.64-4.4-7.64-4.4l15,9.19c.72.44,1.11,3.06-.2,4.16-1.46,1.22-4.32.31-4.66-.14L204.3,533s9.47,12.56,9.47,14.88a3.51,3.51,0,0,1-2.49,2.86c-1.63.49-3.62-.18-4.16-1.36-1-2.16-2.82-16.38-2.82-16.38l.88,15.13a3.12,3.12,0,0,1-3.35,3.42,3.65,3.65,0,0,1-3.29-4.06c.65-2.84,5.76-14.49,5.76-14.49l-7,15.51c-.45,1-2.87,2.61-4.87,1.49a3.15,3.15,0,0,1-1-5l12.83-12"/><path class="cls-7" d="M283.32,511a5.16,5.16,0,0,1,1.92-.58c2.05-.21,6-.05,3.91,4.66a2.55,2.55,0,0,1-2,1.54l-17.61,2s19.48-4.07,19,1.84c-.36,4.52-3.22,3.88-5.91,3.37s-13.09-5.21-13.09-5.21,12.76,4.56,14.93,8.22a3.53,3.53,0,0,1-.39,2.72,3.09,3.09,0,0,1-2.8,1.48c-4.08-1.26-11.74-12.42-11.74-12.42s12.45,13.54,8.05,16.28c-3.52,2.19-5.7-1.17-6-2.52s-2-13.76-2-13.76,2,15.78,1.51,17.29a2.85,2.85,0,0,1-3,1.65c-1.41-.06-2.83-.84-3.08-1.86-.5-2,1.47-7.74,2.13-10.35a44.91,44.91,0,0,1,2.43-6.73s-4.23,13.24-6.71,18a3.23,3.23,0,0,1-4.67.92,3.89,3.89,0,0,1-1.81-3c.12-2.18,13.19-15.88,13.19-15.88s-13.26,13.93-15.27,15.27c-1,.68-2.84,0-3.81-1.19s-1.57-2.51-.72-3.51C252.1,526.36,274.81,515.31,283.32,511Z"/><path class="cls-6" d="M153.9,523.26c1.21.68,2.92,3.15,1.39,5.22-1.2,1.62-4.45.82-4.82.36l-11.89-13.55,11,12.75a3.12,3.12,0,0,1-.34,4.38,2.62,2.62,0,0,1-1.06.51,4.38,4.38,0,0,1-4-1.34,2.47,2.47,0,0,1-.64-1.12l-5-15.18,4.77,14.38a2.84,2.84,0,0,1-1.59,3.34,6.89,6.89,0,0,1-2.83.51c-2.08,0-3.15-2.2-3.4-2.8l0-.27,3.08-15.16-3.11,15.28s-2.84,1.86-5.24.58a4.23,4.23,0,0,1-1.95-3.75c0-.7,10.3-12.11,10.3-12.11l-9.79,11.24a2.39,2.39,0,0,1-2.09.63,4.89,4.89,0,0,1-3-1.46,7.27,7.27,0,0,1-1.14-3.12,2.45,2.45,0,0,1,1.83-2.73l14.17-4.56s-15.21,4.68-17.37,4.85a3.62,3.62,0,0,1-3.26-2.78,6.05,6.05,0,0,1,.62-3.62,2.58,2.58,0,0,1,2.52-.84l17.49,2.39s-18.77-2.52-18.9-2.58c-.76-.37-3.46-2-1.66-5.43.57-1.08,2-1.42,3.08-1.6a2.41,2.41,0,0,1,1.58.26Z"/><path class="cls-8" d="M136,449.28s-.43-18.51,12.58-22.56,16.91,2,17.93,7.09-1.59,11.28-9.4,16.77c-4.29,3-6.18,5.61-7,7.32a6.95,6.95,0,0,1-10.91,2.44,8.19,8.19,0,0,1-2.78-5.69Z"/><path class="cls-9" d="M155,436.19a7.58,7.58,0,0,0-2.35,5.45s2.51-2.55,3.15-2.08c.91.66.3,2.85.3,2.85s4-5.36,1.35-6.66A2.2,2.2,0,0,0,155,436.19Z"/><path class="cls-8" d="M148.55,426.72s9.61-13.86,20.26-18c.53-.2,1.06-.42,1.57-.67,2.36-1.16,10.6-4.7,19.28-2.22a21.33,21.33,0,0,1,11.14,9.06c4.53,7.23,19.46,15.68,19.46,15.68s8.69,6.86,2.57,12.74-19.46.61-20.56.24a31,31,0,0,0-11.71-.63,24.19,24.19,0,0,0-6,1.61c-8,3.31-16.9,7.47-20.69,6.86s-6.75-.86-6.75-.86"/><path class="cls-9" d="M190.56,443s13.35-.73,16.12-5.34a11.82,11.82,0,0,0,1.91-6.13s-5-1-6.23-1.38"/><path class="cls-9" d="M208.59,431.5s4,.62,5.19,2.94"/><path class="cls-8" d="M152.17,455.5s.49,9.62,2.12,12.8,5.05,4.65,6.44,2.2,1.15-6.11,1.15-6.11.07,7.91,2.27,7.58,4.73-2.28,5.87-5.87a85.2,85.2,0,0,0,2.2-11.75,3.36,3.36,0,0,0-3.58-3.26"/><path class="cls-9" d="M214.67,471.23s-2.51,10.28-6.09,12.73-10-2.2-13.53-7.34l-2.69-4.89s-4.89,3.42-10-2.21c0,0-2.69,10.36-8.56,8.4a7.76,7.76,0,0,1-5.54-7.57"/><path class="cls-9" d="M184.37,457.39s-2.26,8.55-2,12.13"/><path class="cls-9" d="M194.18,458.15s.83,8.59-1.82,13.58"/><path class="cls-9" d="M214.67,471.23l1.41-6.93c.89-7.91-2.2-13.86-7.26-14.51S194,457,194,457c-6.76,1.22-9.74-.74-9.74-.74-1.47-3.92-7.18-8.13-7.18-8.13"/><path class="cls-10" d="M140.31,431.45s-5.25-13.05,2.2-22.14,16.79-16.05,17.3-16.68,4.25-7.46-3-13.77c-8.09-7-10.74-24.9-9.85-29.7s2.94-16,11.49-17.43c14.86-2.51,17.68,10.48,18.69,13.89s2.27,13.9,3,15.93,5.56,5.68,6.7,1.89,1.81-13.64,1.76-16.93c-.1-6.81,8.86-9.42,19.73-9.91,13.21-.6,18.91,5.25,19.55,11.68.44,4.41.42,9.25,1.18,10.77s7.79,5,9.56,5.53,3.73-.9,5.43-4.3c6.44-12.92,18.89-20.84,23.11-21.86,5.12-1.23,8.15,0,10.38,1.55,3,2.12,7.66,10.94,5.28,33.58-1.28,12.22-10.36,23.63-17.43,24.26-5.05.45-11.47-1.85-14.73-3.2a.37.37,0,0,0-.39.61c4,3.85,13.43,14.61,12.83,29.27-.75,18.5-10.26,29.94-14.22,33.15s-12.56,13.91-32.77,13.49"/><path class="cls-9" d="M262.12,341.14a64.48,64.48,0,0,0-7.8,26.75c-.59,7.95-7.57,20-9.71,21.25"/><path class="cls-9" d="M160.78,383.19s2.83,6.1,7.86,4.64,5.57-6,5-9.88-6.12-11-4.53-21.51,6.36-13.8,6.36-13.8"/><path class="cls-8" d="M243.89,362s-7.56,13.65-18.54,17.67"/><path class="cls-9" d="M186.31,365s2.09,6.14,6.4,5.88,7.45-3,11.76-4.7,11.11-5.23,18.29-6,11.39,2.29,11.39,2.29"/><path class="cls-9" d="M180.14,361.55s-2,7.43,8,12.59c0,0,9.84,2.59,19.52.81s9.2-3.71,19-3.55l9.84.16"/><path class="cls-9" d="M188.53,352a11.54,11.54,0,0,0,11.87,3c3.6-1.1,17.5-6.35,22.13-5.18a28.53,28.53,0,0,1,1.62,9.54"/><path class="cls-9" d="M199.93,384.76s5.83-2.44,7.95-4.67,8.06-.64,8.06-.64"/><path class="cls-9" d="M186.4,379.8a8.63,8.63,0,0,1,9.94,1"/><path class="cls-9" d="M183.6,392.33s.09-9.34,6.84-9.66,7.09,7.89,7.17,9-1.13,9.42-6.12,10.15S183.6,392.33,183.6,392.33Z"/><path class="cls-9" d="M197.45,389.35,189.57,391l-6,1.29s-2.25.88-5.95-1"/><path class="cls-9" d="M190,391.33s-3.07,8.53,3.37,9.66"/><path class="cls-9" d="M207.36,387.67c-3.31-.17-9.76,13-9.76,13s8.35-12,17.12-7.53"/><path class="cls-9" d="M214.55,399.42c-5.89-3.4-12.09-1.26-15.1.21a.77.77,0,0,0,.16,1.45c3.27.76,9.57,2.54,11.55,5.37"/><path class="cls-9" d="M177.78,421.8s45.79-13.12,78.57-5.91c31.71,7,29.85,7.47,29.85,7.47"/><path class="cls-9" d="M180.91,425s34.4-8.44,54.52-4,28.84,5.81,38.17,8.79c4.47,1.43,10.53,4.12,10.53,4.12"/><path class="cls-9" d="M185,427.49s23.93-4.7,56.14,2.14c26.67,5.66,39.05,15.07,39.05,15.07"/><path class="cls-9" d="M117,410.73a85.18,85.18,0,0,1,42,11.19s-21.74-.61-37.51,4"/><path class="cls-9" d="M158.07,421.85s-23.83-6.67-38.19-3.83"/><path class="cls-9" d="M229,479.92c0-1.8-6.25-3.11-6.65,2.78-.41,6.06,7.11,3.87,7.11,2"/><path class="cls-9" d="M231.48,477.93C230,473.66,219.19,471.75,218,482c-1,8.73,10.64,11.1,13.47,5.55"/><line class="cls-11" x1="182.02" y1="462.74" x2="176.41" y2="462.99"/><path class="cls-11" d="M200.06,461.28a35.73,35.73,0,0,1-5.38,3.91,56.38,56.38,0,0,1,4.41,5.6"/><path class="cls-5" d="M75.93,455.1c1-4.56,7.7-3.76,7.47.92,0,.16,0,.32,0,.48-.67,6.19-6.18,3.35-7.35,1.51A4.09,4.09,0,0,1,75.93,455.1Z"/><path class="cls-5" d="M84.57,470.12a3.4,3.4,0,0,1,4.7-3c1.49.62,2.73,1.74,2.44,3.76-.67,4.68-5.35,3.67-6.35,2.34C84.86,472.55,84.48,472.09,84.57,470.12Z"/><path class="cls-5" d="M93.61,486.67a4,4,0,0,1,6.39-3.86,4.44,4.44,0,0,1,1.45,2.52c1.09,4.67-3.43,5.29-5.14,5C95.37,490.14,94,488.55,93.61,486.67Z"/><path class="cls-5" d="M106.17,501c-1.26-2.93,1.15-6.33,4.28-5.66a3.78,3.78,0,0,1,3.29,3.06c.78,4.83-3.42,6.54-5,6.07C107.72,504.17,106.84,502.56,106.17,501Z"/><path class="cls-5" d="M171.81,530.65a7.71,7.71,0,0,0-2.52-1.55,4.09,4.09,0,0,0-5,5.37c.5,1.39,1.43,2.72,3.15,2.72C171,537.19,174.3,532.83,171.81,530.65Z"/><path class="cls-5" d="M240.92,533.12c-1.6-2.22-4.16-1.69-5.74-.49a3.4,3.4,0,0,0-1.11,4c.69,1.79,3.6,4.1,5.68,2C242.38,536,242.23,535,240.92,533.12Z"/><path class="cls-5" d="M294.78,502.37a3,3,0,0,1,2.86-2.3,4.58,4.58,0,0,1,4.92,3.17c1.56,4.67-2.63,6.18-5.29,5.6C294,508.12,294.23,504.62,294.78,502.37Z"/><path class="cls-5" d="M306.61,491.93a4.21,4.21,0,0,1,1.61-4.52,3.17,3.17,0,0,1,4.31.1c3.11,2.8,2.49,6.38.15,7.16C310.74,495.32,307.6,495.43,306.61,491.93Z"/><path class="cls-5" d="M320,474.32h-.15a3.71,3.71,0,0,0-3.41,4.07c.18,2,1.29,4.35,5.87,2.88,2.28-.73,1.95-2.89,1.28-4.56A3.76,3.76,0,0,0,320,474.32Z"/><path class="cls-5" d="M326.43,462.83a2.93,2.93,0,0,1,.27-4.05c1.13-1,3-1.7,5.39-.08,3.25,2.17.54,6.31-1.64,6A6,6,0,0,1,326.43,462.83Z"/><path class="cls-12" d="M114.59,557,283.11,241.47s42,17.11,69.58,59.07c28.32,43.12,46.92,108.21,3.5,194.69,0,0-40.17,78.88-141.41,81.77C186.91,577.8,155,574,114.59,557Z"/><path class="cls-2" d="M606.81,568.49s-176,4-180-161.92c0,0,4.16-175.07,179-175.07,40.46,0,163.86,30.36,164.87,175.07,0,0-5.06,156.86-163.86,161.92"/><path class="cls-3" d="M606.81,568.49s-176,4-180-161.92c0,0,4.16-175.07,179-175.07,40.46,0,163.86,30.36,164.87,175.07,0,0-5.06,156.86-163.86,161.92"/><path class="cls-12" d="M508.5,555,687.67,244.37s52.45,27.27,72.32,71.86c21.83,49,20.5,87,19.61,95.79-2.85,27.85-12.8,60.26-25.46,82.29-12,20.92-36.64,57.42-95.91,75.17C623.82,579.78,574.59,584.34,508.5,555Z"/><path class="cls-5" d="M553.53,355.52c8.49-3.64,12.94-2.43,18.6-.2s10.71,9.09,10.91,14.95-2.43,13.54-9.7,21.43-20.07,17.61-20.07,17.61-.2.91.91.71,16,.17,17.15,0c.13,0,2-.15,2.18-.16s0,0,0,0l.07-4s-.07-2.58,4.32-2.66c3.72-.06,4,2.66,4,2.66l.11,10.37a3.08,3.08,0,0,1-3.13,3.13c-2.8.17-25,.42-30.89.49-1.12,0-4.14-.46-5.59-5.11-1.78-5.69,1-9.31,4.57-12.14,0,0,23.83-20.1,25.85-25.45s.1-13.43-8.79-13.63-10.19,4-10.6,6.66.2,8.59-4.84,8.28-5.15-2.52-5.25-5S545,359.16,553.53,355.52Z"/><path class="cls-5" d="M593.08,410.55s6,10.13,20.37,9.26,18.18-8.72,19.49-12.2,1.63-10.78,1.2-16-7.3-13.83-14.16-15.25-10-1-15.46.44c0,0-1.93,1.14-1.64-1L604,365.4s0-1.74,1.51-1.93c1.23-.14,8.91-.37,11.73-.45a4,4,0,0,1,2.44.71,1.89,1.89,0,0,1,.59.65c.36.78.9,3.79,4.09,3.67s5.84-3.31,5.36-7.1v-.12a8.27,8.27,0,0,0-8.19-7.29H599.84s-3.73.48-4.4,3.55-4,28.79-4,28.79.42,6,4.94,5.12,5.54-2.95,7-3.74,6.39-3.19,10.42-2.05a20.9,20.9,0,0,1,8.75,5.05c3,3.22,3.32,6.94,2.09,10.85-1,3.12-1.32,7.72-11.19,8.08-7,.26-10.83-3.66-12.61-5.4a5.67,5.67,0,0,0-4.36-1.73,4.19,4.19,0,0,0-3.22,1.64c-1.5,2.05-1.56,3.2-1.32,4.1A13.92,13.92,0,0,0,593.08,410.55Z"/><path class="cls-5" d="M657.5,375.42a11,11,0,0,0-8.44-1.43c-4.82,1.18-7.38,1.86-10.48,8.38s.07,13.73,1.14,15.44,5.7,5,10,5.1a15.85,15.85,0,0,0,7.8-2s.35,2.87,2.23,2.78c1.72-.08,2.54-1.36,2.6-4.49,0-2.85.21-5.34-.88-6s-3.57-.57-4,.47c-.37.89,0,1.84-.27,2.16s-6.84,2.78-11,0-3.85-8.34-3.42-10.16,1.92-6,6.63-6.73,7.7.35,7.7,1.21a12,12,0,0,0,0,3.28,3.37,3.37,0,0,0,2.88,2.14,2.23,2.23,0,0,0,2.54-2.35c0-1.42,0-6.44,0-8.12a1.75,1.75,0,0,0-.41-1.16,2.84,2.84,0,0,0-2.23-.92c-2.18,0-1.89,1-2.08,1.54Z"/><path class="cls-5" d="M506.79,402.66a.54.54,0,0,1,.52.46c.13.82.59,2.45,2.09,2.48,1.16,0,1.81-.63,1.93-2.81.12-2,.2-3.32.25-4.37s-.09-3-2-3c-1.08-.05-2.08.72-2.08,1.32,0,.33,0,.84,0,1.23a.55.55,0,0,1-.56.51l-14.26-.37a.75.75,0,0,1-.72-.65c-.12-.82-.52-2.17-1.81-2.25a2.68,2.68,0,0,0-2.76,2.32l-.11,4.9a2.21,2.21,0,0,0,2.31,2.2c1.28,0,1.57-.73,1.85-1.5a.9.9,0,0,1,.84-.58Z"/><path class="cls-5" d="M511.24,389.78l.51-5s-.29-1.93-1.74-2.12a2.48,2.48,0,0,0-2.6,1.85l-12.06-.34a.34.34,0,0,1-.09-.66c5-1.63,18-5.55,19.33-7.61a12.08,12.08,0,0,0,.85-2.59,2.53,2.53,0,0,0-2.41-3c-2.22-.25-16.24-2.34-16.24-2.34s.54-2.71-.31-3-2.75-.48-3.35.79a39.91,39.91,0,0,0-1.32,5.89,2.37,2.37,0,0,0,2,2.29c1.52.2,2.33-2.36,2.33-2.36L508.75,374a.34.34,0,0,1,0,.67l-18,5.18a3.38,3.38,0,0,0-2.37,2.54l-.91,4.27a3.94,3.94,0,0,0,.73,3.32,1.58,1.58,0,0,0,1.62.73,4.43,4.43,0,0,0,2.56-2.38l14.66,1.09s-.28,2.11,1.61,2.15A2.35,2.35,0,0,0,511.24,389.78Z"/><path class="cls-5" d="M526.41,341.47a.64.64,0,0,0-.14-.76l-9.53-8.83a.75.75,0,0,0-1,0c-.69.56-2,1.35-3.08.33s-1.1-1.95,0-3.24c.64-.79,1.66-1.94,2.36-2.72a4.18,4.18,0,0,1,2.61-1.39,2.2,2.2,0,0,1,1.5.28,2,2,0,0,1,.56,2.82.87.87,0,0,0,.17,1l9,8.85a.51.51,0,0,0,.69.05c.7-.57,2.24-1.27,3.16-.4a2.42,2.42,0,0,1,.22,3.18c-.4.64-3.21,3.51-3.21,3.51a3,3,0,0,1-2.68.35C525.5,343.68,526.05,342.17,526.41,341.47Z"/><path class="cls-5" d="M523.56,317.25l9.46-7.58s4.33-3.54,5.06,1.37l-.15,18.7,6.5-5-1-2.31a2.53,2.53,0,0,1,1.23-2.6,2.38,2.38,0,0,1,2.81.07s1.25,1.8,1.79,2.65a4.6,4.6,0,0,1,.7,3.22,3.46,3.46,0,0,1-1.11,2.07c-1.81,1.59-10.4,7.3-10.4,7.3s-5.11,2.54-4.84-2.24l.22-18.71-6.22,5.13s1.58,3.16-.07,4.19c-1.41.89-2.24.63-3.54-.29A4,4,0,0,1,523.56,317.25Z"/><path class="cls-5" d="M545.73,301.47l10.66-5.35s3.58-1.46,3.49,1.39c-.09,2.44-3.49,20.19-3.49,20.19l6.93-3.66s-.49-1.93,1-2.65c1.76-.85,2.93,1.53,2.93,1.53s1.51,3.32-.79,4.78c-1.93,1.23-9.51,4.84-11.89,6a2.72,2.72,0,0,1-2.28.08,2.23,2.23,0,0,1-1-.93,5.79,5.79,0,0,1-.42-4.11c.28-1,4-16.81,4-16.81l-7,3.28s.47,2-1.11,2.89c-1.78,1-4.12-.66-4-2.19,0-.16,0-.31,0-.47A5.37,5.37,0,0,1,545.73,301.47Z"/><path class="cls-5" d="M590.43,308l-8.52-16.52s-.66-1.71-3.35-1.67c-3.14.05-3.35,2.58-3.35,2.58L570.82,311c-1-.14-1.88,1.18-2,2.51a1.35,1.35,0,0,0,.45,1.13,2.36,2.36,0,0,0,2.13.59c1.59-.32,5-1,5.48-1.26.69-.35,1.38-.56,1.21-2a2.28,2.28,0,0,0-2.09-2.11l.29-1.95a1.16,1.16,0,0,1,1-1l5.8-.59a1.11,1.11,0,0,1,1.14.67l1,2.24a2.56,2.56,0,0,0-1.27,1.92,1.45,1.45,0,0,0,.43,1,2.37,2.37,0,0,0,2.11.66c1.29-.21,3.63-.57,4.28-.62a1.75,1.75,0,0,0,1.78-2C592,307.89,590.43,308,590.43,308Zm-8-5.22-4.26.35s-1.32.35-1.11-.42l.9-6.48s.49-1.4,1.54-.56l2.93,5.09S583.86,302.67,582.4,302.74Z"/><path class="cls-5" d="M603.34,309.73l-1.57-16.92s-2.64,0-2.58-1.65a2.89,2.89,0,0,1,2-2.86,43.25,43.25,0,0,1,5.08.08,2.24,2.24,0,0,1,2.15,2.38v.05c-.19,1.69-2.26,1.89-2.26,1.89l.54,11.35a.39.39,0,0,0,.75.14L613,291.84a4.43,4.43,0,0,1,1.09-1.51,2.5,2.5,0,0,1,2.06-.7c1.62.32,3.44,1.07,3.44,2.88l-.17,13.1a.25.25,0,0,0,.47.11l5.27-10.83s-1.39-1.1-1-2.3c.46-1.54,1.44-1.6,3.22-.71a30.41,30.41,0,0,1,4,2.22,1.77,1.77,0,0,1,.59,2.36c-.57,1.31-2.63.94-2.63.94s-5.31,11.29-7.27,15c-.48.9-1.26,2.17-3.69,1.69s-3.2-1.62-3.13-3.63c0-1.73.24-11,.3-13.53a.11.11,0,0,0-.21,0l-5.1,13.5s-.94,2.76-3.07,2.63S603.46,312.24,603.34,309.73Z"/><path class="cls-5" d="M630.05,311.54l5.81-11.84s-2.71-1.54-1.49-3.49c1.11-1.77,1.74-1.45,3.48-.71,1.56.66,10.58,6,12.46,7.25a1.63,1.63,0,0,1,.62.75,3.31,3.31,0,0,1-.38,3.33c-.66.93-1.09,1.57-1.37,2-.64,1-1.61,1.51-2.59.9l-.37-.23c-1.48-1-.66-2.58-.27-3.29a1.48,1.48,0,0,0,.16-1.29c-.5-1.58-5.59-3.33-5.59-3.33a.77.77,0,0,0-1.06.31l-1.62,3.1a.78.78,0,0,0,.27,1l4.28,2.65a2.25,2.25,0,0,1,1,1.43,1.72,1.72,0,0,1-.38,1.51,2.4,2.4,0,0,1-2.75.63c-.37-.12-2.61-1.39-3.6-2-.26-.15-.72-.54-1.05,0l-1.48,3.14a.88.88,0,0,0,.19,1.22l4.77,2.87a.81.81,0,0,0,1-.08c1-.85,2.38-2.79,4.29-1.76,2.5,1.35-.14,5.34-.34,5.74a3.4,3.4,0,0,1-4.26,1.65l-.07,0c-1.91-.83-9.36-5.21-11.91-6.72a2.92,2.92,0,0,1-1.47-2.23,2.16,2.16,0,0,1,.54-1.67A3.36,3.36,0,0,1,630.05,311.54Z"/><path class="cls-5" d="M656.11,327.63l10.37-9.46-2.56-2.89s-2.22,2.1-3.54.84c-1.53-1.45-1.39-2.31.29-3.85s2.31-2.83,3.86-2.29c1.27.44,9.78,9.06,12,12.16.7,1-.14,2.09-.64,2.64L674,326.34s-1.67,1.56-2.74.41c-1.75-1.87.35-3.62.35-3.62l-2.22-2-10.11,9.58s1.53,2.33-.4,3.44c-1.15.66-3.07-.66-4.21-1.87s-2.68-3.52-1.4-4.6S655.24,327.23,656.11,327.63Z"/><path class="cls-5" d="M688.7,340.92a6.84,6.84,0,0,0-.77-5.17c-1.83-3.14-5.65-9.65-6.61-10.66-1.28-1.34-2.35-.81-3.9,0s-.74,3.09-.74,3.09l-13.83,9.87a2,2,0,0,0-.4,2.29l1.67,2.21c2,2.83,2.81,1.72,3.61,1.2,1.31-.86.16-3.82.16-3.82l3.42-1.88c1.48-.87,1.81.47,2.69,1.75s-.67,3.69-.67,3.69a16.85,16.85,0,0,0-2.15,9.2c.27,1.21,1.14,1.82,2.75,1.89s1.61-1.75,1.61-1.75a14.23,14.23,0,0,1,1.88-7.19s.28-.65,1.88-.13c2.53.8,6-.54,8.06-2.29A4.32,4.32,0,0,0,688.7,340.92Zm-5.79-1c-1.42.9-2.73.38-4.32-1.13-1-.92-2-1.88-2.55-2.51a.81.81,0,0,1,.1-1.2l3-2.33a1.16,1.16,0,0,1,1.63.21l1.83,2.38a4.12,4.12,0,0,1,.76,1.54C683.64,337.84,683.83,339.32,682.91,339.9Z"/><path class="cls-5" d="M691.79,346.91s-.93-1.89.14-2.33,1.86-.54,2.75,1a21.74,21.74,0,0,1,1.6,3.82s.5,1.91-.65,2.45c-.65.31-1.13.21-2.46-1.12l-10.25,4.44a4,4,0,0,0-2.44,2.84,3.66,3.66,0,0,0,.52,2.68c1.69,2.75,4,1.54,4,1.54l11.86-5s-.62-2.07.55-2.54c1-.38,1.85-.3,2.83,2.37.62,1.71,1.22,3.13,1.56,3.92a2.13,2.13,0,0,1-.13,2,1.41,1.41,0,0,1-.9.63c-1.24.27-1.92-1.71-1.92-1.71s-9,3.49-11.73,4.71a5,5,0,0,1-2.09.44c-2.12,0-6.33-.55-8.1-4.51a9.74,9.74,0,0,1-.12-7.67,4.44,4.44,0,0,1,2.25-2.38Z"/><path class="cls-5" d="M704.79,377.07s1.37-8.68-3-9.87-8.15-.21-9,6.57c-.67,5.61-2.51,5.15-3.78,4.78-1-.3-3.35-3.1-2.35-4.49s3.91-.95,3.74-2.88c-.28-3.33-3.08-2.79-4.28-2.69s-3.27.08-3.88,2.39c-.39,1.45,0,3.91,0,6a8.15,8.15,0,0,0,3.76,6.81,4.75,4.75,0,0,0,3.09.77c3.68-.5,6.67-1.8,7.37-4.59s1.59-6.77,1.59-6.77.3-2,1.4-1.79,1.39.4,1.49,1.89.1,3.9.1,3.9-2.22-.12-2.07,2,2.57,1.79,2.57,1.79l3.12,0s2.12-.33,2.07-2.11S704.79,377.07,704.79,377.07Z"/><path class="cls-5" d="M707.46,385.52l.63,12.94a2.41,2.41,0,0,1-1.61,2.45,4.88,4.88,0,0,1-1.41.23c-1.89.05-2.45.08-3.12-1.32-.59-1.23,2-1.78,2-1.78l-.29-2.71a1,1,0,0,0-1-.9l-13.93.23s-.16,2.41-1.77,2.49-2.24-.73-2.4-2.25a26.72,26.72,0,0,1-.16-4.9,2.13,2.13,0,0,1,2.41-2.08c1.84.16,1.53,1.48,1.77,2.37l14.2,0a.62.62,0,0,0,.61-.64l-.13-3.38s-2.33-.62-1.77-1.83,1.1-1.2,3.32-1a3.42,3.42,0,0,1,2,.72A2,2,0,0,1,707.46,385.52Z"/><path class="cls-5" d="M521.11,354.43c-1.08-.86-2.75.9-2.75.9l-5-3.08s4.57-5.95,4.87-8,.59-4.07-3.18-6.75c-2.28-1.62-5-1.09-6.73-.43a6,6,0,0,0-2.8,2.22c-1.8,2.58-5.71,8.22-6.25,9.13-.69,1.19-1,2.41.64,3.51a2.33,2.33,0,0,0,3.24-.42L516,359.24c-.29,1.59-1.27,2,.88,3.23,1.41.83,2.65-1.82,2.65-1.82a23.77,23.77,0,0,0,2-3.32C522,356.2,522.44,355.49,521.11,354.43Zm-8.88-7.49-1.74,2.56a.76.76,0,0,1-1,.23l-3.77-2.28a.69.69,0,0,1-.22-1c.47-.71,1.35-2,2.57-3.81,1.87-2.76,3.57-1.44,4.44-.56a3.31,3.31,0,0,1,.57,2.52A4.31,4.31,0,0,1,512.23,346.94Z"/><path class="cls-5" d="M572.65,431.67a6.26,6.26,0,0,0-4.82-2.32c-3.36-.05-9-.15-9.94-.3-1.32-.22-2.31.44-2.31,2.64s2.86,3.52,2.86,3.52l-.2,14.93s-3.25.35-3.29,2.49c-.05,2.55,1.9,2.4,2.56,2.4,1.26,0,3.62,0,4.56.11,1.32.11,3.86.11,3.75-2.31s-3-2.69-3-2.69l.11-4.47s5.95-.22,7.6-.33,4.4-2.09,4.51-7.27A10,10,0,0,0,572.65,431.67ZM569.26,440c-1.24,0-4.2.21-5.59.31a.69.69,0,0,1-.74-.69l0-4.63a.78.78,0,0,1,.75-.78l3.38-.13a3.92,3.92,0,0,1,3.36,1.57,2,2,0,0,1,.44,1.12C570.88,438.07,570.91,440,569.26,440Z"/><path class="cls-5" d="M580.07,450l.29-16s-2.54.06-2.31-2.37c.15-1.61-.23-2.94,2-2.84,2.5.12,5.73.09,5.73.09s1.88.27,1.79,2.95-2.24,2.33-2.24,2.33l.09,15.65,6.8-.1s.66-3,2.36-3,2.55,1.1,2.47,1.86v2.4a3.51,3.51,0,0,1-2.84,3.49,8.11,8.11,0,0,1-1.9.1c-3.31-.17-12.17.18-12.17.18s-2.52-1.08-1.52-3.49A1.91,1.91,0,0,1,580.07,450Z"/><path class="cls-5" d="M621,449.19s-4.38-14.76-5.18-17.81-2.69-3.48-4.75-3.48-3.22,2.23-3.22,2.23l-6.2,18.69c-1-.26-2.92,1.08-2.92,2.69v.05a2.77,2.77,0,0,0,2.63,2.64c1.27.09,3.11.21,4.26.26,1.88.09,3.41-.52,3.38-2.49a2.48,2.48,0,0,0-2.46-2.71l.78-2.44a.55.55,0,0,1,.49-.26l7,.17a.59.59,0,0,1,.55.42l.68,2.22s-2.08-.2-2.12,2.64a2.35,2.35,0,0,0,.78,1.74,3.7,3.7,0,0,0,2.67,1c.78,0,2.86,0,4.24,0,1.6,0,2.78-.25,2.69-3.11S621,449.19,621,449.19Zm-8.57-6.57-2.6.08c-.66,0-1-1.12-.77-1.74l1.86-5.69a.36.36,0,0,1,.68,0l2,5.71A1.25,1.25,0,0,1,612.4,442.62Z"/><path class="cls-5" d="M634,440.39l7.89-8.45s2.85-.18,2.77-1.92c-.07-1.59-.65-1.87-2.26-1.95s-5.47.26-5.47.26a1.79,1.79,0,0,0-1.79,1.78c0,2,2.07,1.46,2.07,1.46l-4.9,4.78a.6.6,0,0,1-.83-.06l-4-4.64s1.32-.35,1.35-1.49a1.9,1.9,0,0,0-1.58-2.05l-5.58.07a1.76,1.76,0,0,0-1.7,2c0,.6.16,1.67,2.49,1.67l5.92,8.36a2.26,2.26,0,0,1,.47,1.39l0,7.91s-2.41.65-2.34,2.63.58,2.3,1.82,2.45,6,.15,6,.15a2.5,2.5,0,0,0,2.21-2.37,3,3,0,0,0-2.83-2.93l-.13-8A1.38,1.38,0,0,1,634,440.39Z"/><ellipse class="cls-13" cx="597.28" cy="398.39" rx="79" ry="78.98"/><path class="cls-4" d="M651.63,479.86s17.72-12.88,28.07-29c1.79-2.79,15.42-22.83,14.95-32"/><path class="cls-4" d="M503.24,421.53s5.42,20.14,14.48,32.06,29.94,28.8,29.94,28.8"/><path class="cls-5" d="M563.7,499.47,567.42,487s-5.06-.72-4-3.5,3.09-4.75,5.56-3.82,5.27,1.76,4.65,4.13a8,8,0,0,1-2.38,3.81L568,501.12s2.78,1.54,1.85,3.81-4.12,2-5,1.45-4.54-2.48-4.54-2.48-1.75-2.58-.62-3.61S563.7,499.47,563.7,499.47Z"/><path class="cls-5" d="M593.82,491.32c-.41-3.41-3-6.6-7.94-7.12s-7,2.17-8,4.64-1.56,7.64,1.95,10.83a7.28,7.28,0,0,0,4.1,1.48,9,9,0,0,0,3.54-.76,3.8,3.8,0,0,1,.24,2.7c-.31,2-1.84,1.9-3.28,2s-3,0-3-1.51c0-1.3-.65-2.19-2.65-2.49-1.51-.22-3,1.15-2.47,4s3.3,4.74,9.18,5.16a6.94,6.94,0,0,0,5.48-2.22,10.69,10.69,0,0,0,3-7.25A82,82,0,0,0,593.82,491.32Zm-7.11,3.19a1.74,1.74,0,0,1-1,.8,2.31,2.31,0,0,1-2.94-2.38,12.29,12.29,0,0,1,.61-3.47c.42-1,3.31-.62,3.92.41S587.63,492.86,586.71,494.51Z"/><path class="cls-5" d="M634,485.07c-.69-.78-3.53-3.88-6.38-4.14s-5.6,1.29-7.15,2.24-3,4.14-3,5.86,2.25,5.67,4,7,5.19.5,7.26.5a4.26,4.26,0,0,0,3.26-1.76,6.26,6.26,0,0,1,.82,3.23,6,6,0,0,1-1.61,3,4.12,4.12,0,0,1-3,1c-.43-.09-1.51-3.4-3.32-3.31s-2.58,2.76-2.58,2.76a4.51,4.51,0,0,0,1,3.45c1.55,2.15,3.64,2.07,6.9,1.55,4.2-.68,5.53-1.88,7.17-7S634.66,485.84,634,485.07Zm-5.08,5.6c-1,.86-2.76,1.29-3.54.34a7.39,7.39,0,0,1-1.06-2.12,2.55,2.55,0,0,1,.09-2,2,2,0,0,1,2.26-1C629.23,486.19,629.92,489.81,628.89,490.67Z"/><path class="cls-5" d="M613,488.45c-.69-.78-3.53-3.88-6.38-4.14s-5.6,1.29-7.15,2.24-1.93,4.14-1.93,5.86.43,5.64,2.15,6.94,5.82,1.84,7.84,1.4a9.16,9.16,0,0,0,3.49-1.63,15.88,15.88,0,0,1,.08,3.85,2.14,2.14,0,0,1-1.45,1.75,3.68,3.68,0,0,1-3.27.3c-.56-.35-1.21-3-3-3s-2.08,2.68-2.08,2.68a4.51,4.51,0,0,0,1,3.45c1.56,2.15,3.62,2,6.9,1.55,5.39-.68,6.33-3.17,6.68-9.93C616.16,494.3,613.68,489.22,613,488.45Zm-5.08,5.6c-1,.86-2.65,1.59-3.43.64a9.92,9.92,0,0,1-1.17-2.41,2.58,2.58,0,0,1,.09-2,2,2,0,0,1,2.27-1C608.25,489.57,608.94,493.19,607.91,494.05Z"/><path class="cls-6" d="M496.4,458.67a.35.35,0,0,1,.17.42c-.63,2.08-4.59,15.35-4.59,18.91,0,3.87,1.29,4.52,3.87,4.84a3.44,3.44,0,0,0,3.51-2.17.4.4,0,0,0,0-.19l-2.73-21.67s1.29,16.61,2.58,19,3.06,2.26,5.32,1.29c2.08-.89,1.69-4.68,1.62-5.25a.27.27,0,0,0-.05-.14L487.69,444.4a.35.35,0,0,0-.17-.15c-.65-.23-4-1.29-5,1.66a6.13,6.13,0,0,0,.58,5.48.32.32,0,0,0,.12.11Z"/><path class="cls-6" d="M495.49,458.22,481.32,451a.42.42,0,0,0-.15,0c-.59,0-4.08.13-4.08,2.9,0,3,1.26,5.42,3.4,5.67,1.74.21,11.34-.39,14.87-.62A.36.36,0,0,0,495.49,458.22Z"/><path class="cls-6" d="M495.19,459.52a.36.36,0,0,0-.16-.69c-4.39.07-16.21.31-17.44.82-1.51.63-1.76,4.29-.38,5.42s2.52,1.14,4.92.38C484,464.86,491.88,461.11,495.19,459.52Z"/><path class="cls-6" d="M495.53,460a.36.36,0,0,0-.4-.58c-4.26,1.75-16.07,6.67-17.41,7.91-1.64,1.51-.63,2.77.5,4.16a4.27,4.27,0,0,0,4.54,1.26C483.89,472.35,492.43,463.32,495.53,460Z"/><path class="cls-6" d="M496.44,459.91a.36.36,0,0,0-.6-.33c-2.84,2.69-12,11.65-11.82,14.31.25,3.16,1.64,4.16,2.65,4.42s3.94,2,5.31-.31C493.14,476,495.68,463.69,496.44,459.91Z"/><path class="cls-6" d="M524.06,491.12s15.12,11.77,32.07,17.57c0,0,3.36,2.44,2.75,5.65s-3.21,4.58-6.26,3.21-12.37-16-12.37-16L551.09,518s0,4-2.29,4.27-4.43.46-5-2.14-3.51-18.63-3.51-18.63L543,521.67s-.16,1.38-2.6,1.53-3.82-.92-4-2.29,3.82-19.4,3.82-19.4l-4.89,19.55s-5.19.46-6.42-.76-1.37-4.28,0-6.11,11.31-12.68,11.31-12.68L527,515.87s-3.67-.31-4.58-2-.61-3.66.91-4.43,17-7.94,17-7.94l-19.1,7.94s-3-1.52-3-4.27,1.37-3.67,3.82-4,18.33.3,18.33.3L520.54,500s-1.68-3.66-1.07-5.5S521.31,490.36,524.06,491.12Z"/><path class="cls-6" d="M580.94,515.85s19,2.63,36.56-.82c0,0,4.13.43,5.21,3.52s-.49,5.57-3.82,5.9-18.74-7.7-18.74-7.7l17.64,8.86s2,3.44.16,4.85-3.61,2.62-5.44.67-12.36-14.38-12.36-14.38l12.47,16.09s.55,1.26-1.49,2.62-3.76,1.11-4.58,0-6.4-18.71-6.4-18.71l5.55,19.38s-4.27,3-5.94,2.54-3.33-3-3.06-5.29,3.45-16.63,3.45-16.63l-4.32,19.08s-3.33,1.57-5,.57-2.36-2.87-1.42-4.29,10.71-15.36,10.71-15.36l-12.56,16.43s-3.41.2-4.78-2.18-.64-3.86,1.32-5.35,16-8.9,16-8.9l-17.82,8.53s-3.29-2.33-3.68-4.23S578.18,516.57,580.94,515.85Z"/><path class="cls-6" d="M642.07,509.08s17.61-7.53,30.91-19.54c0,0,3.77-1.75,6.27.33s2.46,5-.23,7-20,3-20,3l19.68-1.49s3.48,1.93,2.63,4.08-1.74,4.1-4.31,3.37-18-6-18-6l19,7.37s1.12.8.07,3-2.65,2.9-3.93,2.37S659,500,659,500l14.73,13.75s-2.12,4.77-3.78,5.24-4.41-.87-5.34-3S659,500,659,500l6.11,18.58s-2,3.06-4,3.05-3.51-1.24-3.43-3S659,500,659,500l-2.31,20.55s-2.82,1.93-5.22.6-2.54-3-1.62-5.27S659,500,659,500l-10.89,16.49s-4-.3-5.32-1.73S640.07,511.11,642.07,509.08Z"/><path class="cls-6" d="M691.78,471.88s11.49-15.32,17-32.37c0,0,2.38-3.41,5.6-2.85s4.64,3.13,3.32,6.2-15.82,12.65-15.82,12.65l16.3-11.13s4-.07,4.32,2.22.53,4.42-2,5.08-18.57,3.83-18.57,3.83l20.11-3.1s1.38.13,1.57,2.57-.85,3.84-2.22,4-19.46-3.48-19.46-3.48l19.63,4.55s.55,5.18-.65,6.43-4.25,1.45-6.11.1-12.87-11.08-12.87-11.08l14.59,13s-.24,3.67-1.91,4.61-3.65.68-4.44-.83-8.24-16.82-8.24-16.82l8.27,18.95s-1.47,3.08-4.22,3.13-3.69-1.31-4-3.75,0-18.33,0-18.33l-1.18,19.73s-3.64,1.74-5.48,1.16S691.06,474.64,691.78,471.88Z"/><path class="cls-6" d="M715.9,415.71s2.29-19-1.46-36.54c0,0,.36-4.14,3.42-5.26s5.58.38,6,3.71-7.38,18.86-7.38,18.86L725,378.69s3.4-2,4.84-.23,2.68,3.56.77,5.42-14.17,12.6-14.17,12.6l15.87-12.74s1.26-.57,2.64,1.44,1.19,3.75.09,4.59-18.6,6.71-18.6,6.71l19.28-5.87s3.06,4.21,2.65,5.89-3,3.38-5.24,3.14-16.69-3.16-16.69-3.16l19.15,4s1.63,3.3.66,4.95-2.83,2.41-4.27,1.5-15.54-10.45-15.54-10.45l16.64,12.28s.27,3.4-2.09,4.82-3.85.71-5.37-1.23-9.18-15.87-9.18-15.87l8.84,17.68s-2.28,3.33-4.16,3.75S716.66,418.46,715.9,415.71Z"/><path class="cls-6" d="M709,356.08s-7.22-17.75-19-31.25c0,0-1.69-3.8.45-6.27s5.07-2.37,7,.35,2.7,20.08,2.7,20.08L699,319.28s2-3.44,4.12-2.56,4.06,1.82,3.29,4.37-6.27,17.9-6.27,17.9l7.7-18.84s.82-1.11,3,0,2.85,2.7,2.29,4-13,14.89-13,14.89l14-14.49s4.72,2.2,5.17,3.87-.95,4.39-3,5.29S700.13,339,700.13,339l18.68-5.79s3,2.09,3,4-1.3,3.48-3,3.37S700.13,339,700.13,339l20.5,2.66s1.89,2.85.51,5.23-3,2.49-5.29,1.53S700.13,339,700.13,339l16.3,11.17s-.38,4-1.83,5.3S711,358.11,709,356.08Z"/><path class="cls-6" d="M674.06,308.41S658.94,296.65,642,290.84c0,0-3.36-2.44-2.75-5.65s3.21-4.58,6.27-3.21,12.37,16,12.37,16L647,281.53s0-4,2.29-4.28,4.43-.46,5,2.14S657.87,298,657.87,298l-2.75-20.16s.15-1.37,2.59-1.53,3.82.92,4,2.29-3.82,19.4-3.82,19.4l4.88-19.55s5.2-.46,6.42.76,1.37,4.28,0,6.11S657.87,298,657.87,298l13.28-14.36s3.67.31,4.59,2,.61,3.66-.92,4.43-17,7.94-17,7.94L677,290.08s3,1.53,3,4.27-1.37,3.67-3.82,4-18.32-.31-18.32-.31l19.7,1.53s1.68,3.66,1.07,5.5S676.81,309.17,674.06,308.41Z"/><path class="cls-6" d="M616.37,280.48s-19-2.63-36.56.82c0,0-4.13-.44-5.2-3.52s.48-5.57,3.81-5.91,18.74,7.71,18.74,7.71l-17.64-8.87s-2-3.44-.16-4.85,3.61-2.61,5.44-.66,12.36,14.38,12.36,14.38L584.7,263.49s-.56-1.27,1.48-2.62,3.77-1.12,4.58,0,6.4,18.71,6.4,18.71l-5.55-19.38s4.27-3,5.94-2.54,3.33,3,3.06,5.29-3.45,16.63-3.45,16.63l4.33-19.08s3.32-1.57,5-.57,2.36,2.87,1.42,4.29-10.71,15.36-10.71,15.36l12.56-16.43s3.41-.2,4.78,2.18.64,3.86-1.32,5.35-16,8.9-16,8.9L615,271.05s3.29,2.33,3.68,4.22S619.13,279.76,616.37,280.48Z"/><path class="cls-6" d="M555.34,289.39s-17.74,7.22-31.24,19c0,0-3.8,1.69-6.27-.45s-2.37-5.06.35-7,20.07-2.7,20.07-2.7l-19.7,1.15s-3.44-2-2.56-4.13,1.82-4.06,4.37-3.29,17.89,6.27,17.89,6.27l-18.83-7.7s-1.11-.82,0-3,2.7-2.85,4-2.29,14.88,13,14.88,13l-14.48-14s2.2-4.72,3.87-5.17,4.39.95,5.29,3.06,5.32,16.12,5.32,16.12l-5.79-18.68s2.1-3,4-3,3.48,1.3,3.37,3-1.6,18.65-1.6,18.65l2.67-20.5s2.85-1.88,5.23-.51,2.49,3,1.53,5.29-9.43,15.72-9.43,15.72l11.18-16.3s4,.38,5.29,1.83S557.38,287.39,555.34,289.39Z"/><path class="cls-6" d="M504.35,326.48s-11.76,15.12-17.57,32.07c0,0-2.44,3.36-5.65,2.75s-4.58-3.2-3.2-6.26,16-12.37,16-12.37l-16.49,10.84s-4,0-4.28-2.29-.46-4.43,2.14-5S494,342.67,494,342.67l-20.16,2.75s-1.37-.15-1.52-2.6.91-3.81,2.29-4S494,342.67,494,342.67l-19.55-4.89s-.45-5.19.77-6.41,4.27-1.38,6.11,0S494,342.67,494,342.67l-14.35-13.29s.3-3.66,2-4.58,3.67-.61,4.43.92S494,342.67,494,342.67L486,323.58s1.53-3.06,4.28-3.06,3.66,1.38,4,3.82-.31,18.33-.31,18.33l1.53-19.7s3.67-1.68,5.5-1.07S505.11,323.73,504.35,326.48Z"/><path class="cls-6" d="M481.22,381.67s-2.62,19,.83,36.56c0,0-.44,4.13-3.52,5.2s-5.57-.48-5.91-3.82,7.7-18.73,7.7-18.73l-8.86,17.64s-3.44,2-4.85.15-2.61-3.6-.67-5.43,14.38-12.36,14.38-12.36l-16.08,12.46s-1.27.56-2.62-1.48-1.12-3.77,0-4.59,18.7-6.39,18.7-6.39L461,406.42s-3-4.26-2.55-5.93,3-3.33,5.29-3.06,16.63,3.45,16.63,3.45l-19.07-4.33s-1.57-3.32-.57-5,2.86-2.36,4.29-1.42,15.35,10.71,15.35,10.71L463.9,388.32s-.2-3.41,2.18-4.78,3.86-.65,5.34,1.32,8.9,16,8.9,16l-8.52-17.82s2.33-3.29,4.22-3.68S480.51,378.91,481.22,381.67Z"/><path class="cls-14" d="M510.88,311.53s3.57-.89,4,.89-.66,4.68-3.12,4.46A2.83,2.83,0,0,1,510.88,311.53Z"/><path class="cls-14" d="M566.43,278.06s5.27-.23,4.7,3.55-2.64,4.93-4.48,4.36S561.38,281.15,566.43,278.06Z"/><path class="cls-14" d="M625.36,279.89s2.07-3.44,5.62-1.61a3.89,3.89,0,0,1,.92,6.43,6.06,6.06,0,0,1-5.51-.46C624.56,283.1,625.36,279.89,625.36,279.89Z"/><path class="cls-14" d="M681.2,309.36s5-.69,5.39,1.6.46,3.56-.57,4.82a3.4,3.4,0,0,1-5,0C679.6,314.06,679.6,310.73,681.2,309.36Z"/><path class="cls-14" d="M714.23,362.68s5.16.11,5,3.55-5.16,4.7-6.42,3S711.93,363.14,714.23,362.68Z"/><path class="cls-14" d="M713.51,427.52a2.64,2.64,0,0,1,1.44-3.36c1.17-.49,3-.87,4.13,1.6,2.06,4.7-1.87,4.85-3.1,4.48A5.47,5.47,0,0,1,713.51,427.52Z"/><path class="cls-14" d="M683.84,479.64s6-3.1,5.74,2.75-6,3.21-6.31,1.26A7.89,7.89,0,0,1,683.84,479.64Z"/><path class="cls-14" d="M629.26,514.49s.8-4.81,4.59-2.29,2.64,5.27.92,5.85S628.69,519,629.26,514.49Z"/><path class="cls-14" d="M564,516.33s2.06-4.13,5.5-2.87,3,4.13,1.38,5.62a4.29,4.29,0,0,1-5,1C564,519.31,564,516.33,564,516.33Z"/><path class="cls-14" d="M511.62,485.37s2.29-3,5.39-.92-.35,6.19-.35,6.19-3.55.92-5.27-.91S511.62,485.37,511.62,485.37Z"/><path class="cls-14" d="M479.05,430.1s5.62-2,6,2.29-3.09,6-4.93,4.59S475.5,433.2,479.05,430.1Z"/><path class="cls-14" d="M477.22,369.33s1.26-3.67,4.47-2.87,3.09,2.52,2.52,4.47-2.64,3.67-4.47,3S477.22,369.33,477.22,369.33Z"/></g></svg>