<svg xmlns="http://www.w3.org/2000/svg" viewBox="0 0 800 800"><defs><style>.cls-1{fill:#3f9956;}.cls-2{fill:#f5f3ec;}.cls-3{fill:#d16322;}.cls-4{fill:#f3f0ef;}.cls-5{fill:#c95732;}.cls-6{fill:#bb4127;}.cls-7{fill:#c14f2e;}.cls-8{fill:#faf2f4;}.cls-9{fill:#802724;}.cls-10{fill:#1a245e;}.cls-11{fill:#d0d0cf;}.cls-12{fill:#de8b42;}.cls-13{fill:#d5d5d6;}.cls-14{fill:#f5f5f5;}.cls-15{fill:#161412;}.cls-16{fill:#db5a3c;}.cls-17{fill:#b5483a;}.cls-18{fill:#bb4232;}.cls-19{fill:#cd5a3c;}.cls-20{fill:#dc7451;}.cls-21{fill:#e4e7e8;}.cls-22{fill:#3060a4;}.cls-23{fill:#f7f400;}.cls-24{fill:#fff;}.cls-25{fill:#824579;}.cls-26{fill:#e3813f;}.cls-27{fill:#21151b;}.cls-28{fill:none;stroke:#8c3622;stroke-miterlimit:10;}</style></defs><g id="Layer_1" data-name="Layer 1"><rect class="cls-1" width="800" height="800"/></g><g id="Layer_2" data-name="Layer 2"><polygon class="cls-2" points="467.37 401.59 446.37 512.7 413.43 558.62 302.71 557.77 285.48 547.29 304.76 437.35 323.68 420.37 467.37 401.59"/><path class="cls-3" d="M467.37,401.59s-8.83,10.19-16.9,13-27.86-3.25-27.86-3.25l-93.7,23.34-4.48-.85s-14.55-.35-19.66,3.51l38.29-213.28,5.82,1.55,145.73,28.63,1.54,1.6Z"/><path class="cls-4" d="M497.64,248.73l-1.49,7.12s-22,7.1-71.26-3.87-73.06-18.48-81.83-27.91l1-5.92,138.21,11.92Z"/><path class="cls-5" d="M508.4,96.87s8.29,3,11.88,9.83,2.09,10.12,2.09,10.12l-5.89,7.93-77.65-8.89L369.89,96.12l-1.13-7.63s.6-5.15,6.1-9.13,14.3-4.4,14.3-4.4l30.48,3.16,81.44,19Z"/><path class="cls-6" d="M499.65,240.34l-2,8.39s-18.21,9.34-79.1-2.72-74.75-26-74.75-26l1.46-8.31Z"/><path class="cls-7" d="M522.21,116.52c-2.49,2.61-18.65,7.88-77.74-2.54s-75.71-25.53-75.71-25.53L345.49,211.78s1.33,15.47,78.32,28,75.84.53,75.84.53Z"/><path class="cls-8" d="M345.86,326.52a4.25,4.25,0,0,1-.15-2.37l5.81-30.28s-.12-2.32,3.31-4.21,58.29-20.17,58.29-20.17,5.93-1.78,8.45,1.49l42.93,39.38a4.69,4.69,0,0,1,1.39,2.29,21,21,0,0,1,.21,8.06c-.92,6.14-5.19,26.62-5.19,26.62s-.36,3.91-5.13,3.24-48.09.22-106.86-21.55A4.15,4.15,0,0,1,345.86,326.52Z"/><path class="cls-9" d="M388.71,80.05c10,6.56,27.43,13.08,54.17,18.87s59,7.89,65.06,5.92c3-1,3.16-3,2.52-4.75a7.42,7.42,0,0,0-4.18-4.19c-22.73-9.55-57.87-15.75-57.87-15.75a202.37,202.37,0,0,0-56.9-5.22c-.78,0-1.56,0-2.35,0C389.16,75,382.77,76.14,388.71,80.05Z"/><path class="cls-10" d="M348.23,322.84l5.66-29.41s-.4-1.32,2.89-3.09,56.48-19,56.48-19,4.69-1.68,7.12,1.41l43,39.71s1.57.9.7,6.7-4.9,25.15-4.9,25.15-.34,3.7-4.93,3.05-46.21.07-102.76-20.67A4,4,0,0,1,348.23,322.84Z"/><path class="cls-11" d="M369.49,306.63s1.09.33.82,1.09-1.13,2.57-1.13,2.57-.07.37-1.16.07c-1.41-.4-4.46-1.47-4.46-1.47l-1.38,3.2,4.48,1.4s1.35,0,1,1.46a13.22,13.22,0,0,1-.66,2.25s.16.63-1.77.09-4.35-1.37-4.35-1.37l-1.38,3.6,5.21,1.46s1.33.1.92,1.31l-1,2.46s0,.81-1.43.49-9.25-3.46-9.25-3.46a1.88,1.88,0,0,1-.72-2c.36-1.29,6.05-15.2,6.05-15.2s.24-1.31,2.09-.71S369.49,306.63,369.49,306.63Z"/><path class="cls-11" d="M373.37,308.93a.73.73,0,0,1,1-.45c.75.3,3.87,1.08,3.87,1.08s1,.29.65,1.15-5.76,12.59-5.76,12.59l6,1.57a1.09,1.09,0,0,1,.53,1.24c-.26.81-1,2.52-1,2.52s-.25.76-1.4.5-10.11-3-10.11-3-1.15-.31-.63-1.65S373.37,308.93,373.37,308.93Z"/><path class="cls-11" d="M380.4,329.15l7.82-15.93a1.4,1.4,0,0,1,1.45-.86c1,.14,3.9.73,3.9.73s1,.51,1,1.38-.31,9.09-.31,9.09a.48.48,0,0,0,.66.21c.5-.19,6.77-7.86,6.77-7.86s.75-.84,1.52-.7,3.5.66,3.5.66a1.15,1.15,0,0,1,.59,1.4c-.24,1.07-4.37,16.86-4.37,16.86s-.3.93-1.07.84-3.72-.75-3.72-.75-1.07-.28-.84-1,2.5-7.5,2.93-8.81c.05-.14,0-.18,0-.21s-.19.07-.19.07L392.23,332s-3.49,2.68-3.55-.9a87.51,87.51,0,0,1,.76-9.67c0-.13.06-.26-.1-.33s-.27,0-.27,0l-4.39,8.74s-.18,1-.72.94-3.4-.73-3.4-.73S380,329.87,380.4,329.15Z"/><path class="cls-11" d="M405.49,334.64l7.09-16.08a1.13,1.13,0,0,1,1.33-.74c1.08.14,10.8,1.86,10.8,1.86s.44.47.34.81-.53,2-.53,2a1,1,0,0,1-1.12.6c-.92-.07-5.86-1.21-5.86-1.21l-1.43,3.83,5.78.88s.63-.06.45,1a7.21,7.21,0,0,1-1,2.26s-.23.58-1.18.41-5.39-1.09-5.39-1.09l-1.7,3.87,6.45,1.36s.68.16.58.72a15.17,15.17,0,0,1-1,2.3s-.09.26-.92.2-12-2.17-12-2.17A.69.69,0,0,1,405.49,334.64Z"/><path class="cls-11" d="M436.43,333.69c-1-.92.27-1.08.27-1.08,5.07-1.45,4.83-4.59,4.83-4.59,1-5.89-2.63-6.44-2.63-6.44s-7.27-1-8.44-1.24-1.28.57-1.28.57L421.61,338a.74.74,0,0,0,.74.34s3.49.62,4.25.79.95-.88.95-.88,1.47-3.34,1.63-4,.54-.66.54-.66l1.2.3c.56.14.36.56.36.56s1.89,5.65,2.59,6.4a1.51,1.51,0,0,0,1.56.44,22.47,22.47,0,0,0,3.5-.88c.91-.43.24-1.38.24-1.38Zm0-6.15a4.62,4.62,0,0,1-4.73,2.44s-.56.22-.66-.47l2.3-5.05s.64-.69,1.1-.58S438,324.54,436.39,327.54Z"/><path class="cls-11" d="M442.85,326.63l3.12-4.88s.49-.88,1-.68,1.7.44,1.7.44a1.45,1.45,0,0,1,.5,1.53,61.79,61.79,0,0,1-4,5.26,1,1,0,0,1-1.05.24,5,5,0,0,1-1.36-1.25S442.66,327.12,442.85,326.63Z"/><path class="cls-11" d="M449.13,325.06s3.75-4.58,9-3c0,0,1.41.18,1.17,1.12a31.2,31.2,0,0,1-1.13,3.07,1,1,0,0,1-1,.68c-.78,0-2.81-.75-3.77.64s1.31,4.09,1.31,4.09,2.22,2.62,0,6.55c-1.68,3-5.45,3.69-7.12,3.85a5.11,5.11,0,0,1-1.46-.09l-2.64-.57s-.95-.56-.75-1,1.17-2.54,1.17-2.54.25-1.06,1.49-.65a7.88,7.88,0,0,0,3.64.12c.49-.18,2.49-.87-.69-5S449.13,325.06,449.13,325.06Z"/><path class="cls-12" d="M384.75,305.4s5.05-5.13,7.19-6.16,2.73-1.32,2.83-2.79a33.69,33.69,0,0,1-7.56-2.82c-2.75-1.66-1-4.24.06-4.76a57.4,57.4,0,0,1,5.42-2.8c1.5-.51,1.82-1,1.08-1.68s-1-3.23-.93-3.61-35.9,12.44-35.9,12.44-4.29,2.14-.29,3.86S384.75,305.4,384.75,305.4Z"/><path class="cls-12" d="M424.34,313.76a1.86,1.86,0,0,1-1.49-.6c-.8-.73-1.65-1.13-.64-2.13a19.69,19.69,0,0,0,3.84-2.68,5.18,5.18,0,0,0,1.36-3.88c-.1-1.36,1.92-3.28,2.61-3.41s3.72-.6,4-1.31,1.84-2.28-.51-5.63a20,20,0,0,1-2.78-2.85c-.16-.53.66-.89.66-.89a12.85,12.85,0,0,0,2.24-2.21c.28-.62,2.2,1.82,2.2,1.82l26.28,24s2.67,3.41-1,3.19S424.34,313.76,424.34,313.76Z"/><path class="cls-12" d="M400.85,278.19l12.34-4.59s3.07-1.46,5.2.77l9.48,8.39s1.53,1.61,0,1.48a5,5,0,0,1-2.79-1.45,2.59,2.59,0,0,0-1.54-1,17,17,0,0,1-2.34-.51c-.63-.21-1.72-1.87-2.61-1.94s-2.32.21-3.22-.37a2.75,2.75,0,0,0-2.84-.12,2.83,2.83,0,0,1-2.46.42c-1.29-.23-2.4-.95-3.84.18l-5.58-.79S400.21,278.32,400.85,278.19Z"/><path class="cls-13" d="M400.31,281s6.25.16,6.13,1.71,0,3.06-3.34,2.94-7.06-1.32-7.77-3.09-.26-3.42,1.36-4.16l1.43-.55a.37.37,0,0,1,.51.32C398.67,279,398.93,280.65,400.31,281Z"/><path class="cls-13" d="M409.37,284s1.89-.25,2.32.36,1,.85,1.45.66,2-.81,2.63.06,1.41,2.18,2.08,2,1.57-.79,1.94-.33a1.86,1.86,0,0,0,2.15.25c.48-.45,1.65.06,1.65.06s.59.47.27-.76-1.1-2.16-1.22-2.76-1.7-.75-2.59-1.05a3.74,3.74,0,0,1-1.76-1.25c-.21-.3-1.11-.28-1.64-.06a2.07,2.07,0,0,1-1.87-.38,2.06,2.06,0,0,0-2.26-.39c-.8.48-2.95,0-3.21-.08s-2.11,0-1.47.95a2.59,2.59,0,0,1,.57,2.12C408.32,284.08,409.37,284,409.37,284Z"/><path class="cls-13" d="M425.76,287l-1.15-1.29s-.15-.45.47-.25,2.83.83,3.49.57,1.54-.91,1.59-1.47,0-.42,0-.56.22,0,.33,0c.43.22,1.37.9,1.37,1.59a4.47,4.47,0,0,1-1,3.32c-1.24,1.24-4.11.27-4.11.27a6.42,6.42,0,0,1-.19-1.07C426.53,287.42,426.12,287.31,425.76,287Z"/><path class="cls-13" d="M424.78,294.53s0-.57.66-.3a26.11,26.11,0,0,1,2.47,1.46s1.08.53.72-.41a7.13,7.13,0,0,0-2.47-2.33c-.19,0-.61-.22-.52-.92s.21-1.41.21-1.41a.42.42,0,0,1,.66-.3,35.14,35.14,0,0,1,4.41,4.19s1.82,1.5,1.57,3.35-1.49,1.79-2.08,1.52a17.71,17.71,0,0,1-2.64-2.05A4,4,0,0,0,426,296.1C424.94,295.8,424.79,295.74,424.78,294.53Z"/><path class="cls-13" d="M425.29,303.58c-.45-.35.24-.8.24-.8s2.74-1.66,2.7-3.16-2-2.36-2-2.36-3.77-.6-5.22-.86a2.3,2.3,0,0,0-2.23.7c-.38.24-.5.32-.69.08s.63-.87,1-1.25,2-.12,2.55,0,.45-.43.83-1.24,1.46-.56,1.63-.56.29-.29.29-.29l.05-.5s.34-1.3.52-2.15-1-.55-1-.55a9.7,9.7,0,0,1-1.64.8c-.68.22-.66-.46-.58-.75a19.13,19.13,0,0,1,3.14-1.61,1.54,1.54,0,0,0-2.44-1.29,5.32,5.32,0,0,1-2.19.76s-1.05-1.51-2.2-.32-2.19-1.37-2.19-1.37a2,2,0,0,0-3.18-.49,1.44,1.44,0,0,1-1.72-.34,4.19,4.19,0,0,0-2.6-1.21c-.72-.16-2.47.88-3.86,1.53s-4.65.17-4.65.17c-4.61.08-10.44,3.53-10.44,3.53s-1.95,1.19,2.77,3.62,7.71,0,7.71,0c.27-.24.81-.28.76.29a.66.66,0,0,1-.48.65l-1,.3a2.72,2.72,0,0,0-1.82,2,5.22,5.22,0,0,1-1.89,2.62,28.64,28.64,0,0,0-3.21,2.56,5.74,5.74,0,0,0-1.65,3.36c-.08,1.36,1.44,2.05,1.95,2.14s5.5,1.23,8.86,2.25a41.87,41.87,0,0,1,8.78,4.19,13.54,13.54,0,0,0,5.76,1.86c1.25.12,2.2.13,2.62-1.39s-1.78-1.31-1.78-1.31c-.75.78-1.11.75-1.41.32s1.77-1.73,1.77-1.73,5.69-2.63,7.86-4.72S425.29,303.58,425.29,303.58ZM413.6,293.24a2.42,2.42,0,0,0-1.91.53,1.85,1.85,0,0,1-2.28.05c-.46-.33,0-1.6-.39-1.89s-1.68.63-1.68.63c-.35.45-.74-.06-.74-.06,1.36-2.5,4.65-1.48,5.22-.79A11.29,11.29,0,0,0,413.6,293.24ZM404.43,290c.58-1.76,1.53-2.14,2.81-3s2.65.4,2.65.4l2.18,2.19c.72.73.32,1.24-.28.86a25.38,25.38,0,0,1-2.4-2.31c-2-1.24-4.41,2.85-4.41,2.85-.58,1.21-.68.74-.68.74S403.84,291.72,404.43,290Zm-3.32.65A1.13,1.13,0,0,1,400,291a14.09,14.09,0,0,0-5.5-.33c-2.63.54-1.61-.1-1.61-.1,2-1.4,8.52-1.56,9-1.53s.39.29.39.29Zm3.39,17.91a13.49,13.49,0,0,0-3.06-2c-1.44-.6-2.85-1.47-3.19-2.55a4.13,4.13,0,0,1,.76-3.11c.24,0,1.05.3.88.67,0,0-.6,1.26.09,2a19.8,19.8,0,0,0,3,2.21,16,16,0,0,1,2,1.73C405.12,307.85,405.52,309.23,404.5,308.52Zm13-.81a5.25,5.25,0,0,1-1.17,1.69,9.36,9.36,0,0,1-2.46,1.46c-.69.09-2.44,0-2.94-.5a2.91,2.91,0,0,1-.64-.89s-.2-.61.42-.52a16.16,16.16,0,0,0,2.91.36,8.56,8.56,0,0,0,3.18-1.6C417.06,307.31,417.69,307.24,417.49,307.71Zm2.16-4.22a16.09,16.09,0,0,0-3.76-.19,10.85,10.85,0,0,1-5-.46c-1.62-.63-3.1-2.25-3.7-2.61s-.21-1.52.32-1.51,1.25-.28,1.55.36c0,0,1.1,2.32,2.27,2.8a18.32,18.32,0,0,0,5.77.71c2.26,0,2.72.56,2.72.56S420.29,303.54,419.65,303.49Zm4.94-1.76a3.13,3.13,0,0,1-3.73-.59,3,3,0,0,1-1-2.39c.05-.79,1-.2,1,0a2.12,2.12,0,0,0,1.76,2.29,2.83,2.83,0,0,0,2.83-1.62s.64-.65.77.11S424.59,301.73,424.59,301.73Z"/><path class="cls-14" d="M336.37,350.07s.5-5.79,4.78-4.91,61.64,18.38,114.38,14.52c0,0,7.11-1.55,5.55,7.33l-15,96.88s-.57,5-7.74,5.61-59.61,5-112.71-13.15c0,0-4.28-1-3.32-7.66S336.37,350.07,336.37,350.07Z"/><path class="cls-15" d="M340.91,354.25s0-2.63,2.36-2.05,37,9.38,53.68,11.47c18.44,2.31,48.87,3.68,56.19,1.57a2.32,2.32,0,0,1,2.24,3c-.53,3-13,87.84-13,87.84s-.19,3.09-2.14,3.34-39.13,8-109.3-10.54a2.72,2.72,0,0,1-2.63-3.11C328.66,442.85,340.91,354.25,340.91,354.25Z"/><path class="cls-16" d="M425.5,619l-15.65,79.67s-1.69,9.28-36.21,11.62c-10.5.71-49.14-5.54-69.23-11.35-38.23-11.06-43.53-27.08-43.53-27.08l17-80.76,99.59,1.66Z"/><polygon class="cls-17" points="295.5 601.64 280.4 678.16 279.72 681.1 268.76 674.82 285.67 594.43 295.5 601.64"/><polygon class="cls-18" points="335.28 611.55 320.09 694.98 302.47 689.94 318.27 605.81 335.28 611.55"/><polygon class="cls-19" points="383.56 612.5 367.32 701.86 348.11 699.43 362.73 616.55 383.56 612.5"/><polygon class="cls-20" points="390.7 701 403.65 698.78 418.69 618.8 404.42 620.03 390.7 701"/><path class="cls-17" d="M367.32,701.86c-8.25-4.58-19.21-2.43-19.21-2.43Z"/><path class="cls-17" d="M390.7,701s1.27-3,12.95-2.21Z"/><path class="cls-17" d="M302.47,689.94s11.27-.52,17.62,5Z"/><path class="cls-17" d="M268.76,674.82c14.49,2.3,11,6.28,11,6.28Z"/><path class="cls-21" d="M427.16,610.32,425.5,619s-17.16,14.61-68.13,2.5c-41.64-9.9-68.55-18.6-79.49-30.4l.84-8.15,61.85-11.32Z"/><path class="cls-22" d="M278.72,582.94l6.76-35.65s107.91-3.64,131.58-15.22S445,515.23,446.37,512.7l-19.21,97.62S368.87,632.29,278.72,582.94Z"/><path class="cls-23" d="M354.6,388.73s1.54-12.89,2-15.38,2.9-1.12,3-.35,2.75,7.5,2.75,7.5l.88-6.09s-.16-2.89,1.57-2.33,2.93.73,2,3.67-2.56,7.38-2.7,12.16-3.57,1.82-3.75,1.53.15-3.28-.06-5.56a11.38,11.38,0,0,0-1.15-4l-1.6,8.9S357,391.61,354.6,388.73Z"/><path class="cls-23" d="M376.56,380.84a36.77,36.77,0,0,0-4-1.65c-1.58-.43-4,.79-4,.79a7.19,7.19,0,0,0-2.31,4.19,10.83,10.83,0,0,0,.84,5c.68,1.08,2.5,2,4.9,2.47s4.57-1.42,5.11-1.89,1.13-4,1.22-4.91S377.9,381.36,376.56,380.84Zm-1.23,4.51c-.43,1-1.45,3.13-2.68,3.19a3.16,3.16,0,0,1-3.39-2.46,3.59,3.59,0,0,1,1.49-3.12,2,2,0,0,1,1.7-.31,4.28,4.28,0,0,0,1.8.39A1.77,1.77,0,0,1,375.33,385.35Z"/><path class="cls-23" d="M381.27,376.55c-2.83,1.88-.45,3.34-.45,3.34l1.31.2-1,10.45c2.22,3.27,3.37,0,3.37,0l.8-10.87,2,.1c1.89-2,0-3.15,0-3.15l-1.55-.14.27-3c-1.63-2.9-3.05-.11-3.05-.11l-.42,3Z"/><path class="cls-23" d="M388.93,392.42,390.46,374s1.64-3.17,3.49-.19l-.36,6.59s4.25-.82,5.82,1.31,1.87,2.19,2,4-.51,7.33-.51,7.33-.92,4-3.71-.24l.57-7.06s-.46-2.24-1.94-2.37-2.3,1.21-2.35,2.75-.4,6.5-.4,6.5S391.54,395.69,388.93,392.42Z"/><path class="cls-23" d="M403.62,384.81l-.56,8.49s1.21,2.65,3,0l.38-8.42S405.17,381.58,403.62,384.81Z"/><path class="cls-23" d="M405.14,377.81s-3.48,2.6-.11,3.35S407.73,378.21,405.14,377.81Z"/><path class="cls-23" d="M409.86,384.3,409,394.54s1.79,2.86,3.63.26l.3-6.59s.68-2,2-1.76,1.71.7,1.73,1.7-.51,7.07-.51,7.07,1.95,3,3.74.27l.67-6.4s-.21-5.09-3.83-5.46a18.2,18.2,0,0,0-3.92-.06v-1.22s-2-1.33-3-.26Z"/><path class="cls-23" d="M432.66,402.57c.13-.78,0-4.71,0-5.65,0-.15,0-.28,0-.42L433.8,387c0-.64-.71-1-1.33-1.1a16.41,16.41,0,0,0-3.28-.58c-1.5-.1-4-.82-5.13,3.32s-.83,7.4.74,8a26,26,0,0,0,4.61.76,1.38,1.38,0,0,1,.95,1.62c-.12,1,0,2.59-.92,2.52-1.17-.09-3.7.3-4.17-.55s.54-2.12.42-2.66-1.61-.57-2-.35c-.87.54-1.57,4.19-.92,5.06s2,1,4.64,1.21a15.13,15.13,0,0,0,4.71-.36C432.66,403.75,432.62,402.83,432.66,402.57Zm-2.13-9.11c-.79,1.11-1.18,1-3.06,1.08s-1.68-2.53-1.34-3.38,1-2.71,2.08-3.1,3.29,1.19,3.16,1.93S431.32,392.35,430.53,393.46Z"/><path class="cls-24" d="M338.63,409.62l2.11-15.53s1.82-2.41,2.93.2c0,0-.6,4.16.2,5.13a2.46,2.46,0,0,0,2.79.21,29.4,29.4,0,0,0,1.19-5.14c0-.5,2.66-1.93,3.28.19l-2.05,16.13s-1.48,3-3.54-.29l.88-6.76s-2.06-1.84-3.49-.7l-.82,6.84S340.78,413.3,338.63,409.62Z"/><path class="cls-24" d="M362.06,405.27s-.18-1.6-.6-1.77a2.64,2.64,0,0,0-1.91.17l-.37.32-1-.4-.3-.11a4,4,0,0,0-4.07.77c-1.76,1.8-2.23,3.31-2,4.88s.83,2.71,3,3.57a4.3,4.3,0,0,0,3.84-.27s.26,1,.44,1.05,1.78.69,2-.05S362.06,405.27,362.06,405.27Zm-3.69,4.41c-1.43,1.73-3.75-.35-3.75-.35-.54-1.52,1-3.41,1-3.41.23-.71,1.43-.45,1.43-.45a2.22,2.22,0,0,0,1.61,1.19C359,406.79,359.81,408,358.37,409.68Z"/><path class="cls-24" d="M371.23,405.07s-4.36-1.07-5.49.14-2.15,2.7-.88,3.84a6.57,6.57,0,0,0,3.65,1.26c.4.06,1.88,1.22,1.34,2.1a2,2,0,0,1-3,.13c-.88-1-1.46-2.26-2.23-2.09a1.62,1.62,0,0,0-.65,2.64c.91,1.29,1.08,2.06,3.24,2.71s4.1.5,5-1.14a3.94,3.94,0,0,0,0-4.24,4.22,4.22,0,0,0-2.16-1.79c-.79-.18-2.13-.73-2.33-.76s-1.28-1.06.07-.94a7.1,7.1,0,0,1,2.77.7c.44.27,1.74.8,1.75-.23S372.57,405.26,371.23,405.07Z"/><path class="cls-24" d="M399.85,432.49l-1,10.4s1.77,2.94,3.68.33l.42-6.7s.72-2.06,2.1-1.75,1.72.75,1.72,1.76-.64,7.18-.64,7.18,1.92,3.13,3.79.35l.79-6.5s-.13-5.18-3.79-5.63a19,19,0,0,0-4-.13l0-1.24s-2-1.39-3-.31Z"/><path class="cls-24" d="M419.62,434.31l-1,10.34s1.76,2.92,3.65.32l.42-6.65s.72-2.05,2.08-1.74,1.71.74,1.72,1.75-.64,7.13-.64,7.13,1.91,3.11,3.76.34l.79-6.45s-.12-5.15-3.77-5.59a18.75,18.75,0,0,0-4-.13l0-1.23s-2-1.38-3-.31Z"/><path class="cls-24" d="M440.14,452.06c.14-.8.58-4.72.58-4.72l.69-9.36c0-.58-.63-.88-1.2-1a15.83,15.83,0,0,0-3-.58c-1.36-.11-3.66-.81-4.7,2.92s-.87,6.68.55,7.24a24.24,24.24,0,0,0,4.17.76,1.24,1.24,0,0,1,.84,1.48c-.12.9,0,2.35-.87,2.27-1.07-.11-3.37.2-3.78-.58s.52-1.9.42-2.39-1.46-.54-1.79-.35c-.8.48-1.49,3.77-.91,4.56s1.77.92,4.2,1.17a14.21,14.21,0,0,0,4.29-.24C440.13,453.12,440.1,452.29,440.14,452.06Zm-1.8-8.27c-.73,1-1.09.84-2.8.92s-1.49-2.32-1.16-3.08.95-2.43,1.93-2.77,3,1.13,2.84,1.8A6.82,6.82,0,0,1,438.34,443.79Z"/><path class="cls-24" d="M372.84,437.87l-.52-12.19s-2.56-3.53-3.91-.77l-1.88,6.63-1.62-6.49s-1.85-3.6-2.9-.68-2.25,8.48-2.25,8.48l-1.28,4.56s.55,4.2,3,1.19l1.55-6.58,1.44,6.34s2.21,2.46,3.37-.27l1.75-6-.08,5.95S372.43,442.28,372.84,437.87Z"/><path class="cls-24" d="M383.9,437.42a1.43,1.43,0,0,0-2.25-1.08s-2.46,2.8-3.9,1.43A3.86,3.86,0,0,1,377,436s4.11.4,5.68-.54a2.7,2.7,0,0,0,.66-1.73s.46-3.27-1.62-4.11a4.82,4.82,0,0,0-5.55,1.33c-1,1.45-2.3,5.06-1.64,7.22a4.92,4.92,0,0,0,3.81,3.27c1.22.28,3-.67,3.87-1.43S384,438,383.9,437.42Zm-5.74-4.9c.14-1,1.4-.41,1.9-.28s.28,1.24.21,1.57-2.36.28-2.26-.28C378.06,433.28,378,433.53,378.16,432.52Z"/><path class="cls-24" d="M396.88,432.7s-.27-1.83-.75-2A3,3,0,0,0,394,431l-.41.38-1.18-.42-.35-.11a4.52,4.52,0,0,0-4.62,1.06c-1.95,2.15-2.43,3.91-2.11,5.7s1.06,3.1,3.61,4a4.93,4.93,0,0,0,4.38-.47s.34,1.17.54,1.19,2.07.72,2.24-.14S396.88,432.7,396.88,432.7Zm-4,5.24c-1.58,2.05-4.31-.25-4.31-.25-.67-1.73,1-4,1-4,.24-.83,1.63-.59,1.63-.59a2.47,2.47,0,0,0,1.87,1.31C393.44,434.58,394.41,435.89,392.84,437.94Z"/><path class="cls-24" d="M413.23,434.9l-.79,9.41s1.28,3,3.29.05l.58-9.34S415,431.35,413.23,434.9Z"/><path class="cls-24" d="M415,427.38s-3.89,2.82-.19,3.72S417.86,427.88,415,427.38Z"/><path class="cls-24" d="M395,408.43l-.74,9s1.59,2.51,3.2.23l.27-5.8s.59-1.79,1.79-1.54,1.52.62,1.54,1.49-.45,6.22-.45,6.22,1.72,2.68,3.3.24l.59-5.62s-.19-4.49-3.39-4.81a16,16,0,0,0-3.47-.06v-1.07s-1.76-1.18-2.62-.23Z"/><path class="cls-24" d="M412.07,422.53c.17-1,0-2.78-.48-2.75-1.3.09-2.66.42-3.58-.27a4,4,0,0,1-1.67-3.76,37.4,37.4,0,0,1,.74-6.06c.51-1.63,2.94-.88,3.13.16s-1.71,7.95.92,7.18c1.29-.38,1.08-2.31,1.15-4.06a13.32,13.32,0,0,1,.69-3.68c.39-1,2.5-1.16,3-.08.66,1.46,0,3.65-.57,6.4s-.67,9.45-1.35,11.15c-.48,1.16-6.11,1.39-8.26-.33a3.06,3.06,0,0,1-.62-1c-.41-.87-.35-2.74.49-3.21a1.63,1.63,0,0,1,1,.11c1.74.6.21,2.38,2.46,2.52,1,.07,2.35.21,2.48-.15S412,423.18,412.07,422.53Z"/><path class="cls-24" d="M389.74,402.74s-.41-3.65-2.57-4.09-2,3.2-2.11,3.77-3.14,14.52-3.14,14.52a1.63,1.63,0,0,0,2.67.07s1.08-5.83,1.12-6.23,2.07-.48,2.59.06.77,4.26,1.79,6.49,2.76,0,2.76,0ZM388,408.36c-.38.41-2.08.16-2.08.16-.06-2.55.64-3.89,1.55-4.24S388.48,407.83,388,408.36Z"/><path class="cls-25" d="M322,469.66c-.46-.18-1.53-1.46-3.27-1.17s-.73,3-.73,3l-2,10.27s-.54,3.08,2.15,3.56,4.56.6,5.65-.5,1.22-1.87,2.26-6.65S322.48,469.84,322,469.66Zm.91,12.27c-1.4,2.33-4.24-.15-4.24-.15l1.29-9c.92-1.82,3.27,2.29,3.53,2.53S324.33,479.6,322.92,481.93Z"/><path class="cls-25" d="M327.52,477.26l-1.26,10s1.69,2.73,2.77.49l1.28-9.72S329.1,474.62,327.52,477.26Z"/><path class="cls-25" d="M328,472.43s.66-1.62,1.93-.72,1.08,2,.83,2.33-1.57,1.15-2.39.14A1.57,1.57,0,0,1,328,472.43Z"/><path class="cls-25" d="M339.54,476.46a5.22,5.22,0,0,0-4.43-2c-2.67.34-3.64.85-3.8,2.13s-.06,3.16,1.39,4.1a10.54,10.54,0,0,0,3.38,1.28,4,4,0,0,1,1.66.85c.67.47,1,2.67,1,2.67s-.21,2.58-1.22,2.33c0,0-3.14-.18-3.74-1a12.81,12.81,0,0,1-1.15-2.63s-2-2.27-1.93,0,.22,3.33,1.53,4.37a11.15,11.15,0,0,0,4.94,1.93c1.52.2,2.71-.21,3.17-1.74s.58-4.38.06-5.28-1-2.66-2.64-3.39a25,25,0,0,0-3.64-1.2c-.53-.15-1.47-1.56-.53-2s1.5-.73,2.34-.21,1.78.88,1.91,1.52,1.05,2.18,1.58.9S340.13,477.31,339.54,476.46Z"/><path class="cls-25" d="M356.9,479.42c-.26-.87-2.37-.55-2.37-.55-.76-.34-.78,1.3-.78,1.3l-.52-.57c-.7-1.43-2.51-1.68-5.48-2s-5.1,4.39-5.1,4.39c-.44,2.53-1.38,6.28.79,8.79s6.61,2.6,7.27,2.38a7.88,7.88,0,0,1,2.07-.18c.17.14,0,.52.13.61a2.25,2.25,0,0,0,2.08.18S357.16,480.29,356.9,479.42Zm-4.71,8.44c-.67,2.21-1.12,2.82-1.85,3.1a5.2,5.2,0,0,1-5.12-2.13c-1.52-2.26,1.42-7.65,1.42-7.65,1.52-1.24,3.65,0,5.2.85S352.86,485.64,352.19,487.86Z"/><path class="cls-25" d="M369.81,483.5c.05-1.34-2.85-3.38-3.93-3.77a35.44,35.44,0,0,0-4.47-.78s.13-.75-1.48-1-2.18,1.47-2.68,2.53,1.74,2.1,1.74,2.1l-.63,3.91a1.05,1.05,0,0,0-.19,1.44l-1.07,5.37-.47,1.2c.48,2,3.25.76,3.25.76l1.58-6.43,1.85.39c1.85.39,5.57-1.13,6-1.76S369.77,484.83,369.81,483.5Zm-4.71,3.19c-.26,0-3.5-.49-3.5-.49l.47-4.45s3.75-.24,4.59,1.89A2.26,2.26,0,0,1,365.1,486.69Z"/><path class="cls-25" d="M383.09,485c-.42-2.15-3.66-2.44-3.66-2.44l-4.54-.61s-.09-.81-1.16-.86c-.59,0-1.47.3-1.66,1.68s-3.53,13.05-3.53,13.05c.79,1.69,2.36.51,2.36.51a40.43,40.43,0,0,0,1.47-4.06c.16-.91.67-1.43,1.44-.73s4.41.82,5.57.93,2.86-1.28,3.7-2.87S383.51,487.17,383.09,485Zm-2.92,4.32s-1.12,1.31-2.12,1.08-4-.8-4.3-1.18a.77.77,0,0,1-.17-.64l.73-3.35a2.09,2.09,0,0,1,2-1.06l3,.52s1.68.82,1.64,1.89A11.09,11.09,0,0,1,380.17,489.35Z"/><path class="cls-25" d="M383.15,496.28l1.23-5.21a2.45,2.45,0,0,1,.31-1.75l.73-3.85a1.45,1.45,0,0,1-.1-2.08,1.9,1.9,0,0,1,2.4-.45,22.43,22.43,0,0,0,5.14.13c2.14-.09,2.56,1,2.48,1.47a2.07,2.07,0,0,1-1.7,1.45c-.88,0-4.13-.31-4.13-.31s-1.49-.31-1.7.58-.48,2.39-.48,2.39a1.08,1.08,0,0,0,.84.82c.7.12,4.53.7,4.53.7s2.48,1.42.08,2.18l-5.11-.9s-.81.17-.88.57l-.6,3.4s.39,1,.78,1.17a17.4,17.4,0,0,0,4-.07c.64-.14,2.06.31,1.93.75s-.4,2-1.41,1.82-4.71-1.09-5.17-.81-1.88,1-2.67.51A1.88,1.88,0,0,1,383.15,496.28Z"/><path class="cls-25" d="M406.51,497.57c.06-2.21,1.75-11.54,1.87-12.24s-1.33-.9-2.19-1-1,1.46-1,1.46a1.72,1.72,0,0,1-1.42-.39,6.63,6.63,0,0,0-3.34-1c-1.33-.09-3.86,1.39-4.68,2.79s-2.11,6-1.84,7.18.83,1.55,2.5,3a7.22,7.22,0,0,0,3.1,1.28,5.68,5.68,0,0,0,3.83-.61c.36-.19.67-.26.75,0,.21.71,1.35,1.05,1.35,1.05S406.46,499.77,406.51,497.57Zm-3.65-2.23c-.46,1-3,1.53-4.31,1s-2.05-2.29-1.59-4.9a5.64,5.64,0,0,1,2.3-3.74,4.37,4.37,0,0,1,1.94-.91c.93-.07.71,1.43,1.56,1.82s2.31-.85,1.95,1.74A14.47,14.47,0,0,1,402.86,495.34Z"/><path class="cls-25" d="M417.41,498.33a39.22,39.22,0,0,0-1.75-4.62.67.67,0,0,1,.29-1,6.77,6.77,0,0,0,2.49-1.09c1-.8,1.08-2.75,1.16-4.1a3.09,3.09,0,0,0-1.83-2.62,27.22,27.22,0,0,0-3.55-.62c-.31-.11-.58-.71-1.43-.86a3,3,0,0,0-2.81,2,1.49,1.49,0,0,0,.79,2.05l-.95,3.49a1.79,1.79,0,0,0-.43,2.43l-1.36,4a2,2,0,0,0,.94,2.08c.51.25,1.47-1.49,1.47-1.49l1.12-4.22c.55-.94,2,.79,2,.79a28.41,28.41,0,0,0,1.83,5.4c.92,1.58,1.78.74,2.08.58S417.41,498.33,417.41,498.33Zm-4.22-7.95c-.68-.12-.48-.95-.48-.95l.39-2.55s.4-1,1.33-.7,3.22.57,3.16,1.87-1.15,3.12-2.33,2.7Z"/><path class="cls-25" d="M420.86,489.41l-1.54,9.18s.07,1.69,1,1.77a1.38,1.38,0,0,0,1.49-.94c.06-.35,1.07-8.1,1.07-8.1s.41-2.33.14-2.62S420.94,487.86,420.86,489.41Z"/><path class="cls-25" d="M421.06,486.48a1.86,1.86,0,0,0,2.37,0c1.29-1-.24-4.09-1.58-2.65A2.54,2.54,0,0,0,421.06,486.48Z"/><path class="cls-25" d="M422.65,498.58l1.46-8.52.78-4.39s.44-1.6,1.43-1.11a2.6,2.6,0,0,0,2.35-.1c.56-.23,1.68-1.39,3.07-.62A2.86,2.86,0,0,1,433.5,487c-.25,1.4-1.49,10.47-1.49,10.47s-.46,1.24-.89,1.21-1.4-.49-1.32-1.12.85-5.29.85-5.29l.67-4s-.26-2.41-1.88-1.62a6.55,6.55,0,0,1-2.07.8s-.63.21-.7,1.24-1.58,10.1-1.58,10.1-.37,1.21-1,1.1S422.71,499.63,422.65,498.58Z"/><path class="cls-25" d="M440.89,493.54l.78-5.09s.85-6.15,1-7-.31-1.22-.74-.92-.54,1.25-.54,1.25l-1.06-.31a4.41,4.41,0,0,0-2.58.5,4.82,4.82,0,0,0-2.2,2.58c-.28.71-1.26,4-.76,5.89s2.93,1.12,4.07.72,1,.73.89,1.47.2.9-.8,1.64-1.68,1-2.15.49.42-.83.7-1.74-.9-.71-1.27-.89-1.12,1.42-1.42,2.24a3.62,3.62,0,0,0,.13,2.84c.47.92,2.08.56,2.28.56a21.79,21.79,0,0,0,3.09-2.23A5.48,5.48,0,0,0,440.89,493.54Zm-.62-6.8a2.76,2.76,0,0,1-1.77,2.14c-.59.18-1.67.74-1.87-.64a5.78,5.78,0,0,1,1-3.19c.8-1.37,2-.68,2.49-.43S440.49,485.47,440.27,486.74Z"/><path class="cls-25" d="M354.48,496.54c-1-1-5-.61-5.17-1.05s-.82-.49-1.74-.38-.65,2.12-.65,2.12L344.17,510c0,1,.79,1.46,1.56,1.81s1.45-1.14,1.45-1.14.71-3.63.92-4.78,1,0,1.29.16a15.65,15.65,0,0,0,3.38.95c.9,0,2.94-.88,4-4.6A5.6,5.6,0,0,0,354.48,496.54Zm-1.76,8c-.88-.15-3.66-.57-3.82-1.65l-.16-1.07.35-2.37s.52-1.37,1.47-1.2,3.87.12,3.89,2S353.6,504.74,352.72,504.58Z"/><path class="cls-25" d="M359.93,499.14s-3.47,4.67-3.58,8.37-.83,6.07,2.65,6.93,4.32-.37,4.32-.37.87-.53,1.33-.06a1.24,1.24,0,0,0,2,0c.58-.77,1.23-10.06,1.93-13.16s-2.5-3-2.67-2.33-.93.52-.71,4.57a16.35,16.35,0,0,1-1.75,7.67,2.93,2.93,0,0,1-2.76.69c-1.68-.45-2.23-.94-1.81-2.77s.55-3.43,1.81-5.31,2.58-3.22,1.74-4S360.74,498.45,359.93,499.14Z"/><path class="cls-25" d="M377.15,509.08a8.9,8.9,0,0,0,2.42-1.44s1.05-1.5,0-4.2-4.86-2.79-4.86-2.79c.08-.83-1.16-1.29-1.51-1.35a5.25,5.25,0,0,0-2.67,2.18c-.2.81,1.25,2.09,1.25,2.09s-.31,2.47-1,3a1.61,1.61,0,0,0-.45,1.54l-2,5.31a1.84,1.84,0,0,0,1.35,1.93c.74.19,1.15-1.43,1.15-1.43a21.77,21.77,0,0,1,1.42-4.32c.67-1,1.82.26,1.82.26l1.54,5.63a1.77,1.77,0,0,0,1.8,1.4c.48,0,.55-1.77.55-1.77s-1.18-3.58-1.39-4.76S376.48,509.14,377.15,509.08ZM374.57,507a5,5,0,0,1-.94-1.49l.4-2.27a1.33,1.33,0,0,1,1.28-.44c.68.24,1.9.46,2.38,1.5s-.62,2.84-.62,2.84A7,7,0,0,1,374.57,507Z"/><path class="cls-25" d="M391.94,515.31s1.1-8.49,1.17-10.46,1.05-2.46,1.38-2.4,1.32.51.86,3.42-1.2,8.08-1.2,8.08-.39.66.74,1,5.34,1.05,5.34,1.05,1.75.31,1.3,1.58-1,1.41-2,1.24-5.19-1.26-5.19-1.26-.49-.14-.7.11-2.29.83-2.68-.14A1.67,1.67,0,0,1,391.94,515.31Z"/><path class="cls-25" d="M390.44,503l-4.76-1.8c-.45-1.6-2,.22-2.88.68s-1.31,2-1,2.3a6.46,6.46,0,0,0,1.37.86s-.5,3.13-1,3.43-.35,2-.35,2L380,516c0,.69.77,1,1.51,1.34s1.33-.84,1.33-.84.77-3.08,1.07-4.44.82-1.15,1-1.11a20.62,20.62,0,0,0,3,0c.69-.1,3.43-1.87,4-4S390.44,503,390.44,503Zm-2,5a4.68,4.68,0,0,1-3.43,0l.85-4.19s2.25.14,3,1.42C389.42,506.23,389.92,507.28,388.48,508Z"/><path class="cls-25" d="M410.44,510.86c-.39-.35-1.78,1.15-2.7,2.52s-2.43,1.26-3.89.89-1.85-1.68-2.21-2.53,2.69-1.45,2.69-1.45,4.69-.64,5.59-.94.38-1.85.38-1.85a16.55,16.55,0,0,0-1.51-4.22c-.93-1.47-3.2-.79-5-.55s-3.54,4.41-3.54,4.41-1.57,5,.18,7.6,4,2.33,5.85,2.11,3.4-2,4.22-3.44S410.83,511.21,410.44,510.86Zm-6.89-5.46c.73-.26,2.2-1.25,3.45-.35,0,0,1,1.26.95,2l-5.44,1.07S402.82,505.67,403.55,505.4Z"/><polygon class="cls-26" points="331.56 391.48 334.05 388.9 331.75 406.79 329.24 409.18 331.56 391.48"/><polygon class="cls-26" points="332.43 383.07 335.06 381.07 337.64 362.61 334.84 365.2 332.43 383.07"/><path class="cls-26" d="M338.46,355.12l.18-3.79s1.05-1.79,2.29-1.82a14.34,14.34,0,0,1,3.18.5l2.56-2.32-5.39-.83a3.11,3.11,0,0,0-2.82,1.29c-1.07,1.54-1.31,1.5-1.57,3s-.59,5.44-.59,5.44Z"/><polygon class="cls-26" points="352.88 349.89 369.18 353.51 365.83 356.12 349.45 352.56 352.88 349.89"/><polygon class="cls-26" points="377.52 355.47 395.53 358.52 392.53 361.2 374.56 357.97 377.52 355.47"/><polygon class="cls-26" points="401.24 362.12 405.09 359.53 422.8 361.11 419.74 364.52 401.24 362.12"/><polygon class="cls-26" points="428.67 364.49 432.17 361.41 447.46 361.39 444.9 365.07 428.67 364.49"/><path class="cls-26" d="M452.14,363.82l3.59-3.25s3.23-1.15,3.78,2a20,20,0,0,1-.44,7.06l-2,2.74.79-5.16s-.35-4-1.76-3.7A26.37,26.37,0,0,1,452.14,363.82Z"/><polygon class="cls-26" points="454.44 385.67 455.2 380.68 457.89 378.01 455.34 395.09 453.16 398.19 454.44 385.67"/><polygon class="cls-26" points="451.64 405.84 454.36 402.65 451.55 420.56 448.88 424.16 451.64 405.84"/><polygon class="cls-26" points="447.65 431.1 450.42 428.27 447.77 445.27 445.05 449.16 447.65 431.1"/><path class="cls-26" d="M444.05,456.49l2.74-3.65-1.29,9a11.79,11.79,0,0,1-1.92,2.63c-.81.62-2.63,2-3.87,2.11l-3.8.79,2.55-3.57s3.26.29,4.56-2.11A10.22,10.22,0,0,0,444.05,456.49Z"/><polygon class="cls-26" points="432.49 464.29 417.65 465.23 412.88 468.87 429.54 467.79 432.49 464.29"/><polygon class="cls-26" points="405.65 468.23 409.38 465.22 391.1 463.63 386.04 466.87 405.65 468.23"/><polygon class="cls-26" points="378.86 466.3 382.1 463.5 363.42 460.14 358.86 463.24 378.86 466.3"/><polygon class="cls-26" points="351.38 461.75 355.51 458.75 338.06 454.74 333.78 457.89 351.38 461.75"/><path class="cls-26" d="M329.84,454.45l2-1.57A8.2,8.2,0,0,1,327,451c-2-1.81-.28-7-.28-7l.62-3.5-3.24,2.51-1,6.22a8.4,8.4,0,0,0,1.49,3.41c.38.44.69.87,1,1.27A3.11,3.11,0,0,0,329.84,454.45Z"/><polygon class="cls-26" points="328.39 432.66 330.58 414.3 327.31 417.33 324.97 434.21 328.39 432.66"/><path class="cls-27" d="M324.44,575.54,326,567l-2.34-.42-5.24,7.56-.41,1.66,4.2.74-.49,2.77,1.74.3.37-2.1,1.13.26.42-2Zm-1.89-.83-2.12-.62,2.91-3.88Z"/><path class="cls-27" d="M333.69,571.23a2.67,2.67,0,0,0-1.13-2.74,8.53,8.53,0,0,0-3.17-.62c-1.15.17-1.84,2-1.84,2L326.11,578c-.31,1.8,1.28,3.63,1.28,3.63s1.64.22,2.54.38,2.24-1.83,2.24-1.83S333.41,573.16,333.69,571.23Zm-4.56,9c-.6-.11-1.56-1.33-1.56-1.33l1.62-7.76c.08-1.17,1.1-1,1.64-.89s.72,1.18.72,1.18-1.15,7.23-1.26,7.83A1,1,0,0,1,329.13,580.21Z"/><path class="cls-27" d="M342.54,575.08c-2.45-3-4.17.13-4.17.13l-1.4,6.88a1.63,1.63,0,0,0,1.46,2.06c.59.16,2.53.25,2.52.35s0,.4-.15,1.07-.43.82-1.26.74a1.21,1.21,0,0,1-1-.84l-1.72-.3,0,.61c.25,1.4,2.11,2,3.47,2.4s2.52-1.29,2.52-1.29l2-11.29Zm-.09,1.78s-1.06,5.7-1.3,6.15-.48.26-1,.18-.78-.92-.78-.92.76-4.63.94-5.65.24-.68.24-.68l1.78.32C342.63,576.24,342.45,576.86,342.45,576.86Z"/><path class="cls-27" d="M351.88,589.73a16.48,16.48,0,0,1,0-7.31c1-3.81,1.15-6,3.49-7.83,0,0-.58-.93-1.76-.1s-3.71,4.14-3.94,6.63-.71,4.75-.2,6.54a7.56,7.56,0,0,0,1.8,3.37C351.59,591.12,352.08,590.47,351.88,589.73Z"/><path class="cls-27" d="M356.93,588.51l1.69-9.59-2.16-.67.24-1.36,1.76.39s1.57-.26,1.94-1.19l1.39.33L359.54,589Z"/><polygon class="cls-27" points="364 587.4 363.73 589.83 365.69 590.17 366.11 587.81 364 587.4"/><path class="cls-27" d="M374.87,586.55l1.46-7.84-2.39-.46-5.54,7.38-.31,2,4.36.77-.44,2.51,1.71.3.45-2.55,1.55.32.43-2Zm-4.81-.55,3.24-4.34.35.07-.74,4.8Z"/><path class="cls-27" d="M387.28,584.29a1.47,1.47,0,0,0-.87-1.81s-2.36-.42-3.24-.46-1.63,1.93-1.63,1.93l-1,5.1a2.35,2.35,0,0,0,1.33,2.71s1.8.28,2.87.47,1.38-1.13,1.38-1.13S387,585.76,387.28,584.29Zm-2.82,5.9a1.48,1.48,0,0,1-.79.3,4.54,4.54,0,0,1-.65,0s-.84-.08-.78-.4l.5-2.46.68-3.42s.09-.5.72-.28l.68.12s.9-.1.8.66S384.46,590.19,384.46,590.19Z"/><polygon class="cls-27" points="387.82 590.22 391.49 585.3 388.46 584.69 388.93 582.26 394.81 583.48 389.93 590.63 393.04 591.18 392.66 593.33 387.49 592.09 387.82 590.22"/><path class="cls-27" d="M396.09,580.49s.14-1.69,1-.61,1.92,3.82.12,9.62-3,7-3,7-1.29,0-1-.74a27.55,27.55,0,0,0,3-7.72A15.75,15.75,0,0,0,396.09,580.49Z"/><path class="cls-28" d="M411.82,106.76,389.57,233c2.49.62,5.12,1.24,7.91,1.85l22.21-126Q415.55,107.79,411.82,106.76Z"/><path class="cls-28" d="M435.55,112.31,413.38,238c2.56.47,5.23.93,8,1.39l22.15-125.59Q439.4,113.07,435.55,112.31Z"/><path class="cls-28" d="M419.69,108.81l-22.21,126c2.52.56,5.16,1.12,7.94,1.68L427.6,110.65Q423.48,109.74,419.69,108.81Z"/><path class="cls-28" d="M427.6,110.65,405.42,236.48c2.55.51,5.19,1,8,1.53l22.17-125.7C432.8,111.77,430.15,111.21,427.6,110.65Z"/><path class="cls-28" d="M396.2,101.91,373.88,228.52c2.39.78,5,1.56,7.82,2.36L404,104.48Q399.79,103.19,396.2,101.91Z"/><path class="cls-28" d="M404,104.48,381.7,230.88c2.45.68,5.07,1.38,7.87,2.07l22.25-126.19Q407.67,105.62,404,104.48Z"/><path class="cls-28" d="M368.76,88.45,345.49,211.78s.22,2.51,5.51,6.33l22.31-126.5A32.58,32.58,0,0,1,368.76,88.45Z"/><path class="cls-28" d="M388.48,99,366.12,225.78c2.32.9,4.89,1.81,7.76,2.74L396.2,101.91Q392,100.43,388.48,99Z"/><path class="cls-28" d="M373.31,91.61,351,218.11a50.32,50.32,0,0,0,7.47,4.36L380.83,95.64A82.53,82.53,0,0,1,373.31,91.61Z"/><path class="cls-28" d="M380.83,95.64,358.47,222.47c2.17,1.06,4.7,2.17,7.65,3.31L388.48,99C385.56,97.82,383,96.7,380.83,95.64Z"/><path class="cls-28" d="M483.72,119.37l-22.1,125.35c2.93.24,5.63.43,8.13.56l22.1-125.34Q488.08,119.75,483.72,119.37Z"/><path class="cls-28" d="M508.32,120,486.23,245.27a41.53,41.53,0,0,0,8.48-1.37l22.05-125.07A54.49,54.49,0,0,1,508.32,120Z"/><path class="cls-28" d="M491.85,119.94l-22.1,125.34c3,.16,5.75.24,8.2.25l22.1-125.34Q496.35,120.16,491.85,119.94Z"/><path class="cls-28" d="M500.05,120.19,478,245.53c3.21,0,5.95-.08,8.28-.26L508.32,120C505.94,120.12,503.2,120.21,500.05,120.19Z"/><path class="cls-28" d="M522.21,116.52c-.66.7-2.29,1.58-5.45,2.31L494.71,243.9c5.13-1.52,4.94-3.56,4.94-3.56Z"/><path class="cls-28" d="M444.47,114l-1-.17L421.37,239.4l2.44.41,5.57.88,22.13-125.51C449.23,114.81,446.89,114.41,444.47,114Z"/><path class="cls-28" d="M459.53,116.45,437.41,241.89c2.81.4,5.48.76,8,1.09l22.11-125.4C465,117.24,462.32,116.87,459.53,116.45Z"/><path class="cls-28" d="M451.51,115.18,429.38,240.69q4.17.66,8,1.2l22.12-125.44C457,116.06,454.28,115.64,451.51,115.18Z"/><path class="cls-28" d="M475.62,118.57l-22.1,125.36q4.31.47,8.1.79l22.1-125.35C481.18,119.15,478.49,118.89,475.62,118.57Z"/><path class="cls-28" d="M467.56,117.58,445.45,243c2.84.36,5.52.67,8.07,1l22.1-125.36C473.07,118.28,470.38,118,467.56,117.58Z"/></g></svg>