<svg xmlns="http://www.w3.org/2000/svg" viewBox="0 0 800 1061.65"><defs><style>.cls-1{fill:#cc6e44;}.cls-2{fill:#fde1d1;}.cls-3{fill:#f98948;}.cls-4,.cls-5{fill:none;stroke:#f98948;stroke-miterlimit:10;stroke-width:4px;}.cls-5{stroke-linecap:round;}</style></defs><g id="Layer_1" data-name="Layer 1"><rect class="cls-1" width="800" height="1061.65"/></g><g id="Layer_2" data-name="Layer 2"><path class="cls-2" d="M501.21,942.3l24.26-18.55s43.52-36.68,58.91-50,32.74-37.13,39.13-50.63,15.13-43.2,20.63-76,6.46-34.81,6.46-34.81l2.95-.79,11-5.5,9-5.11,10-7.26,9.37-8.1,6.08-7.89,3.62-8.34,2.85-11.44L708,643.47l3-17.56,2.45-13.25,2.89-25.29.14-23.23-2.35-19.41L708.07,517,701,502.1l-5.48-2.73L643.91,421.5,519,430.93l-252.23-44L162.84,354.25l-9.16,149.13-11.58,30.1-5.89-1.06-7.15,3.16L126,546.12l0,13.43.62,13.59-.59,21.3.17,15.36,3,16.53,6.17,14,6,20.36,6.12,19.9L154,695.49l10.61,15.13L181.82,722l11.59,2.66s15.26,64.5,17,75.24,13.19,43.92,33.93,64.7S295,911.7,300.15,915.64l69.16,18.61Z"/><path class="cls-3" d="M299.53,538.28a22.94,22.94,0,0,1,5.36,1.91c7.78,4.13,7.08,14.29,7.08,14.29-1.66,16.79-11.21,21.06-15.37,23s-14.52,2.11-21.87-3.39-9-14.41-9.19-17.44c0,0-.67-9.55,5.5-14.69C277.83,536.32,293.84,536.87,299.53,538.28Z"/><path class="cls-4" d="M318.46,545.64c-6.83-3.95-18.93-7.36-18.93-7.36a47.47,47.47,0,0,0-30.61,3.27c-16.14,7.47-19,16.1-19.41,17.34s-1.31,4.53,1.72,6.81,10.51,8.6,20.77,11.89c10.79,3.46,13.5,5.35,27.68,1.41,0,0,16.14-7.26,20.46-8.87,4.09-1.51,10.66-2.83,15.94-4,1.49-.34,2.68-.65,3.63-.92a2,2,0,0,0,.76-3.5c-1.75-1.5-4-3.36-5.38-4.32C332,555.23,323.59,548.6,318.46,545.64Z"/><path class="cls-4" d="M480.46,536.28c6.05-5.3,16.63-9,20.83-10.78s10.14-2.63,17.43-2.77,21.68,2.41,25.62,3.95,9.55,5.87,15.23,12.17c0,0,3.68,5.94-1.57,9.65s-15,11-21.06,13.44c0,0-12,4.72-19.59,4.18-7-.5-16.81-3.64-23.31-5s-13-2.68-15.36-3.27-8.87.13-10.53-.16-3.6-2.38-3-4.32S473.42,542.45,480.46,536.28Z"/><path class="cls-3" d="M501.29,525.5s-2.45,2.38-3.56,8.26-2.43,11.59,1.43,17.55,6.62,9.78,15.15,11.44,15-.33,19.08-4.3,7.92-8.94,9.42-16.35-3.29-15.23-7.34-17.63c0,0-13.33-2-15.38-1.76s-13.65.15-17.85,2.49Z"/><path class="cls-3" d="M417,706c.83-2.69,3.05-7.73,12.2-12.16s14.1-5.43,23-1.64,4.74,9.67,1.9,11.2a48.32,48.32,0,0,1-15.3,5.8c-8,1.58-13.94,2.11-17.26,2S415.83,709.94,417,706Z"/><path class="cls-3" d="M360.89,693.56c2.22-.46,8.31.73,13.31,3.09s9,3.37,10.84,6.73.48,7-1.94,7.79-12.94-.1-20.15-2.57-10.68-3.78-11.31-6.62S354.05,695,360.89,693.56Z"/><path class="cls-5" d="M459.26,652.52c2.34,1.58,12.53,8.59,15.75,19.59s5.63,14.34,1.42,24.23-9.24,12.12-11.81,13.47-18.43,7.1-22.06,9.67"/><path class="cls-5" d="M346.31,659.6s-16.8,19.79-13.94,35.65,4.53,21.32,22.29,27c0,0,.78-.06,10.1,3"/><path class="cls-5" d="M315.21,805.33s8.86,5.29,15.9,3.84,15.14-4,22.93-5.23a144.51,144.51,0,0,1,25.89-2.09c9.3.18,20.67.62,27.59-.33s15.64.43,23.94-1.78A117.29,117.29,0,0,1,459,796.21c9.93-.2,18,1.56,24.13,1.74a55.42,55.42,0,0,0,19-2.46c7.23-2.2,9.06-3.22,9.06-3.22"/><path class="cls-5" d="M322.26,808.49s7.9-9.79,13.67-13.8,10.1-7,17.31-10,14.76-7.22,19-7.71,5.85-.92,12.07,1.48,15.77,2.26,20.1,2,15.94-3.05,23.76-7.06,17.12-1,23.74,2.51,18.69,7.05,23,8.81,22.46,11.73,22.46,11.73"/><path class="cls-5" d="M318.91,808.14s3.24,11.68,20.37,18.13,34.31,12.28,43.32,12.33c8.41,0,34.6,0,39.79-.65,5-.63,24.44-4.67,34.54-8.47s24-10.78,29.72-15.25,10.84-11.17,15.56-18.74"/><path class="cls-3" d="M278.24,789.44c2.82-6.63,6.57-15,13-20.68a66.65,66.65,0,0,1,23.95-13c7.45-2,17.54-2.19,23.72-5.28s17.26-7.28,21.35-11.28,7.9-10,12.8-12.64,10.36-1.28,15.36.35a51.38,51.38,0,0,1,14,7.35c3.91,2.91,7.55,2.27,9.91.54s13.54-9.37,20-10.46,25.81,4.19,40.45,14.33C487.61,749,497,753.1,508.88,753.49c10.72.36,23.18,6.17,25.91,12.25,0,0,11.82,14.54,13.46,18.81s5,17.08-6.44,18.09-13.54-6.08-16.36-8.72-8.46-4.81-18.28-7.26-21.59-4.68-27.87-7.41-9.34-3-20.64-7.91c-10.31-4.5-24.28-8.52-31.67-4.15-5.5,3.24-13.52,5.74-17.69,6.68s-16.44,1.42-23.26-.62c-8.8-2.65-14.85-3.77-21.48-.4s-26.49,11.68-31,14.56c-3.7,2.37-8.32,4.27-13.54,8.6-2.48,2.06-16.2,18.69-22.66,18.44-8.54-.34-18.77-3.28-20.68-9.55S278.24,789.44,278.24,789.44Z"/><path class="cls-3" d="M345.93,849.43c.1,5.37,14,18.6,27.17,21.24s22.92-.39,17.33,9.15-15.27,26.41-20,31.33-12.48,7.49-21.25,7.88-21.79-1.58-28-2.48-22.62-2.11-22.62-2.11,24.59,25.63,37.4,36.6a78.81,78.81,0,0,0,43.73,19c16.9,2,48.42,1.71,68.28-2.22s32.39-5.25,47.1-16.75a307.23,307.23,0,0,0,24.55-21.27l7.83-7.66s-42.89-1.12-53.13-6.59-25.6-13.46-30.69-21.67c-5.35-8.62-9.27-16.18-9.8-20s23.05-10.87,28.87-14.14c0,0,15.07-8.39,17.33-15.11s-10.61-7.17-21.86-5.45-32.28,6.32-39.27,6.74-44.74-.53-50.11-1.08S345.72,839,345.93,849.43Z"/><path class="cls-4" d="M649.62,711.31a.77.77,0,0,0,1,1A134.54,134.54,0,0,0,682.25,695c16-12.1,18.25-21.13,20.43-26.51s7.73-37,9.9-47.7c2.38-11.82,4.47-43.18,3.79-53.58-1-14.6-6.21-48.67-12.86-60.49s-12.48-3.11-15.2,1-8.56,16.21-11.41,22-16.11,39.72-18,43.77a27.07,27.07,0,0,0-2.58,13.75c.47,4.91,1.72,18.88,2.34,25.69.72,8,3.2,16.6,3.27,24.24s-.85,19.26-.78,22.38-1.52,12.88-3.18,24C656.64,692.71,651.43,706.64,649.62,711.31Z"/><path class="cls-3" d="M200.49,477.42c15.32-24.66,31.25-25.11,52.88-25.3s56.83,12.2,69.62,19.34,21.15,23.92,15.33,30.07c-4.83,5.11-30.6-6.9-35.38-8.59s-24.37-7-34.74-9.43-26.78-2.86-33.61-.36S219,493.34,214.75,501.51a107,107,0,0,0-8.53,20.41c-2.92,9-7.61,13.69-11.87,13.3s-4.51-9.63-5.14-13.53.42-13.27.42-13.27S194.78,486.6,200.49,477.42Z"/><path class="cls-3" d="M592.09,487.25c2.69,2.48,10.52,13.44,12.61,20.62s4,16.25,9.55,16.25,6-5.17,6.12-14.56c.13-10.25-3.08-23.39-12-33.43-12.23-13.71-20.37-20-30.37-24.59s-38.61-9.7-52.37-8.06c-14.15,1.68-38.59,9.28-44.66,12.48s-23,16.77-26.25,22.69,2.62,11.76,6.88,12.24,34.53-8.2,48.43-13.78c14.49-5.8,29.89-10.49,42.82-9.6S584,479.78,592.09,487.25Z"/><path class="cls-4" d="M193.07,723c-1,4.08-27-5.39-37.27-24.29s-12.34-33.41-16.11-45-12.33-32.08-13.13-42.27,0-28,.45-37.89-1.58-21.73-.64-29.49c.71-5.89,2.95-10.25,8.1-11.57a7.57,7.57,0,0,1,8.21,3.37c3,4.71,8.33,13.54,13.74,24,8.09,15.68,4.71,13.18,6.21,27.22s-2.8,28.63,6.23,48.55,7.08,29.09,12,41.33S193.78,720.18,193.07,723Z"/><path class="cls-3" d="M639.15,636.59c2.55-13.73-.14-33.4-1.07-52.34s-6.57-46.16-5.75-56.4,4.25-72.9,4.55-79.35,5.41-23.45-10-15.56-37.67,15-45.65,17.34-73,6.6-81.09,5.88-37.37,5-49.66,7.2-87.54,2.11-98.91-2.9-35.55-42.37-43.84-44-36.56-10.42-34,5.44S277,445.35,285.28,447s17.51,3.06,13.21,8.08-21.38,16-30.81,13.64-38.4-8.27-41.16-9.39-24.7-33.57-29.21-43.4-7.7-31.94-10.16-37.77-14.15-28.76-16.38-2.35,0,41.78,1.77,48.74,1.16,63.38,3.53,74.84,8.63,54.36,9,77.5-1,51.1,8.25,90.82c4.53,19.46,7.85,38.78,6.71,47.66-1.18,9.24-6.57,9.29-6.57,9.29s-4.44-20.14-4.8-22.07-3.67-16.15-5.05-18.67-6.27-19.13-6.83-22.28-4.07-19.93-6-23.59-6.86-17.44-7.22-21.38-.29-29.69-.29-32.37-1.35-14.06-3.21-17.36-9.93-17.21-11.15-20.36a116.21,116.21,0,0,0-7-12.79c-.75-1-8.52-14.84-11-20.16s-17.19-34.41-19.56-39-9.71-33.55-10.5-43.12-2-42.33-2.4-54.15S134,228.27,199,177.93s106.3-79.74,182.82-86.44,162.45,17.64,203.13,40.24c59.65,33.15,99.41,93.5,111.4,125.08,8.64,22.78,19.51,98.32,19.74,127.31s-15.52,107.21-18.92,117.09c0,0-6.69-2.27-15.9,19.42s-15.67,35.86-16.15,37.79-8.18,16.38-8.31,20.44a162.94,162.94,0,0,0,.56,16.52c.34,2.13,2.36,26.91,3.46,31.86s1.25,22,1.05,26.29-1.92,19.41-2.67,23.61-3.71,16-4.87,20.72l-4.11,16.41s-12.24,7.8-14.87-5.14S636.6,650.31,639.15,636.59Z"/><path class="cls-5" d="M453.64,545.51s16.18-17.53,22.69-22.42,22.54-13.71,38.59-13.58,26.19,1,40.32,8c13.3,6.57,23.73,24.84,23.73,24.84"/><path class="cls-5" d="M234.12,552.65c10.23-15.58,22.23-23.59,37.37-27.29,15.62-3.81,31.62-.41,41.33,2.85,10,3.35,25.26,16.66,31.26,22.5"/><path class="cls-5" d="M426.82,523.42c-2.16,4.18-6.6,15.3-7.25,24.59s4.85,17.32,5.9,20.91"/><path class="cls-5" d="M362,530.59c4.26,5.22,11.33,17,12.18,21.37s2.49,14.51-.05,21.38"/><path class="cls-5" d="M379.64,651c1.83-5.86,6.55-15.84,24.32-17s23.89,10,25.38,14.51"/><path class="cls-4" d="M161.33,579.28s-13.55-15.15-16.4-18.15-7.39-8.92-8.86-9.61-4.38-.77-3.84,4.92,1.17,14.24,1.09,17.16-1.25,25.14-.63,31.83,4.6,21.88,6.06,26.49,9,22.77,15.56,26.69,20,7.61,23,8.68"/><path class="cls-4" d="M136.39,623.05a144.79,144.79,0,0,0,5.08-29.39c1.43-18.63,3.46-32.53,3.46-32.53"/><path class="cls-4" d="M165.55,612.8s-17,.62-19.91,34.3"/><path class="cls-5" d="M668.08,639.46c2-2.58,4.42-9.14,4.65-13.24.35-6.36-6.84-19.54-8.6-24s.81-11.7,2-16.4,8.3-20,13.7-33.42c5.66-14,7-21.73,11.79-27.42,6.81-8.09,9.3,0,10.66,3.68s4,16.15,5.28,24.9c1.13,8,1.15,27.72,1.15,27.72s-2.24,16.14-2.39,21.7c0,0-1.66,18.91-4.8,26.48s-9.44,17.54-14.75,21.62c-9.49,7.31-22,11.79-24.9,11.89"/><path class="cls-5" d="M666.11,585.81s18.63,6.72,25.86,15.84c8.17,10.29,9,26.26,2.82,39.26"/><path class="cls-4" d="M708.39,576.67s-9.16-14.2-11.6-25.66-6-23.72-6-23.72"/></g></svg>