<svg xmlns="http://www.w3.org/2000/svg" viewBox="0 0 510 681.86"><defs><style>.cls-1{fill:#2a2019;}.cls-2{fill:#271e18;}.cls-3{fill:#362921;}.cls-4{fill:#30241e;}.cls-5{fill:#36231b;}.cls-6{fill:#241c16;}.cls-7{fill:#1f1610;}.cls-8{fill:#3d2e27;}.cls-9{fill:#382922;}.cls-10{fill:#3d2c24;}.cls-11{fill:#2d241d;}.cls-12{fill:#2b1e16;}.cls-13{fill:#2f2219;}.cls-14{fill:#281b13;}.cls-15{fill:#30221a;}.cls-16{fill:#241c15;}.cls-17{fill:#15100b;}.cls-18{fill:#271e1b;}.cls-19{fill:#18110f;}.cls-20{fill:#fefefe;}.cls-21{fill:#c6b3ab;}.cls-22{fill:#271f1c;}.cls-23{fill:#1b1613;}.cls-24{fill:#a17b60;}.cls-25{fill:#6f513d;}.cls-26{fill:#8b664f;}.cls-27{fill:#8e6148;}.cls-28{fill:#352218;}.cls-29{fill:#221713;}.cls-30{fill:#bb7f67;}.cls-31{fill:#a58268;}.cls-32{fill:#694d3b;}.cls-33{fill:#ac7c6a;}.cls-34{fill:#a0715a;}.cls-35{fill:#553524;}.cls-36{fill:#583d2c;}.cls-37{fill:#95755d;}.cls-38{fill:#1e1204;}.cls-39{fill:#000002;}.cls-40{fill:#957a65;}.cls-41{fill:#372619;}.cls-42{fill:#573e33;}.cls-43{fill:#8c6151;}.cls-44{fill:#755344;}.cls-45{fill:#483227;}.cls-46{fill:#2d1a15;}.cls-47{fill:#97715e;}.cls-48{fill:#9c6150;}.cls-49{fill:#b77157;}.cls-50{fill:#c5856c;}.cls-51{fill:#b26e57;}.cls-52{fill:#b08569;}.cls-53{fill:#ae6a52;}.cls-54{fill:#a45f4a;}.cls-55{fill:#b46c57;}.cls-56{fill:#ce806f;}.cls-57{fill:#8e5542;}.cls-58{fill:#e0917d;}.cls-59{fill:#964e40;}.cls-60{fill:#7b4d3c;}.cls-61{fill:#ce826f;}.cls-62{fill:#654436;}.cls-63{fill:#876858;}.cls-64{fill:#7a5545;}.cls-65{fill:#9e6c56;}.cls-66{fill:#b37b64;}.cls-67{fill:#a1715d;}.cls-68{fill:#8a614e;}.cls-69{fill:#d99c7f;}.cls-70{fill:#fab193;}.cls-71{fill:#f0a089;}.cls-72{fill:#f5a88d;}.cls-73{fill:#e0a184;}.cls-74{fill:#ffaa94;}.cls-75{fill:#ffbca9;}.cls-76{fill:#f8b999;}.cls-77{fill:#f1967e;}.cls-78{fill:#ef9c80;}.cls-79{fill:#fbac9a;}.cls-80{fill:#fab39a;}.cls-81{fill:#e69b7f;}.cls-82{fill:#f5b5a5;}.cls-83{fill:#fdbead;}.cls-84{fill:#dd9a7e;}.cls-85{fill:#db9d83;}.cls-86{fill:#f3aa90;}.cls-87{fill:#f19c85;}.cls-88{fill:#faba9e;}.cls-89{fill:#dd8e75;}.cls-90{fill:#e3a590;}.cls-91{fill:#eb9f8a;}.cls-92{fill:#da7266;}.cls-93{fill:#f8b89c;}.cls-94{fill:#e7a480;}.cls-95{fill:#ffc5ae;}.cls-96{fill:#ffc3b4;}.cls-97{fill:#fec6b7;}.cls-98{fill:#fecbb5;}.cls-99{fill:#f0b493;}.cls-100{fill:#de9a79;}.cls-101{fill:#a76f56;}.cls-102{fill:#c0836c;}.cls-103{fill:#e8a78d;}.cls-104{fill:#febaa7;}.cls-105{fill:#dc8d7a;}.cls-106{fill:#d5927c;}.cls-107{fill:#ed9686;}.cls-108{fill:#db8c74;}.cls-109{fill:#ffa391;}.cls-110{fill:#dc9f80;}.cls-111{fill:#e6a78a;}.cls-112{fill:#f6bda6;}.cls-113{fill:#c7836d;}.cls-114{fill:#f5ac97;}.cls-115{fill:#fab19f;}.cls-116{fill:#ffc7b8;}.cls-117{fill:#ffbcac;}.cls-118{fill:#ffc9ba;}.cls-119{fill:#ffbfb0;}.cls-120{fill:#ffc0b3;}.cls-121{fill:#fdac97;}.cls-122{fill:#fec6b2;}.cls-123{fill:#faad9b;}.cls-124{fill:#ffc4b6;}.cls-125{fill:#ee9a82;}.cls-126{fill:#e39380;}.cls-127{fill:#e59c88;}.cls-128{fill:#b26c54;}.cls-129{fill:#ffccc1;}.cls-130{fill:#d88d7e;}.cls-131{fill:#c57968;}.cls-132{fill:#ee9f8e;}.cls-133{fill:#ca6354;}.cls-134{fill:#ffada0;}.cls-135{fill:#b96058;}.cls-136{fill:#d0906b;}.cls-137{fill:#f8baa0;}.cls-138{fill:#f7a192;}.cls-139{fill:#ffb2a7;}.cls-140{fill:#f89689;}.cls-141{fill:#febea7;}.cls-142{fill:#f1a38f;}.cls-143{fill:#f79c8a;}.cls-144{fill:#f6a796;}.cls-145{fill:#ff9b8f;}.cls-146{fill:#f9a491;}.cls-147{fill:#ea8b78;}.cls-148{fill:#ffa390;}.cls-149{fill:#fdd9d0;}.cls-150{fill:#d67765;}.cls-151{fill:#932c2a;}.cls-152{fill:#ca7764;}.cls-153{fill:#c37062;}.cls-154{fill:#ffc2b5;}.cls-155{fill:#f19f91;}.cls-156{fill:#d88f7b;}.cls-157{fill:#ba7966;}.cls-158{fill:#ffd9d0;}.cls-159{fill:#ffd0c8;}.cls-160{fill:#fee5df;}.cls-161{fill:#fdbbae;}.cls-162{fill:#ffc5b7;}.cls-163{fill:#feb8ab;}.cls-164{fill:#f3a190;}.cls-165{fill:#874c3d;}.cls-166{fill:#9d5b48;}.cls-167{fill:#8d5f4d;}.cls-168{fill:#ba7760;}.cls-169{fill:#a46754;}.cls-170{fill:#ae7260;}.cls-171{fill:#765949;}.cls-172{fill:#3b2418;}.cls-173{fill:#846754;}.cls-174{fill:#faa49a;}.cls-175{fill:#ed9588;}.cls-176{fill:#461406;}.cls-177{fill:#fc9e96;}.cls-178{fill:#e58575;}.cls-179{fill:#fdb3a0;}.cls-180{fill:#ff9f92;}.cls-181{fill:#ffcdc5;}.cls-182{fill:#eb917b;}.cls-183{fill:#ffe5de;}.cls-184{fill:#f3a692;}.cls-185{fill:#ffe7db;}.cls-186{fill:#c2745e;}.cls-187{fill:#de8772;}.cls-188{fill:#753021;}.cls-189{fill:#8e3b2b;}.cls-190{fill:#d27462;}.cls-191{fill:#da9170;}.cls-192{fill:#aa6a58;}.cls-193{fill:#ce8364;}.cls-194{fill:#e89f87;}.cls-195{fill:#f1ad98;}.cls-196{fill:#945e49;}.cls-197{fill:#d3896b;}.cls-198{fill:#e79980;}.cls-199{fill:#d07e5d;}.cls-200{fill:#dc8a6b;}.cls-201{fill:#e48b72;}.cls-202{fill:#cb7c57;}.cls-203{fill:#f4a98f;}.cls-204{fill:#f69887;}.cls-205{fill:#421411;}.cls-206{fill:#9b6f56;}.cls-207{fill:#e2a395;}.cls-208{fill:#c77d68;}.cls-209{fill:#94655b;}.cls-210{fill:#b37576;}.cls-211{fill:#e9aea6;}.cls-212{fill:#ffbeb2;}.cls-213{fill:#ffa596;}.cls-214{fill:#f89d8d;}.cls-215{fill:#cf7a61;}.cls-216{fill:#e79675;}.cls-217{fill:#c7775a;}.cls-218{fill:#ab624b;}.cls-219{fill:#f2a58e;}.cls-220{fill:#e48e76;}.cls-221{fill:#d28264;}.cls-222{fill:#e39374;}.cls-223{fill:#d5896c;}.cls-224{fill:#d3856f;}.cls-225{fill:#dc856b;}.cls-226{fill:#c9755a;}.cls-227{fill:#e59382;}.cls-228{fill:#a55f56;}.cls-229{fill:#e79277;}.cls-230{fill:#c47154;}.cls-231{fill:#be6c56;}.cls-232{fill:#ffaa9a;}.cls-233{fill:#f19d88;}.cls-234{fill:#f7a491;}.cls-235{fill:#f19685;}.cls-236{fill:#ffa698;}.cls-237{fill:#fe9f93;}.cls-238{fill:#fa9b8e;}.cls-239{fill:#ffafa5;}.cls-240{fill:#f6a292;}.cls-241{fill:#fdb3a4;}.cls-242{fill:#cf705a;}.cls-243{fill:#a2473d;}.cls-244{fill:#da7165;}.cls-245{fill:#ca6c5c;}.cls-246{fill:#76372c;}.cls-247{fill:#914d4a;}.cls-248{fill:#f1a28b;}.cls-249{fill:#da615b;}.cls-250{fill:#fa7f7c;}.cls-251{fill:#894a3b;}.cls-252{fill:#c86d5d;}.cls-253{fill:#d5796a;}.cls-254{fill:#f89386;}.cls-255{fill:#cc7363;}.cls-256{fill:#ffd9ce;}.cls-257{fill:#cd6457;}.cls-258{fill:#e68375;}.cls-259{fill:#e48970;}.cls-260{fill:#fd7e79;}.cls-261{fill:#ee6662;}.cls-262{fill:#ffc3ba;}.cls-263{fill:#d17063;}.cls-264{fill:#ec977b;}.cls-265{fill:#eaa295;}.cls-266{fill:#e1917c;}.cls-267{fill:#c4555c;}.cls-268{fill:#fdaf9d;}.cls-269{fill:#da6c5e;}.cls-270{fill:#dc7f73;}.cls-271{fill:#dd998a;}.cls-272{fill:#c16557;}.cls-273{fill:#3f0702;}.cls-274{fill:#433026;}.cls-275{fill:#dd846e;}.cls-276{fill:#b36163;}.cls-277{fill:#c2725b;}.cls-278{fill:#dd6a6d;}.cls-279{fill:#e36067;}.cls-280{fill:#6d301e;}.cls-281{fill:#e98d74;}.cls-282{fill:#d86f66;}.cls-283{fill:#803d35;}.cls-284{fill:#6a402e;}.cls-285{fill:#d7b6a0;}.cls-286{fill:#321a1b;}.cls-287{fill:#8b594c;}.cls-288{fill:#d4b29f;}.cls-289{fill:#852e2a;}.cls-290{fill:#f3dac5;}.cls-291{fill:#fefdec;}.cls-292{fill:#feccc6;}.cls-293{fill:#958376;}.cls-294{fill:#d3b7a7;}.cls-295{fill:#d3bba9;}.cls-296{fill:#f1dac4;}.cls-297{fill:#9c746b;}.cls-298{fill:#dcc1b6;}.cls-299{fill:#fff5e4;}.cls-300{fill:#b99e8a;}.cls-301{fill:#edcbbd;}.cls-302{fill:#f9e0d7;}.cls-303{fill:#f7dedb;}.cls-304{fill:#feeada;}.cls-305{fill:#ffebdc;}.cls-306{fill:#fdd8c4;}.cls-307{fill:#fecec2;}.cls-308{fill:#f7dad6;}.cls-309{fill:#b2a38a;}.cls-310{fill:#d2b69f;}.cls-311{fill:#e29277;}.cls-312{fill:#cc8b73;}.cls-313{fill:#90624a;}.cls-314{fill:#ffd9de;}.cls-315{fill:#ffbdab;}.cls-316{fill:#a5593b;}.cls-317{fill:#c57a69;}.cls-318{fill:#c06c4e;}.cls-319{fill:#ba8d72;}.cls-320{fill:#a95f48;}.cls-321{fill:#be8061;}.cls-322{fill:#ffc9b6;}.cls-323{fill:#bc735b;}.cls-324{fill:#a0745a;}.cls-325{fill:#d47c67;}.cls-326{fill:#060100;}.cls-327{fill:#eba488;}.cls-328{fill:#a45a42;}.cls-329{fill:#1e0903;}.cls-330{fill:#da8a82;}.cls-331{fill:#fbffff;}.cls-332{fill:#f0a494;}.cls-333{fill:#a95a43;}.cls-334{fill:#844640;}.cls-335{fill:#d29a8b;}.cls-336{fill:#c6836f;}.cls-337{fill:#c67b6e;}.cls-338{fill:#d37d71;}.cls-339{fill:#f5f5fa;}.cls-340{fill:#d69788;}.cls-341{fill:#a35d4b;}.cls-342{fill:#654b3e;}.cls-343{fill:#7a4539;}.cls-344{fill:#f1a59a;}.cls-345{fill:#6b5040;}.cls-346{fill:#3c2e26;}.cls-347{fill:#ba7a6d;}.cls-348{fill:#f7c8be;}.cls-349{fill:#885344;}.cls-350{fill:#806860;}.cls-351{fill:#feaa98;}.cls-352{fill:#fefcfd;}.cls-353{fill:#ce8d70;}.cls-354{fill:#bf7e62;}.cls-355{fill:#320906;}.cls-356{fill:#8a5044;}.cls-357{fill:#401e16;}.cls-358{fill:#3d150d;}.cls-359{fill:#44362c;}.cls-360{fill:#e6c8af;}.cls-361{fill:#52291b;}.cls-362{fill:#a07464;}.cls-363{fill:#cf7360;}.cls-364{fill:#ffecdf;}.cls-365{fill:#ad988a;}.cls-366{fill:#7c5f52;}.cls-367{fill:#ca887e;}.cls-368{fill:#cea088;}.cls-369{fill:#c29091;}.cls-370{fill:#ffdcc8;}.cls-371{fill:#de8f83;}.cls-372{fill:#180701;}.cls-373{fill:#f4d3cd;}.cls-374{fill:#fffffe;}.cls-375{fill:#d4816c;}.cls-376{fill:#5c4f4f;}.cls-377{fill:#f7ccb3;}.cls-378{fill:#695044;}.cls-379{fill:#f7be96;}.cls-380{fill:#febaae;}.cls-381{fill:#a87465;}.cls-382{fill:#cfa695;}.cls-383{fill:#decab1;}.cls-384{fill:#f8a79c;}.cls-385{fill:#b0917d;}.cls-386{fill:#211213;}.cls-387{fill:#fefbe5;}.cls-388{fill:#fbfdfc;}.cls-389{fill:#250a10;}.cls-390{fill:#3f1e19;}.cls-391{fill:#f9f0d6;}.cls-392{fill:#ca9475;}.cls-393{fill:#fff;}.cls-394{fill:#fff5f1;}.cls-395{fill:#fce1d2;}.cls-396{fill:#ac745d;}.cls-397{fill:#fadbd1;}.cls-398{fill:#542c1d;}.cls-399{fill:#eabba5;}.cls-400{fill:#ffe5e0;}.cls-401{fill:#e5d6b4;}.cls-402{fill:#ffcfc2;}.cls-403{fill:#3e0a02;}.cls-404{fill:#fffdff;}.cls-405{fill:#dcb3a3;}.cls-406{fill:#4c0f05;}.cls-407{fill:#e38a7c;}.cls-408{fill:#9c5448;}.cls-409{fill:#5c362f;}.cls-410{fill:#1e140f;}.cls-411{fill:#df7b6b;}.cls-412{fill:#040000;}.cls-413{fill:#d87265;}.cls-414{fill:#e89b84;}.cls-415{fill:#f8baad;}.cls-416{fill:#ffbdaf;}.cls-417{fill:#ba6d5a;}.cls-418{fill:#d7837d;}.cls-419{fill:#fde5de;}.cls-420{fill:#ffc4af;}.cls-421{fill:#cc7666;}.cls-422{fill:#6a1e14;}.cls-423{fill:#ffd5cc;}.cls-424{fill:#fbe2d6;}.cls-425{fill:#fdc6a9;}.cls-426{fill:#30261e;}.cls-427{fill:#fcf4ed;}.cls-428{fill:#d8ccc4;}.cls-429{fill:#d7c9c0;}.cls-430{fill:#f1ede7;}.cls-431{fill:#baaea5;}.cls-432{fill:#d3c5be;}.cls-433{fill:#b9a89c;}.cls-434{fill:#c2b0aa;}.cls-435{fill:#f7e9e2;}.cls-436{fill:#1e1512;}.cls-437{fill:#ebe0d0;}.cls-438{fill:#f2e1de;}.cls-439{fill:#f1dfdb;}.cls-440{fill:#fcf4ee;}.cls-441{fill:#f4e7e1;}</style></defs><g id="Layer_2" data-name="Layer 2"><g id="Layer_3" data-name="Layer 3"><polygon class="cls-1" points="278.53 51.14 286.48 26.6 340.13 38.28 343.86 63.16 305.84 105.21 271.25 83.81 278.53 51.14"/><path class="cls-2" d="M265.3,5.08a13.93,13.93,0,0,0-8.78-3.82c-5.55-.36-16.83.53-20.59,0S225.86,0,225.86,0L220,7.16l2.33,56.41-3.58,23.64,9.49,2.14s42.44-.71,47.63-.71,9.67-.18,9.31-1.79-3.76.18-3.58-7.34.36-10.93,1.07-18.81,2.15-21.13,2.15-21.13Z"/><path class="cls-3" d="M286,15.55a39.59,39.59,0,0,0-9.52-7.14A38.8,38.8,0,0,0,265.3,5.08s-8.1,18.57-11,21.9-8.83,18.68-9,22.14-6,12.62.48,12.14,21.66-5.95,25.47-7.38,13.81-9.76,14.52-12.38,4.76-17.38,4.76-17.38Z"/><path class="cls-4" d="M221.63,84.7s15.76,2.11,19.76,1.88,18.34-.47,24-.24a223.17,223.17,0,0,1,24.23,3.3c4.23.94,15.05,4.94,17.4,5.64s3.77,10.12,3.77,10.12l-61.63-8-33.87-.47Z"/><path class="cls-5" d="M376.81,35.48s-8.35-7.69-15.82-8.79-13-.44-22.41-.87-14.28-3.3-18.45-5.06-.22-4-11.21-4-15.38-2-20.43-2-7,5-5.49,10.77,1.1,13.18,8.57,13.18,22.41.66,28.78,1.54,18,13,18,13Z"/><path class="cls-6" d="M337.54,44.73s-5.06,6.66-8,9.06-1.33,0-9.06,8.53-14.12,14.12-17.05,20.51,2.4,22.38,2.4,22.38l52,14.65L393,86.29Z"/><path class="cls-7" d="M385.14,35.93a39.31,39.31,0,0,0-17.2-2c-9.58,1.07-17.82.54-23.94.8s-10.11,3.46-9.31,9,3.73,9.3,12.77,18.08,17,12.24,17,12.24l25,5.58Z"/><path class="cls-8" d="M221.8,94c.27-5.17,2.68-26.18,2.68-28.77s4.83-36.34,4.65-38.92.69-15.5-.17-18.43A83.83,83.83,0,0,0,225.86,0s-9,.34-10,.34-11.19,2.42-13.09,2.59a32,32,0,0,0-6.05,1.88l-5.48,24.81-4.31,54.94,1,13.78Z"/><path class="cls-9" d="M119.6,45.58s6.28-4.27,9.7-6.13,12.69-9.83,14.54-11,16.25-9.84,19.1-10.13,14.83-7.69,19-8.55,13.12-4.56,14.83-5,3,2.85,3.28,5,1.14,5.13,1.28,8.27-.71,11.26-.71,11.26L202.43,41s3.42,20,2.42,20.39S188.17,68,188.17,68L132.4,78l-9.52-1.44Z"/><path class="cls-10" d="M129.15,67.41c2.63,0,7.29-.78,9.46-2.33a13.28,13.28,0,0,1,7.91-2.95c3.26,0,16.91,5.9,17.22,6.52S132.4,78,132.4,78l-5.89-6Z"/><path class="cls-11" d="M127.24,75.67c5.17.39,12.33-2,19.68-3.18s25.66-11.94,28.24-11.94,9.35.8,13.13.8,8,8.75,7.16,12.53-2.59,12.53-4.58,13.52-1.59,10.54-1.59,10.54l-42.36,7.56-38-10.94Z"/><path class="cls-12" d="M77.53,71.82s14.77-14,18.37-15.28,12.89-5.71,15.83-7c2.34-1.06,8.06-6.6,12-3.1,4.77,4.17,9.75,11.55,9.75,13.34s.52,13.6-4.87,15.91-9,7.7-10.27,11.29-3.59,15.66-3.59,15.66L66.3,97.73Z"/><path class="cls-13" d="M172.32,99.48c-2-2-10.61-5.81-18.44-5.31s-10.85-.75-21.2.26-16.67,2-20.2,2-18.18,9.84-18.18,9.84l-34.59,25.5L46.08,165.37l3.28,6.31,73.47-44.18Z"/><path class="cls-14" d="M70.14,97.91s4.35-6.74,5.22-10.65,2.17-15.44,2.17-15.44a27.36,27.36,0,0,0-7.83,6.3A102.73,102.73,0,0,0,59.27,93.78c-3.48,6.74-6.79,14.87-6.79,14.87l7,6.22Z"/><path class="cls-15" d="M41.81,159.4a78.9,78.9,0,0,1-1.19,7.92c-.82,4-3.13,7.42-3.13,10.39A22.24,22.24,0,0,0,38.65,184s16.87-26.28,23-34.7,12.49-17.42,16.26-22.07,6.68-13.07,11.62-13.65,5.81,1.45,8.42-6.1,9.3-5.81,9.59-9,6.39-14.23-.87-11.62-10.46,5.23-16.27,4.94S85.43,95,77.59,95.83s-11-.58-13.94,4.07-5.51,14.23-5.51,14.23Z"/><path class="cls-16" d="M378.13,81.2c-3.33.21-6.44,0-11.22,4S359,89.09,354,94.08s-8.94,10.6-13.51,12.88-5.19,6-5.19,6l66.9,28.67,26.39-24.52,2.49-7.48-27.22-21Z"/><path class="cls-17" d="M430.49,114.41a15.49,15.49,0,0,0-9.49.16c-3.21,1.22-3.06,5.35-6.12,9.49s-4.14,5.05-8.58,6.27-9.95,7.81-9.95,7.81l25.57,26.94,17.6,6.28Z"/><path class="cls-18" d="M331,108.79s10.69,1.11,15.85,2.4,22.68,9,27.47,11.43,18.81,12,23.6,14.56,10,3.87,14.93,7.74S423.16,163,423.16,163Z"/><path class="cls-19" d="M375.25,76.22c0-4.45,1.24-9.14,2.23-16.07s5.44-15.82,5.44-19a7.44,7.44,0,0,1,2.22-5.19s3,5.44,5.44,6.92S400.22,50,400.47,51s4.2,6.43,4.94,9.89,4,10.13,4,12.36,2.72,10.87,3.46,13.59S416,93,419,95.75s8.83,8.17,8.83,8.17l4.77,8.89s-8.9-4.2-13.6-8.16-13.84-14.09-13.84-14.09Z"/><path class="cls-20" d="M211.37,11.3s5.74,2,8.19,4.23,4.92,5.6,5.47,8.34,1.91,8.74,1.91,10.79,1.23,4.1-.27,4.37-10.52.55-14.89,1.37-9.7,2.32-11.61,2.73-4.51.41-3.83-1.78,7.92-13.25,7.92-13.25Z"/><path class="cls-21" d="M181.51,46.75s7.39-.3,9.4-.92,3.39-1.54,1.08-3.39S179.66,34.89,173.65,34,163.79,31,159.17,31.5l-4.62.46,1.69,5.39Z"/><path class="cls-22" d="M427.84,103.92s2.34,11.77,2.34,16.12-.95,8.13-.57,12.48.95,8.69,1.51,15.12-.19,9.26-.19,12.47-.37,10.4-.37,10.4L444,179.58l2.64-31.75-13.26-38.08S427.65,105.05,427.84,103.92Z"/><path class="cls-23" d="M448.23,196.71s2.77,7.81,6,14.62,32.36,34.28,32.36,34.28a27.57,27.57,0,0,0-1.11-7.82c-1.26-4.53.76,1.77-2.52-6.8s-3.78-11.85-6.05-19.16-4-15.88-6-23.19-8.32-16.38-8.82-23.94,1-9.83-3.53-20.92-7.81-18.15-13.36-24.2-9.32-7.06-11.84-9.83c0,0,6.05,22.94,6.55,29.74s.5,13.87.5,18.4v19.16Z"/><polygon class="cls-24" points="458.09 250.94 454.5 270.37 459.82 282.89 470.19 275.12 470.04 251.95 457.09 248.64 458.09 250.94"/><path class="cls-25" d="M460.4,280.45c1-1.59,6-3.31,5.76-6.48s1.29-1.3-.29-5-.15-7.34-.29-9.93a42.81,42.81,0,0,0-1.87-7.77l-.58-10.37,13,3.75,2.3,30.94-.86,18.57-8.5,14.4-10.94-11.95Z"/><path class="cls-26" d="M472.1,229.86c-2.47-3.69-4.94-4.74-7.06-7.56s-7.58-12-9.69-14.11-6.35-6-6.35-6l-5.95,16.61-4.1,9.48s1.94,3.7,3.17,5.82.53,13,2.83,15.16,7.22,6.87,7.4,8.11,3.7,11.46,5.29,12,.7-1.94.7-3.88-.35-4.23-.35-6.17,1.76-5.47,3.88-6,3.53,1.06,3.7-1-4.05-8.29.35-6.7,11.82,4.93,11.82,4.93Z"/><path class="cls-27" d="M444.59,244s9.45,9.3,9.45,13.37,2.91,7.71,3.63,10,3.35,3.92,3.49,7.12.73,7.85.15,11-1.46,11-1.46,11l.58,13.22-3.34.29L442.56,298.9l2.32-28.63Z"/><path class="cls-28" d="M459.1,311.45a29.05,29.05,0,0,1-1.48-9.59c0-5.75-2.53-10,0-10s8.64,6.94,8.81,9.14,2.7,5.75,3.21,2.2-.67-7.1,1.87-10,4.9-13.55,4.9-16.59.51-8,0-13.37-2.23-13.35-2.23-17.5-.87-7.61-1-10.73a17.13,17.13,0,0,0-1-5.19s5.71,5.89,7.61,7.62,6.41,6.74,6.93,8.13,1.73,10.9,1.73,10.9l-5.71,44.3-4,19.55-13.85-5.19Z"/><path class="cls-29" d="M461.27,318.83a66.91,66.91,0,0,1,1-9.45c.59-2.76,2-4.53,2.76-2.17s4.72,7.09,6.1,7.88,4.33,4.33,3.35.79-3.15-4.33-2.36-6.7,1.18-1.77,0-5.12-1.38-4.33-.59-10.82,2.55-7.68,3.15-13.39,4.52-5.91,4.92-9.26,5.9-10,6.3-16.53,1.18-7.29,2-5.32,2.95,6.89,3.93,7.29,2.21,2.94,2.37,3.54a22.93,22.93,0,0,1,.78,2.95,12,12,0,0,1,.2,5.32,26.82,26.82,0,0,0-1,6.5c0,3-1.18,4.13-1.38,5.9s-1.58,5.51-.59,6.7-1.18,3.15-.4,5.11.79,4.93,1.58,7.29a55.71,55.71,0,0,0,2.56,6.89c1,2,.39.2,1,2a25.66,25.66,0,0,0,2.76,6.5A21.44,21.44,0,0,0,502,318c2,2.37,3.94,5.12,3.94,5.12l-21.85,13.39Z"/><path class="cls-30" d="M447.18,268.05c2-4.33,3.32-6.25,2.17-9.51s-3.45-4.8-3.45-11.52,2.3-10.94-.39-13.81-9-5.18-9-5.18l-7.86,6.33,2.87,14.39Z"/><path class="cls-31" d="M59.43,240.84c.16-3.46.63-17.46.63-17.46L48.42,235.17l-9.9,24.38L45.28,266l.15,15.56,10.7-10.38Z"/><path class="cls-32" d="M44.88,260.32c1.37,0,4.23-2.17,4.8.34s1.25,2.63.46,4.57-.58,4-2.4,6.28-1.37,7.08-1.37,7.08l-6.86,4.28-3.41-9.19,1.48-7.42Z"/><path class="cls-33" d="M53.84,269c-1.57,1.79-2.8,4.25-4.37,5.93s-2.23,1.34-4.7,3.36-5.26,4.59-5.26,4.59l.56,7.95,6,6.7,11.3-4.58Z"/><path class="cls-34" d="M44.1,295.38a24.32,24.32,0,0,0,4-2.41c1.74-1.21,5.36-.27,5.36-.27l-.94,16.36-12.87-1.34-6-.8L37.13,297Z"/><path class="cls-35" d="M37.71,270.24c1.17-.19,2.49,3.74,2.65,6.55s.15,9.82.93,12.62,7.33,7.18,4.83,8.11-5.3.16-6.54,2-2,3.58-3.28,3.58-7.24-16.69-7.24-16.69Z"/><path class="cls-36" d="M20.28,314.27s.07-.65-1,2-.43,8.46-.43,8.46,6.92-5.31,9.1-6.23,9.32-5.69,9.32-8.95-.86-4.76-1.51-10-1.09-5.63-2.17-9.75S27.19,283,27.19,283Z"/><path class="cls-37" d="M24.92,304.09c1.16,1.56,1.22,6.63,3.67,2.44s2.27-7.33,2.27-11.69a67.28,67.28,0,0,1,2.61-16.23c1.23-3.49,4.89-5.24,5.41-8.56a6.8,6.8,0,0,0-1.39-5.41L27.19,283s-5.59,10.47-5.59,13.44S24.92,304.09,24.92,304.09Z"/><path class="cls-38" d="M20.72,295.14c-1.77,2.23-4.09,4.22-3.59,6.87s2.82,2.32,2.65,5.46-.16,6.63.5,6.8,4,.49,4-2.32,2-1.83,1.83-6.3-2.16-7.29-1.5-11.1,3.81-4.14,4.48-8.11,4.8-9.61,5.46-12.59,4.81-5,7.62-8.61,8-8.45,6.3-8.78-3.48,2.81-6.3,3.31-8.28,4-8.28,4L22.27,285.28Z"/><path class="cls-39" d="M42.05,257.18a4.33,4.33,0,0,1-1.2,3.24c-1.42,1.55-4.77,5.55-6.07,7.23a74,74,0,0,0-6.19,9.42c-1.29,2.71-6.45,10.45-7.1,12.78a27.43,27.43,0,0,0-.77,5.29s-.39-16.52-.39-17.3-.52-7.61-.52-7.61l20.78-19.49L45.11,248Z"/><path class="cls-40" d="M51.44,308.92c-1.69-.72-7.12-4.7-10.49-4s-6.39,4.22-8.44,6.64-2.53,5.18-4.58,6.87-5.43,3.37-5.55,5.18S25.88,335,25.88,335L32.27,340l3.13-.25,8.32-17.11,9.4-10.61Z"/><path class="cls-41" d="M15.56,344.21s.06-1.75.2-4.7,1.47-4.83,1.47-9-1.2,1.61,0-4.16,3.36-6.84,5.24-5.5,5.77,3.09,6,5.9-1.61,12.89-1.61,12.89Z"/><path class="cls-42" d="M47.21,313.22c-2.45-.13-4.23.41-7.23,1.09s-.4-2-3,.69-1.09,4.09-2.59,5.72,2.87,2.59-1.5,1.64-4.5-1.64-4.09.27,1.91,5.19,3.55,6.28S37.8,332,37.8,332l10.09,1,2.46-8.18,1.09-5.73Z"/><path class="cls-43" d="M49.53,320.59c-.41,2-1.91,2.72-2.18,5.45s-.14,8.32-.14,8.32l8.46-2.18-3.14-13.91Z"/><path class="cls-44" d="M46.83,349.79s3.27-5.44,3.27-6.67-2.32-2.86-2.32-2.86l-10.07,5.31.41,8.71,7.76-.54Z"/><path class="cls-45" d="M41.52,330.33c-2.72-1.09-5.44-3.13-6.39-1.36S34,335.23,34,337.81a27.29,27.29,0,0,0,1,6,3.78,3.78,0,0,1,4.77,1.09c1.9,2.59,6,2.4,6-1s-2.58-9-2.58-9Z"/><path class="cls-46" d="M27.49,377.56c-2.1-3.7.16-1.28-2.1-6.76s-4.83-5.8-5.48-10.64-1.45-3.22-.32-6.61,3.23-.8,1.13-3.38-4.83-1.45-5-3.71-1.94,1.45-.17-2.25,2.26-1.61,3.55-3.55,3.22-5.64,3.22-7.73,1.61-5.32,4.35-1.93,5.8,6,7.41,8.54,2.26,3.38,4.19,2.73S41,355.86,41,355.86l12.55-12.13-9,22.23Z"/><path class="cls-47" d="M35.59,369.88c.62-2.63,0-6.34,1.24-11.6s-.47-9.74,1.54-9.89,2.78,6.18,4.79,3.25,4.49-3.41,5.11-6.19a45.56,45.56,0,0,1,1.85-5.87l6.65-3.87,2.78,14.53L58.47,384.1l-10.2,13.61L33.58,377.92Z"/><path class="cls-48" d="M49.64,397.71a56.1,56.1,0,0,1-1.18-10.48c0-5.14.79,1.19,0-5.14s-.79-5.14-.6-10.67,2.18-6.13,2.77-8.5,6.13-9.1,6.13-9.1l3.56,39.74,1.78,25.7Z"/><path class="cls-49" d="M446.92,298.14c-.17-1.6,2.46-5.26,2.46-6.49s.11,1.57,0-1.23-.78-2.91.56-6a74.42,74.42,0,0,1,4.59-8.17l-8.06-3.13-12.31-1.68-9.28,19.81-2.24,7L438,300.72Z"/><path class="cls-50" d="M440.92,248.13c1,3.29,2.8,2.8,2.64,5.6s-.83.82-.17,2.8-1,.66.66,2,1.32,1.48,2.14,3.46.83-.49.83,2-1,1.15.16,4.11l1.15,3s.66,1.74,1.65,2c2.49.59,3.95,1.16,3.95,2.14s.33,1.65-4.28.83,2.31-.83-4.61-.83a47.2,47.2,0,0,1-10.21-.82Z"/><polygon class="cls-51" points="451.59 311.66 448.93 302.58 432.71 301.66 425.97 306.46 427.5 314.31 447.81 317.07 452.61 316.25 451.59 311.66"/><path class="cls-52" d="M450.34,315.36c-.35-2.63,0-3.61-.54-5.67a26.54,26.54,0,0,1-.69-5.19l10,6.95-.39,4-6.76,1Z"/><polygon class="cls-53" points="444.52 323.21 443 317.75 426.89 317.75 423.09 346.54 428.92 358.46 440.85 357.7 444.52 323.21"/><path class="cls-54" d="M433.08,360.37c1.32-2.65,2.84-3.79,4.54-9.85s2.84-3.22,3.41-12.11,2.27-10,2.27-14,1.59-5.72,1.59-5.72l8.26,11.59L453,374.57l-4.65,13.89-14.67-7.26Z"/><path class="cls-55" d="M423.85,342.16s5.24,6.33,7,9.83,5.89,4.15,6.11,10.48,2.41,15.72,4.81,18.34,6.55,7.65,6.55,7.65l-4.59,25.77-3.49,12.44-6.33,3.72-15.29-32.11Z"/><path class="cls-56" d="M440,429.83A86,86,0,0,1,434,415.72c-2-5.69-9.16-15.59-10.65-16.58s-17.82,23-17.82,23l-7.92,12.13,8.17,19.8,8.91,21.05,18.57,2.22,5.19-33.66Z"/><path class="cls-57" d="M443.9,402.09c.25-6.44-1.24-8.91.74-13.12s1,3.46,2-4.21,1.74-9.65,2.23-13.37.74-6.19,1-10.15,3.47-5.69,3.22-10.89,0-5.94-2.23-11.14-2.62-5.25-3.22-11.14a24.18,24.18,0,0,0-2.72-9.4l9.66,1,4,17.2,2.69,33.3-2,27.47Z"/><path class="cls-58" d="M403.2,435.73s7.26,0,9.07-4.77,2.5-10.89,4.77-12.25,9.53-4.32,10.44-9.54-2.27-7-4.77-14.75,2.27-11.34,1.59-20.19,1.14-17.93.91-21.34-7.26.68-7.26.68l-25.42,38.58,3.86,27.46Z"/><polygon class="cls-59" points="487.7 364.47 486.67 367.88 475.33 359.78 472.6 351.17 478.4 351.25 487.36 356.11 487.7 364.47"/><path class="cls-60" d="M482.75,346.05l3.92-2.73,2.14,2.9-2.65,6.65a27.5,27.5,0,0,0-4.6,3.07,39.31,39.31,0,0,1-5.21,3.59s.34-5.55-1.19-7.68-4.09-5.46-4-7.76,6.14-6.4,6.14-6.4l7.42,4.52Z"/><path class="cls-61" d="M486.55,366.05a27.32,27.32,0,0,0-4.11.64,43.12,43.12,0,0,0-6.06,3l-5.6,1.49-.23,10.63,12.58-.91,6.63-8.81Z"/><path class="cls-62" d="M471.48,379.73s0-2.54.11-4.08,1.21-4.41,2-4.63,4.75.44,6.29.44,1.32-2,2.65-2.32a6.17,6.17,0,0,0,3.19-3.09c0-.55-.88-1.1-3.19-2.2s-5-2.65-4.52-3.86,2.75-4.52,2.64-4.85-2.87,1.21-4.3.77-2.65-.88-2.54-2.87,2.21-.66,2.87-2.75-1.76-2.32-3-3.64-.66-3.86-.66-5.19,2.1-1.43,3.2-1.65,5.84-3.64,5.84-3.64-1.35-11.94-4.58-13.35-5.61,1.41-8.7-1a87.53,87.53,0,0,0-9-5.61l1.83,35.36-2.39,23.86,10.81,11.22Z"/><path class="cls-63" d="M463.33,377a16,16,0,0,0,.85-5.64c0-3.58-1-2.22,1.88-7s2.39-5.3,2.22-8.2-1.54-4.09-1.54-12.8-.85-6.66-1.19-11.09S462,316.35,462,316.35h-7.68l-6.48,1.71s2.9,5.29,4.09,6.83,5.29,4.26,5.29,8.53v8c0,5.29,1.54,6.49.69,11.44a42.4,42.4,0,0,0-.86,8.88c0,2.21.17,6,.17,7.33s.35,4.1.35,4.1Z"/><path class="cls-64" d="M469.08,385.38a4.9,4.9,0,0,1-1.74-3.28c-.19-2.13-.19-6-2.7-6.77a10.56,10.56,0,0,1-5.22-3.67c-1.36-1.54-4.06-2.12-4.25.78a46.59,46.59,0,0,1-1.74,9.85c-1.16,4.25-1.74,5.8-1.74,8.51s-1,11.2-4.25,9.85-1-6.57-3.29-1.35-3.67,8.89-3.67,13.14-1.74,10.24-1.74,11.21a37.25,37.25,0,0,1-2.13,8.7c-1.35,3.67-3.86,5.6-3.86,9.08s-2,3.68-1.11,6.19,9.42,8.11,9.42,8.11l6.18-.19,14.5-34,7.53-24.93Z"/><path class="cls-65" d="M432.31,453.24s-4.48,2.24-5.4,4.22-2.9,6.2-3.83,7.91S421.63,478,421.63,478l.53,17.54,2.77,4.35,3.56-9.89Z"/><path class="cls-66" d="M424.93,499a27,27,0,0,1-1.85-6.46,86,86,0,0,1-.52-10.81c0-2.11,1.05-2.64-.66-6.59a70.09,70.09,0,0,1-2.9-8.31l-8.44,35.87,2,19.64,6.33,3H423Z"/><path class="cls-67" d="M420.1,530.73a7.47,7.47,0,0,0-.23-6.43c-1.73-3.62-2.36-2.83-4.88-3.77s-7.71,6.92-7.71,6.92l-10.07,29.74.79,17.3,14.32-13.84Z"/><path class="cls-68" d="M420.1,530.73V526.5c0-4,1.18-5.18,1.18-8.72s.47-8.24.47-10.36,4.71-17.66,4.48-19.54-1.89-4.47,1.41-11.54,3.77-10.83,3.77-16.71-1-10.36.23-12,3.06-4,4.95-1.65a52.37,52.37,0,0,1,4.23,7.06l4.95,2.36s-3.53,2.35-3.77,6.36.47,8.71-.23,10.59a44.94,44.94,0,0,0-1.42,8.48c0,.94.71,2.12.24,4s-1.41,5.18-2.59,6.59-1.65,1.65-1.65,4.48.47,5.65,0,7.77-2.59,2.59-3.3,6.59-.94,3.77-.94,6.59.24,5.42-1.18,7.3S426,530.5,426,530.5Z"/><path class="cls-69" d="M399.32,572.05s-.62-17.39,3.42-25.16,12.11-16.78,12.11-21.13-2.17-14-1.24-22.68,4-18.95,5.28-27.34,4.35-20.5-.62-21.75S404,452.44,404,452.44l-14.92,26.1-4.34,18.95-9,60.27-.12,35.45,16.58-9Z"/><polygon class="cls-70" points="342.75 568.61 360.38 560.1 365.04 596.58 354.3 603.47 329.57 621.3 302.62 603.06 316.8 579.73 338.9 565.98 342.75 568.61"/><path class="cls-71" d="M305.27,601a104.31,104.31,0,0,1,11-10.75c4.85-3.8,9.28-13.08,13.28-16a8.72,8.72,0,0,0,3.59-7.38l-19.4,1.68Z"/><path class="cls-72" d="M322.35,570.61s4.85-.21,7.17,1.9,7.81,8.44,11,8.65,5.06-3,6.75-7.81,12.65-15.6,12.65-15.6l15.4-19.19-22.36-12Z"/><path class="cls-73" d="M330.57,619s5.14-9.86,6-14.39,7.39-13.77,8.63-14,5.55-1,7.6,2.47,9.25,8.83,9.25,8.83l-.2,19.53-24.05,8.63Z"/><path class="cls-74" d="M325.37,563s1.8,3.84,0,7-5.87,6.76-8.57,9.7-8.12,6.76-9.25,11.95-1.13,8.57.45,9.47,13.31,4.51,14.89,6.32,9.7,9.47,10.15,11,5.18,10.15,5.18,10.15l-3.15,10.83-42.63-5.19-7.22-29.77,14.89-28.65Z"/><path class="cls-75" d="M297.19,590.66s-6.45,8-6.84,11.54-1.18,11.74.19,15.45,4.7,8.41,8.22,8.8,7,.2,10.76.39,7.82.79,9.58,1.77,4.3,6.06,4.3,6.06l-16.43,17-28.36-9.38-10.17-23.47,3.33-17.41Z"/><path class="cls-76" d="M355.89,534.17c2.65,4,9.65,9.45,9.84,12.1S368.94,558,368.94,558l3.78-.76,3.4-20.23-11.53-13Z"/><polygon class="cls-77" points="255.44 621.57 266.97 613.19 251.04 601.25 199.72 593.91 196.78 612.35 221.3 630.78 255.44 621.57"/><path class="cls-78" d="M207.05,601a28,28,0,0,1,10.06-1.68c5.23.21,10.26.42,15.08,3.35s14.87,6.08,18.86,5.87,8.17-1.47,7.75,1.46,5.44,5.87,5.44,5.87l8-9.22-3.35-23.46-57.61-2.31-21-1.67,5.45,17Z"/><path class="cls-79" d="M217.94,625.13a28.87,28.87,0,0,0,9,0c4-.84,13,1,16.55-.84s6.29-4.4,7.55-5,4.81-.42,7.54-2.09,4.82-1.89,6.07-4.4,4.79-7.4,7.09-2.93.45,6.91.45,6.91L250.42,631.2l-24.51,10.27-13.2-8.59Z"/><path class="cls-80" d="M194.71,582.7c2.92,2.25,4.72,5.62,7.41,9s7.64,8.31,6.29,11-4,7-5.61,7.64-13.94-1.8-13.94-1.8l-35.5-48.31-2.47-21.13,17.75-5.39,9,15.73.9,13.26Z"/><path class="cls-81" d="M201.89,582.8s-5.93,4.82-11.49.38-9.64-7-14.28-13.54-5.93-10.94-5.56-16.13.93-8.53.93-8.53l-4.83-14.3,9.83,7.07,16.13,24.1Z"/><path class="cls-82" d="M280.87,598.84a72.38,72.38,0,0,0,8.78-3.92c4.11-2.25,7.1.18,10.09-5.61s6.17-10.65,5.42-13.27-9.34-2-9.34-2L276,583.33,274.7,596.6Z"/><path class="cls-83" d="M222.08,590.64s4.38-.42,8.35-.42,9,0,11.48,2.5,2.5,5.22,5,5.43,9.6-2.09,12.94-3.13,11.06-1.88,7.93,0-7.1,4.38-7.1,7.1,5.85-.42,7.93,1,.42,7.51,3.13,6.68,5.85-4.8,6.89-6.68,7.93-7.31,6.68-9.6-7.93,4.17-6.89.62,5.22-7.09,5.43-9-.83-2.09-.83-2.09l-51.56.63-9.39.21-4.8,4.17Z"/><path class="cls-84" d="M164.79,574.73s9,6.66,11.37,9.21,7.25,8.42,10.77,12.34,4.9,5.88,6.08,5.88.58,2,4.11,5.09,2.55,5.49,7.44,7.45,5.69,3.13,10.39,4.9,5.09,3.72,5.68,6.66.2,5.68-.78,7.25a47.65,47.65,0,0,1-2.94,3.91l-37.62-20.76-11-16.65Z"/><path class="cls-85" d="M175.7,603.7s.37-2.25-.74-8.44-6-8.1-7.15-12.54-1.42-9.53-3.81-13.82-6.19-11.11-7.77-11.27-12.55,6.83-12.55,6.83l11.43,22.7L174,607Z"/><polygon class="cls-86" points="158.36 528.79 170.65 523.86 170.75 511.78 155.11 509.05 144.4 519.02 158.36 528.79"/><path class="cls-87" d="M178.1,542.34s-11.34-9.45-11.44-11.66.52-3.15.42-9a18.36,18.36,0,0,1,2.73-10l10.81,18.38Z"/><path class="cls-88" d="M152.78,549.42a7.09,7.09,0,0,0,4.39-5.19c1.1-4.24,13.2-7.85,13.35-10.83s2.36-8.64-2.2-9.11-5.18,1.88-9.26,1.41-5-.47-6-4.4a14.88,14.88,0,0,0-3.45-6.44l-11.31,2.83,5,28.74Z"/><path class="cls-89" d="M219,586.35s6.51,4.51,6.51,5.34-1.17,3.18-5.34,1.84-10.7-3.34-20.22-12.53-23.4-25.4-27.41-32.08A157,157,0,0,1,164,532.37c-2.67-5.68-4-9-3.34-9.52s10.86,18.21,12.87,21.39S187.24,560,187.24,560Z"/><path class="cls-90" d="M227.37,584.67s-5.05,4.29-13.4.76-12.38-9.11-19-14.42-6.82-2-12.39-12.89-4.8-18.71-5.05-22.25,2.27-3.54,2.27-3.54L235,574.05v11.63Z"/><path class="cls-91" d="M305.35,573.72s10.87-3.49,14.75-5.82,14.75-10.09,16.69-11.64,6-10.87,6-10.87l6-14.75L344.56,525l-18.05,3.11-31.25,41.34Z"/><path class="cls-92" d="M300,570.91s5.74-4.78,8.07-6.42,7.25-3.15,10.66-6.16S331.08,550,333,546.85s1.92-1.92,1.92-6.84v-9.43l-12.85,5.19-25.85,27.49-9.16,6.15,4.24,5.2Z"/><path class="cls-93" d="M368.55,537a12.19,12.19,0,0,1-6.5-1.38s-7.62-1.37-10.12-1.12-5.25,1.62-7.37,0,0-5.88-2.25-6-4.5,4.87-6.62,4.75-6.75-2.38-6.75-2.38l13.87-18.24,17.62,5.12Z"/><path class="cls-94" d="M372.7,541.89s-5.29-2.71-6.24-6.78-6.25-11.68-6.25-11.68-2.17.13-7.06.13a18.88,18.88,0,0,1-9.37-2.58c-1.36-.68-3.26-7.33-3.26-7.33l7.06-5.57,14,6.93,11,5,1.08,21.46Z"/><path class="cls-95" d="M357.83,516.34s-.54,8.64-4.32,11.52-5.58,6.12-10.08,9.54-8.28,3.6-8.64,7.56-.36,9,2.16,9,10.26-7.74,14.22-11.52,9.36-11.16,10.44-14.76a73.21,73.21,0,0,0,1.8-9.54Z"/><path class="cls-96" d="M233.48,576.36s-7.95,2.17-14.87-2.37-11-6.7-16-5.62,9.94,9.3,15.13,12.76,17.73,7.13,22.91,7.13,8,4.33,14.27,3.68,17.3-3.46,20.32-4.33,21.19-6.91,27.67-10.37,11-6.27,5-6.49-6.49-1.08-14.27-.21l-7.78.86Z"/><path class="cls-97" d="M229.34,636.8s8.46-4.76,11.11-6.35,16.14-6.88,20.64-10.06,7.68-7.14,13-6.08,7.15,8.2,7.15,8.2-.53,8.73,2.91,11.91,8.73,13.23,8.73,13.23l-23,12.17-43.14-13.23Z"/><path class="cls-98" d="M145.28,566.12s5.53.69,9-2.53,7.13-2.76,3.91-8.51-13.81-17.72-13.81-17.72l-5.75-26.22-4.14-16.33-8.74-3.23-9.2,13.58,13.8,37.5Z"/><path class="cls-99" d="M135.26,510.54s1.2,5.37,1.64,8.05,1,7.75,1.94,10.88,1,3,3,6.11,3.43,4.92,4.17,2.83-1.49-3-1.64-7.15-1-6.86-.14-9.69,3-4.62,5.06-4.62,4.18-2.83,6.56-2.83,2.09-3,2.09-3L139,493.85l-8.94-3.58,1.64,12.67Z"/><path class="cls-100" d="M138.79,497.09v5c0,2.94-1.66,3.12.73,6.07s2.21,5.51,5.52,5.51,3.67-1.1,6.79-2,5.33,1.65,7.72,1.47a7.93,7.93,0,0,0,4.41-2.39l-16.39-15.31Z"/><polygon class="cls-101" points="162.75 597.68 165.35 603.81 153.84 605.3 118.94 570.95 102.61 547.56 101.31 533.64 114.67 540.69 134.53 565.2 150.6 577.86 162.75 597.68"/><path class="cls-102" d="M112.9,541.5c-3.54-2.08-6.77.58-11.11-3A44.54,44.54,0,0,1,93.92,529l-9.6-36.52-1.25-17.32,7.3,2.92L105,503.53l12.11,32.13Z"/><path class="cls-103" d="M148,505.2s-4.44.21-6.13-3.17-6.33-8-8.12-9.61a8.32,8.32,0,0,1-2.33-4l7-15.83,4.54.11,2.53,13.3,2.11,9.39Z"/><path class="cls-104" d="M140.32,471.19s.18,5.35.18,7.67,1.34,3.39,1.87,6.68S145.5,493,145.5,493l5.17-5.18,4-4-6.33-14.53-2.41-4.46Z"/><path class="cls-105" d="M145.34,465.77l.63,4.66a22.17,22.17,0,0,0,2.65,8.58c1.38,3,1,9.33,1,9.33l21.81-13.62-4.92-10.46Z"/><path class="cls-106" d="M153.06,485s-4.77,2.15-7.08,4.77-3.69,3.69-3.69,6.77.92,3.23,2.77,5.84,3.38,4.92,6.61,6.15,11.08,1.85,11.08,1.85l14.46-23.07-1.7-8.31Z"/><path class="cls-107" d="M160.35,466.41s3.46,3.83,5.31,4.94,14.57.86,14.57.86l16.54-4.32-1.35-7.78Z"/><path class="cls-108" d="M196.67,468.85s-6.09-4-6.39-6.84S217.77,457,217.77,457l16,14.26-13.52,11.44-26.89-1.78Z"/><path class="cls-109" d="M223.56,475.83a94.53,94.53,0,0,1-15.15,4.08c-6.6,1-18.83-2.91-18.83-2.91l-11.85,4.85s-6.8,6.61-6.21,8,66.41-2.33,66.41-2.33l1-11.06Z"/><path class="cls-110" d="M104.62,516.56s-1.53,1.79,0,10,11.5,23.24,16.35,28.09,14.05,11.5,18.14,17.12,11.49,6.13,11.49,6.13l-31.93-47Z"/><path class="cls-111" d="M126.08,528.31s2.21-3,1.38-8.84-5-15.46-3.31-17.67,4.06-5.8,4.06-5.8l1.73-3.86-13-11.05-26.23,6.08,11,13.53Z"/><path class="cls-112" d="M143.47,568.89l-20.15-20.15s-5-8.29-11.6-18.78-13.53-26.5-14.36-31.75,2.76-9.66,2.76-9.66l16.3,27.61L124,530.5l8.74,16.58Z"/><path class="cls-113" d="M82,470.15s3.27,19.67,7.92,23.49,9.56,2.19,14.2.82,7.38-2.73,11.48-3,13.39-.82,14.75-2.46,3.55-16.12,3.55-16.12L88.81,453.21l-7.11-.82Z"/><path class="cls-114" d="M103.56,473.7s-8.47-1.09-12-5.74-9.84-15.57-9.84-15.57l1.2-25.64,3.45-16.43,15-.27,5.74,30.59,3.55,17.22Z"/><polygon class="cls-114" points="305.59 197.99 315.31 209.63 349.32 221.85 388.93 245.41 412.49 249.09 401.74 220.82 323.11 181.35 304.41 188.72 305.44 196.96 305.59 197.99"/><path class="cls-115" d="M308,199.3a39.82,39.82,0,0,0,6.75,3.9c3,1.2,10.2,6.9,10.2,6.9L311,224.19l-20.24,7.95-29.84-16.79L274.81,196l25.64-2.4Z"/><path class="cls-116" d="M278.91,209.64s-5.28,8.85-4,11.65,12.42,5.3,13.51,7.07-2.64,7.37-2.64,7.37L253.9,250.8l-14.76-3,2.8-12.12,31.22-27.8Z"/><path class="cls-117" d="M231.8,249.61s17.24-4,20.65-7.59a110.75,110.75,0,0,1,11.87-10.86c2.82-2,4.23-4.63,2.62-6.84s-7.24-5.43-3-5.84,13.28-2.61,13.28-2.61l-1-9.46-38.62-12.67-28.36,25.15,2.61,18.71Z"/><path class="cls-118" d="M249.28,208.49s15.38,2.79,21.37,3,12.58,3.6,11-.2-6.19-5.39-3.6-8.58,9.19-2.2,13-2.2,3.6-4.79,9.79-2.8,9,5.8,10,2.2-1.79-2.59,3.2-6.19,8.39-10.38,8.39-10.38L299.6,172.14l-34.55,14.38-15,9.79Z"/><path class="cls-119" d="M211.65,230.15s8.36-2.78,12.12-6,6.54-9.19,11-9.33,14.62-5.57,17.4-5.71,7.8-3.21,12.82-5.57,7.79-5,7.79-8.22v-3.2l-46.23,1.11S202.18,209.68,200.37,210s-11.42,4.6-11.42,4.6l8.5,17.27Z"/><path class="cls-120" d="M208.12,216.84s-6.34-1.88-9.26-1.88-6.69-1.55-5.83,3.26,3.6,10.63,8.4,11,9.61-1,13,1.54,12,8.75,14.41,11.67a15.79,15.79,0,0,1,2.92,7.2l-41.35-5.15-20.76-20.41L185,209.81l16.13-5,22,7.38a28.63,28.63,0,0,1-7.21,2.92C211.73,216.16,208.12,216.84,208.12,216.84Z"/><path class="cls-121" d="M172.7,229.93a155.9,155.9,0,0,1,9.45-13c5-6.06,12.82-17.11,12.82-17.11l-9.44-13.18-32.6-16.39-13.36,4.1-.89,43.11,29.21,18Z"/><path class="cls-122" d="M153.3,172.94s.85,5.77,3,9.4S162.05,190,167.4,190s15.16.21,19.43,1.07,14.1-12.18,14.1-12.18l-1.28-14.74Z"/><path class="cls-123" d="M197.8,176.18s-12.1-1.63-18.86-1.39-24.21-.47-29.33-.24-16.53.24-16.53.24L124,160.35l72.17-10.71,48.66,3.73-.46,14-26.31,13.27Z"/><path class="cls-124" d="M253.46,197.05s17.14-1.1,24-1.93,18-4.43,23.22-8,5.25-16,5.25-16l-59.7-15.48s-13,1.94-21,6.64-8,4.69-8,8.29S253.46,197.05,253.46,197.05Z"/><path class="cls-125" d="M165,232.54s-11.54-9.52-16.74-17.6-6.34-13-3.17-20.78,4-20.77.58-23.95-19.91-10.1-19.91-10.1L79.3,195l-7.21,6.35,14.71,19,31.74,17.89L151.73,251Z"/><path class="cls-126" d="M133.26,244.08s6.64-7.5-4.33-14.14-18.75-7.79-27.7-14.43S88.82,203.4,86.52,203.68s-14.43-2.3-14.43-2.3L60,215.23l9.52,23.37L75,263.41l34.92,8.37Z"/><path class="cls-127" d="M406.42,246.08a67.84,67.84,0,0,1-16.75-4.29c-7.55-3.27-26.54-16.74-30-18.78s-9-10.21-15.11-11-11.64-4.08-17.16-4.08-10.82,2.65-13.06,5.92-.41,13.47-.41,13.47l50.23,32.88,45.33,14.5.82,7.55,15.31,3.07-5.1-37Z"/><path class="cls-128" d="M400.93,227.57s.25,10.84,3.35,19.61,12.39,16.52,12.65,21.94-3.51,13-3.51,13l10.4,15.14s5.24-1.8,7-5.41,7.23-7.74,7.75-13.68,1.54-15.22,1.54-19.87,4.13-13.94-1.8-18.32a146.72,146.72,0,0,0-15.23-9.29Z"/><path class="cls-129" d="M286.7,232.65s15.46-2.82,15.46-8.44,7.38-9.14,10.9-9.14,9.49,11.25,13,11.6,13.36-4.22,17.92-1.76a108.31,108.31,0,0,1,19,14.41c4.92,4.92,10.9,23.55,10.9,23.55l-65.37.35-21.44-9.49Z"/><path class="cls-130" d="M468.1,388.39a51.89,51.89,0,0,1,1.7-5.83c.73-1.7,0-3.4,2.55-4a31.94,31.94,0,0,1,5.58-.73c1.46-.12,6.44,3.28,6.44,3.28l-3.64,12.63Z"/><path class="cls-131" d="M488.32,370.29s-.59-.71-1.77-4.24-3.17-4.46-3.17-8.81.35-4.47,1.88-6.58,4.11-6.23,4.11-6.23l5.41,1.05-3.41,23.87Z"/><path class="cls-132" d="M480.44,334.12s-3.34.94-3.65,2.6,2.29,6.43,3.12,8.3,0,4.87,2,3a18.16,18.16,0,0,1,6-3.53c1-.31,7.68-7.47,7.68-7.47l-1.77-7.26Z"/><path class="cls-133" d="M508.36,339.74s1.54-6.05,1.45-9.16,1.3-6.22-2.33-8.72-8.21-3.8-10.88-2.59-4.06,3.1-7.17,5.18-8.55,9.41-9,9.67,3.46-.6,5.1.26,6.91.17,7.43.26,2,4.49,2,4.49l4.92,2.42Z"/><path class="cls-134" d="M479.5,387.53a51.89,51.89,0,0,1,0-6.2c.23-2.18.92-3,2.53-4.58s5.27-6,5.27-6l12.16,11.47L490.06,410l-11-11.24Z"/><path class="cls-135" d="M486.39,402s6-3.21,6.19-7.68,2.87-7.23,0-12.74-6.31-6.65-5.28-10.78,6.89-9.18,6.89-9.18L498.54,395l-6.07,20.42-9.07,3.33Z"/><path class="cls-136" d="M346.48,510.38s7.53,7,12.26,8.41a125.63,125.63,0,0,0,12.43,2.63l-1.4-17.69-25-6.66Z"/><path class="cls-137" d="M363.61,503.5s3.72,6.79,4.6,12.27.22,12.26,2.41,16,2.63,3.07,2.19,6.79-2,9.86-3.72,17.31-7.12,27-9.2,35.06S356,616.09,356,616.09l22.83-21.53s-.77-3.64,0-15.84,2.08-30.1,7.27-40.22,5.19-12.2,5.19-21.8,1.56-19.2,1.56-25.43-4.93-22.84-4.93-22.84l-37.63,14Z"/><path class="cls-138" d="M360.06,480.71s14.13-3.11,20.2-1.28,18.52,10.93,21.26,10,2.73-7.29,3-13.36,4.25-17.31,2.74-25.81-6.08-20.65-4.86-29.45,10-14.58,7-21.86-15.79-14.27-15.79-14.27l-45.54,38.56L349.9,467Z"/><path class="cls-139" d="M358.08,459.32s6.37-8.71,7.88-11.06,7-13.91,9.05-15.92,9.22-4.19,9.22-10.9.17-16.43.17-19.28-4.53-8.71-4.53-8.71l-46.77,11.9-2,31.51Z"/><path class="cls-140" d="M352.91,440s1.57,9.09,4.2,13.29,3.84,8.74,2.62,11.54-7.17,6.3-7.17,6.3l-30.25-45.47,7.34-9.44Z"/><polygon class="cls-141" points="321.57 428.86 311.47 421.31 301.88 424.76 309.17 442.41 317.73 454.82 334.62 455.33 332.7 444.84 321.57 428.86"/><polygon class="cls-142" points="352.29 468.46 360.06 480.71 343.55 481.42 332.37 466.36 352.29 468.46"/><path class="cls-143" d="M332.86,446.93s-4.7-.49-7.61,1.46-3.89,7.77-3.89,7.77l11,15.54s12.31.81,15.06-1.13.32-5.83.32-5.83Z"/><path class="cls-144" d="M326.24,464.53s10.66,6.43,16,8.46,17.83,7.72,17.83,7.72l5.34,13.42-7.73-2.21L304,472.44l.55-11.59Z"/><path class="cls-145" d="M307.84,432.1s5.21-1.48,5.43,1.47-.79,10,.68,11.67,5.1,2.6,8.16,6.23,7.14,5.78,6.69,8.95.68,6.35-5.9,7.25S312,469.6,307.84,469.6s-17.68-4.19-17.68-4.19l-7.48-10.31,13.94-14.62Z"/><path class="cls-146" d="M286,454.47a43.52,43.52,0,0,0,5,5.83c2.66,2.49,6.49,2.66,12.31,6.32a14.24,14.24,0,0,1,6.49,9.65l-40.27-3.33Z"/><path class="cls-147" d="M307.9,423.72s5.26,3.61,9.17,3.76,13.23,1.95,13.23-2.11-8.87-16.83-8.87-16.83L301,400.72,297.07,417Z"/><path class="cls-148" d="M299.29,412.32s6.54-5.09,6.54-7.39.48-18.52.48-18.52l-17.55-15.62L276.29,388.1Z"/><path class="cls-149" d="M297.46,393c-1.23,1.22-1.39,6.06.86,9.69s7.27,5.71,12.64,9.35,28,14.46,34.06,19.83,3.86,10.94,12,11.21,7.82-5.65,8.77-10.82c.81-4.43.48-7.59-1.81-15-3-9.66-11.57-14.37-16.39-14.66-7.44-.45-25.43-5.32-32.69-10S304,390,304,390,299.36,391.05,297.46,393Z"/><path class="cls-150" d="M280.39,394.57s7.06-1,5.93-4.29-1.52-4.92,0-8.33,1.51-3.78,2.65-4,1.64-5.3,1.64-5.3L276,355.83l-19.81,3.91,11.23,18.8Z"/><path class="cls-151" d="M281.64,361.8a11.5,11.5,0,0,0,2.49,6.86c2.67,3.54,6.86,8.7,7.58,9.91s12,11.93,14.75,13.06,9.76,4.27,13.14,5.88,19.11,5.33,24.35,6.13,16.69.89,19.59-.08,17.65-4.27,23-7.74,18.06-13.14,21-16.36,10.64-12.9,13.22-18.78,5.16-11.94,5.24-14.92a69.52,69.52,0,0,0-.64-8.3L380,390.64l-69.5-4.29Z"/><polygon class="cls-146" points="306.13 481.12 269.81 478.66 269.96 493.42 307 494 306.13 481.12"/><path class="cls-152" d="M314.82,485.18s-6.59-.29-9.18.43-6.16,8.6-6.16,8.6l38.15,13.63s8.61,5.59,9.75,4.45,5.45-5.6,5.45-5.6Z"/><path class="cls-153" d="M209.74,457.76s16.17,11.55,18.74,11.81,37.48.51,41.59.51,10-4.36,10.27-6.67,8.21-11.3,9-12.07,3.34-12.83,3.34-12.83S230,445.92,225,446.83,205.12,444.93,209.74,457.76Z"/><path class="cls-154" d="M138.35,245.27s10.77-5.72,16.83-9.08,11.79-9.09,20.2-8.08,13.47,3.7,18.18,8.41,10.1,17.84,10.1,17.84l-30.51,9.37-34-3.57Z"/><path class="cls-155" d="M173.15,263.73l-6.91,4.81-76.66,1.21S98.29,255.62,104,250.2s13.22-8.11,23.45-10.22,15.33,3.61,18,6,.61,9,4.81,11.72,14.13,2.1,14.13,2.1Z"/><path class="cls-156" d="M82.9,426.75s4.78-9.2,8.67-10.8,14.87-8.14,14.87-8.14L84.85,382.15,59.72,385l16.1,35.22Z"/><path class="cls-157" d="M153.87,265.08s-7.48-2.95-14.76-4.92-7.48-3.54-13.58-2.76-18.3,7.29-23.42,7.29-11.21,1-12.79-1.38-1-5.31-1-7.28,2-9.45,0-13-12.4,3.94-12.6,5.9-2.95,32.87-2.95,32.87l6.5,6.69Z"/><path class="cls-158" d="M252.11,249.71s7.46-7.12,10.59-9,10.58-4.34,14.05-6.43,6.42-5.9,11.63-5.9,15.79,6.08,18.74,8.51,2.09,1.56,3.3,6.77,4.17,16.66,4.17,16.66Z"/><path class="cls-159" d="M239.11,249.05s-4.6.23-12.9-1.85S208,240.29,203,242.14s-7.6,12.66-7.6,12.66l27.87,40.77,32.93,6,.93-23.26Z"/><path class="cls-160" d="M254.09,276.38a23.47,23.47,0,0,1-7.59-6c-2.76-3.68-1.84-9.19-7.13-13.79s-8.73-8.05-4.37-9.2,7.13.69,14,.23,10.8-.69,16.09-2.07,14.48-4.59,14.48-1.15,1.38,5.75,5.52,5.75,14.49-5.29,16.33-4.83,3.21,15.41,3.21,15.41Z"/><path class="cls-161" d="M272.37,270.84s-2.19-4.67.28-8.51,2.47-7.69,5.22-7.42,8.78,7.69,12.08,6,6-8.24,6-9.33,4.39-3.85,4.12-1.65-.76,10.78,1.4,9.23,9.86-6.76,11.78-6.76,5.22,8.24,5.22,8.24l-39,20.73Z"/><path class="cls-162" d="M212.39,275a37.82,37.82,0,0,0-6.06-4.75c-2.45-1.31-4.25-5.73-8.18-5.73s-5.24,1.64-9.33-.49-3.11-5.9-4.75-8.19-3.93-3.93-7.37-1-8,.66-11.79,1-1.8,3.11-2.61,4.26,2,8.35,2,8.35L200,286.32l18,.17Z"/><path class="cls-163" d="M280.58,273.34s-4.19-2-7.61-4.19-4.5-4.66-8.84-3.42-9.32,1.87-11.18,5.75-1.55,8.07-2,11.64.78,10.08.78,10.08l27.78-11.79Z"/><path class="cls-164" d="M283.49,267.08s-4.61,6.75-7.22,9.06-8.13,7.21-13,9.05-11.64,5.38-13.35,7.07,1.23,4.91,1.23,4.91l16,13.16,6.15,9.4L280,293.91l14.88-14.7-4.29-8.14Z"/><path class="cls-165" d="M78.05,286a49.23,49.23,0,0,1-.82-7.35c-.16-4.24-.32-11.26,0-18.27s-.65-17.79-.81-23.82.32-9.79.32-14.36-1-7.51-2.28-9.3-7-3.1-7-3.1l-9.3,19.9s-.32,13.06-.32,15.83-.82,8.32-.82,9.79-1.63,4.57-1.63,4.57L59.29,279l10.44,21.7Z"/><path class="cls-166" d="M69,299s-1.45-8.15-2.54-12.32S63.41,268,63.05,264.91A7.8,7.8,0,0,0,58,258.57c-2.35-.73-4.17,2.53-4.17,2.53s-2.35,23.55-2.17,27-1.09,16.85-1.09,20.65A51.83,51.83,0,0,0,51.1,316l14.49-2.17Z"/><polygon class="cls-167" points="53.18 334.92 51.51 318.01 67.17 318.85 58.4 333.46 53.18 334.92"/><path class="cls-168" d="M55.5,378.45V367.33c0-2.51-.36-14.95-.48-17.46S54,341.14,54,341.14v-4.66l9.56-1.07,3.71,21.28L68.65,375Z"/><path class="cls-169" d="M71.86,407.27a61.71,61.71,0,0,1,0-8.13c.32-3.5,4.94-16.25,4.94-16.25l-7.33-15a8.25,8.25,0,0,0-5.89,2.23c-2.87,2.55-5.26,3.67-6.7,5.26a6.35,6.35,0,0,0-1.43,3.83l1.11,19.91L57,410.61l11.63,15.3,4.47-11.31Z"/><path class="cls-170" d="M82.68,484.43a132.65,132.65,0,0,0,1.87-18.57c0-7.88-.19-16.13-.94-24.2s3.19-11.25,2.44-15.57,1.88-3.94-3.37-9.75-8.63-16.51-10.88-11.63-2.25,10.5-3.75,16.69a75.78,75.78,0,0,0-1.69,13.7Z"/><path class="cls-171" d="M44.84,393.71s4.85-1,5.85,1.62,3.36,7.46,3.61,9.33,3.6,8.83,3.6,8.83V427.3L42.23,414.36l-1.12-15.17Z"/><path class="cls-172" d="M32.45,364s3.24,1.47,3.83,4.42.15,11.35,1.33,13.27,7.07,7.37,7.52,8.1,2.8,4.72.44,6.64-3.83,4.86-1.77,7.51,2.8,5,5.31,5.61,3.83-.89,4.27,2.8a48.82,48.82,0,0,1-.15,9L37.46,413.7,29.65,387Z"/><path class="cls-173" d="M28.27,385.27a102.85,102.85,0,0,1-1.39-12.63c0-4.46,2.23-13.39,2.92-16.14s3.43-7,3.77-4.46a70.74,70.74,0,0,1,.86,10.81c0,5-2.23,6.7-1.54,11.51A50.29,50.29,0,0,0,36,385.86a15,15,0,0,1,.86,6.87Z"/><path class="cls-174" d="M109.37,454.3s-3.74-4.15-6.86-13.72-4-24.32-3.74-28.47S106,397.35,106,397.35l22,17.88-6,37.2Z"/><path class="cls-175" d="M128,480.83s.27,8.26-8.78,7.72-16-1.33-17-7.45-1.07-16-1.87-21,8.52-9.58,12-9.58,15.7,6.66,15.7,6.66Z"/><path class="cls-176" d="M62.15,340.75s.52,10.69,1.25,14.67,7.24,23.17,10.68,26.24S86,396.87,99.24,402.84l13.21,6,5.43-3.26Z"/><path class="cls-177" d="M121.48,438.62s-7.37,10.06-7.37,14.48,2.21,24.29,7.37,28.22,11.28.24,11.28.24L146,460.46l1.12-25Z"/><path class="cls-178" d="M146.58,465.05a115.37,115.37,0,0,0,12.21,2.6c4.81.6,12.22-1.4,16.62-2s11.21-2.2,16.22-1.8,16.41-.2,17.61-2.6,5-3.61,5.41-5.81-1.53-8.74-1.53-8.74l-18.69-15.28-15.22,6Z"/><path class="cls-179" d="M159.11,452s2.1,2.83,4.07,3.57,10.48,1.85,13.07.62,3.45-5.92,4.07-9.74,7.76-12.82,7.76-12.82l15-31.44-7.34-1.53-30.45,18.82Z"/><path class="cls-180" d="M146.81,441.76a48.82,48.82,0,0,0-5.89,11.93c-1.7,5.88-4.8,21.83-4.8,21.83l10.69-11.77,16.57-17.81,8.2-9.13s.93-4.8-.15-7.75-6.51-5.26-6.51-5.26l-24,12.7Z"/><path class="cls-181" d="M114.65,404.91S106,410,106,415s3,13.86,6,16.67,11.61,11.24,15,12.36,7.68,3.19,14,1.5,13.49-7.49,15.18-9,4.12-15.36,4.12-15.36l-14.77-12.73Z"/><polygon class="cls-182" points="205.2 380.71 200.35 376.71 189.21 390.08 190.18 394.49 205.89 402.21 215.54 392.56 205.2 380.71"/><path class="cls-183" d="M145.59,408.48a110.41,110.41,0,0,0-5.06,10.66c-1.6,4.26-4.53,9.59.53,12s23.18-1.59,30.37-4.79,15.45-15.72,21.31-18.92a54.87,54.87,0,0,0,10.13-7.19s2.93-5.06-2.13-7.46-13.59-2.13-13.59-2.13Z"/><polygon class="cls-184" points="224.89 303.97 222.95 309.69 228.56 328.99 235.24 341.6 253.46 342.57 258.21 340.41 265.64 321.87 267.05 310.33 260.9 302.89 224.89 303.97"/><path class="cls-185" d="M234,303.11s-.32,7.47,1,11.41,3.73,10.56,4.69,13.22,1.39,5.87,3.95,5.76,3.52,0,3.84-2.88,2.87-9.81,3-13.54-.53-15-.53-15Z"/><path class="cls-186" d="M264.25,317.05s-4.13,3-5.41,5-4.69,7-5.26,10,2,15.93,2,15.93,8,14.94,11.24,15.51,6.4.28,9.39.28a29.53,29.53,0,0,0,6-.71l-4.83-13.94-10.1-20.91Z"/><path class="cls-187" d="M223.29,307.3s3.63,5.79,4.88,8.4,2.38,7.37,3.17,10.54,3.63,7.6,4.54,9.19,1.25,7.48,1.25,7.48l-15.54-6.57-2.15-24Z"/><path class="cls-188" d="M264.61,307.06s-.76,6.89-.86,8.82a51.5,51.5,0,0,0,.21,7,11.21,11.21,0,0,0,1.51,4.09l6.88,3.23-.11-10.33-4.41-4.74Z"/><path class="cls-189" d="M221.29,309.29s8.81-4.7,13.62-5.38a87.23,87.23,0,0,1,15-.35c1.95.23,13.28,2.06,15,2.52s2.17-2.74,2.17-2.74L261.23,298,240.4,297l-11.33.8-9,4.24v7Z"/><path class="cls-190" d="M200.35,376.71s.44,2.63,3.52,6.58,10.53,10.1,10.53,10.1l19.92-10.66-7.84-34.12-2-6.15L212,350.14Z"/><polygon class="cls-191" points="397.58 308.86 376.93 317.8 398.27 330.22 414.7 330.76 419.63 323.64 411.55 306.67 397.58 308.86"/><path class="cls-192" d="M411.41,308s-.27,4.65.82,7.53,4.93,11.5,4.93,11.5l5.61-4.66-5.34-18.62Z"/><path class="cls-193" d="M392.42,313.18a28.16,28.16,0,0,1,9.34,0c5.74.82,9.35-4.26,9.35-4.26l-17.22-14.75-14.09,6.88Z"/><path class="cls-194" d="M387.34,303s5.57-6.89,6.39-7-6.07-14.59-6.07-14.59l-22.29,10.16Z"/><path class="cls-195" d="M374.06,293a9,9,0,0,0,6.55-2.62c3.12-2.95,10.5-5.41,10.5-5.41l-27.05-14.76-22.79,4.59,4.26,14.43Z"/><path class="cls-196" d="M366.32,273s3.48,6,6.29,6.79a39.41,39.41,0,0,1,7.12,3.48s.67,2.48,2.49,2.65,4.64-1.16,5.3.17,2.49,3.14,2.49,5.13-4,1.66-2.65,3.15,5.46,1.49,7.95,4.47,3.31,8.45,7.78,9.11,6.63,3.48,10.11,3a69.78,69.78,0,0,0,7.62-1.65l-7.4-27.18-42-12.58Z"/><path class="cls-197" d="M403.52,330.48a18.82,18.82,0,0,0,7.32-2.23,45.94,45.94,0,0,1,8.6-3.34l.16,26.28-6.21,10.2-11-10.84Z"/><path class="cls-198" d="M341.39,279.55s8.64-.72,14.88,1.19,16.31,7.92,19.19,10.56c1.69,1.55,3.88,4.59,6.18,7,1.61,1.72,3.27,3.13,4.86,3.53,3.84,1,6.72,3.6,3.12,7.2s-11.28,7.19-14.4,3.36-30.71-11.52-30.71-11.52l-19.91,2.88L320,292.5l18.71-15.11Z"/><path class="cls-199" d="M381.64,298.33a94.24,94.24,0,0,1-11,1.36c-3.33,0-9.36-1.87-13.11-1s-5.41,4.58-5.41,4.58l24.77,14.57s11.65-.21,13.94-1.67,4.37-6.45,2.5-9.36-3.33-2.83-7.08-6.25S381.64,298.33,381.64,298.33Z"/><path class="cls-200" d="M403.2,335a5.45,5.45,0,0,1,4.28.16c1.9,1.11,2.85,2.06,1.9,4.28s-6,4.12-6,6,4.12,3.17,5.39,5.23,4.91,9.67,4.91,9.67l-10.94,12.69-28.86-20.93-9.67-6.82,10.3-8.57Z"/><path class="cls-201" d="M394.32,357.21s5.23,3.81,7.29,6.34,3.49,9.84,3.49,9.84l-15.22-.32L382,359.75l-1.59-8.56Z"/><path class="cls-202" d="M379.33,341.09s11.55,2.74,14,2.34A24.15,24.15,0,0,0,401,340.2c1.21-.94,4-5.24,4-7.66s-2.15-7.79-6.59-8.47-3.63-.67-9.54-2.28a55.2,55.2,0,0,0-13.17-1.48Z"/><path class="cls-203" d="M366.4,345.62s8.71-1,11.89.74,7.6,5.39,11.4,6.5,6,3.06,5.89,4-1.84,2.09-5.64.62-9.81-4.66-7.11-2.09l2.7,2.58s5.15,2.69,6.25,4.65,1.84,6.38,1.84,6.38l-29.06-3.31-5.76-14.59Z"/><path class="cls-204" d="M369,363.28s11.75-.13,14.37-.27,9.54,3.31,13.27,4.83,8.29,7.6,8.29,7.6l-18.24,8.3-21.83-8,2.07-11.19Z"/><path class="cls-205" d="M373.47,273.22s17.06,6.38,21.89,9.66,13.44,10,14.82,12.41,7.76,10.51,7.93,17.23-.86,31-.69,32.75.52,6.9.52,6.9l8.1-24.48-8.79-39.13-26.37-15.51Z"/><path class="cls-206" d="M395.23,277.6s8,4.36,11.24,7,9.4,8.39,11.08,13.93,4.2,15.27,3.86,23.33-.67,22.32-.67,22.32l5.71-10.4L425.94,310,420.4,291.7,404,276.09l-11.24-3.19Z"/><path class="cls-207" d="M324.44,292.42s4.82,7.24,4.25,8-19.28-.23-19.28-.23l-16.76-11.94,9.64-3.1Z"/><path class="cls-208" d="M295.16,291.94s4.57-1.14,7.81,0,11.62,5.52,14.66,5.9,6.1,4.19,6.1,4.19l-23.61,12.71-9.72,6.9-17.1,2.49.54-17.89,9.33-7.07Z"/><path class="cls-209" d="M333.7,281.75s5.42.94,8.23-.56,12-8.24,12-8.24l-22.09-1.12-11.23,4.3Z"/><path class="cls-210" d="M299.25,285.68s13.29-.75,13.48-3.18-3-8.61-3-8.61l-17.22,8.23,5.05,5.06Z"/><path class="cls-211" d="M275.65,305.84s8.25,2.91,11.42,1.52,4.44-2.92,6.21-6.6,1.65-7.23,3.68-8.75,1.78-2,2.92-3.17,3.17-2.54,7-1,11.41,6.47,14.59,6.47,6.85-3,8.75-5.71,7-6,7-7.61-2.29-2.41-5.59-2.66a60.1,60.1,0,0,0-8.75.38l-13.32,3.43a57.19,57.19,0,0,1-5.83.76c-2.41.12-10.66.63-10.66.63L280,293.91Z"/><path class="cls-212" d="M367.91,373s6.38,5.93,10.94,5.93a100.11,100.11,0,0,0,14-1.07,43.83,43.83,0,0,1,5.78-.6L386.9,389.11l-15.19,6.08L355.6,382l-1.37-13.83Z"/><path class="cls-213" d="M355.05,375.57s5.83,6,7.42,8.31a27.62,27.62,0,0,0,7.43,6.55c1.59.7,4.24,5.12,4.24,5.12l-20.51,3.89-33.42-5.3L297.4,378.93l-2.12-14.67,9.9-7.25Z"/><path class="cls-214" d="M299.25,358s9.49,6.52,12.61,7.86,11.71,4.74,15.12,5,12.75,1.48,14.68,1.93,5,6.37,7.12,6.08a31.41,31.41,0,0,0,7.71-2.82c1.18-.74-.6-5.63,2.07-5s15.13,5,16,5,1.78-.74.29-2.37-5.78-3.41-5.78-4.9.74-5.66,1.78-6.54a3.37,3.37,0,0,0,1.19-1.91l-62.28-6.08-13-2.81Z"/><path class="cls-215" d="M300.12,350.19s.39,7.86.39,12.46-1.73,18.78-1.73,18.78L281.34,356.9l-5.94-16.48-2.1-16.29s6.89-4.6,11.88-5.75,14.94-3.64,14.94-3.64Z"/><path class="cls-216" d="M298.21,319.86s-4.93,3.21-5.92,4.07-4.81,3-5.43,4.44a15.74,15.74,0,0,0-.74,7.41c.49,2.22,3.33,5.31,3.33,5.31l18.39-.25-7.53-22.34Z"/><path class="cls-217" d="M351.18,300s9.2.58,12.7,2.63,9.06,2.48,10.67,4.23,2.62,7.3,4.81,9.79,7.6,8.47,6,8.47-34.9-19.28-34.9-19.28Z"/><path class="cls-218" d="M300.62,323.89s-3-1.12-3.77-3.6-1-6.58.3-7.45,6.86-4.09,9.63-5.4,10.35-4.85,12.27-5.55c2.78-1,7-3.66,9.79-3.66,0,0,16.5-.29,21,.59s7,3.65,9.2,5.11,3.65,6.57,3.65,6.57Z"/><path class="cls-83" d="M362.68,353.61s5,2.08,7.23,2.89,4.33,2.08,4.33,3.05-.32,3.05-3.37,2.72-6.1-1.28-9.15-1.28-6.42.8-7.7,1.93a7.35,7.35,0,0,1-7.55.8,15.87,15.87,0,0,0-8.66-1.45c-2.57.33-5.46,2.09-10.27,1.13s-8.67-3.21-14.29-5-14.28-4.81-17.33-8.18-8.18-5.94-8-9.63,2.73-4.82,5.29-4.82,9.79,2.09,9.79,2.09l51.84,6.58Z"/><path class="cls-219" d="M329.94,354.57s6.42,2.73,10.44,2.89S352.25,356,356.75,356s9.14-1.61,10.27-3.21-2.09-4.5-5.78-4.66-8.67-4.81-14.77-5-23.59,5-23.59,5Z"/><path class="cls-220" d="M329,347.35s4.17,2.25,4.5,3,1.76,6.26-1.13,5.78-12.52-1.45-17.49-5.62-6.9-3.05-8.67-3.69-2.57-2.09-3.21-4-1.44-4.66-3.37-5.62-5.94-4.17-5.45-5.14,35.14,3.37,35.14,3.37Z"/><polygon class="cls-221" points="93.99 349.57 96.05 343.79 89.2 336.11 74.43 340.62 71.77 349.9 73.67 357.16 90.44 352.95 93.36 351.22 93.99 349.57"/><path class="cls-222" d="M93.36,351.22s-7.59.95-10,1.16-9.7,2.42-9.7,2.42l-.11,7.28,8.65-.11,14.24-9.07Z"/><path class="cls-223" d="M74.43,340.62s5.15-.52,7.84-.52,14.52.86,14.52.86l3.69-5.11-9.35-6.22-19.84,1.43Z"/><path class="cls-224" d="M77.54,321.32l-1.2,9.33s3,3.42,6.37,3.23,5.45,0,9.33.09a21.37,21.37,0,0,1,6.66,1.2l1.57-14.41-8-8.22-13.49,2.68Z"/><path class="cls-225" d="M97.69,317.27a9.29,9.29,0,0,0-2.23,5.29,39.87,39.87,0,0,0,.47,8.27c.55,2.51,4.55,5,4.55,5l23-16.35,3.25-9.29-9.47-5.48-12.08,4.92Z"/><path class="cls-226" d="M97.13,339.83a27.45,27.45,0,0,1-.1-7.19c.53-3,3.8-3.18,7.29-4.76s8-5.08,10.58-6.45a53.69,53.69,0,0,1,7.19-2.86v9l-20.62,12.9Z"/><path class="cls-227" d="M89.82,316.18S95.57,319,98.35,319s6.52-1.24,8.35-3.64,6.32-9,6.32-9l-9-6L88.38,313.88Z"/><path class="cls-228" d="M78.28,332s2.21-4.31,2.43-6.29,4.51-6.71,7.81-8.36,8.92-2.42,8.15-4.4a13.14,13.14,0,0,0-3-4l-17.17-1-2,14.27Z"/><path class="cls-229" d="M92.78,353.4s-6.1,4.19-10.81,5.46-10,2.29-10,2.29l9.15,14,27.09-16,2.92-11.95Z"/><path class="cls-230" d="M95,343.05s-1.39,3.19-2.24,5-2.23,8.39,1.81,7.54,4.36-1.91,8.08-2.55,10.1-1.59,10.1-1.59l-3.3-8.4Z"/><path class="cls-231" d="M109.65,345.67a5.86,5.86,0,0,1-1.83,5.33c-2.52,2.38-1.54,3.93-7.15,7S90,363.62,87.49,366.14s-7.29,6.59-7.29,6.59l6.13,7.53,7.61-1.08,33.51-29.72-17-7.43Z"/><path class="cls-232" d="M227.14,338.73a85.82,85.82,0,0,0,9.44.66c4.39,0,13.17-.22,16.9.65s4,8.79,7.68,13.18,3.73,7.46,3.73,9.44-.43,10.31-.43,10.31l-4.61,14.93-43.69,2.86s6.59-21.74,7-25.69,1.76-14.05,2.42-18.66A63.32,63.32,0,0,1,227.14,338.73Z"/><path class="cls-233" d="M124.05,350.18a63.64,63.64,0,0,0-11,4.17A177.67,177.67,0,0,0,94.45,365c-3.66,2.54-7.22,6.71-7.93,9s.3,8,.3,8l12.61-.82,46.08-18.71L149,355l-17.39-6.61Z"/><path class="cls-234" d="M118.15,363.64a49.91,49.91,0,0,0-9.27,1.94c-3.48,1.28-9.67,3-13.66,6.05a82.78,82.78,0,0,0-8.89,8.63l9.92,11.08,7.47-1.29,19.84-16.74Z"/><path class="cls-235" d="M120.86,372.79s-5.8-1.67-8.89.39-2.45,6.31-5.93,7.21-3.86,5-6.31,6.06-3.48,4.89-3.48,4.89L110,399.59Z"/><path class="cls-236" d="M123.62,369.16s-2.18,3-3.87,4-3.36.76-3.36,3,2.35,6.4,2.35,6.4l29,.67,1.1-15.23Z"/><path class="cls-237" d="M120.51,380.94s1.15-2.58,2.3-3.3,4.59,0,6.88-1.29a18,18,0,0,0,4.16-3.44s-.14-2.3,2.73-1.29,3.44,5.31,5.59,4.44a12,12,0,0,1,5.16-.43l1.44,8L133.28,390l-10.47,6.88-2.58,5.74-7.61-2.44,5.17-13.91Z"/><path class="cls-238" d="M146.94,380.36s-2.4.38-2.4-2.65,3.54-9.35,3.54-9.35l26.89,1.9,8.59-9.09,11-4.29-4.29,28.53-8.71,5.3L157.67,398l-10.35-13Z"/><path class="cls-239" d="M151.37,388s5.5.49,6.14,1.78,1.46,8.73,1.46,8.73l-19.07,3.71L133.27,395Z"/><path class="cls-240" d="M108.92,303.83s1.71,4,4,4a9.48,9.48,0,0,1,6.47,2.24c1.58,1.59,5.28,5.15,5.28,5.15l16.64-9L135.33,296l-22.45-2.37Z"/><path class="cls-241" d="M133.69,298.68s1.5,5.5,1,6.34.25,5.84.42,6.18,22.7.25,22.7.25l19.28-1,5.34-4.84-13.94-12.43-20.36-4.59-14,4.75Z"/><path class="cls-242" d="M188.73,357.36s-.95,6-.71,7.53-.6,3.23.11,6.45,1.67,7.32.9,9.24-.25,5.47-.25,5.47l16.33-18.87,8.42-22.59-7.85-19.9-17.61,19.14Z"/><path class="cls-243" d="M284.52,448.24a40.81,40.81,0,0,0,9.05-.26c4.27-.71,11.21-3.92,13.35-9.61s4.62-14.06.17-21-11-16-14.41-18-20.1-14.94-20.1-14.94l8.18,47.86Z"/><path class="cls-244" d="M217,392.35s8.52-6,12.57-11.71,8.3-4.26,16-5.32,12.14,2.12,17.89,6.81,23.43,26.2,24.28,29.61,1.49,18.1-3.4,17.89-74.76-5.54-74.76-5.54-5.33-13.63-4-17.89S217,392.35,217,392.35Z"/><path class="cls-245" d="M287.35,401.05s-10.29-15.6-14.94-20.74-5.14-10.63-7.63-10.46-6.47,2.49-5.64,5.48,5.47,13.11,7.8,16.26a205.15,205.15,0,0,1,11.12,18.59c2.32,4.65,5.81,12.61,10.29,12.61s1.66-9,1.66-9Z"/><path class="cls-246" d="M304,495.67s19.68,2.26,26.25,3.55,15.6,4,14.95,11.08S336,523.21,336,523.21l-6.24,8.72Z"/><path class="cls-247" d="M330.59,534s7.4-10.36,9.26-13.41,5.36-8.12,2.68-11.47-7.45-5.81-10.35-6-5.75,10.56-5.75,10.56l1.5,14.91Z"/><path class="cls-248" d="M202.81,338.57s-.06,3.21-.06,4.79-.25,4.54-2.27,4.48-5-.7-5.49-1.9-.25-3-1.7-3.27-3.28.12-2.77,1.76,2.27,5.68,2.27,7.76-2.27,5.73-4.35,7.25-5,4.35-6.62,4.47-5.36.51-5.36.51l-17.59-4.92s3.92-2.88,4.92-4.6,6.87-4.86,6.87-4.86l.28-9.44,9.88-5.15Z"/><path class="cls-249" d="M302.52,562s14.76-8.83,17.26-12.39S327,540.47,330.59,534s0-10.67-2.77-10.67-31,13.7-31,13.7l-10.54,10.28Z"/><path class="cls-250" d="M286.88,572.9s10.89-6.66,13.68-9.08,8.47-3.51,7.26-9.32-7.26-10.53-9.2-11.62-2.78-3.26-8.83-2.17-24.73,5.22-24.73,5.22l2.46,9.54,15.37,16.82Z"/><path class="cls-251" d="M253.47,450.12l2.92,3.76s-2.06,4.38-8.14,4.62-15.81-.12-18.73-2.79-4.5-8.88-4.5-8.88Z"/><path class="cls-252" d="M214.9,397.6s-3.38,11.92-2.85,17.26,4.45,6.94,4.45,10.14S219,442.79,219,442.79l2.67,8.89-8.54-5-5.34-3.91-11.56-.18-1.78-24.73Z"/><path class="cls-253" d="M263.49,426.55s7.86-4.72,12.92-5.59,14.67.87,15.55,2.09-6.12,19.21-6.12,19.21l-23.57,7.16-13.8,3Z"/><path class="cls-254" d="M255,452.05s-4.89,2.2-12.65,1.36-19.08-2.54-19.08-2.54-13.84-12.65-12.65-19.74,17.89-22.28,20.59-27.18,7.59-8.1,15.69-6.92,11.65,7.26,11.82,12-1.18,9.62,3.37,12.66,5.57,1.85,5.57,7.08-3.37,13.34-5.4,15.87S255,452.05,255,452.05Z"/><path class="cls-255" d="M274.66,489a122.9,122.9,0,0,1,16.71.94c7,1.08,19.4,6.33,21.83,9.43s-10.78,5.26-18.19,5.26-23.32-.14-24.66-2.43S274.66,489,274.66,489Z"/><path class="cls-256" d="M216.24,431.16c1-3.25,5.75-5.5,9.76-7.25s2.5-2,4.5-7.51,5.25-11.76,11.26-12.26a9.13,9.13,0,0,1,10,8c.5,4-2.5,12.26,0,14s9,1.5,8.76,9.75-7.51,10.26-15,10.26-17.26-3-23.27-7.75S216.24,431.16,216.24,431.16Z"/><path class="cls-257" d="M152.3,504.44c-1.71-2.2.37-4.64,3-6.86s10.2-5.56,12.61-7.42,24.28-2.78,28-3.52,24.28,11.12,24.66,15-24.1.18-24.1.18l-27.62,5-8.57,2.34S153.59,506.1,152.3,504.44Z"/><path class="cls-258" d="M195.85,486.64s14.73-1.7,20.33-2.14,25,0,31.34.22,22.61.45,25.08,1.12,8.73,7.39,8.06,10.75-7.17,10.07-11.87,10.52-41.42-3.81-47.69-4S195.85,486.64,195.85,486.64Z"/><path class="cls-259" d="M177.9,308.56s-6.1-.38-8.39-.38-5.91,1.14-10.4,1.33-10.87,1.62-12.87,1.24-3.05-1.43-7-1.9S123.73,313,121,316.09a8.36,8.36,0,0,0-2,6.8l36.57-7.5,34.08,4.48.83-8.86Z"/><path class="cls-260" d="M217.19,566.87s11.76,8.48,16.29,9.49A88.86,88.86,0,0,0,248.41,578c3.19,0,5-1.51,7.89-1.68s8.89,4,14.42,2.85,13.59-2.68,16.1-4.86-3.69-15.94-8.38-19.13S266,544.15,266,544.15l-31.95-3.06Z"/><path class="cls-261" d="M190.54,548.12s9.75,7.77,13.45,10.36,8.14,4.32,13.2,8.39,8.27,1.48,10.24-4.07A33.46,33.46,0,0,1,236.56,550c2.47-2,9-8.64,9-8.64l-26-6.66-22.46.86Z"/><path class="cls-262" d="M104.61,304.52s4.42.62,5.78,0,3.44-3.93,7.37-3.93,8.6-1.48,9.71-1a6.36,6.36,0,0,0,5,.73c2.82-.61,4.42-2.33,6.14-3.07s5.66-5.78,5.66-5.78l-12.91-.36L112,296Z"/><path class="cls-263" d="M289,445.93s7.57,1.09,11.9-3.42,7-15.15,3.25-23.09S296.6,405,289.39,402.1c-.67-.26-1.33-.54-2-.83a4.48,4.48,0,0,0-6,5.89c2.27,5.1,4.32,10.23,4.32,12.08a65.54,65.54,0,0,1-1.8,14.07c-1.08,4.51-1.08,11.72.36,12.08A36.44,36.44,0,0,0,289,445.93Z"/><path class="cls-264" d="M176.82,337.67a30.17,30.17,0,0,0,8.31,1.59c3.47-.08,6-.08,8.38-.08s6.8-.07,8.61.15,3.1-.07,3.25-1.21.83-4.45.83-4.45l5.37-4.69-2-7.48h-8.46l-8.39,7.63-16.54,4.31Z"/><path class="cls-265" d="M79.56,308.73s9.09,1.92,10.62,2,7,.51,9.73-.51,6.53-6.79,10.62-8.83,5.38-3.2,10.88-3.84,10.75-3.71,17.41-4,10.62-.26,14.46.77S163.52,297,163.52,297l5-1.15-1.92-12.42H116.93l-24.44,9.09L78.15,307.2Z"/><path class="cls-266" d="M153.29,352.28s4.18,2.55,6.62,2.55,6.26-2.43,8.58-2.32,4.53,5.22,6.27,5.46,5-.58,7.66-.7,8.12-1.28,6.49-2.9-3.94-3.25-3.59-3.83,2.32-.23,2.08-1.86-.92-3.48-4.52-3.48-12.41-1.27-12.41-1.27L160,350.42Z"/><path class="cls-267" d="M179.63,501.83a42.63,42.63,0,0,0-8.83,1.07c-4.42,1.07-10.85,5.22-10.58,6.29a4.94,4.94,0,0,0,3.21,3.35c1.88.54,5.76,2.28,5.76,2.28l14.59-.81Z"/><path class="cls-268" d="M145.24,359.23s-3.31-3.41-6-4.64a12,12,0,0,1-4.45-4.35l20.64,1.42s10.69-2.47,12.68,0c1.61,2-2.18,10-2.18,10Z"/><path class="cls-269" d="M172.58,514.92s-1.79,6.62.18,12.52,5.37,8.77,9.84,13.06,4.11,10.92,10.91,6.09,15-11.63,13.6-12.17S187,524,187,524Z"/><path class="cls-270" d="M263.68,452.5s5.43,3.29,8.95,1.94a64,64,0,0,0,11.89-6.2c2.9-2.07,3-4.14,2.8-4.86s-13.14-.42-13.14-.42Z"/><path class="cls-271" d="M176.53,306.11s-1.53-2.72-3.88-2.8a53.67,53.67,0,0,1-9.38-1.48c-3.13-.78-4.69-2.35-5-3.91s-.35-3,1.56-3.3a63.92,63.92,0,0,1,7.74.17L181,301.22l15.29-.61,9.38,3.91,2.09,8.17L196,311.48l-16.16-3.05Z"/><path class="cls-272" d="M206,395s-10.72,12.45-13.78,16.85-7.66,13-6.51,19.72,5.17,11.88,8,12.64,6.13,0,8.42-.76-1.72-6.71-1.34-13.79,7.47-20.87,9.58-24.32,9-11.11,9.38-13.59.68-15.89.68-15.89-5.66,12.63-7.57,14.16S206,395,206,395Z"/><path class="cls-273" d="M252.14,452.78s8.61-4.93,12.75-7,7.75-4.65,11.72-5.17,5.34-.86,9.13-.52,4.66,1.55,4.31,3.45-4.48.52-5.86.52-6.72.17-9.82,2.24-7.07,5.17-10.69,6.2-10.08,3.37-11.63,2.16S252.14,452.78,252.14,452.78Z"/><path class="cls-274" d="M450.33,204.76s.33-10.63-.12-15.15-.91-10.17-.91-10.17-21-14.47-31.42-21.93-37.3-25.77-46.12-30.52-55.39-25.77-66.47-27.58-31.87-.68-31.87-.68l49.51,57.2,65.79,51.32,39.33,6.55Z"/><path class="cls-275" d="M143.91,350.44s8.33,3,12.14,2.12,10-1.41,12.56-3.53a50.17,50.17,0,0,0,7.76-8.61,26,26,0,0,0,3.25-7.34l-15.1-3.81-22.3,6.64Z"/><path class="cls-276" d="M187.42,526.24s-7-4.51-12-7-9.19-4.68-9-7.52,7.69-.84,8.69-3.18a43.38,43.38,0,0,1,4.68-8c1.67-2.17,19.73.17,19.73.17l-7.69,24.9Z"/><path class="cls-277" d="M185.73,318.9s2.1-3.24,1.49-4.3-4.64-2.36-7.53-4-3.24-3.68-3.16-4.47,4.38,2,7.18,2,5.78-.43,9.64-.35,13,.18,13,.18l4.65,7.44-1.41,6.92a5.78,5.78,0,0,1-2.8,3.33c-2.36,1.4-7.88,4.9-9,5S185.73,318.9,185.73,318.9Z"/><path class="cls-273" d="M206.46,440.58c2.82.53,8,5.09,12.2,7.1s11.7,5.51,16.1,7.39,3.2,3.14,1.69,3.25-5-1-9.38-2.31-9.6-4.75-11.92-6.14-4.86-5.67-7.29-5.55-6.57.82-7.87-.93S203.65,440,206.46,440.58Z"/><polygon class="cls-278" points="277.57 535.46 287.16 540.96 296.51 537.92 307.74 533.91 311.27 526.28 305.2 521.2 287.41 518.33 273.39 523.16 267.4 528.25 273.8 534.64 277.57 535.46"/><path class="cls-279" d="M209.62,530.39l7.28,5.2,10.22,3.49,6.1,1.71L252.1,546l22.21-2.19,14.56-2s-8.59-7.18-13.16-8.52-6.47-6-6.47-6l-24.87-3.79-31.46-3.57Z"/><path class="cls-280" d="M297.35,500.42a93.39,93.39,0,0,1,10.23-1.68c3.17-.14,10.16.66,12.3.66s8.9,1.85,11.19,2.14,3.75,1.1,2.2,2.28-3.09,2.43-3.09,2.43l-27.6,1.59Z"/><path class="cls-281" d="M237.35,502.7s11.57.3,14.46.3,14.52-1.64,19.14-1.75,11.63-.93,14.32-.93,10.32,0,12.08.1,2,6.3,2,6.3L286,514.26l-41.92,2.27Z"/><path class="cls-282" d="M186.6,499.72s6.82-.66,10-.55,6.93.11,10.57.11,14.2,1.54,17.5,1.87,10.24,1.55,12.66,1.55,1.43,4.29.66,6.49-12.77,9.58-12.77,9.58l-29.94-2.42-6.72-5.73Z"/><path class="cls-283" d="M186.27,507.54s-.55-2.53-2.42-3.3-3-.55-3.08-1.87a3.72,3.72,0,0,1,3.19-3.64c2-.11,9.69.22,10.46,3.64s2.2,8.69,2.2,8.69l-6.06,3.74Z"/><path class="cls-284" d="M210.92,532.8a35,35,0,0,0,4.3-3.71,8.08,8.08,0,0,0,1.35-4.8c-.09-1.27-9.69,1.93-14.16.25s-13.64-6.74-13.64-6.74-3.37,0-4.05,1.1a4,4,0,0,0-.59,3.45c.42,1,2.87,1.68,2.87,1.68l11.46,6.07,7.32,2.86Z"/><path class="cls-285" d="M193.33,512.07a37.48,37.48,0,0,0-3.83-3.17c-1.19-.72-2.63-2.45-3.64-2.21s-2.28.66-2.28,3a15.69,15.69,0,0,0,1.08,6.22c.66,1.19,3.11,3.58,4.48,3.94a22.24,22.24,0,0,0,5.2,1.08C196.08,520.92,193.33,512.07,193.33,512.07Z"/><path class="cls-286" d="M316.21,518.33v4.14l6.3.64,9.4-7.49a3.31,3.31,0,0,0,1.76-3.27c-.32-2.23-2.79-3.11-2.79-3.11a36.57,36.57,0,0,0-6-.87c-1.67.07-11.4,7.57-11.4,7.57Z"/><path class="cls-287" d="M308,524.61s-1.05,4.87-.29,5.54,7.06-1.24,7.06-1.24l1.43-5.54-9.06-2.67Z"/><path class="cls-288" d="M202.91,514.54s-2-2.51-3.27-3.91c-1.47-1.67-4.29-3-5.64-2a3.33,3.33,0,0,0-1.75,3.25c.05.65.23,1.3.32,2,.42,2.94,1,7.3,1.6,8.58s8.34,5.1,10.18,4.78a5.73,5.73,0,0,0,3.13-2Z"/><path class="cls-289" d="M216.24,525a41.07,41.07,0,0,0,2.79,3.65c.69.64,2.9,3.13,4.75,3.19a12.56,12.56,0,0,0,5.51-1.74c.4-.41,1.56-1.57,2.26-1.39s1.68,3.13,3.25,3.59a58.2,58.2,0,0,0,10.14,1.1c2.21,0,6.27.41,8-.29s3-2.61,3.36-2.55,1.74,2.32,4.23,2.5,8,.11,9.34-.35,8.35-2.79,9.33-4.12.87-2.67,1.33-2.78,1.22.87,3.95.87,5.39,0,6.72-.47,2.5-4.29,3.37-4.52,3,1.62,3.71,2.38,3.53,2.78,5,3c0,0,3.66-.53,4.47-.82a6.27,6.27,0,0,0,2.37-1.91c.24-.46-.28-1,.29-1.16s.87.75,2,.75,4.12,3.22,4.12,3.22l4.09-.77.08-3.15-6.39-4.78-5.89-5.88-22,4.52-43.31,6.74-21.15-2-5.88,1.11Z"/><path class="cls-290" d="M220,516.51a22.78,22.78,0,0,1-1.75-2.88c-.76-1.51-2.56-1.33-4-4.92a6,6,0,0,0-5.79-3.35c-2.26.33-6.45,1.93-6.45,4.36a22.78,22.78,0,0,0,1.09,7c.58,1.51,2.26,4.61,3,6.54a14.64,14.64,0,0,0,2.93,5.2c1.26,1.18,2.1,1,3.61.42s3.61-1.42,3.94-2.68.42-2.52,1.43-2.6,2.6-.09,2.6-.09Z"/><path class="cls-291" d="M233.72,522.55s-1.92,5.74-5.48,6.35-8.52.17-8.61-3.13a62,62,0,0,0-.26-7.91c-.44-3.4-1-4.44-.52-7.22s3-4.7,4.78-4.7a7.7,7.7,0,0,1,5.3,2.52c.87,1.31,2.09,1.66,3,3S233.72,522.55,233.72,522.55Z"/><path class="cls-292" d="M244.72,540.2s-2.73-2.91-4.94-3.23-5.07-.57-6.72-.12-2.41,1.77-2.09,2.53,1.65,1.2,3.1,1.71,4.16,2,6.47,2.15,3.8.38,4.05-.5A9.86,9.86,0,0,0,244.72,540.2Z"/><path class="cls-293" d="M326.55,508.79s2.38,2.25,4.19,2.25,2.37-1.19,2.18-2.69-.19-3.74-2.75-3.43-4.8.69-4.8.69Z"/><path class="cls-294" d="M318.44,517a4.29,4.29,0,0,0,3.68.44c1.94-.75,4.18-2,4.31-3.81s1.25-6.8,1.18-8.43a3.28,3.28,0,0,0-3.24-3.31c-1.94.13-4.12.69-4.12,1.25S318.44,517,318.44,517Z"/><path class="cls-295" d="M310.37,507.42s2.07-5,3.33-5.85a6.36,6.36,0,0,1,4-1.11c1.78,0,3.26.59,3.33,1.55a58.16,58.16,0,0,1-.88,8.08c-.45,2.29-.82,7.33-1,8s-1.33,2.82-3.63,2.3a10.26,10.26,0,0,1-5.26-3.78,7.18,7.18,0,0,1-1-2.52l.37-6.14Z"/><path class="cls-296" d="M293.27,517.1a14.35,14.35,0,0,1,4.29,2.55c1.73,1.62,4.52,4.86,6.6,4.86s5.22-1.16,5.33-3,.47-5.91.58-8.23,1-6,1-8.57-1.49-5-5.43-4.78-6.62.26-7.66,1.19-4.4,6.37-4.4,6.37l-1.16,4.63Z"/><path class="cls-297" d="M332.28,514.73s-4.25-.71-5-.09-2.12,2-1.41,3.18,4.24,5,4.51,4.61S332,520.48,332,519,332.28,514.73,332.28,514.73Z"/><path class="cls-298" d="M319.12,522.14a2.52,2.52,0,0,0-.42,2.25,8.18,8.18,0,0,0,1,2.28c.89,1.24,2.83,1.42,4.78.53a20.94,20.94,0,0,0,5.4-4.07c.53-.7.44-4.24-1.77-4.77s-4.78-1.24-6.64.88C320.48,520.38,319.66,521.42,319.12,522.14Z"/><path class="cls-299" d="M277.88,520.85a10.66,10.66,0,0,0,7.43,3.8c4.88.37,8.32-1.08,8.5-3.44s0-3.62.19-7.78.9-9.41-2.54-10.68-8-2.54-10.68,1.27a18.72,18.72,0,0,0-3.26,6.87Z"/><path class="cls-300" d="M319.76,524.84s-5,.14-5.94.29-2,1.66-1.59,3.47.07,6.52,1.3,5.86,6.52-5.06,8.11-5.64,2.75.43,3-1.09a3.39,3.39,0,0,0-1.81-3.18C322.44,524.55,319.76,524.84,319.76,524.84Z"/><path class="cls-301" d="M302.05,536.22s.47-4.91,1.07-6.18,2.83-3.3,4.3-3.09a8,8,0,0,1,4.31,2.35,32.23,32.23,0,0,1,1.95,3s.42,2.2-.65,3a12.76,12.76,0,0,1-6.83,1.83C303.45,537.12,301.58,537.77,302.05,536.22Z"/><path class="cls-291" d="M233.13,527.91s-1-9.23-1-12.89,1.56-7.32,3.83-8.89,4-2.79,7.49-2.79,5.75.35,8,4,4.18,2.79,5.05,2.61,2.44-4.7,4.53-6.1a20.92,20.92,0,0,1,9.94-2.61c3.48,0,5.75.87,6.62,3.31S279,512.4,279,515.19s.7,7.84,0,9.41-3.66,4.53-7.84,5.4a33.11,33.11,0,0,1-11.68.18c-1.91-.53-2.44-3-3.31-2.79s.18,2.26-1,3.14-5.93,1.56-10.28,1S235.22,532.27,233.13,527.91Z"/><path class="cls-302" d="M290.19,537.4s1.49-3.23,3-3.75a9.11,9.11,0,0,1,5.6.21c1.59.67,3.75.82,4.11,1.59s.1.72-2.42,2.42-6.06,3.75-8.07,4-2.92-.88-2.87-1.91A11.47,11.47,0,0,1,290.19,537.4Z"/><path class="cls-300" d="M203.93,530.42s2.85.08,3.88.71a13,13,0,0,1,2.53,2c.4.48-.47,4.27-1.9,3.8s-3.72-1.42-4.74-1.66-2.54.32-2.85-.63S203.93,530.42,203.93,530.42Z"/><path class="cls-303" d="M220.66,536.12s-1.65-2.42-2.43-3.44a4.38,4.38,0,0,0-3.92-1.57c-1.88.08-4.44.69-5.22,2.41s-.45,2.55.75,3.52c.71.58,1.29,1,4.27,1s6,.46,6.62.46S220.66,536.12,220.66,536.12Z"/><path class="cls-304" d="M271.59,545.16l-.2-5.37a3.13,3.13,0,0,1,2.64-2.25,81.05,81.05,0,0,1,8.7-.47,9.65,9.65,0,0,1,4.7,1.18c1.41.82,2.12.35,4.35,1.17s4.23,2.24,1.53,3.41-5.41.94-10.7,2S272,547.26,271.59,545.16Z"/><path class="cls-305" d="M273.1,539.18a1,1,0,0,0-1.13-1c-1.75.29-5,.84-6.24,1.07-1.78.34-.67,6.11-.67,6.66s4.22.44,4.22.44,3.66.89,3.66-.66C272.94,544.58,273,541.05,273.1,539.18Z"/><path class="cls-306" d="M266.09,540.8A2.48,2.48,0,0,0,263.2,539a36.25,36.25,0,0,1-5.87.74c-2.88,0-5.6-1.92-6-.08s.15,5.61.74,6.35,2.06,1.17,5.82,1.09,5.23.12,6.78-.18,2.13-.7,1.91-1.44,0-2.49-.44-4.34C266.14,541,266.11,540.91,266.09,540.8Z"/><path class="cls-307" d="M252,539.84s-4.39-.28-5.85-.28-3.27-.76-3.76.7a3.83,3.83,0,0,0,.42,3.13,23.41,23.41,0,0,0,5.43,2.58c1.95.55,4.8,1.67,5.22,1s.28-2.3.28-3.62S252,539.84,252,539.84Z"/><path class="cls-308" d="M227.12,539.08a.84.84,0,0,0,.88-.92c-.12-1.15-.44-3-1.29-3.46-1.27-.73-1.81-1.9-4-1.27a4.32,4.32,0,0,0-2.8,4.25c.09,1.18.72,1.09,2.53,1.18Z"/><path class="cls-309" d="M185.26,526.56a10,10,0,0,1,0-2.72c.23-.63.92-2.6,2-2.6s3.19,1.33,4.52,1.79,2.43.87,2.83,2.26,1.45,3.18.29,3.41-1.5.18-4.57-.46S185.89,527.78,185.26,526.56Z"/><path class="cls-310" d="M202.16,534.86a2.47,2.47,0,0,1-2.34.19c-1.58-.69-4.11-1.91-4.91-2.95-1.19-1.54-1.26-2.73-.91-3.7s2-1.89,3.36-1.89a9.69,9.69,0,0,1,5,1.47c1.33,1,2.38,2.44,2.38,3.07a7.21,7.21,0,0,1-2,3.5Z"/><path class="cls-311" d="M344,345.36s-2.86,4.11-1.79,6.08,11.62,1.43,16.26.71,8.58-1.43,8.76-4.29,2.86-6.07,4.11-5.89.18,1.07,2,1.6,7-.35,7.68-2.14,1.25-7.69,1.25-7.69l-15.72-13.4L354.32,325l-3.22,8.4Z"/><path class="cls-312" d="M274.48,467.39s12.26-1,17.78,0,21.62,6,25.95,6.72,15.37,5.05,21.86,6,24.26,12.49,24.26,16.34,5.29,19.21-8.17,13.69-32.67-18.5-40.84-20.66-11.53-7.21-21.86-7.93-21.38,0-22.34-1S274.48,467.39,274.48,467.39Z"/><path class="cls-313" d="M333.37,631s1.67-6.53,3.41-7.18,5.63,2.82,8-.65,6.5-6.51,8.24-11.28,9.76-3.69,12.36-7.81,8.46-10.84,10.19-10.84,14.31-9.11,15.18-12.79S406.82,566.54,407.9,562s9.55-16,7.38-17.34-1.95-1.3-1.95-4.77,0-.87,2.38-5.64,4.34-6.07,5.86-6.73,4.77-1.73,6.28-.21,1.74,4.77.22,7.37-2.17,1.09-3.47,6.51-4.12,11.27-3.68,13,3-2.39.43,1.73-3.47,1.52-4.34,5.64S411.37,573,409.21,575s-4.34,7.59-7.59,9.54-8.46,14.31-11.28,16.26-10.41,13.88-11.71,15.4-7.16,11.49-10.19,11.93-6.94,4.33-13.23,6.72-10.84,10-16,8.67S333.37,631,333.37,631Z"/><path class="cls-314" d="M238.22,558.39a36.61,36.61,0,0,1,8.1-1.91c5.75-.88,6.93-1.33,13.11-.59s9.72,2.5,14.88,2.8,9.57-.3,11,.29-.29,4.13-2.65,5.16a21.47,21.47,0,0,1-10.16,2.65c-6,.29-11.93-.44-14.29-1.18a14.39,14.39,0,0,0-8.1-.88c-4.27.59-6,.88-8.54,0s-4.57-1.92-4.57-3.54A4.38,4.38,0,0,1,238.22,558.39Z"/><path class="cls-315" d="M326.53,337.44s-5.13,3.1-4,5.12,3,6.08,5.13,5.94,4.58-1.35,7.55-1.48,8.23-.95,13.36-.95,8.5-.13,11.07-.94,4.45-4.19,4.18-5.27-6.61-5.93-6.61-5.93Z"/><path class="cls-316" d="M369,331.87s7.45,1.39,8.2,3,.13,6.82,2.15,6.19,4.55-2,4.55-3.92.25-3.91,2.9-3,7.58,7.08,9.22,7.33,5.56-3.41,5.56-6.06-.88-6.44-5.3-6.82-14.53-2.78-14.53-2.78l-11.11-3.66-6.57,1.35Z"/><path class="cls-317" d="M319.53,336.66s6.14,2.38,10.69,2.55,12.47-.85,18.88-.85,13.14-.5,13.48-1.51-3.37-4.72-4.55-6.24-4.89-5.39-4.89-5.39l-36.91,2.69Z"/><path class="cls-318" d="M176.91,317.83a54.87,54.87,0,0,1,8.61-.78c3.14.13,8.1,1.43,11.1,4.7s3,8.61,2.09,9-5.87,6-9.79,4.83S176.91,317.83,176.91,317.83Z"/><path class="cls-319" d="M238.85,652.07s7,.68,9.88-2.69,11.67-2.92,13.69-4.72,11.23-1.79,12.13.9-1.8,3.59,3.14,3.59,4.94-.45,10.33-2.92,15.49.23,17.51-1.57,16.84-15,19.53-15.94,4.27-1.12,8.31,2.25,11,9,8.31,12.57-5.84,10.55-9.43,13.47-8.31,2.92-13.48,6.06-19.53,15.27-23.12,15.27-10.33-1.12-19.31-.22-15.71,5.61-18.63,2.91-5.62-3.81-11.45-3.59-14.6-3.59-14.6-3.59Z"/><path class="cls-320" d="M302.1,325.8s-2.53,1.86-4.27,3.38-5.31,2.6-3.9,4,6.29,2.06,9.22,2.06,10.41-.11,12-.11,3.8,2.28,4.34,1.52a6.2,6.2,0,0,0,1.41-3.79V320.61l.43-7.27-10.95,4Z"/><path class="cls-321" d="M337.91,304.19S331,304,327.78,305s-9.95,3.47-12.86,5.48a72.21,72.21,0,0,0-10.5,9.28c-1,1.29-2.7,2.46-3.8,4.13-.43.65.79,2.27,1.48,1.91,2.64-1.35,6.17-3.18,7.68-4,2.57-1.45,6.49-4.25,8.27-5.14a64,64,0,0,1,6.49-2.35l14-1.79Z"/><path class="cls-322" d="M222.23,478.41a11.37,11.37,0,0,0,5,3.25c2.73.68,5.63.34,9.39,2s4.78,2.73,6.49,3.24,3.59-1.88,10.76-2.05,5.12-.51,11.27,1,9.9.68,9.56-2.39-.34-5.3-.51-8.54,4.44-9.39,2.73-11.95-3.07.17-7.51,1.87-8.37,3.25-15.88,2.57-13.49-2.57-19.13-2.57-7.86-.85-10.08,2.74S219.66,474.83,222.23,478.41Z"/><path class="cls-323" d="M333.7,306.08a32.81,32.81,0,0,1,4.21-1.89c1.37-.39,7.61-.2,10.73-.1s9.36,2.15,11.51,2.93,10.73,5.17,12.68,7.12a50.85,50.85,0,0,0,8.78,7.12c3.51,2.14,6.34,3,6.24,4.19s-.49,3.51-4.68,3.12S376,324.38,372,324.48a31.4,31.4,0,0,1-7.9-1l-15.49-8Z"/><path class="cls-324" d="M103.71,545.46s16.05,22.47,20,25.91,14.21,15.36,18.11,19.72,17.42,14.9,21.09,11.23,1.38-8,3.21-10.32c0,0,5.27,10.55,9.63,11.7s8.71-.23,9.17,2.06,1.84,9.17,2.06,9.17,6.42-.92,8.95,1.15-1.61-.46,6.42,4.58.68,3.44,4.35,5.5,3.9,9,7.11,8.49,7.34,1.14,8.25.46,8.49-6.19,8-4.59,3.89,13.53,5.27,12.84,9.17,8.48,8.94,13.3,3.44,13.75-.23,14.9-.46-.69-5,2.29-1.38,5.73-8.48,1.38-13.76-5.28-20.87-10.55-19.71-18.34-27.51-23.61-3.9-1.15-9.4-7.34S162,624.56,156.9,620s-17.88-20.4-22-24.76-14-14-17.65-18.8a126.61,126.61,0,0,1-9.4-13.52c-3.44-5.73-9.06-16.09-9.06-16.09Z"/><path class="cls-325" d="M216.73,475.78s-16.84,2-27.63,4.09-18.31,7-26,8.66S150.68,488,152,484s8-10.78,13.9-11.77,15-3.27,23.7-4.41,28.12-3.27,27.63-1S220.65,476.27,216.73,475.78Z"/><path class="cls-326" d="M62.86,320.1s-3.66.4-9,1.21a85,85,0,0,1-11,.81S41,319.53,41,317.42s.65-4.38,2.59-4.87,12.33-.48,13.47-.65,6.49,0,6.49,0Z"/><path class="cls-327" d="M175.09,320.56s6.67,2.27,8.3,3.36,9.25,4,10.34,5.11,3.59,2,1,3.16a12.63,12.63,0,0,1-6,.76l-17.41-6.09Z"/><path class="cls-328" d="M116.35,344.17a41.5,41.5,0,0,1-6.12,3.24c-2.62,1-7.48,2.5-10.73,2.25s-3.49,2.87-4.62-1.75-3.62-7.36-2.12-8.23,4.37-.25,6-1.38,6.62-4,8.61-6.36,10.24-8.86,13-10.73,7.12-4,10-4.37,9.23-1.25,11.85-1.37,10.61-1.25,16.47-1.25,9.74,0,14.86,1.62,13.6,5,14.85,6.62.25,1.24-1.5,1.62-8-.63-8-.63L161,319.71l-38.57,6.11Z"/><path class="cls-329" d="M60.25,425.2s-7.54-9.37-10-10.39,1.63,4.89-1.83,2.65-4.89-4.28-4.89-5.91-1-5.09-2.45-4.68-5.7-2.24-4.07-5.71,5.5-3.05,4.68-6.11-1.22-4.48-3.26-5.29-4.27-2.65-5.9-3.06-4.28-1.43-4.28-1.43,2,11.62,2.65,14.88S36,420.3,36,420.3l12,17.53,15.28,19.35,9.57,5.1-9.16-32.8Z"/><path class="cls-330" d="M41.87,432.36A79.44,79.44,0,0,0,43.43,441c.78,2.6,3.37,8.17,4,9.73s4,5.83,4,5.83l4,1.43,4.8-5.19-4.41-11-10-6.48Z"/><path class="cls-331" d="M312.18,274.45s-3.72,4.47-3.61,6.06,2.66,5.32,5.1,6.81,7.23,4.15,9,4.15,4.47-2.45,4.36-6.59,1.6-9.79-1.49-10.64-6.38-2.23-8.4-2.23S312.18,274.45,312.18,274.45Z"/><path class="cls-332" d="M117.28,341.53s-2.1,1.43-2.1,3,.43,3.77,2.47,4.76,8.59,3.27,10.13,2.84,10.68.55,13.22-.44,4.57-1.05,5.68-1.79a80.41,80.41,0,0,0,5.74-5.86L148,335.61l-23.22.92Z"/><path class="cls-333" d="M173.4,326.4s3,.82,5.52,1.64a34.41,34.41,0,0,1,8.34,3.64c2.58,1.76,4.58.94,4.11,2.12s-.36,4.46-4,2.7a22.64,22.64,0,0,0-10.92-2.12c-3,.24-4.93.83-5.51-.7s-.71-6.22-.71-6.22Z"/><path class="cls-334" d="M52.63,437a17.94,17.94,0,0,1-5.31-4.14c-3.11-3.24-6-7.52-7.91-9.6a20.32,20.32,0,0,0-3.37-3,60.74,60.74,0,0,0,2.33,7.39A24,24,0,0,0,42,434.43c1.82,2.34,6.48,5.19,7.39,5.84s3.24,4.66,4.67,6.48,2.46,7.78,2.46,7.78l4-3.76-4.15-7.39Z"/><path class="cls-335" d="M335.84,312.89s-3.15-1.52-5.55-2.78-3.14-2.89-2.14-3.27a19.85,19.85,0,0,1,5.55-.76c1.26.13,6.67,2,7.68,2.27s3.53.13,5.67.63,2.9,1.89,2.77,2.77a31.35,31.35,0,0,1-1.26,3.78L337,314.27Z"/><path class="cls-336" d="M170.28,328.81s3.34.21,4.07-1,2.62-6.16.74-7.21-4.49-3-9.09-3-9.19.32-9.92,2.3a13.79,13.79,0,0,0-.31,5.22l9.19,3Z"/><path class="cls-337" d="M145.48,317.92s-6.81-.74-9.14-.43-5.52.49-8.53,1.77a42.82,42.82,0,0,0-9,5.22c-1.54,1.41-3.25,3.07-3.25,4.72s1,5.77,2.08,5.95,9.57,1.23,9.57,1.23l15-9Z"/><path class="cls-338" d="M148.29,342.08A9.77,9.77,0,0,0,144.5,341c-1.92-.06-3.78-1.63-7.21-1.63s-6.67.91-8.59.67a16.38,16.38,0,0,1-4.32-1.45l6.12-3.54,7.21.9,18.93,2.58-1.93,3Z"/><path class="cls-339" d="M62.39,312.42s-.69-1.19.39-4.66a29.62,29.62,0,0,1,4.13-7.48l5.22-.68-4,13.27Z"/><path class="cls-340" d="M156.24,317.42s-1-1.83-4-1.43a42.94,42.94,0,0,0-8.35,2c-1.28.55-2.79,2.54-3.51,3.1s-2.46,3.42-2.3,3.9,2.23,1.67,4.06,1.43,10.32-1.62,11.08-1.74l.11,0,3.9-.87a2,2,0,0,0,1.21-3Z"/><path class="cls-341" d="M201.36,301.56s2.88,4.77,4.09,7a30.23,30.23,0,0,1,3,8.78c.23,2.27,1.44,7.41,1.52,8.78s.37,7,.37,7l3.86,1.21L213,315l-3.26-10.52-5.6-7.87Z"/><path class="cls-342" d="M221.8,94s22.59-.47,31.91.23,34.71,5.13,40.77,5.13,17.24,7.45,22.83,10.25,24.46,10,27.49,12.58,12.34,13.27,2.79,16.54S333.85,148.55,335,152s0,8.62,0,8.62l-75.24-31Z"/><path class="cls-343" d="M72.26,350.5A45.49,45.49,0,0,0,76,342.07c1.2-4.07,1.66-8,2.26-10.09s-1.36-2.26-1.06-5,2.71-6.17,2.86-9.63,1.81-14.76,1.81-14.76l-8.43-4.52-8,21.84Z"/><path class="cls-344" d="M143,337.7s2.76,2.2,5,2.28,5.19-.87,6.21-.16.24,1.1-1.33,1.26-6,.32-6,1.58,5.43,2.91,5.43,2.91l7.55-2.21a7.36,7.36,0,0,1-.94-3.62c0-2.12.63-2.83.63-4.32s-4.49-1.5-4.49-1.5Z"/><path class="cls-345" d="M117,123.21s31.06-17,36-19,35.5-9.61,43.15-10.1,39.44.24,46.83,3.2,11.34,7.89,16.77,13.81S271.36,118,273.09,123s4.19,11.34,4.19,11.34l-87.51-2Z"/><path class="cls-346" d="M368.23,174.76s32.55,20.44,38.1,24.41,17.27,11.51,22.43,11.11,11.21-.58,20-6.05l-5.7,14.58-35.33,9.13-40.09-46Z"/><path class="cls-347" d="M130.23,336.62a9.48,9.48,0,0,0,5,1.6c2.81,0,5.42,1.41,8.33.5s7.62-.8,10.53-1.7a10.76,10.76,0,0,0,5-3.11,7.7,7.7,0,0,0,1.41-2.81l-26.7.9Z"/><path class="cls-348" d="M163.78,283.46s.16,5,.47,7.27,3.24,6.34,5.25,8.35,8.2,5.26,13.15,4.79,7.57-2.63,10.2-1.7,5.41,3.4,7.42,3.25,5.11-6.5,5.11-6.5L195,288.25l-15.62-8.19Z"/><path class="cls-349" d="M289.67,281.7a22.94,22.94,0,0,0-2.17-6.31c-1.38-2.18-7.5-7.7-8.29-9.68s-.59-3.75.79-4.73,3.95-.4,6.51,1.38,5.13,7.5,6.52,6.71,3.75-5.33,4.54-6.91,2.76-3.16,3.94-3,.2,5.73,2.17,3.55,3-4.73,6.52-6.71a15.86,15.86,0,0,1,11.25-1.77c4.14.79,8.68-1.78,12-2.17s11.84.19,14-.2,7.7-1,9.87-.4,14.21,6.91,14.21,6.91,4.54,1.78,6.71,1,.79-4.34,2.37-5.53,3.94-.59,7.5,2.57,9.87,9.27,10.06,10.85,4.74,2.17,8.29,3.36S414,273,414,274.2s-.59,7.9-.59,7.9-34.54-8.49-38.88-7.9-11.25-1.18-15.79-.2-18-1.77-22.11-1a128.74,128.74,0,0,1-12.82,1.38c-4.54.39-27.64,4.54-27.64,4.54Z"/><path class="cls-350" d="M22.57,202.38S46.4,172.92,51.73,167.6s44.43-33.95,54.58-39.44,35.11-15.64,51.92-17.14,38.94-5.16,78,6.66,71.23,24.62,86.2,32.44,50.93,24.3,58.41,34.78,6.66,14.15,6.66,14.15l-125.8-44.5L154.32,138.38,38.64,217.06l-16.53-4.31Z"/><path class="cls-351" d="M194.3,279.76s6.09,4.42,8.08,4.57,8.08,1.07,8.08-1.52-1.22-8.54.61-9.15,6.1-1.07,7.32-.16,2.59,3.66,4.57,4.58.76,6.25.76,7.77,1.53,5.19,4,5.19,7.16,1.68,7,2.74-10.06,5.64-10.06,5.64L219,304.59l0,6.12-.31,8.38h-4.42l-3.66-17.68-18.14-15Z"/><path class="cls-352" d="M368.14,267.44a158.1,158.1,0,0,0-19.18-.23c-8.47.58-16.82,1.64-23.76,3.88s-20.95,6-29.42,11.88-9.53,7.06-9.53,7.06l-4.23-.71,2.86-4.75s7.61-7.48,12.9-10.54,22.83-8.59,28.47-9.53,22.36-1.41,26.48-1.41,10,.39,13.33.75,13.72,2,13.72,2l2.08,2.15Z"/><path class="cls-353" d="M109.71,510.4s23.74,42,29.59,53S155.82,592,160,597.11s7.57,6.53-1-11.36-18.24-26.49-23.75-38.54S126.23,524.16,119,515.9,108.34,505.58,109.71,510.4Z"/><path class="cls-354" d="M221.15,327.59s4.67,2.61,5.7,3.4,3.57,4,2.46,7.29a13.06,13.06,0,0,1-4.67,6.25,44.84,44.84,0,0,1-5.78,1L213.47,338l4-10.53Z"/><path class="cls-355" d="M427.19,310.83a53.05,53.05,0,0,0,6.64.93c3.69.27,7.56,1.1,9.32,1.1s3.87-.09,4.7.84,1.2,1.66,2.49,1.66,3.33-.1,4.25-.19,4.61-2.86,4.61-2.86,3.05-.09,3.23.92,1.29,4.43.19,4.43-4.89-.64-6.83-.09-4.34-.37-5.26.74-.46,2.4-1.57,2.77-.09,1.29-1.94,1.1-5.53-.27-6.27-.73-.65-.93-3.6-1-9.41-.55-9.41-.55Z"/><path class="cls-356" d="M74.1,291.25S73,289.55,76,285.94s10.4-11.88,15.49-13.58,13.79-4.88,18.88-5.73,7.64-2.12,16.77-2.54,7.85.63,14-.43a99.55,99.55,0,0,1,16.34-1.27c4,0,10.72,3.75,15.47,4.55s17.42,1.84,19.53,5,4.22,13.46,1.85,13.72-21.12,1.59-21.12,1.59-6.72-1.73-9.64-2.09-5.65-1.28-9.48-.37-14.95.91-15.68.91-4.56-1.27-7.3.37-4.37,3.46-5.47,3.65a19.09,19.09,0,0,1-7.29,0c-2.73-.73-7.66-2.19-9.66-.55s-5.11,7.48-6,7.66-2.26,3.29-3.1,3.64c-3.83,1.65-7.48.92-10.39,1.28s-5.29,4.38-7.66,4.38-7.84-10.21-7.84-10.21Z"/><path class="cls-357" d="M165.41,326.93a5.84,5.84,0,0,0-3.55-2.32c-2.6-.68-8.88-.68-11.62-.68a26.11,26.11,0,0,0-10.38,2.73c-3.15,1.64-7.93,4.1-9.84,4.78s-4.79,3.42-7.52,3.28-6.15-2.59-7.93-1.64a36,36,0,0,0-5.74,4.38c-2.59,2.18-1.5,4.78-.54,4.23s4.92-2.05,6.28-1.5,1.64,3,2.87,2.6,6.15-3.42,8.2-3.56,6.43-4.23,7.93-5.05a51.22,51.22,0,0,1,6.7-2.19Z"/><path class="cls-358" d="M318.11,319.84a8,8,0,0,1,1.15-2.68,20.06,20.06,0,0,1,5.69-3.77,43.74,43.74,0,0,1,7.38-1c2.38-.15,8.18,1,10.7,1.48s5.05-.59,6.24-.29,2.53,3.12,4,3.27,6.24,2.67,8.62,4.16,1.19,1.18,4.9,3.12,4.91,1.93,4.76,3.56-.45,5.35-3.57,4.16-6.24-4.31-7-4.75a29.45,29.45,0,0,0-3.72-1.34Z"/><path class="cls-359" d="M32.72,211.46s-1.24-2-3.2-4.63-6.95-4.45-6.95-4.45-4.27,8-7.3,13.89S2.28,240.84.85,246.36,0,264.7,1.21,269s3.2,8.37,5.34,8.37,12.05-1,12.05-1l16.08-33Z"/><path class="cls-360" d="M426.67,339.38a77.82,77.82,0,0,0,1.7-12.39c.39-6.93.1-18.84,0-20s-1.75-10-3.51-12.79S413.81,278.77,408,275.83s-16.32-7.73-23.39-9.14-10.44-1.63-12.95-.54a20.79,20.79,0,0,1-3.56,1.29,45.35,45.35,0,0,1,8.35,1.32c5.88,1.3,20.56,7,25,9.24a46,46,0,0,1,11.86,8.38,37.9,37.9,0,0,1,6.86,10.45c.87,1.95,3,6.63,3.7,11s.32,21.54-2,30.68S426.67,339.38,426.67,339.38Z"/><path class="cls-361" d="M213.21,355.91l-3.6-2.88s-1-5-1.16-6.42.36-8.15-.65-8.73a5,5,0,0,1-2.52-3.9c-.07-1.87-.8-4.47.5-5.26a2.79,2.79,0,0,1,4,1.08c.8,1.66,4,4.62,4.55,5.12s1.87-10.17,1.87-10.17l4.55-3.82S223.1,321,223,323a15.52,15.52,0,0,1-1.44,5.77c-.65.94-3.1,0-3.17,1.8s-1.88,3.68-1.88,3.68,1.3,3.83,2.16,4.48,3.32,2,3.32,2l-4.33,14.28Z"/><path class="cls-362" d="M171.91,281.72s-21.33-3.83-33.54-3.09S113,280,105,283.57s-16.52,7.52-20.72,11.83-10,13.19-11.09,17.14-5.42,15.16-5.42,15.16l-1.48-18.49,17.25-22.32,23.43-10.6,30.32-3.2L172,276.91l4.07,5.18Z"/><path class="cls-363" d="M363.27,492.53s.16-3.7-11.09-17.52-19-24.92-22.67-30.22S317.78,429,317.78,425.66s.64-3.38,3.53-3.38,11.58,17.52,16.24,23.15,12.54,14.95,18,23,8.52,12.21,9.81,17.52,2.09,11.25,1,10.93S363.27,492.53,363.27,492.53Z"/><path class="cls-364" d="M375.27,398.08s11.27-4.62,15.39-7.54,12-9.17,14.35-12,12.89-16.74,15.15-21.26a133.72,133.72,0,0,0,6.51-17.94c.53-2.39-3.06-3.45-4-2s-5.31,14.08-8.24,18.47-15.54,21.92-19.53,24.44-11.49,8.87-14.94,10.34-12.3,4.28-12.3,4.28l-2.39,2.79Z"/><path class="cls-365" d="M18.51,235.89s7.8-15.19,10.25-19.62S41,197.48,44.64,192.74s29-31,38.2-37.58,37.13-24.75,60.5-30.56,41.25-8.09,83.42-1.52,82,30.25,95.18,35.75S391.15,199,396.5,202.37s29.94,17.72,29.94,17.72l-10.23,8.56L293.3,161.87,153.14,144l-51.48,19.05L28.45,242.21l-8.92.9Z"/><path class="cls-366" d="M44.25,249.39l-9,9.81c-2,2.2-13.1,15.49-16.63,17.13s-5.67.61-7.07-1-2.14-12.93-1.28-17.31,6.62-18.62,8.26-22.16,5.18,6.32,5,6.69,23.86-4.41,23.86-4.41Z"/><path class="cls-367" d="M56,464.9s.13-1.3-1.42-3.5-3.12-4.8-3.12-4.8,3.76-3.5,5.32-3.76,1.81-3.89-.13-6.09-4.67-4-4.67-5.06-1-4.8.65-4.67,6.61,1.17,7.26,3.12,2.46,6.61,2.85,8.42,4.54,10,4.54,10l-7,8Z"/><path class="cls-368" d="M346.85,397.29s12.1-.18,15.86-1.16,4.47-2.09,6-1.12a71.89,71.89,0,0,0,6.56,3.07,39.12,39.12,0,0,1-10.46,2.65c-4.75.28-20.24.84-24.28.28a79.16,79.16,0,0,1-7.82-1.53l8.79-1.12Z"/><path class="cls-369" d="M351,329s6.41-.53,7.22-1.64a3.53,3.53,0,0,0-1.31-5.15,54.78,54.78,0,0,0-6.86-2.92l-1.72,7Z"/><path class="cls-370" d="M310,390.73s9.48,5,12.06,6.07,11.8,3.56,15.61,3.69,6-.86,6.88-1.72a8.37,8.37,0,0,1,2.34-1.48s-4.55.49-13.64-1.23-19.18-7-22.74-9.71-9.4-7.06-9.4-7.06l-.81,1.41Z"/><path class="cls-371" d="M73.5,473.71S66.37,475,63,472.54s-6.87-6.87-7-7.64S60.15,462,61.58,460s3.24-6.09,4.66-4.15,4.15,4.8,4.15,4.8Z"/><path class="cls-372" d="M60.63,327.88s-.71-.12-3.57,1.43-2.62,2.86-5.48,3-5.37.47-6.8-1.31-3.1-4.77-4.29-5-3.93-2-2.5.72,3.22,4.76,3.34,6.67a18.12,18.12,0,0,0,.83,5.72c.72,1.67,2.38,1.07,2.38,2.74s-.35,3.46,1.2,2,4.76-1.79,6.91-3.1,4.29-3.1,6-3.34,6.23-1.07,6.23-1.07Z"/><path class="cls-373" d="M318.11,319.84a53.43,53.43,0,0,1-6.46,4.54c-2.22,1.11-4.33,1.72-6.25,3s-3.13,3.12-1.62,3.33,4.85,1.11,6.86,1.11,9.13.07,11.78-.27,1.64-4.17,1.64-4.17Z"/><path class="cls-374" d="M174.76,278.3s-3.86,2.39-4.77,5-1.25,7.62,1,9.78,2.28,4.77,6.71,4.77,4.43-.34,6.48-3.18,3.41-10.57,3.41-10.57Z"/><path class="cls-375" d="M135.34,512.39c3.88,2.87-4.18-11.51-3.42-18.7.93-8.81,6-19.71,14.61-27.13s18.31-19.94,21.32-22.72,8.81-10.43,8.35-11.82-7.65,7-11.36,10.2-11.36,13.68-18.55,20.17A99.1,99.1,0,0,0,131,479.78c-2.78,4.17-4.17,12.28-2.78,16.22C128.21,496,133,510.66,135.34,512.39Z"/><path class="cls-376" d="M341.5,330.87s4.72-1.06,5.6-1.13,3.68-.34,3.89-.75a13.26,13.26,0,0,0,.75-4.3c-.07-1.56.07-3.95-.55-4.56s-1.84-2.12-3-2.19a27.65,27.65,0,0,1-4.09-.95l-17.54-.73a5.68,5.68,0,0,0-2.5.32,37.48,37.48,0,0,0-5.19,2.59,2.85,2.85,0,0,0-.81,3.27c.41,1.09,1.09,4,1.7,5s1.77,3.82,2.66,4.16,3.41,0,5.45-.14S341.5,330.87,341.5,330.87Z"/><path class="cls-377" d="M279.19,346.07s2.34,8.72,6.67,15,12.38,15.92,15.21,18.22S310,390.73,310,390.73s-10.13-5.26-14.24-9.88-11.67-12.31-13.21-15.9a59.79,59.79,0,0,0-4.36-7.83l-3.07-10v-4.36Z"/><path class="cls-373" d="M167,327.05s3.84,1.27,5.63,2,1.92,2.4.12,2.52-5.39.24-5.39.24Z"/><path class="cls-378" d="M105.74,554.68s-.24-10-3.95-16.22-9.5-21.57-12.05-34.09-11.36-40.8-13.45-47.53-9-37.09-10.9-42.66-9.5-8.11-10.43-5.56,7.65,29,8.81,34.08,7.19,20.87,8.35,27.36,5.33,13.91,6.49,19,3.25,15.3,6.49,25.5,8.35,24.12,13.68,32.23S104.58,557,105.74,554.68Z"/><path class="cls-379" d="M271.26,329s-1.25-2.08-3.19-2.22-3.12-.9-4.92.21-4.5,2.91-4.22,5.61,2.49,7.06,3.18,9,3.95,9.56,5,12,3.6,5.89,5.75,6.92,4.71,1.46,5.54.7.83-2.84.83-2.84-2.91-10.32-4.36-13.79S271.26,329,271.26,329Z"/><path class="cls-380" d="M188.78,386.05s-2.89-.55-9.34,2.47-15,5.22-21.71,7.56-11.12,5.08-15.1,3.71-6-2.48-3.16-4.81,10-4,13.59-5.49,10.31-4.4,8.93-7-4.53-3.16-11.12-2.75-14.56,4-17.31,5.36-2.47,5.08-6.18,7.28-5.49-.27-7.14,3-.55,8.93-.55,8.93l28.43,2.75L174.35,399Z"/><path class="cls-381" d="M70.15,318.82s-.29,12.81.61,18.43,3.91,19.16,4.31,22.07.8,9.23.8,9.23l-11-32.21Z"/><path class="cls-382" d="M62.39,312.42s4.69-.26,5.9-.26.35,4.16.35,4.16l-5.78,3.78-1-.57Z"/><path class="cls-369" d="M142,329.83s-3.33,1.38-4.29,1.67-1.1,1.54-.14,1.4,5.78-.29,5.78-.29l2.52-1Z"/><path class="cls-376" d="M161.69,326.73a35.06,35.06,0,0,1,5.26.32c.79.32,1.11,2.15,1.11,3.42s.87,2-1.91,2.06-4.93.2-4.93.2l-13.24,0a30.86,30.86,0,0,1-4.6-.08c-1-.24-1.43-2.38-1.35-2.78a7.93,7.93,0,0,1,3.33-2.22,38.36,38.36,0,0,0,4.76-1.51Z"/><path class="cls-383" d="M67.33,312.51s5.31-9.11,6.87-11.71,9.23-9.36,14.82-13a65.6,65.6,0,0,1,17.42-7.68c4.56-1.17,15.09-3.25,15.09-3.25l7.41-4.16s-.52-1.43-7.41-.39-26.4,5.85-30.56,8.06A78.59,78.59,0,0,0,77.06,290c-3.9,3.51-9.62,9.36-10.15,10.27s1.83,1.43,1.83,3.38S69.56,309,67.33,312.51Z"/><path class="cls-384" d="M115.78,400.54s1.15-7,1.61-10.44,1-3,3-3.67,3.79-5.74,1.72-6.2-5.39.8-6.77,1.72-4.59,6.77-6.08,8-5,5.28-5,5.28Z"/><path class="cls-385" d="M62.15,340.75a72.43,72.43,0,0,1-1.1-7.82c-.3-3.91-.7-6.92-.7-6.92l.6-5s1.91.3,1.91-.9.3-4.61.3-4.61,3.41.1,4-1.51.92-4.54,1.53-4.54.7,2,.7,2,.34,3-.43,11.53-1.6,15.84-1.6,15.84Z"/><path class="cls-386" d="M326.56,316.26a17,17,0,0,0-1.22,5.2,24,24,0,0,0,2.36,7.79c.81,1.14.4,1.54,2.11,1.62s2.76-.08,4.46,0,6.5.33,7.23,0,1.87-1.46,3-3.57a11,11,0,0,0,1.06-5.68c0-1.54-.57-4.22-1.46-4.63s-4.31-1.78-6.5-1.7-7.39.32-8.93.4A3.7,3.7,0,0,0,326.56,316.26Z"/><path class="cls-387" d="M78.86,378.83s-6.77-6.12-11.69-20.63-5-17-5.17-19.56.5-5.29,1.23-5.66,3.82,2,3.94,3.94a103.08,103.08,0,0,0,3.08,14c1,2.83,6.88,15.87,8.73,18.7s13.53,15.74,15.37,17.83,3.32,3.94,3.32,3.94l-7.38-2Z"/><path class="cls-388" d="M332.19,321.52A2.43,2.43,0,0,0,334.8,324c2.74.12,2.5-1.66,2.62-2.73s-1.43-2-2.85-1.66S332.43,320.33,332.19,321.52Z"/><path class="cls-389" d="M161.69,326.73s1.29,5.17-.47,6-7.42.35-10.24.35-6.24-.94-6.24-2.12,2.59-3.41,2.59-3.41a9.31,9.31,0,0,1,3.53-1.77c2.59-.82,7.3.12,8.59.24A5.59,5.59,0,0,1,161.69,326.73Z"/><path class="cls-390" d="M271.51,331.61a10.5,10.5,0,0,0-3-.42c-1.77,0-3.45.84-3.11,3.62s1.17,7.14,2.18,9.24,4,5.79,5,5.79a14.41,14.41,0,0,0,2.94-.58,15.25,15.25,0,0,1-1.85-5.3c-.25-2.6-.67-9.66-.67-9.66Z"/><path class="cls-391" d="M274.18,299.52s3.11-5.77,5.39-9.26a21.33,21.33,0,0,1,5.31-5.69c.76-.61-1.29,2.05-.76,3.41s3,1.29,2.13,2a52.58,52.58,0,0,0-6.68,9.27c-1.45,2.88-3.53,8.1-3.53,8.1l-3.38,1,.38-4.64Z"/><path class="cls-392" d="M208.79,363.85s5.44-2.38,8.16-4.85,4.43-7.31,4.43-7.31l-3.24-.17s0-.94-1.44.59a30.1,30.1,0,0,1-4.34,3.4Z"/><path class="cls-393" d="M270.08,315.65s0,.49.75.2c0,0,0-2.15.1-4.79s1.17-5.67,2.25-9.28,2.65-2.45,1.92-1.2-2,4.82-1.26,5.66a4.76,4.76,0,0,0,2.2,1.16,66.53,66.53,0,0,0-.94,12.78c.1,7.65.52,13.21,1.47,17s2.62,8.91,2.62,8.91a6.41,6.41,0,0,0-2.73,0,2,2,0,0,1-2.2-1.05,36.43,36.43,0,0,1-2.51-10.38c-.53-5.87-1.16-13.41-1.16-13.41s-2.62.63-3.87-.63-2.31-3-2.1-6.71S270.08,315.65,270.08,315.65Z"/><path class="cls-373" d="M151.4,327.47s.72,1.44,1.68,1.44a1.79,1.79,0,0,0,1.67-1.56c0-.6-.47-2.15-1.55-1.8S150.57,325.91,151.4,327.47Z"/><path class="cls-394" d="M122,408.52s-14.49-4.62-19.88-8.66S88,388.76,86.26,386.91s-7.4-8.08-7.4-8.08a3.38,3.38,0,0,1,3.7.5c2,1.52,7.57,7.74,9.42,8.42a49.26,49.26,0,0,1,5.39,2.69s7.24,5.38,12.11,7.4S123,403.06,128,403.9s7.41,1.35,7.41,1.35L142,407.1,130.86,409Z"/><path class="cls-395" d="M214.87,347.78s3.14.36,3,1.16a12.57,12.57,0,0,0,0,3.68c.27.54,1.62,2.06,2.78,1.25s2.33-4.3,2.33-5.73.09-2.33-2.6-1.8a51.78,51.78,0,0,1-6.27.72Z"/><path class="cls-396" d="M222.41,346s2.84-6.82,2.84-8.08,0-4.94-1.58-4.1-1.68-.52-3,2.73a24.91,24.91,0,0,0-1.57,7.14Z"/><path class="cls-397" d="M146.48,322.79s-2.66-.69-2.78-2,.35-1.16,1.85-2.08,2-.93,4.28-1.28,4.63-.92,5.78-.58,2.32.47,2.55,2.2-1.62,2.55-4.74,3.24A29.69,29.69,0,0,1,146.48,322.79Z"/><path class="cls-398" d="M440.05,305.08s7.42.37,9.2,1.59,8.73,5.92,9.67,6.48,2.44,1.59,2.44,1.59a11.38,11.38,0,0,0-.47-2.9c-.38-.85-4.4-4.65-5.75-5.92s-3.77-3.87-3.77-3.87l-11.5,2Z"/><path class="cls-399" d="M199.2,372.11s-3,6.12-7.3,9.53-7.2,9-16.67,13.38-15.52,8.46-23.6,9.34a99,99,0,0,1-14.52.63c-3.15,0-3.15,1.26-6.06,1.77s-10.1,1.13-9.09,1.76,9.47,1.77,14.77,1.9,15.91-.76,20.2-1.9,17-6.31,20.58-8.45,13.12-8.71,16.66-12.25,9.23-11.71,9.23-11.71l.87-5.08Z"/><path class="cls-400" d="M264.24,305s-.11,3.35,0,4.21a42.91,42.91,0,0,0,.46,5.35c.27.47,1.46.14,3.17.53l2.25.53s-.13-3.9-.26-5.88.06-5.42.06-5.42l-2-1.71Z"/><path class="cls-395" d="M223,348.14V343.3c0-1.08.81-3.23-.9-3.05s-1.88,1-2.59,1.79a2.36,2.36,0,0,1-2.34,1.17,3.66,3.66,0,0,0-2.51,1.52l-.53,2.33,6.09,1Z"/><path class="cls-401" d="M212.13,338.69s-1.28,6.43-1.55,7.32-1.84,7.84-3.18,10.81-4.2,8.72-5.43,10.88-2.77,4.41-2.77,4.41,2.46-.92,3.28.31a9.06,9.06,0,0,1,.92,3.69S206.58,370,208,367s4.82-11,6-14.67a75.23,75.23,0,0,0,2.57-11.08c.1-1.33.23-2.54.23-2.54Z"/><path class="cls-402" d="M143.81,346.51s0-2.26,1.48-2.71a66,66,0,0,1,10.86-1.36c2.72,0,7.92-.91,8.26,1.25s-.34,5.43-4.64,5.88S144.61,350.25,143.81,346.51Z"/><path class="cls-403" d="M248.15,293.94a18.8,18.8,0,0,1,4.57.22c2.28.44,9.35,1.42,10.65,2.29s5.11,2.93,5.44,4.34,2,3.81.65,3.7a36.53,36.53,0,0,0-5.22.54s2.29-2.61-.21-3.69-10.77-2.29-13.59-2.61l-2.83-.33Z"/><path class="cls-393" d="M218.14,316.76s.24,1.62-1.37,1.37a9.11,9.11,0,0,0,.13-5.07c-.74-2.71-2.1-8-4.2-12s-8.76-10.11-11.33-12-11.28-7.89-17.07-10.47-12-5.72-24.08-6.44-22.38-1.05-27.78-.81-14.78,3.81-17.3,5.77c0,0-.28.38,1.87.19s16.16-2,22-1.87,24.56.19,34.19,3.83a123.07,123.07,0,0,1,19.7,9.72s9.16,6.82,11.49,10.46,6.45,7.28,6.91,12.79,1.61,11.84,1.61,15.38-.46,8.92-.68,10.75,1,3.21,2.51,2.52a5,5,0,0,0,2.18-2.17,33.59,33.59,0,0,0,.68-7.55c-.23-3.21-.11-9-.11-9s2.17.8,3.09.11a10.82,10.82,0,0,0,1.91-2.2l-.3-4.22-2.61-2-1.18,2.16Z"/><path class="cls-404" d="M233.15,299.27s-.92.14-.05-1.6a10.62,10.62,0,0,0,.88-1.95s10.8-2.1,14.17-1.78c0,0,1.42,4.68.11,4.9-5.36.89-15.11.43-15.11.43"/><path class="cls-405" d="M216.42,307.72a30.49,30.49,0,0,0,1.09,4.11,18.69,18.69,0,0,1,.63,4.93s.53-.74,2-.32a4.07,4.07,0,0,1,2.13,2.61,2.25,2.25,0,0,1,.17,1,16.82,16.82,0,0,0-.1,1.89s.52-1.26.42-6a36.53,36.53,0,0,0-1.56-9.18L219,304.59Z"/><path class="cls-406" d="M227.06,299.92c-2.64.58-5.66,2.43-6.15,3.31s.29,3.51.29,3.51a24.3,24.3,0,0,0-2.73-.48c-1.07-.1-2.05,2.24-2.05,1.46s.29-4.59.29-4.59a2.81,2.81,0,0,1,.43-.71,14.15,14.15,0,0,1,6.5-4.46c3.71-1.46,10.34-2.24,10.34-2.24l-.29,3.71Z"/><path class="cls-407" d="M471,391.18s6.11-4.69,8.4-4.69,4.8-1.2,6.22,1.2,1.31,12.11,1.31,12.11l-12.17,5.29Z"/><path class="cls-408" d="M491.31,343.54s-1.79,7.26-1.47,9.47,1.26,10,1.47,11.78,3.15,11,3.15,13.25.64,6.94.53,9.89-.21,9.78-1.16,11.56a19.64,19.64,0,0,0-2.21,6.84c-.12,2.16,1.37,2.32,1.37,2.32l7.47-17.25-3.58-31.87-1.15-19.25Z"/><path class="cls-409" d="M46.73,239.14s-4.87,5.19-6.76,6.76-9.28,11.48-13.37,11.48-7.39,1.73-7.55-1.88a32,32,0,0,1,2.36-11.64C22.51,241.5,33.52,219,38.24,213S58.69,186.46,64.5,181s18.25-17.77,25.17-22S106.26,149,106.26,149L99.1,167.43,70.64,197.15Z"/><path class="cls-410" d="M424.49,298.44l-.06-1.9h22.32l4.62,5.51-.06,4.56a16.09,16.09,0,0,0-5.38-1.37c-2.37,0-9.36.3-11.43.42s-9.95-.06-10.19-.36a29.83,29.83,0,0,1-.06-4.5Z"/><path class="cls-411" d="M501.49,390.59c-.39,3.24-2.47,8.43-4.15,12.19s-2.47,8.44-4.41,13.49-6.77,13-6.77,13l-1.54-11.47a19.32,19.32,0,0,0,3.77-4c1-1.82,2.33-2.59,3.11-5.32s3.37-6,4.41-9.6,2.07-11.54,1.56-13.75-2.73-16.47-4.28-21,0-22.57.9-24,9-2.2,11.16-2.2a3.57,3.57,0,0,1,3.11,1.81,32.31,32.31,0,0,1-2.46,5.84c-1.3,2.07-3.25,7-3.25,10.38v23.09C502.65,381.64,501.49,390.59,501.49,390.59Z"/><path class="cls-412" d="M42.05,257.18s1.59-7,2.64-12,1.58-9.85,3.17-14.42,8.62-18,11.43-23.22S74.42,183,77.59,178.9s10.9-12.13,14.07-15.65A185,185,0,0,1,106.26,149c4-3.34,22-12.14,31.49-15.48s27.61-7,35.18-7.21,36.41,1.23,47,3.52,51,13.89,58.92,16.71,42.75,17.76,49.43,22.69,45.21,25.33,52.25,29.2,25.68,16.36,29.9,18.12,10.91,1.76,15.31.88,13.54-3.52,16.36-5.46,6.68-7.74,6.68-7.74,2.11-2.28,1.58.53-1.23,7.74-1.93,9.68-6.86,17.06-13.72,19.88-20.23,4-29.73-2.29-34.3-18.47-47.49-25.33-43.81-23.4-53.66-27.44-52.24-20.59-70.18-23-44-7.21-67-3.16-40.28,9-57.69,22.51-34.48,26.92-41.34,37.82S42.05,257.18,42.05,257.18Z"/><path class="cls-413" d="M475,402.24a58.51,58.51,0,0,1,5.9-5.9c3.24-2.77,6.09-4.39,6.95-2.67s.57,4.38-.28,9.52a50,50,0,0,0-.86,10.48,25.13,25.13,0,0,1-.48,4.85l-5.56,5.56-13.29-9.17Z"/><path class="cls-387" d="M61,321s-.6,4.11-.6,5,1.8.81,3.71.1,2-2.8,1.6-4.41S61,321,61,321Z"/><path class="cls-414" d="M475.17,416.62a31.33,31.33,0,0,1,5.75-.84c2.29,0,2.8.59,2.8,2.11a25,25,0,0,1-.6,4.15l-6.6,4.82Z"/><path class="cls-364" d="M423.82,297.24s2.92.25,3,2.13-.73,3-3.1,3-3.47-1.18-3.59-2.49C419.87,297.36,423.82,297.24,423.82,297.24Z"/><path class="cls-415" d="M469.44,413.15s4.28-5,5.27-8.06,2.09-7,.2-9.75-2.59-6.07-4.77-6.37-3.59-2.68-4.38-.29-.1,4.07-.9,9.35-.89,7.16-2.09,9.55-1.49,6.76-1.49,7.06S469.44,413.15,469.44,413.15Z"/><path class="cls-416" d="M119.55,369.94a4.09,4.09,0,0,1-.35-7.47c2.84-1.44,6.46-3,9.08-3,5,0,8.25-1,11.34-1s12-2.07,14.26-2.07,9.46,1.9,13.24,1.72,3.26,4,5.32,4.47,8.77-.69,9.46,2.41,3.61,5.84-4.64,6.36-22.17.86-25.44.34-9.11-2.41-15.47-1.72-12.2,1.55-16.67,0Z"/><path class="cls-417" d="M458.77,419.36s.29-4.23.67-4.9,3.66-1.45,6.45-1.64,8.28,0,8.85.77a10.11,10.11,0,0,1,1.64,4.91c0,1.83-.77,4.14.48,4.71a16.78,16.78,0,0,0,3.85.87l-10.3,10.68a15.21,15.21,0,0,1,2.22,3.76c.77,2-1.64,8-1.64,8l-14-19.74Z"/><path class="cls-418" d="M486,420.22s1.4,0,1.4,2.8a22.19,22.19,0,0,1-1.28,6.28s-1.52,2.92-2.8,5.59-5.35,9.78-5.93,10.95a36.55,36.55,0,0,1-3.5,4.31l-9.31-4.89L477.77,426Z"/><path class="cls-419" d="M228.57,253.62c-5.52-2.3-5.75-3-12.88-4.6s-3.45-3.68-12.18-4.37-13.57-2.3-16.56,1.15-6,12.88-6,12.88l23,17,14.94,1.15s7.59-2.53,10.35-4.37,9.88-6.44,7.35-11S228.57,253.62,228.57,253.62Z"/><path class="cls-417" d="M470.1,442.72s.44-5,2.06-8.12,4.87-5.2,8.23-7.9,7.15-6.39,8.77-9.32,3.14-6.28,1.62-5.3-4.65,6.49-7,8.23-3.58,3.46-7,4.22a42.62,42.62,0,0,0-7.26,2.49L463,441.31Z"/><path class="cls-420" d="M450.38,436.59s3.05-7.2,5-10.91,3.83-7.15,4.09-8.56,1.66-.38,5-.25S472,417.5,472,418s1.79,3.57,1.79,6,1.53,4-.26,5.62-3.45,5-4.85,6-3.33,6-3.33,6L452,440.76Z"/><path class="cls-421" d="M473.94,448.76s-1.79-3.6-3.59-7-3.41-3.8-3.41-3.8-3.54,2.6-7.48,2.09-4.88-.43-5.91-2.83-3.17-.6-3.17-.6-2.49,8.66-4.2,11.57-2.92,4.2-2.66,7.2.17,6.17,2.49,6.17,13.54-.77,17-2.4,9.26-6.6,10.29-7.8S474.46,449.7,473.94,448.76Z"/><path class="cls-422" d="M485.46,346.81s8.11-8.84,11.38-12.59,6.54-7.39,7.15-5.82-2.06,3.64-3.75,5.21-6.91,9.57-9.81,11.63S484.25,349.48,485.46,346.81Z"/><path class="cls-423" d="M214.49,169.69s-18,5.53-22.94,8.84S184.08,195.67,191,204s15.76,8.85,27.09,9.4,18,2.49,27.64-3.87,19.9-13.82,4.7-23.22-18.8-18.8-26.81-18.53S214.49,169.69,214.49,169.69Z"/><path class="cls-424" d="M241.51,635s-4.76,5-2.65,5.82a23.42,23.42,0,0,0,11.65.26c4.76-1,4.76-4.49,10.32-4.49s17.73,1.05,19.05-1.59,2.12-9,1.33-12.44.52-6.88-6.62-4.5-6.09,1.32-11.91,6.09-7.14,8.47-11.64,8.47S241.51,635,241.51,635Z"/><path class="cls-425" d="M359.89,590.92s-6.75-9.31-6.93-15.11,2.9-16.33,2.9-17.61,13.07-16.87,13.07-16.87l4.9,29.58Z"/><path class="cls-426" d="M408.46,96.25C398.42,91,392,89,382.91,84.84S361.23,73.2,354.84,72.06s-6.61-2.28-1.37-3.19,8.22.45,14.15,3.42,14.38,2.28,17.11,3.42,8.22,7.08,11.18,7.53,5.48-.23,7.76,1.37,8.9,5,9.81,6.39,1.15,5-1.14,5.25A17.64,17.64,0,0,1,408.46,96.25Z"/><path class="cls-427" d="M157.63,47.68s5.54-.16,9.09-.16,15.1,0,14.79-.77a13.06,13.06,0,0,0-6.93-6.16c-4.47-1.69-6.32-3.39-10.94-5.08S154.55,32,154.55,32s-4.32,1.7-3.09,5.55S157.63,47.68,157.63,47.68Z"/><path class="cls-428" d="M196.34,41.35a59.1,59.1,0,0,1,5.74-4.78c1.77-1.09,7.24-3.41,8.6-4.51s2.6-1.23,2.46-4.1.69-11.06-.54-13a7.52,7.52,0,0,1-1.23-3.69s-4.51,4.78-5.88,6.69-6.55,8.33-7.51,11.2S196.34,41.35,196.34,41.35Z"/><path class="cls-429" d="M232,34.67s6.81-5.19,8.43-6.7,8.22-7.9,12.65-11.14,11-5.3,13.62-5.84,4.76-.54,5.63.54,1.4,4.54.1,6.38-4.64,7.24-5.94,8.87-1.73,1.51-4.22,2.38-3.57,1.72-6.7,2.81-11.79,3.89-17.09,4.43S230.35,36.62,232,34.67Z"/><path class="cls-430" d="M159.78,50.69a1.68,1.68,0,0,0,1.1,2.32c.85.37,7,.61,8.66.61s7.33-.85,11.24-1.34A85.64,85.64,0,0,0,193,49.72c2.69-.86,5.62-1.47,6.11-1.84s.85-2-.12-2.31-3.42.36-6.23,1.22a83.51,83.51,0,0,1-11.84,2.44,141.31,141.31,0,0,1-14.29.73C162.22,50.08,160.75,48.74,159.78,50.69Z"/><path class="cls-431" d="M166.54,55.88c-.3-.88-1.48-1.28.69-1.38s4.54-.49,6.62-.79,10.37-1.38,11.75-1.58,6.06-1.34,6.72-1.88,4.84-1.68,5.83-1.38,1.68,1.58.89,2.27A6.06,6.06,0,0,1,195.68,53c-1.78.3-2.67.59-6.22,1.28s-5.73.7-10.48,1.78-6.52,1.48-9.28,1.09S166.54,55.88,166.54,55.88Z"/><path class="cls-432" d="M259.14,35.25c1.25-1,3.66-2.67,3-3.47s-3.2-.36-5.43,1.06a34.09,34.09,0,0,1-7.22,3.3,65.08,65.08,0,0,1-8.11,2.23c-2.85.71-7.32.32-9.72.86"/><path class="cls-432" d="M231.41,39.23s-2.38,3.15-1.58,3.42,4.54-.09,6.86-.54,8.11-1,9.36-1.42,5.25-1.7,6.5-2.14a33.66,33.66,0,0,0,5.44-2.5l1.15-.8"/><path class="cls-433" d="M228.88,46.47s4.17-.6,5.53-.6a13,13,0,0,0,5-.42c3.15-.77,10.64-3,11.66-3.32s3.49-1.79,3.74-2.47.09-1.28-1.36-.77-8.34,3.32-10.13,3.41-8.08.34-10.21.51-4.17-.09-4.51.76-.94,2.22-.34,2.56Z"/><path class="cls-434" d="M200.81,45c-.43,1.07-.86,2,.54,1.72s3.33.32,5.05-.33a10.14,10.14,0,0,1,4.29-.75c1.72,0,2.79.32,4.94-.21s3.54-2.47,6-2.47a17.27,17.27,0,0,0,5.8-1.29c.86-.32,1.94-1.83.65-1.93A29.41,29.41,0,0,0,219,41a48.59,48.59,0,0,1-10.52,1.93A24.75,24.75,0,0,0,200.81,45Z"/><path class="cls-435" d="M207.68,47.56a12.38,12.38,0,0,0-2.64.32c-1.37.3-4.49.36-3.39,1.21,1.39,1.07,8.62,2.66,9.7,2.66s2.79.86,4.18-.54,9.37-5.92,9.37-6.67-5.38,1.75-7.85,1.75-6.56,1.27-8.5,1.27Z"/><path class="cls-436" d="M41.81,159.4s6.65-2,9.67-5.24S68.59,132.82,71,130s7.85-10.27,10.67-13.89,7-4.43,5.64-7.46-6.44-7.85-11.48-7.85-6.24-.6-6.64,2,3.82,4.63-1.61,4.83-9.87,1-12.49,1H52.48s-3.22,11.08-4.23,14.91a78.61,78.61,0,0,0-2,12.48c0,1.81-1,7.85-1.41,11.48S41.81,159.4,41.81,159.4Z"/><path class="cls-437" d="M144.45,64.16c-1.2,1.07-2.67,2.53-1.73,3.6s3.46,1.2,5.19,1.2a34.47,34.47,0,0,0,7.33-1.6,16.18,16.18,0,0,1,5.2-.67c1.47,0,4.8,1.2,4.93-.26s.94-6.8.94-6.8a27.72,27.72,0,0,1-3.47.8c-1.2.13-1.2.93-1.2.93a11.64,11.64,0,0,0-6.13,0C152.31,62.29,144.45,64.16,144.45,64.16Z"/><path class="cls-438" d="M189.81,62.08s2.79-3.29,2.92-4.43.88-2-1-2.15-1.64-.89-2.91.88-.12,1.77-2.15,1.77-5.82.13-7.72.13-5.06-.25-6.71.89-4.05,1.14-4.68,3.16-.89,3.67.38,3.67,6.7-2.28,7.59-2.66,2.15-2.15,3.29-2.15,5.57.63,7.22.89A17.19,17.19,0,0,0,189.81,62.08Z"/><path class="cls-439" d="M195.31,54.11s-.38,2.72-.38,4,2.72,1.31,3.66,1.31,4.32-1.69,5.72-1.69,5-2,6.85-2,8.63-.28,9.85-.66,2.35-1.12,2.35-2.44,1.12-2.81,0-3.47-3.57.19-3.94.75-1.79,2.54-3.47,2.72a61.58,61.58,0,0,1-8.45,1c-4,.09-5.25.09-7.41-.38S196.15,52.52,195.31,54.11Z"/><path class="cls-440" d="M225,53.46c.1-1.85,2.43-5.65,4.28-5.65s7.6-.29,8.58-.29,2.24.29,3.12-.39,2.82-2.34,3.31-2.34,3.7.59,3.7,1.27-.49,5.55-.59,6-1,.49-2.33.49A19.17,19.17,0,0,1,241,51.9c-.78-.19-.39.69-3.12,1.17a83.92,83.92,0,0,1-11,1.07C225.2,54.05,225,53.46,225,53.46Z"/><path class="cls-441" d="M250.11,51.45s-.09-1.93,0-3.13a7.59,7.59,0,0,1,2.58-3.77c.46-.09,5.06-.27,6.44-.27h5.61c1.47,0,4-.1,4.6,1.38s2.75,4.14,1.19,5.06a9.76,9.76,0,0,1-6.16,1.37,64.12,64.12,0,0,0-9.84.28c-1.57.28-2.95.92-3.59.37A2.81,2.81,0,0,1,250.11,51.45Z"/></g></g></svg>