<svg xmlns="http://www.w3.org/2000/svg" viewBox="0 0 303.22 303.22"><defs><style>.cls-1{font-size:30px;fill:#3c8d8b;font-family:AvenirNext-Bold, Avenir Next;font-weight:700;}</style></defs><g id="Layer_2" data-name="Layer 2"><g id="Layer_1-2" data-name="Layer 1"><text class="cls-1" transform="translate(25.32 151.87) rotate(-86.22)">T</text><text class="cls-1" transform="matrix(0.22, -0.98, 0.98, 0.22, 26.15, 135.2)">H</text><text class="cls-1" transform="translate(30.94 113.65) rotate(-67.56)">A</text><text class="cls-1" transform="translate(38.83 94.14) rotate(-57.57)">N</text><text class="cls-1" transform="translate(51.12 74.86) rotate(-47.78)">K</text><text class="cls-1" transform="translate(65.01 59.67) rotate(-39.3)">S</text><text class="cls-1" transform="matrix(0.83, -0.56, 0.56, 0.83, 78.48, 48.93)"> </text><text class="cls-1" transform="matrix(0.88, -0.48, 0.48, 0.88, 84.19, 44.8)">F</text><text class="cls-1" transform="translate(98.52 36.6) rotate(-18.99)">O</text><text class="cls-1" transform="translate(121.9 28.73) rotate(-9.01)">R</text><text class="cls-1" transform="matrix(1, -0.05, 0.05, 1, 141.04, 26)"> </text><text class="cls-1" transform="translate(148.06 25.36) rotate(2.37)">S</text><text class="cls-1" transform="translate(164.73 25.98) rotate(9.85)">T</text><text class="cls-1" transform="translate(180.36 28.24) rotate(18.9)">O</text><text class="cls-1" transform="translate(203.63 36.41) rotate(28.71)">P</text><text class="cls-1" transform="matrix(0.8, 0.6, -0.6, 0.8, 219.88, 45.25)">P</text><text class="cls-1" transform="matrix(0.73, 0.69, -0.69, 0.73, 234.6, 56.68)">I</text><text class="cls-1" transform="translate(241.44 62.46) rotate(50.55)">N</text><text class="cls-1" transform="matrix(0.49, 0.87, -0.87, 0.49, 255.98, 80.05)">G</text><text class="cls-1" transform="matrix(0.38, 0.92, -0.92, 0.38, 266.59, 99.86)"> </text><text class="cls-1" transform="matrix(0.28, 0.96, -0.96, 0.28, 269.59, 106.16)">B</text><text class="cls-1" transform="translate(275.11 124.54) rotate(82.26)">Y</text><text class="cls-1" transform="matrix(0.04, 1, -1, 0.04, 277.4, 143.25)"> </text><text class="cls-1" transform="matrix(-0.05, 1, -1, -0.05, 277.9, 149.57)">T</text><text class="cls-1" transform="matrix(-0.2, 0.98, -0.98, -0.2, 277.3, 166.24)">H</text><text class="cls-1" transform="translate(272.82 187.87) rotate(111.63)">A</text><text class="cls-1" transform="translate(265.2 207.49) rotate(121.62)">N</text><text class="cls-1" transform="translate(253.2 226.93) rotate(131.41)">K</text><text class="cls-1" transform="matrix(-0.76, 0.64, -0.64, -0.76, 239.52, 242.31)">S</text><text class="cls-1" transform="matrix(-0.82, 0.57, -0.57, -0.82, 226.21, 253.24)"> </text><text class="cls-1" transform="translate(220.55 257.45) rotate(150.79)">F</text><text class="cls-1" transform="translate(206.34 265.86) rotate(160.19)">O</text><text class="cls-1" transform="translate(183.09 274.06) rotate(170.16)">R</text><text class="cls-1" transform="translate(163.98 277.07) rotate(176.14)"> </text><text class="cls-1" transform="matrix(-1, -0.03, 0.03, -1, 156.97, 277.81)">S</text><text class="cls-1" transform="matrix(-0.99, -0.16, 0.16, -0.99, 140.3, 277.41)">T</text><text class="cls-1" transform="matrix(-0.95, -0.31, 0.31, -0.95, 124.62, 275.38)">O</text><text class="cls-1" transform="translate(101.24 267.54) rotate(-152.11)">P</text><text class="cls-1" transform="translate(84.88 258.94) rotate(-143.72)">P</text><text class="cls-1" transform="translate(69.99 247.72) rotate(-137.48)">I</text><text class="cls-1" transform="translate(63.08 242.04) rotate(-130.26)">N</text><text class="cls-1" transform="matrix(-0.5, -0.87, 0.87, -0.5, 48.28, 224.64)">G</text><text class="cls-1" transform="matrix(-0.4, -0.92, 0.92, -0.4, 37.39, 205)"> </text><text class="cls-1" transform="translate(34.3 198.74) rotate(-107.34)">B</text><text class="cls-1" transform="translate(28.52 180.43) rotate(-98.55)">Y</text></g></g></svg>