<svg id="Layer_6" data-name="Layer 6" xmlns="http://www.w3.org/2000/svg" xmlns:xlink="http://www.w3.org/1999/xlink" viewBox="0 0 1080 1080"><defs><style>.cls-1{fill:none;}.cls-2,.cls-23{fill:#6a9580;}.cls-3{fill:#d07a1c;}.cls-4{fill:#ba6d19;}.cls-5{clip-path:url(#clip-path);}.cls-6{fill:#fbe1cc;}.cls-7{fill:#0c0b10;}.cls-8{fill:#161623;}.cls-9{fill:#f3ecf0;}.cls-10{fill:#05060c;}.cls-11{clip-path:url(#clip-path-2);}.cls-12{fill:#19130c;}.cls-13{clip-path:url(#clip-path-3);}.cls-14{fill:#d2c28f;}.cls-15{clip-path:url(#clip-path-4);}.cls-16{fill:#f5fcf8;}.cls-17{fill:#f7f8fa;}.cls-18{fill:#241712;}.cls-19{fill:#030812;}.cls-20{fill:#f7f7f7;}.cls-21{fill:#16080d;}.cls-22{fill:#597759;stroke:#16080d;}.cls-22,.cls-23{stroke-miterlimit:10;stroke-width:8px;}.cls-23{stroke:#241712;}.cls-24{fill:#db7c5a;}.cls-25{fill:#040603;}.cls-26{fill:#050706;}.cls-27{fill:#030303;}.cls-28{fill:#010103;}.cls-29{fill:#020202;}.cls-30{fill:#050000;}.cls-31{fill:#000002;}.cls-32{clip-path:url(#clip-path-5);}.cls-33{fill:#fff;}.cls-34{fill:#fffffd;}.cls-35{fill:#050304;}.cls-36{fill:#070908;}.cls-37{clip-path:url(#clip-path-6);}</style><clipPath id="clip-path"><path class="cls-1" d="M359.72,815.42c-6.19,30.16,3.46,46.67,15.56,64s57.05,38.89,65.67,43.46S453.12,932,453.12,932l-7.61,14.2-16.22,18.25,21.8-2.53-7.06,5a.54.54,0,0,0,.35,1l13.3-.88-2.74,8.24,15.42-2.67-1,10.65,9.63-1.52-2,10.14,10.65-12.67,3.54,14.73,3.05-4.59,3.05,8.11,9.12-14.2,13.19,15.22,4.06-23.84,4,24.34,4.57-7.6,14.7,10.14,3.55-14.71,9.13,10.65,2.54-11.66,8.62,9.63,1.52-14.7L590,990.28,585,979.13l19.78,10.14-11.15-22.82,19.77,10.14-7.1-12.68L621,966.72l-8.07-9,10.76-2.69-9.87-5.38,12.56-6.28L615.59,938l9-9s6.64-10.84,46.63-45.73,32.94-80.55,32.94-80.55l14.31-1.65V778.56l31.91,27V788.46l16.51,3.86-3.3-7.16H785l-14.31-2.75,18.16-3.85V769.2l8.26.55,11-5s2.33,8.71,6.61,6.05,6.6-18.71,6.6-23.11-2.75-20.91-2.75-20.91l19.26-6.05,27.51,3.85,3.3-8.8-1.1-10.46-15.41-7.15,7.71-7.16-5.5-6.6,13.75-5.5-7.7-6.06,25.31-.55-12.1-7.15,21.46,1.65-10.46-7.7,27,2.2-28.06-19.26,31.37,2.2-19.26-22,22.56-2.75-15.41-21.46L916,590.91l-15.41-9.35,17.06-4.4-11-12.11,12.11-3.3-16-11,3.85-6.6-14.3-7.71,20.91-3.85-18.16-14.31h11.55L898.38,504l8.25-2.2-18.71-7.71,27.35-3.74-31-1.19,3.57-10.72H867.64l10.71-7.15-16.67-10.72,16.67-2.38s-16.67-16.67-23.81-25-35.73-21.43-35.73-21.43L834.29,407l-21.24-8.79a13.8,13.8,0,0,1-7-19.12c2.14-4.1,4.8-8.83,8-13.77,9.4-14.6,27.68-61.11,36.92-86.94s-9.86-62.81-22.62-79.79S795,183.06,764,195s-66.7,53.59-66.7,53.59-16.67-20.24-35.72-27.39-76.22-38.11-152.44-36.92-167.92,52.4-167.92,52.4S329.68,219.49,325.77,220,281.48,178.79,265,177.11s-73.84-3.58-70.26,66.69,38.08,145.77,38.08,145.77-20.93,11.82-26.12,13.55c-3.44,1.14,2.63,2.29,7.11,2.93a1.27,1.27,0,0,1,.36,2.41c-3.89,1.85-10,4.48-14.38,5-5.77.72-18.15,18.28-22.1,24.08a1.18,1.18,0,0,0,1,1.85h9.23a1.28,1.28,0,0,1,.72,2.33l-7.14,4.88-4.33,3a1,1,0,0,0,.18,1.79l7,2.9a1.27,1.27,0,0,1,.45,2L148.82,495.6h2.33a6,6,0,0,1,5.91,7.19l-4.62,23.58s15.08-3.62,14.48,1.21-8.45,18.1-8.45,18.1l4,5.44a6,6,0,0,1,0,7.18l-6.37,8.49h0a6,6,0,0,1,4,8.15l-2.16,5.13,7.39,1.3a2.31,2.31,0,0,1,1.73,3.18l-7.31,17.23,9,6.17a1.11,1.11,0,0,1,.44,1.26l-8.81,29.38,9.65-1.21-13.35,15.49a1.27,1.27,0,0,0,.92,2.1l13.64.51-16.21,14.65a1.76,1.76,0,0,0,.77,3l14.23,3.43-10.52,8.78a2,2,0,0,0,1.19,3.44l15.37.45-3,12.67,1.21,9.05,12.67-3.62v16.9l13.87-12.07-1.2,15.69,16.89-9.66-6.64,21.12,11.47-9.65-3.62,17.49,12.06-9-2.41,12.67,10.86-.6-3,19.91L258,759.25l2.41,15.08,14.48-5.43.6,12.07,9.66-15.09.6,13.88,12.67-3L300.85,787l15.69-4.83v15.09L330.41,790l.61,10.25,12.67-7.84-2.42,16.29,16.9-22.93-5.43,22.33L362.39,793Z"/></clipPath><clipPath id="clip-path-2"><path class="cls-1" d="M359.72,815.42c-6.19,30.16,3.46,46.67,15.56,64s57.05,38.89,65.67,43.46S453.12,932,453.12,932l-7.61,14.2-16.22,18.25,21.8-2.53-6.69,4.72a.66.66,0,0,0,.43,1.2l12.85-.85-2.17,6.94a.76.76,0,0,0,.85,1l14-2.34-1,10.65,9.63-1.52-2,10.14,10.65-12.67,3.31,13.68a.45.45,0,0,0,.82.15l2.46-3.69,3.05,8.11,9.12-14.2,12.15,14a.76.76,0,0,0,1.31-.37l3.79-22.27,4,24.34,4.57-7.6,14.7,10.14,3.55-14.71,9.13,10.65,2.54-11.66,8.62,9.63,1.52-14.7L590,990.28,585,979.13l19.78,10.14-11.15-22.82,19.77,10.14-7.1-12.68L621,966.72l-8.07-9,10.76-2.69-9.87-5.38,12.56-6.28L615.59,938l9-9s6.64-10.84,46.63-45.73,32.94-80.55,32.94-80.55l14.31-1.65V778.56l31.91,27V788.46l16.51,3.86-3.3-7.16H785l-14.31-2.75,18.16-3.85V769.2l8.26.55,11-5s2.33,8.71,6.61,6.05,6.6-18.71,6.6-23.11-2.75-20.91-2.75-20.91l19.26-6.05,27.51,3.85,3.3-8.8-1.1-10.46-15.41-7.15,7.71-7.16-5.5-6.6,13.75-5.5-7.7-6.06,25.31-.55-12.1-7.15,21.46,1.65-10.46-7.7,27,2.2-28.06-19.26,31.37,2.2-19.26-22,22.56-2.75-15.41-21.46L916,590.91l-15.41-9.35,17.06-4.4-11-12.11,12.11-3.3-16-11,3.85-6.6-14.3-7.71,20.91-3.85-18.16-14.31h11.55L898.38,504l8.25-2.2-18.71-7.71,27.35-3.74-31-1.19,3.57-10.72H867.64l10.71-7.15-16.67-10.72,16.67-2.38s-16.67-16.67-23.81-25-35.73-21.43-35.73-21.43L834.29,407l-20.2-8.36a14.84,14.84,0,0,1-7.44-20.66c2-3.83,4.5-8.16,7.39-12.66,9.4-14.6,27.68-61.11,36.92-86.94s-9.86-62.81-22.62-79.79S795,183.06,764,195s-66.7,53.59-66.7,53.59-16.67-20.24-35.72-27.39-76.22-38.11-152.44-36.92-167.92,52.4-167.92,52.4S329.68,219.49,325.77,220,281.48,178.79,265,177.11s-73.84-3.58-70.26,66.69,46.6,145,46.6,145-29.45,12.63-34.64,14.36S218,406.57,218,406.57s-11.24,6.05-18.15,6.92-23.72,26.05-23.72,26.05l15.94-.12-10.54,7.21-2.4,1.64a2.29,2.29,0,0,0,.42,4L186,455,148.82,495.6h9.65l-6,30.77s15.08-3.62,14.48,1.21-8.45,18.1-8.45,18.1l6.64,9.05-9.05,12.06,6.63,1.81-4.82,11.47,10.25,1.81-8.44,19.9,8.79,6.05a1.43,1.43,0,0,1,.56,1.59l-8.75,29.17,9.65-1.21-15,17.19,16.23.91-16.22,14.65a1.77,1.77,0,0,0,.78,3l14.23,3.43-10.61,8.85a1.91,1.91,0,0,0,1.17,3.37l15.48.45-3,12.67,1.21,9.05,12.67-3.62v16.9l13.87-12.07-1.2,15.69,16.89-9.66-6.64,21.12,11.47-9.65-3.62,17.49,12.06-9-2.41,12.67,10.86-.6-3,19.91L258,759.25l2.41,15.08,14.48-5.43.6,12.07,9.66-15.09.6,13.88,12.67-3L300.85,787l15.69-4.83v15.09L330.41,790l.61,10.25,12.67-7.84-2.42,16.29,16.9-22.93-5.43,22.33L362.39,793Z"/></clipPath><clipPath id="clip-path-3"><path class="cls-1" d="M359.72,815.42c-6.19,30.16,3.46,46.67,15.56,64s57.05,38.89,65.67,43.46S453.12,932,453.12,932l-7.61,14.2-16.22,18.25,21.8-2.53L443.83,967a.47.47,0,0,0,.3.85l13.55-.9-2.16,6.91a.77.77,0,0,0,.87,1l14-2.33-.91,9.59a.83.83,0,0,0,.95.9l8.58-1.36-2,10.14,10.65-12.67,3.3,13.66a.47.47,0,0,0,.85.15l2.44-3.67,3.05,8.11,9.12-14.2,12.25,14.13a.68.68,0,0,0,1.18-.33l3.82-22.42,3.45,20.75a1.35,1.35,0,0,0,2.48.47l2.69-4.48,14.7,10.14,3.55-14.71,9.13,10.65,2.54-11.66,8.62,9.63,1.52-14.7L590,990.28,585,979.13l19.78,10.14-11.15-22.82,19.77,10.14-7.1-12.68L621,966.72l-8.07-9,10.76-2.69-9.87-5.38,12.56-6.28L615.59,938l9-9s6.64-10.84,46.63-45.73,32.94-80.55,32.94-80.55l9.69-1.12a5.21,5.21,0,0,0,4.62-5.18v-11.8a2.83,2.83,0,0,1,4.66-2.17l27.25,23V788.46l16.51,3.86L764.42,787a1.32,1.32,0,0,1,1.2-1.87H785l-5.54-1.06a1.81,1.81,0,0,1,0-3.54l9.42-2V772.2a2.8,2.8,0,0,1,3-2.8l5.27.35,7.88-3.54a3.22,3.22,0,0,1,4.22,1.49c1.08,2.25,2.94,4.75,5.51,3.15,4.27-2.65,6.6-18.71,6.6-23.11s-2.75-20.91-2.75-20.91l19.26-6.05,27.51,3.85,3.3-8.8-1.1-10.46-15.41-7.15,7.71-7.16-5.5-6.6,13.75-5.5-7.7-6.06,25.31-.55-12.1-7.15,21.46,1.65-10.46-7.7,27,2.2-28.06-19.26,31.37,2.2-19.26-22,22.56-2.75-15.41-21.46L916,590.91l-15.41-9.35,17.06-4.4-11-12.11,12.11-3.3-16-11,3.85-6.6-14.3-7.71,20.91-3.85-18.16-14.31h11.55L898.38,504l8.25-2.2-18.71-7.71,27.35-3.74-31-1.19,3.57-10.72H867.64l10.71-7.15-16.67-10.72,16.67-2.38s-16.67-16.67-23.81-25-35.73-21.43-35.73-21.43L834.29,407l-20.54-8.5a14.51,14.51,0,0,1-7.27-20.19c2.06-3.92,4.59-8.36,7.56-13,9.4-14.6,27.68-61.11,36.92-86.94s-9.86-62.81-22.62-79.79S795,183.06,764,195s-66.7,53.59-66.7,53.59-16.67-20.24-35.72-27.39-76.22-38.11-152.44-36.92-167.92,52.4-167.92,52.4S329.68,219.49,325.77,220,281.48,178.79,265,177.11s-73.84-3.58-70.26,66.69,46.6,145,46.6,145-29.45,12.63-34.64,14.36S218,406.57,218,406.57s-11.24,6.05-18.15,6.92c-5.38.67-16.51,16-21.19,22.75a2,2,0,0,0,1.67,3.18H192l-10.54,7.21-6.05,4L186,455,148.82,495.6h9.65l-6,30.77s15.08-3.62,14.48,1.21-8.45,18.1-8.45,18.1l6.64,9.05-9.05,12.06,6.63,1.81-4.82,11.47,10.25,1.81-8.44,19.9,8.13,5.6a2.51,2.51,0,0,1,1,2.81l-8.52,28.4,9.65-1.21L156.56,652.9a1.25,1.25,0,0,0,.9,2.07l13.68.51-16.28,14.7a1.73,1.73,0,0,0,.75,3l14.32,3.45-11,9.16a1.72,1.72,0,0,0,1.05,3l16,.47-3,12.67,1.21,9.05,12.67-3.62v16.9l13.87-12.07-1.2,15.69,16.89-9.66-6.64,21.12,11.47-9.65-3.62,17.49,12.06-9-2.41,12.67,10.86-.6-3,19.91L258,759.25l2.41,15.08,14.48-5.43.48,9.71a.76.76,0,0,0,1.39.37l8.39-13.1.6,13.88,12.67-3L300.85,787l15.69-4.83v15.09L330.41,790l.61,10.25,12.67-7.84-2.42,16.29,16.9-22.93-5.43,22.33L362.39,793Z"/></clipPath><clipPath id="clip-path-4"><path class="cls-1" d="M359.72,815.42c-6.19,30.16,3.46,46.67,15.56,64s57.05,38.89,65.67,43.46S453.12,932,453.12,932l-7.61,14.2-16.22,18.25,21.8-2.53-7,5a.54.54,0,0,0,.35,1l13.29-.88-2.16,6.93a.76.76,0,0,0,.85,1l14-2.34-.91,9.62a.8.8,0,0,0,.92.87l8.61-1.36-2,10.14,10.65-12.67,3.18,13.58a.62.62,0,0,0,1.12.19l2.29-3.63,2.83,7.52a.31.31,0,0,0,.56.06l8.78-13.67,12.07,13.93a.81.81,0,0,0,1.41-.4l3.77-22.15L527,995.15a1.4,1.4,0,0,0,2.58.49l2.61-4.34,12.87,8.87a1.52,1.52,0,0,0,2.35-.9l3-12.54L559.26,997a.26.26,0,0,0,.46-.12l2.43-11.14,8.62,9.63,1.52-14.7L590,990.28,585,979.13l19.78,10.14-11.15-22.82,19.77,10.14-7.1-12.68L621,966.72l-8.07-9,10.76-2.69-9.87-5.38,12.56-6.28L615.59,938l9-9s6.64-10.84,46.63-45.73,32.94-80.55,32.94-80.55l9.71-1.12a5.19,5.19,0,0,0,4.6-5.16V784.25a2.64,2.64,0,0,1,4.34-2l27.57,23.29V788.46l16.51,3.86-2.42-5.24a1.35,1.35,0,0,1,1.23-1.92H785l-6.42-4.1,10.27-2.5V769.2l8.26.55,6.51-3.17a4.79,4.79,0,0,1,6.33,2c1,2,2.63,3.63,4.77,2.3,4.27-2.65,6.6-18.71,6.6-23.11s-2.75-20.91-2.75-20.91l19.26-6.05,27.51,3.85,3.3-8.8-1.1-10.46-15.41-7.15,7.71-7.16-5.5-6.6,13.75-5.5-7.7-6.06,25.31-.55-12.1-7.15,21.46,1.65-10.46-7.7,27,2.2-28.06-19.26,31.37,2.2-19.26-22,22.56-2.75-15.41-21.46L916,590.91l-15.41-9.35,17.06-4.4-11-12.11,12.11-3.3-16-11,3.85-6.6-14.3-7.71,20.91-3.85-18.16-14.31h11.55L898.38,504l4.66-1.25a1.25,1.25,0,0,0,.15-2.37l-15.27-6.29,27.35-3.74-31-1.19,3.57-10.72H867.64l10.71-7.15-16.67-10.72,16.67-2.38s-16.67-16.67-23.81-25-35.73-21.43-35.73-21.43l16.8-4.87L814,398.55A14.73,14.73,0,0,1,806.6,378c2-3.86,4.52-8.23,7.44-12.77,9.4-14.6,27.68-61.11,36.92-86.94s-9.86-62.81-22.62-79.79S795,183.06,764,195s-66.7,53.59-66.7,53.59-16.67-20.24-35.72-27.39-76.22-38.11-152.44-36.92-167.92,52.4-167.92,52.4S329.68,219.49,325.77,220,281.48,178.79,265,177.11s-73.84-3.58-70.26,66.69,46.6,145,46.6,145-29.45,12.63-34.64,14.36S218,406.57,218,406.57s-11.24,6.05-18.15,6.92c-5.76.72-18.1,18.2-22.08,24a1.21,1.21,0,0,0,1,1.89H192l-10.54,7.21-4.42,3a1,1,0,0,0,.18,1.69L186,455,148.82,495.6h9.65l-6,30.77s15.08-3.62,14.48,1.21-8.45,18.1-8.45,18.1l6.64,9.05-9.05,12.06,6.63,1.81-4.82,11.47,10.25,1.81-8.44,19.9,7.69,5.29a3.28,3.28,0,0,1,1.28,3.63l-8.37,27.89,5.29-.66a1.69,1.69,0,0,1,1.49,2.78l-10.47,12.14a1.28,1.28,0,0,0,.93,2.12l9.45.35a1.7,1.7,0,0,1,1.07,3l-13.14,11.5a2.1,2.1,0,0,0,.93,3.63l10.83,2.39a1.7,1.7,0,0,1,.68,3l-8,6.43a2.1,2.1,0,0,0,1.27,3.74l11.48.23a3.18,3.18,0,0,1,3,3.9L173,701.93l1.21,9.05,8.63-2.46a3.17,3.17,0,0,1,4,3.05v12.69l8-7a3.17,3.17,0,0,1,5.24,2.64l-.61,8,9.87-5.64a3.16,3.16,0,0,1,4.59,3.7l-4.21,13.4,8.36-7a1.41,1.41,0,0,1,2.28,1.36l-2.79,13.52,9.15-6.87A1.41,1.41,0,0,1,229,741.7l-1.73,9.1,6.15-.34a3.82,3.82,0,0,1,4,4.4l-1.89,12.51a1.46,1.46,0,0,0,2.08,1.55l15.81-7.49a3.83,3.83,0,0,1,5.42,2.86l1.61,10,9.57-3.59a3.83,3.83,0,0,1,5.17,3.39l.16,4.46a.83.83,0,0,0,1.53.4l1.78-2.91a3.83,3.83,0,0,1,7.05,1.9l.08,1.78,8.93-2.13a3.84,3.84,0,0,1,4.62,2.85l1.13,4.8a1.65,1.65,0,0,0,2.09,1.2L313,783.27a2.74,2.74,0,0,1,3.56,2.62v10a.84.84,0,0,0,1.22.75l10.89-5.69a1.29,1.29,0,0,1,1.88,1.07l.4,6.87a.84.84,0,0,0,1.28.66l9.12-5.64a1.28,1.28,0,0,1,1.95,1.28l-1.51,10.22a.84.84,0,0,0,1.5.62l10.07-13.67a1.63,1.63,0,0,1,2.9,1.36l-2.32,9.54a.84.84,0,0,0,1.52.65l3.93-6.14a1.29,1.29,0,0,1,2.36.84Z"/></clipPath><clipPath id="clip-path-5"><path class="cls-1" d="M359.72,815.42c-6.19,30.16,3.46,46.67,15.56,64s57.05,38.89,65.67,43.46a49.85,49.85,0,0,1,8.85,5.88,5.64,5.64,0,0,1,1.32,7l-5.61,10.47L438.4,954a1,1,0,0,0,.28,1.52l9.06,4.63a2.28,2.28,0,0,1,.27,3.89l-4.44,3.13a.38.38,0,0,0,.25.69l10.55-.7a2.27,2.27,0,0,1,2.32,3l-1.17,3.76a.76.76,0,0,0,.85,1L467.44,973a2.28,2.28,0,0,1,2.64,2.46l-.63,6.66a.81.81,0,0,0,.93.88l5.37-.85a2.28,2.28,0,0,1,2.59,2.7l-.93,4.65a.6.6,0,0,0,1,.5l6.25-7.44a2.28,2.28,0,0,1,4,.93l2.25,9.31a.45.45,0,0,0,.82.14h0a2.27,2.27,0,0,1,4,.47l1.3,3.45a.26.26,0,0,0,.47.06l7.2-11.2a2.27,2.27,0,0,1,3.63-.26l10.17,11.73a.74.74,0,0,0,1.29-.37l1.66-5.56a2.28,2.28,0,0,1,4.36,0l1.23,4a1.35,1.35,0,0,0,2.48.47l1.44-2.39a2.27,2.27,0,0,1,3.24-.71l11.16,7.7a1.29,1.29,0,0,0,2-.76l2.07-8.55a2.27,2.27,0,0,1,3.94-.95l5.09,5.94a.87.87,0,0,0,1.51-.38l1.22-5.6a2.28,2.28,0,0,1,3.92-1l4.91,5.49a.49.49,0,0,0,.85-.28L571.94,984a2.27,2.27,0,0,1,3.35-1.76l13.88,7.53a.33.33,0,0,0,.46-.42l-2-4.32a2.27,2.27,0,0,1,3.11-3l12.71,6.52a.47.47,0,0,0,.63-.62l-7.53-15.42a2.27,2.27,0,0,1,3.08-3l11.81,6a.64.64,0,0,0,.85-.88l-3.68-6.56a2.28,2.28,0,0,1,2.41-3.35l8,1.53a.65.65,0,0,0,.6-1.08l-4.24-4.71a2.27,2.27,0,0,1,1.14-3.73l5.47-1.37a.65.65,0,0,0,.15-1.21l-4.57-2.49a2.28,2.28,0,0,1,.07-4l7.49-3.74a.66.66,0,0,0,0-1.17l-6.77-3.39a2.27,2.27,0,0,1-.59-3.64l6.74-6.74s6.64-10.84,46.63-45.73,32.94-80.55,32.94-80.55l10.35-1.19a4.48,4.48,0,0,0,4-4.44V783.92a2.48,2.48,0,0,1,4.09-1.9l27.82,23.5V788.46l16.51,3.86-3.92-7.42,22.08.26-5.95-4.22,9.8-2.38V769.2l8.26.55,8.17-3.67a2.91,2.91,0,0,1,3.84,1.44c1.07,2.29,3,5,5.6,3.33,4.27-2.65,6.6-18.71,6.6-23.11s-2.75-20.91-2.75-20.91l19.26-6.05,27.51,3.85,3.3-8.8-1.1-10.46-15.41-7.15,7.71-7.16-5.5-6.6,13.75-5.5-7.7-6.06,25.31-.55-12.1-7.15,21.46,1.65-10.46-7.7,23.36,1.9a1,1,0,0,0,.63-1.75l-25.09-17.21,27,1.89a1.82,1.82,0,0,0,1.49-3l-16.35-18.69,19.54-2.39a1.8,1.8,0,0,0,1.25-2.83l-13.64-19L916,590.91l-15.41-9.35,17.06-4.4-11-12.11,12.11-3.3-16-11,3.85-6.6-14.3-7.71,20.91-3.85-18.16-14.31h11.55L898.38,504l4.45-1.19a1.33,1.33,0,0,0,.16-2.51l-15.07-6.21,27.35-3.74-31-1.19,3.57-10.72H867.64l10.71-7.15-16.67-10.72,16.67-2.38s-16.67-16.67-23.81-25-35.73-21.43-35.73-21.43L830.86,408a1.29,1.29,0,0,0,.12-2.43l-17.24-7.13a14.51,14.51,0,0,1-7.26-20.19c2.06-3.91,4.59-8.36,7.56-13,9.4-14.6,27.68-61.11,36.92-86.94s-9.86-62.81-22.62-79.79S795,183.06,764,195s-66.7,53.59-66.7,53.59-16.67-20.24-35.72-27.39-76.22-38.11-152.44-36.92-167.92,52.4-167.92,52.4S329.68,219.49,325.77,220,281.48,178.79,265,177.11s-73.84-3.58-70.26,66.69,46.6,145,46.6,145-29.45,12.63-34.64,14.36c-3.35,1.12,2.34,2.23,6.77,2.88a1.38,1.38,0,0,1,.39,2.61c-3.9,1.84-9.81,4.35-14.07,4.88-5.79.72-18.24,18.4-22.15,24.15a1.14,1.14,0,0,0,1,1.78h8.91a1.39,1.39,0,0,1,.78,2.55l-6.81,4.66-6.05,4,8.7,3.56a1.4,1.4,0,0,1,.5,2.23L148.82,495.6h8a1.41,1.41,0,0,1,1.37,1.67l-5.71,29.1s15.08-3.62,14.48,1.21-8.45,18.1-8.45,18.1l6,8.21a1.4,1.4,0,0,1,0,1.66l-8.43,11.24,5.1,1.39a1.41,1.41,0,0,1,.92,1.89l-4.21,10,8.53,1.5a1.4,1.4,0,0,1,1,1.92l-7.76,18.29,8.81,6.06a1.41,1.41,0,0,1,.55,1.56l-8.76,29.19,6.06-.76a1.39,1.39,0,0,1,1.23,2.29l-11,12.65a1.37,1.37,0,0,0,1,2.26l10.18.32a1.39,1.39,0,0,1,.88,2.43l-14.4,13a1.24,1.24,0,0,0,.54,2.13l12.51,3a1.4,1.4,0,0,1,.56,2.43L158,686.56a1.24,1.24,0,0,0,.76,2.2l15.51.45a1.4,1.4,0,0,1,1.32,1.72l-2.62,11,1.21,9.05,10.89-3.11a1.4,1.4,0,0,1,1.78,1.34v15l11.31-9.84a1.39,1.39,0,0,1,2.3,1.16l-.94,12.3L213.3,720a1.39,1.39,0,0,1,2,1.63l-5.57,17.72,8.38-7.06a1.4,1.4,0,0,1,2.27,1.35l-2.8,13.55,9.18-6.89a1.4,1.4,0,0,1,2.21,1.38l-1.74,9.13,9.14-.51a1.4,1.4,0,0,1,1.46,1.61l-1.78,11.73A3.48,3.48,0,0,0,241,767.3L256.34,760a1.4,1.4,0,0,1,2,1l2.12,13.25,12.69-4.76a1.39,1.39,0,0,1,1.88,1.24l.45,8.84a.42.42,0,0,0,.77.2l6.57-10.25a1.4,1.4,0,0,1,2.57.69l.28,6.41a2.53,2.53,0,0,0,3.11,2.35l8.33-2a1.39,1.39,0,0,1,1.68,1l1.47,6.25a2.53,2.53,0,0,0,3.21,1.84l10.06-3.09a2.34,2.34,0,0,1,3,2.24v7.73a2.53,2.53,0,0,0,3.7,2.24L328.5,791a1.4,1.4,0,0,1,2,1.16l.23,3.86a2.53,2.53,0,0,0,3.86,2l6.5-4a1.4,1.4,0,0,1,2.12,1.39l-.49,3.25a2.54,2.54,0,0,0,4.55,1.88l6.1-8.28a1.61,1.61,0,0,1,2.86,1.33l-3.53,14.54,6.37-10a1.39,1.39,0,0,1,2.56.92Z"/></clipPath><clipPath id="clip-path-6"><path class="cls-1" d="M359.72,815.42c-6.19,30.16,3.46,46.67,15.56,64s57.05,38.89,65.67,43.46a50.85,50.85,0,0,1,8.17,5.32,6.55,6.55,0,0,1,1.64,8.21l-5.25,9.8-7.05,11.19a1.21,1.21,0,0,0,.75,1.82l9.55,2.18a1.06,1.06,0,0,1,.38,1.9L446,965.49a1.2,1.2,0,0,0,.77,2.19l9.38-.62a1.07,1.07,0,0,1,1.09,1.38l-1.49,4.76a1.21,1.21,0,0,0,1.35,1.55l11.91-2a1.07,1.07,0,0,1,1.24,1.15l-.74,7.72a1.21,1.21,0,0,0,1.39,1.31l8.1-1.28-1.1,5.52a1.21,1.21,0,0,0,2.11,1l6.26-7.45a1.07,1.07,0,0,1,1.85.44l2.4,10a1.21,1.21,0,0,0,2.18.39l1.51-2.27,2.2,5.86a1.21,1.21,0,0,0,2.15.23l7.06-11a1.06,1.06,0,0,1,1.7-.12l10.58,12.21a1.21,1.21,0,0,0,2.1-.59l2.54-8.82a1.06,1.06,0,0,1,2,0l2.56,8.62a1.21,1.21,0,0,0,2.23.42l2.29-3.82a1.06,1.06,0,0,1,1.52-.33l12.33,8.5a1.2,1.2,0,0,0,1.85-.71l2.65-11a1.07,1.07,0,0,1,1.85-.45l6.19,7.23a1.21,1.21,0,0,0,2.1-.53l1.57-7.25a1.07,1.07,0,0,1,1.84-.49l5.41,6.05a1.21,1.21,0,0,0,2.1-.68l1.07-10.4a1.07,1.07,0,0,1,1.57-.83l13.18,7.15a1.21,1.21,0,0,0,1.68-1.56l-2.32-5.09a1.06,1.06,0,0,1,1.45-1.39l13.83,7.09a1.21,1.21,0,0,0,1.64-1.6L595,969.32a1.06,1.06,0,0,1,1.44-1.41l13.38,6.86a1.21,1.21,0,0,0,1.6-1.67l-4-7.19a1.07,1.07,0,0,1,1.13-1.57l8.94,1.71a1.21,1.21,0,0,0,1.12-2l-4.49-5a1.07,1.07,0,0,1,.53-1.75l6-1.51a1.2,1.2,0,0,0,.28-2.23l-5.36-2.92a1.07,1.07,0,0,1,0-1.89l8.57-4.29a1.21,1.21,0,0,0,0-2.16l-7.28-3.64a1.06,1.06,0,0,1-.28-1.7l7.93-7.93s6.64-10.84,46.63-45.73S704.25,804,704.25,804l10.69-2.5a4,4,0,0,0,3.5-3.91V784.12a2.57,2.57,0,0,1,4.24-2l27.67,23.37V788.46l16.51,3.86L765,788.25a2.18,2.18,0,0,1,2-3.09h15a1,1,0,0,0,.56-1.75l-1-.72a1.38,1.38,0,0,1,.47-2.46l6.87-1.67v-6.11a3,3,0,0,1,3.24-3l5,.33,8.06-3.62a3,3,0,0,1,4,1.5c1.07,2.27,2.95,4.83,5.54,3.22,4.27-2.65,6.6-18.71,6.6-23.11a87.64,87.64,0,0,0-.93-9,14.29,14.29,0,0,1,9.89-15.59l7.55-2.37,27.51,3.85,3.3-8.8-1.1-10.46-15.41-7.15,7.71-7.16-5.5-6.6,10.85-4.34a1.8,1.8,0,0,0,.45-3.09l-1.3-1a1.81,1.81,0,0,1,1.08-3.22l14-.3a1.8,1.8,0,0,0,.87-3.35h0a1.8,1.8,0,0,1,1.06-3.35l7.47.58a1.8,1.8,0,0,0,1.21-3.25l-.3-.21a1.81,1.81,0,0,1,1.22-3.25l13.9,1.14a1.8,1.8,0,0,0,1.16-3.28l-17-11.69a1.8,1.8,0,0,1,1.14-3.28L910.53,644a1.8,1.8,0,0,0,1.48-3l-14.14-16.16a1.8,1.8,0,0,1,1.14-3l16.16-2a1.8,1.8,0,0,0,1.25-2.83L904,599.73a1.81,1.81,0,0,1,.61-2.64l8.65-4.68a1.81,1.81,0,0,0,.08-3.13l-9.08-5.51a1.8,1.8,0,0,1,.48-3.28l12.93-3.33-11-12.11,12.11-3.3-16-11,3.85-6.6-14.3-7.71,20.91-3.85-18.16-14.31h11.55L898.38,504l4.9-1.31a1.17,1.17,0,0,0,.14-2.22L892,495.72a1.18,1.18,0,0,1,.28-2.25l9.76-1.33a1.18,1.18,0,0,0-.11-2.34l-16-.61a1.18,1.18,0,0,1-1.07-1.55l2.57-7.69a1.18,1.18,0,0,0-1.12-1.54H871.51a1.17,1.17,0,0,1-.65-2.15l7.49-5-16.67-10.72,16.67-2.38s-16.67-16.67-23.81-25c-5-5.83-20.51-14-29.37-18.38a2.77,2.77,0,0,1,.41-5.14l5.53-1.7a1.2,1.2,0,0,0,.1-2.25l-17.77-7.35a14.2,14.2,0,0,1-7.17-19.67c2.1-4,4.7-8.6,7.77-13.39,9.4-14.6,27.68-61.11,36.92-86.94s-9.86-62.81-22.62-79.79S795,183.06,764,195s-66.7,53.59-66.7,53.59-16.67-20.24-35.72-27.39-76.22-38.11-152.44-36.92-167.92,52.4-167.92,52.4S329.68,219.49,325.77,220,281.48,178.79,265,177.11s-73.84-3.58-70.26,66.69,46.6,145,46.6,145-29.45,12.63-34.64,14.36c-2.59.86.21,1.72,3.66,2.37a2.36,2.36,0,0,1,.49,4.48,45.53,45.53,0,0,1-11.06,3.52c-5.6.7-17.42,17.25-21.73,23.54a1.53,1.53,0,0,0,1.26,2.39h5.06a2.36,2.36,0,0,1,1.34,4.3l-4.25,2.91-3.57,2.44a1.53,1.53,0,0,0,.27,2.67l4.69,1.95a2.36,2.36,0,0,1,.83,3.77l-34.9,38.14h6.79a2.36,2.36,0,0,1,2.31,2.82l-5.48,27.95s15.08-3.62,14.48,1.21-8.45,18.1-8.45,18.1l5.6,7.64a2.36,2.36,0,0,1,0,2.81l-8,10.66,4,1.1a2.37,2.37,0,0,1,1.55,3.19l-3.78,9,7.34,1.29A2.36,2.36,0,0,1,167,584.6l-7.29,17.18,8.23,5.67a2.36,2.36,0,0,1,.93,2.62l-8.56,28.52,3.58-.45a2.35,2.35,0,0,1,2.07,3.88l-9.33,10.82a1.29,1.29,0,0,0,.93,2.13l7.81.29a2.36,2.36,0,0,1,1.49,4.11l-12.16,11a1.6,1.6,0,0,0,.7,2.73l10,2.41a2.36,2.36,0,0,1,1,4.11L158.68,686a1.59,1.59,0,0,0,1,2.81l13.42.4a2.36,2.36,0,0,1,2.23,2.9L173,701.93l1.21,9.05,9.66-2.76a2.36,2.36,0,0,1,3,2.27v13.77l9.53-8.3a2.36,2.36,0,0,1,3.9,2l-.76,10,11.67-6.67a2.35,2.35,0,0,1,3.41,2.75l-4.83,15.38,6.26-5.27a2.36,2.36,0,0,1,3.83,2.28l-2.24,10.83,7.19-5.4a2.36,2.36,0,0,1,3.73,2.33l-1.27,6.69,8-.44a2.36,2.36,0,0,1,2.46,2.71l-1.87,12.38a2.5,2.5,0,0,0,3.55,2.64l15.83-7.5a2.35,2.35,0,0,1,3.33,1.76l1.92,12,11.46-4.3a2.36,2.36,0,0,1,3.18,2.09l.37,7.33a.48.48,0,0,0,.89.24l4.82-7.53a2.36,2.36,0,0,1,4.34,1.17l.14,3.24a2.64,2.64,0,0,0,3.25,2.45l7.26-1.73a2.35,2.35,0,0,1,2.84,1.76l1.23,5.2a2.63,2.63,0,0,0,3.34,1.92l9.94-3.06a2.36,2.36,0,0,1,3.05,2.26v7.53a2.63,2.63,0,0,0,3.86,2.34l6.78-3.54a2.36,2.36,0,0,1,3.45,1.95l.13,2.21a2.63,2.63,0,0,0,4,2.08l4.59-2.84a2.36,2.36,0,0,1,3.57,2.35l-1.67,11.27,9.93-13.47a2.36,2.36,0,0,1,4.19,2l-2.65,10.92,4.1-6.42a2.36,2.36,0,0,1,4.33,1.55Z"/></clipPath></defs><rect class="cls-2" width="1080" height="1080"/><path class="cls-3" d="M546.05,1005.53a6.36,6.36,0,0,1-3.63-1.13l-8.65-6a6.3,6.3,0,0,1-5.36,2.95,6.4,6.4,0,0,1-4.39-1.74,5.76,5.76,0,0,1-9.29.82l-7.77-9-5.21,8.1a5.25,5.25,0,0,1-4.44,2.43,5.32,5.32,0,0,1-5-3.43l-.18-.5a5.52,5.52,0,0,1-.81.06A5.46,5.46,0,0,1,486,994l-1-4.05-2.87,3.42a5.56,5.56,0,0,1-9.71-4.67l.19-.94-1.41.23a7.28,7.28,0,0,1-.93.07,5.9,5.9,0,0,1-5.87-6.46l.3-3-7.59,1.26a6.09,6.09,0,0,1-.95.08,5.75,5.75,0,0,1-5.49-7.45l-6.61.44h-.36a5.37,5.37,0,0,1-3.1-9.75l.79-.56-5-2.57a6,6,0,0,1-1.71-9.34l6.68-7.4,5.29-9.86a.72.72,0,0,0-.14-.9,45.43,45.43,0,0,0-7.93-5.24c-.92-.49-2.25-1.17-3.91-2-24.21-12.37-53.31-28.43-63.52-43-12.78-18.27-22.84-36-16.4-67.63l1.14-9.52a6.85,6.85,0,0,1-4.13-2.23l-2.36,3.21a6.66,6.66,0,0,1-5.4,2.75,6.77,6.77,0,0,1-5.14-2.36,6.61,6.61,0,0,1-1.61-4.19l-1.16.71a6.64,6.64,0,0,1-3.54,1,6.75,6.75,0,0,1-6.7-6l-4.5,2.35a6.73,6.73,0,0,1-9.84-6v-5.46l-7.45,2.29a6.72,6.72,0,0,1-8.53-4.89l-.84-3.57L289,784.14a6.85,6.85,0,0,1-1.56.18,6.71,6.71,0,0,1-5.89-3.46l-.51.79a5.76,5.76,0,0,1-10.61-2.82l-.14-2.84-8.07,3a5.11,5.11,0,0,1-1.76.32,5,5,0,0,1-4.94-4.21l-1.36-8.5-13.5,6.4a7,7,0,0,1-9.92-7.38l1.53-10.11-4.71.26h-.28a5,5,0,0,1-4.92-5.92l-1.73,1.3a5,5,0,0,1-7.9-5l.69-3.36-.42.35a5,5,0,0,1-8-5.32l2.81-9L202,732.22a5,5,0,0,1-7.47-4.73l.27-3.53L190.11,728a5,5,0,0,1-3.28,1.23,5,5,0,0,1-5-5V714l-6.3,1.8a5,5,0,0,1-4.11-.62,5,5,0,0,1-2.22-3.53l-1.21-9a4.8,4.8,0,0,1,.1-1.81l1.59-6.7-9.2-.27a7,7,0,0,1-4.25-12.3l2.86-2.39-4.27-1a6.93,6.93,0,0,1-3-11.88l6.85-6.19-1.31,0a6.29,6.29,0,0,1-4.53-10.39l5.52-6.39a5.12,5.12,0,0,1-1.87-1.37,5,5,0,0,1-1-4.67l8-26.67-6.64-4.57a5,5,0,0,1-1.78-6.08l6-14.12L157,585a5,5,0,0,1-3.74-6.87l2.61-6.2-1.13-.3a5,5,0,0,1-2.68-7.83l6.82-9.1-4.44-6.06a5,5,0,0,1-.27-5.5,125.5,125.5,0,0,0,6.74-13,48.69,48.69,0,0,0-7.3,1.12,4.68,4.68,0,0,1-1.17.14,5,5,0,0,1-4.91-6l4.87-24.81h-3.58a5,5,0,0,1-3.69-8.37l32.36-35.37-1.52-.64a6.33,6.33,0,0,1-1.14-11.08L176.5,444a6.24,6.24,0,0,1-2.86-9.31c17.09-25.09,23.24-25.86,25.56-26.15a20.3,20.3,0,0,0,3.26-.74,4.91,4.91,0,0,1-1.71-3.4c-.08-.73-.24-4.47,4.4-6,1.29-.43,6-2.21,22.7-9.29a6.47,6.47,0,0,0,3.25-8.91c-11.48-22.47-38.51-80.7-41.33-136.12-1.2-23.68,4.18-42,16-54.42,14.18-14.92,34.48-18,49-18a105.41,105.41,0,0,1,10.77.55c11.22,1.15,28.41,15.25,48.07,32.17,5.13,4.41,10.89,9.37,13,10.69,2.1.18,6.6,1.71,16.18,15.14a561.75,561.75,0,0,1,52-23.88c30-12,74.19-26.37,114.32-27l4.36,0c63.57,0,114.38,22,138.8,32.61,4.65,2,8.32,3.61,11.11,4.66,14.68,5.5,27.72,17.93,34,24.56,10.16-11.14,38.76-40.69,64.9-50.75,16.66-6.41,29.25-9.39,39.61-9.39,13.12,0,23.09,4.78,30.49,14.63,12.56,16.69,33.59,55.84,23.34,84.48-9.29,26-27.67,72.81-37.42,88-2.52,3.91-4.94,8.06-7.2,12.32A9.81,9.81,0,0,0,816,394L833,401a6.23,6.23,0,0,1-.55,11.72l-.14.05c10.18,5.25,21.44,11.8,26,17.11,6.94,8.09,23.39,24.56,23.56,24.73a5,5,0,0,1-2.83,8.48l-3.39.49,5.39,3.46a5,5,0,0,1,1.81,6.35h2.89A6.52,6.52,0,0,1,892,482l-.79,2.38,11.05.42A6.17,6.17,0,0,1,905.6,496a6.23,6.23,0,0,1,.26,11l5.1,8.84a5,5,0,0,1-2.11,7l7.48,5.9a5,5,0,0,1-2.19,8.84l-6.92,1.27,1.78,1a5,5,0,0,1,2.45,3,5.06,5.06,0,0,1-.5,3.88l-1.51,2.6,12.14,8.37a5,5,0,0,1-1.53,8.94l-4.23,1.15,5.52,6.07a5,5,0,0,1-2.45,8.21l-5.58,1.44,2.69,1.63a6.74,6.74,0,0,1-.29,11.68l-5.56,3,10.33,14.39a6.8,6.8,0,0,1-4.7,10.71l-10.17,1.24,10.21,11.66A6.77,6.77,0,0,1,910.73,649h-.48l-8.75-.62,7.33,5A6.8,6.8,0,0,1,905,665.8a5.62,5.62,0,0,1-.57,0l-8.59-.7a6.8,6.8,0,0,1-.33,1.65,6.73,6.73,0,0,1-6.4,4.66l-.54,0-2.45-.19a6.63,6.63,0,0,1-.21,1.22,6.76,6.76,0,0,1-6.44,5.09l-8.05.18a6.49,6.49,0,0,1,0,1.76,6.68,6.68,0,0,1-4.12,5.25l-4.68,1.87,1.1,1.31a5,5,0,0,1-.44,6.87L861,696.82l8.66,4a5,5,0,0,1,2.87,4l.59,5.64a25.61,25.61,0,0,1-1.49,11.63l-1.6,4.27a5,5,0,0,1-4.68,3.24,4,4,0,0,1-.69,0l-25.24-3.53a5.81,5.81,0,0,0-.72,0,5.18,5.18,0,0,0-1.56.24l-7.41,2.33a6.75,6.75,0,0,0-4.67,7.43c1.27,8.8,1.27,11,1.27,11.74,0,.22-1.09,22.47-9,27.36a8,8,0,0,1-4.23,1.26c-2.17,0-5.13-.91-7.57-4.92l-6.39,2.87a5,5,0,0,1-2,.44h-.34l-2.92-.19v4a5,5,0,0,1-4,4.89l-3.09.66a5.59,5.59,0,0,1,0,1.23,5.3,5.3,0,0,1-5.31,4.82H771.37l0,.06a5,5,0,0,1-4.54,7.1,4.94,4.94,0,0,1-1.14-.14l-10.37-2.42v10.76a5,5,0,0,1-8.22,3.82l-23.69-20V796a10.73,10.73,0,0,1-9.51,10.66l-4.39.51c.67,13.44-1,50.2-35.06,79.9-38.26,33.38-45.41,44.19-45.69,44.64a4.86,4.86,0,0,1-.7.87L624,936.65l3.44,1.73a5.61,5.61,0,0,1,0,10l-2.88,1.44.06,0a5.62,5.62,0,0,1-1.32,10.39l-1.16.29,1.28,1.41a5.63,5.63,0,0,1-4.17,9.39,6.36,6.36,0,0,1-1.07-.1l-2.34-.45.69,1.23A5.72,5.72,0,0,1,609,980l-4.27-2.19,3.89,8a5.5,5.5,0,0,1-7.45,7.32l-6.48-3.32a5.35,5.35,0,0,1-5.35,5.12,5.38,5.38,0,0,1-2.54-.64l-10.26-5.57-.61,5.88a5.61,5.61,0,0,1-9.76,3.16L565,996.35l-.06.28a5.92,5.92,0,0,1-10.28,2.6l-1.56-1.82-.78,3.23A6.37,6.37,0,0,1,546.05,1005.53Z"/><path d="M254.77,176.58a98.63,98.63,0,0,1,10.26.53C281.38,178.78,321.38,220,325.7,220h.24c4.07,0,15.31,16.68,15.31,16.68s91.7-51.21,167.92-52.4l4.28,0c74.07,0,129.46,29.94,148.16,36.95,19,7.15,35.72,27.39,35.72,27.39S733.06,206.88,764,195c14.92-5.74,27.43-9.06,37.82-9.06,11.16,0,19.87,3.84,26.49,12.63,12.76,17,31.87,54,22.62,79.79S823.44,350.67,814,365.27c-2.9,4.51-5.37,8.85-7.41,12.7a14.81,14.81,0,0,0,7.43,20.61l17.06,7.06A1.23,1.23,0,0,1,831,408l-5.51,1.7a2.74,2.74,0,0,0-.41,5.07c8.84,4.37,24.43,12.57,29.45,18.42,7.14,8.34,23.81,25,23.81,25l-16.67,2.38,16.67,10.72-10.71,7.15h18.12a1.53,1.53,0,0,1,1.45,2l-2.9,8.71,17.7.68a1.16,1.16,0,0,1,.12,2.31l-14.21,1.94,15.34,6.32a1.23,1.23,0,0,1-.15,2.33L898.38,504l8.25,14.31H895.08l18.16,14.3-20.91,3.85,14.3,7.71-3.85,6.6,16,11-12.11,3.3,11,12.11-17.06,4.4,12.82,7.78a1.73,1.73,0,0,1-.07,3l-10.55,5.72,13.64,19a1.79,1.79,0,0,1-1.24,2.83l-19.55,2.39,16.43,18.77a1.77,1.77,0,0,1-1.33,2.94h-.13l-27.08-1.9L906,657.52a1.8,1.8,0,0,1-1,3.28h-.16l-20.22-1.65,5.51,4.06a1.76,1.76,0,0,1-1,3.18H889l-15.34-1.18,6.62,3.92a1.81,1.81,0,0,1-.88,3.37l-19,.41,5.42,4.27a1.66,1.66,0,0,1-.41,2.86l-11.06,4.43,5.5,6.6-7.71,7.16,15.41,7.15.6,5.64a20.53,20.53,0,0,1-1.2,9.35l-1.6,4.27-25.24-3.53a9.55,9.55,0,0,0-1.41-.1,10.33,10.33,0,0,0-3.06.47l-7.41,2.33a11.78,11.78,0,0,0-8.12,12.92,108.3,108.3,0,0,1,1.22,11c0,4.4-2.33,20.46-6.6,23.11a3,3,0,0,1-1.6.51c-1.85,0-3.22-2.13-4-4a2.78,2.78,0,0,0-2.53-1.62,2.88,2.88,0,0,0-1.14.24l-8.29,3.73-5.29-.35h-.19a2.78,2.78,0,0,0-2.78,2.78v6.38l-9.58,2a1.78,1.78,0,0,0,0,3.48l2.28.43a.33.33,0,0,1-.07.66h-16A1.28,1.28,0,0,0,764.4,787l2.46,5.34-16.51-3.86v17.06L722.52,782a2.42,2.42,0,0,0-1.59-.59,2.48,2.48,0,0,0-2.49,2.49V796a5.75,5.75,0,0,1-5.09,5.7l-9.22,1.06s7,45.65-32.94,80.55-46.63,45.73-46.63,45.73l-9,9,9.65,4.83a.63.63,0,0,1,0,1.11l-11.45,5.72,8.47,4.62a.62.62,0,0,1-.15,1.15l-9.21,2.3,6.83,7.6a.62.62,0,0,1-.45,1l-.13,0-12.89-2.46,5.94,10.6a.73.73,0,0,1-.63,1.08.68.68,0,0,1-.33-.09l-17.65-9,10.49,21.46a.51.51,0,0,1-.45.73.46.46,0,0,1-.23-.06L585,979.13l4.65,10.21a.35.35,0,0,1-.32.49.32.32,0,0,1-.16,0l-16.84-9.14L570.91,994a.61.61,0,0,1-.61.55.59.59,0,0,1-.45-.2l-7.7-8.61L560,995.57a.91.91,0,0,1-.9.73.93.93,0,0,1-.7-.33l-7.92-9.24-3.07,12.73a1.39,1.39,0,0,1-1.36,1.07,1.46,1.46,0,0,1-.79-.24l-13-9-2.66,4.42a1.33,1.33,0,0,1-1.16.67,1.36,1.36,0,0,1-1.36-1.14l-3.52-14.44-3.71,16a.76.76,0,0,1-.75.63.74.74,0,0,1-.57-.26l-12.14-14-8.81,13.72a.28.28,0,0,1-.24.13.27.27,0,0,1-.27-.18l-2.85-7.58L491.74,993a.47.47,0,0,1-.38.21.47.47,0,0,1-.46-.36l-3.3-13.67-9.24,11a.54.54,0,0,1-.42.21.57.57,0,0,1-.56-.68l1.6-8L470.47,983h-.14a.9.9,0,0,1-.89-1l.92-9.52-14,2.34h-.13a.75.75,0,0,1-.71-1l2.17-6.95-13.89.92h0a.37.37,0,0,1-.21-.67l7.54-5.32-12.39-6.34a1,1,0,0,1-.28-1.54l7.09-7.84,5.58-10.41a5.74,5.74,0,0,0-1.34-7.09,49.94,49.94,0,0,0-8.8-5.83c-8.62-4.57-53.57-26.17-65.67-43.46s-21.75-33.8-15.56-64L362.39,793l-4.06,6.34a1.66,1.66,0,0,1-1.42.81,1.73,1.73,0,0,1-1.72-2.15l3-12.24L345.4,803.12a1.68,1.68,0,0,1-1.37.71,1.74,1.74,0,0,1-1.74-2l1.4-9.4-10.2,6.31a1.73,1.73,0,0,1-2.64-1.37l-.44-7.35-11.34,5.91a1.66,1.66,0,0,1-.8.2,1.73,1.73,0,0,1-1.73-1.73V782.17l-13.92,4.28a1.51,1.51,0,0,1-.51.08,1.73,1.73,0,0,1-1.68-1.33l-2-8.46-10.63,2.53a1.41,1.41,0,0,1-.4.05,1.73,1.73,0,0,1-1.73-1.66l-.51-11.78L276.8,779a.75.75,0,0,1-.64.36.77.77,0,0,1-.77-.73l-.48-9.68-14.48,5.43L258,759.25l-19.53,9.25a2.06,2.06,0,0,1-.86.19,2,2,0,0,1-2-2.3l2.46-16.19-10.86.6,2.41-12.67-12.06,9,3.62-17.49-11.47,9.65,6.64-21.12-16.89,9.66,1.2-15.69-13.87,12.07v-16.9L174.16,711,173,701.93l3-12.67-15.35-.45a2,2,0,0,1-1.19-3.46l10.5-8.76L156,673.23a1.93,1.93,0,0,1-.84-3.31l16-14.44L157.53,655a1.28,1.28,0,0,1-.93-2.12l13.33-15.47-9.65,1.21,9.05-30.17-9.65-6.64,8.44-19.9-10.25-1.81,4.82-11.47-6.63-1.81,9.05-12.06-6.64-9.05s7.84-13.28,8.45-18.1c.24-1.93-2-2.51-4.84-2.51a50.39,50.39,0,0,0-9.64,1.3l6-30.77h-9.65L186,455l-8.1-3.37a1.35,1.35,0,0,1-.24-2.35l3.85-2.63L192,439.42H178.79a1.23,1.23,0,0,1-1-1.92c4-5.89,16.3-23.29,22-24,6.91-.87,18.15-6.92,18.15-6.92s-16.43-1.72-11.24-3.45c3-1,14.21-5.69,23.07-9.43a11.48,11.48,0,0,0,5.75-15.8c-11.87-23.22-38-80-40.78-134.09-3-59.34,37.44-67.22,60-67.22m0-10c-15.51,0-37.23,3.4-52.63,19.6-12.8,13.47-18.64,33-17.36,58.12,2.87,56.39,30.24,115.39,41.87,138.14a1.49,1.49,0,0,1-.74,2c-17.21,7.27-21.36,8.82-22.34,9.15-6,2-8,6.81-7.84,10.6-4.49,1.55-9.14,5.53-15.29,12.94-4.54,5.48-8.8,11.56-10.94,14.7a11.2,11.2,0,0,0-.64,11.57l.24.44a11.37,11.37,0,0,0,.75,13.93l-28.41,31a10,10,0,0,0,4.94,16.45l-3.75,19.15a10,10,0,0,0,9.62,11.92c-.77,1.41-1.58,2.85-2.39,4.22a10,10,0,0,0,.55,11l2.25,3.07-4.6,6.13a10,10,0,0,0,1.39,13.51l-.8,1.89a10,10,0,0,0,5.45,13.14l-3.63,8.55A10,10,0,0,0,154,610l3.65,2.5-7,23.18a10,10,0,0,0,.83,7.71l-2.51,2.9a11.34,11.34,0,0,0,.46,15.25l-1,.93A11.93,11.93,0,0,0,150,681.41a12,12,0,0,0,10.31,17.4l3.06.09-.17.72a10.12,10.12,0,0,0-.18,3.64l1.21,9a10,10,0,0,0,9.91,8.68,10.16,10.16,0,0,0,2.67-.36v3.64a10,10,0,0,0,14.26,9,10,10,0,0,0,8.41,4.58h.36a10,10,0,0,0,7.93,11.27,10,10,0,0,0,9.8,8,10.09,10.09,0,0,0,1.82-.16l.31.37a10,10,0,0,0,6.67,3.37l-.62,4.13a12,12,0,0,0,17,12.65l7.48-3.55.31,1.92a10,10,0,0,0,9.87,8.42,9.9,9.9,0,0,0,3.51-.64l2.33-.87a10.79,10.79,0,0,0,15.37,5,11.69,11.69,0,0,0,5.77,1.5,12,12,0,0,0,2.72-.32l.94-.22a11.74,11.74,0,0,0,14.5,7.23l1-.32a11.73,11.73,0,0,0,17,9.15,11.72,11.72,0,0,0,9,4.16,11.11,11.11,0,0,0,1.83-.14c.22.3.45.6.69.88a11.78,11.78,0,0,0,8.93,4.09,11.58,11.58,0,0,0,6-1.66l-.2,1.66c-6.74,33.44,4.31,52.8,17.25,71.28,10.83,15.48,40.61,32,65.35,44.59,1.63.83,2.93,1.5,3.83,2a43.4,43.4,0,0,1,4.28,2.57l-3.27,6.11L431,947.3a11,11,0,0,0,2.89,17,10.38,10.38,0,0,0,9.87,13.56c.22,0,.47,0,.69,0l1.66-.11a10.4,10.4,0,0,0,1.46,2.75,10.78,10.78,0,0,0,8.65,4.38,10.49,10.49,0,0,0,1.77-.15l1.7-.28a10.9,10.9,0,0,0,8.1,8.28A10.57,10.57,0,0,0,483,999a10.5,10.5,0,0,0,6.07,3.88,10.28,10.28,0,0,0,16.88-.6l1.59-2.49,3.4,3.92a10.78,10.78,0,0,0,13.85,2.07,11.47,11.47,0,0,0,9.41-1l5.37,3.71a11.42,11.42,0,0,0,15.83-2.87,10.93,10.93,0,0,0,10.79-1.95,10.6,10.6,0,0,0,14.39-7.17l3.77,2.05a10.36,10.36,0,0,0,12.55-2.09l1.92,1a10.68,10.68,0,0,0,4.8,1.16,10.51,10.51,0,0,0,10.13-13.28,10.72,10.72,0,0,0,8.47-9.39,10.64,10.64,0,0,0,7.14-13.49A10.71,10.71,0,0,0,632,951.36a10.64,10.64,0,0,0,.14-15.78,6.63,6.63,0,0,0,.89-1.22c.85-1.23,9.06-12.39,44.73-43.51,32.17-28.07,36.78-62.33,36.85-79.22A15.75,15.75,0,0,0,728,799.72l15.91,13.44a10,10,0,0,0,16.45-7.64v-4.45l4.24,1a9.78,9.78,0,0,0,2.27.27,10,10,0,0,0,9.59-7.16h5.08a10.27,10.27,0,0,0,9.75-6.9,10,10,0,0,0,7.54-8.65,9.74,9.74,0,0,0,2.41-.74l2.86-1.28a12.87,12.87,0,0,0,9,3.77,13.06,13.06,0,0,0,6.87-2c4.4-2.73,7.29-8,9.38-17.17a75.72,75.72,0,0,0,2-14.44c0-1.53-.15-4.34-1.32-12.45a1.76,1.76,0,0,1,1.22-1.95l7.41-2.33h.06L864,734.53a9.51,9.51,0,0,0,1.4.1,10,10,0,0,0,9.35-6.49l1.61-4.27A30.77,30.77,0,0,0,878.1,710l-.59-5.64a10,10,0,0,0-5.74-8L869,695a10,10,0,0,0,.62-5.94,11.73,11.73,0,0,0,6.07-6.52l3.85-.08a11.67,11.67,0,0,0,10.1-6.12,11.73,11.73,0,0,0,9.67-6l4.67.38c.33,0,.66,0,1,0a11.81,11.81,0,0,0,10.22-17.7,11.78,11.78,0,0,0,4.36-18.63l-4-4.55.79-.1a11.8,11.8,0,0,0,8.15-18.59l-7-9.78.57-.3A11.73,11.73,0,0,0,923,585.6a10,10,0,0,0,2-15.17l-.49-.54a10,10,0,0,0-.13-16.37L916,547.7a10,10,0,0,0,.43-5.64,10,10,0,0,0,3-17.33l-3.5-2.76a9.93,9.93,0,0,0-.63-8.69l-3.17-5.51a11.21,11.21,0,0,0,.1-12.35,11.28,11.28,0,0,0,.9-5,11.12,11.12,0,0,0-10.72-10.61l-5.12-.19a11.53,11.53,0,0,0-9.28-11,9.93,9.93,0,0,0-2.09-3.92,9.81,9.81,0,0,0,1.93-3.39,10,10,0,0,0-2.41-10.23c-.17-.16-16.49-16.5-23.3-24.44-3.57-4.16-10.73-9.2-21.34-15A11.23,11.23,0,0,0,835,396.4l-17.07-7.06a4.75,4.75,0,0,1-2.68-2.81,4.8,4.8,0,0,1,.27-3.89c2.2-4.14,4.55-8.17,7-12,10-15.5,28.56-62.8,37.93-89,4.91-13.72,3.88-30.52-3.06-49.95a156.8,156.8,0,0,0-21-39.22c-8.3-11-19.9-16.62-34.48-16.62-11,0-24.16,3.09-41.41,9.73C736,195,709.78,220.53,697.22,233.82c-7.33-7.19-19.07-17.13-32.1-22-2.68-1-6.48-2.66-10.88-4.56-24.73-10.72-76.18-33-140.79-33-1.47,0-3,0-4.44,0-32.83.52-71.89,9.72-116.09,27.36-21.75,8.68-39.18,17.23-48.68,22.13-.42-.55-.85-1.1-1.3-1.66-5.07-6.37-9.39-10.68-14.35-11.81-2.36-1.71-7.49-6.12-11.71-9.76-21-18.1-38.15-32-50.83-33.35a109.69,109.69,0,0,0-11.28-.58Z"/><path class="cls-4" d="M360.54,808.67s6.95-17.61,5.37-23.42c-3.46-12.84-12-53.56-6.52-68.49,12.95-35.08,27.4-121.46,29.89-135.64S415,469.44,414.13,449.47s10-54.07,10.82-73.21,68.86-84.27,76.76-87.14,50.21,19.36,65.27,21.52,64.69,29.3,72.45,30.84,41.45,29,44.47,40.17,8.61,37.3,8.61,37.3l-23,92.53-4.3,88.22s11.88,63.23,16.89,81.37c5.62,20.34,18.09,43.49,22.21,62.63,5.39,25-.1,60.32-.1,60.32l-68.41,79-152.78,6.45Z"/><g class="cls-5"><path class="cls-6" d="M233.91,616.82s10.53-37.9,12.64-43.52,9.12-12.63,19.65-16.84,9.24-5.88,22.45-15.44,11.23-6.31,28.07-9.82,33-6.32,33-22.46,30.88-73.69,31.58-91.23,17.54-33-11.23-28.07-40,15.44-54,18.94-25.26,23.16-33,23.87-11.93-2.81-2.81-16.15,10.53-22.45,25.27-40.7,17.54-32.28,34.38-38.6,38.6-9.12,57.55-10.53,29.48-20.35,28.77-24.56-9.82-9.82-30.17-6.31-34.39,3.51-47.72,9.12-14.74,6.32-24.57,19.65-3.51,7.72-16.14,21.05S285.14,360,269.7,372.59,233.21,388,224.09,388,81.25,498.38,81.25,498.38l-5.19,174L148.76,697Z"/></g><path class="cls-7" d="M624.14,830.16s-6.42,5.5-5,9.17,6.42,8.25,20.63,5.5S698.41,815,698,809.07s-2.75-12.38-8.71-9.63-6,9.63-3.66,12.38-6.88-10.54-11.92-6.42-.46,12.38,1.37,13.3-2.33,3.43-2.33,3.43-.88-8.93-11.42-7.56S643.4,826,637,827.87A72,72,0,0,1,624.14,830.16Z"/><path class="cls-8" d="M649.66,594.85s-1.54,13.28,2.78,14.82,13.28-1.54,20.07-7.41,8-15.13,14.82-18.83,7.72-1.24,11.11-3.71-.62-8.33,5.25-10.19,9.57-3.39,12.35,0,8.64,13.28,8.34,19.15-2.17,17-7.72,19.45-11.12.61-13.59,9-5.55,11.42-10.8,13.27-7.41,9.88-1.55,7.72,32.42-18.21,37.67-22.23,7.1-17.9,7.1-25.93,3.09-17.29-3.09-19.76-11.42-4.32-16-8.95-10.19-7.41-20.07-6.49-18.21-10.18-18.21-10.18Z"/><path class="cls-9" d="M688.6,736.09s-8.47-13.22-10.05-18-.53-5.82,3.7-11.63,5.82-4.24,9-15.88,10.59-10.05,14.82-19.57,13.23-53.44,20.1-60.85,4.77-6.35,17.46-3.17,21,1.59,24.87-.53,4.76-20.11,14.81-20.63,22.22,5.29,27,7.93-8,62.93-8,62.93l-17,45.48-49.56,37.34Z"/><path class="cls-10" d="M368.11,565.81s-18.76-13.52-25.3-11.77-12.22,10.47-5.24,14,23.56,12.21,30.1,17,15.27,13.09,15.71,16.14,4.8,4.37,13.52,3.93,11.78-8.73,11.78-8.73Z"/><g class="cls-11"><polygon class="cls-12" points="702.81 829.28 714.79 904.66 590.75 956.08 549.41 974.1 488.98 964.56 387.73 927.45 328.89 834.69 370.24 828.86 459.29 872.85 469.07 848.41 480.96 834.07 556.26 832.6 604.39 849.13 621.58 875.6 675.26 840.96 702.81 829.28"/></g><g class="cls-13"><path class="cls-14" d="M704.25,804s-8.83-15.57-11.56-23.77-3.75-21.53-3.91-25.77-1.17-11.72-1.17-11.72l19.18-1.8,30-6.59,19.78-27.58,27,7.8L836,735.12l9.32,75.38L724.78,842.88Z"/></g><g class="cls-15"><path class="cls-14" d="M367.89,781.15s.39,15.08-.57,17-6.78,10.51-6.78,10.51L305,827.87,105.63,670.8s59.93-43.36,69.5-49.73,29.33-16.58,39.53-17.86,23.59,8.93,23.59,8.93l70.14,107.75Z"/></g><path class="cls-16" d="M548.7,883.49s.37,11.88,1.85,17.45,7.8,16.7,20.05,16.33,20-5.57,30.8-9.28,10.4-1.11,12.62-6.31,4.09-11.88,11.51-13,23.75-7.05,31.18-9.65,13.17-11.77,12.62-14.85,5.94-5.94,9.65-10.76,16-15.59,17.81-16.7,6-7.45,6-7.45,1.64-10.89,1.85-13.56-.41-11.7-.41-11.7-7.19,3.28-12.32,5.75-12.34,7.56-19.23,12.36-7.5,5.7-16.2,10.2-16.79,6-21.89,9.29-5.4,12.9-12,13.2-10.8,3.6-10.8-4.2,2.4-7.5,3-17.39,1.5-13.5-2.7-12-6.89,9.6-10.49,12.9-8.7,9.59-13.2,12.29-8.7,8.1-15.3,13.5-7.49,8.1-11.39,11.1S548.86,880.37,548.7,883.49Z"/><path class="cls-16" d="M360.54,808.67s3.63.89,7.58,1.69,13.25,10.08,16,11.44,9.1,10.92,15.47,11.38,10.92,4.55,18.2,7.73,27.29,12.74,30.48,8.19-6.6-14-6.83-22.29-3.64-15-1.36-21.38,7.73-10.92,9.1-5.46,4.55,17.28,8.19,25,13.69,13.42,17.53,16,11.13,12.17,13.86,14.45,12.28,12.28,16.37,15.47,12.74,4.09,13.2,12.28-.46,19.11-7.28,23.2-5.46,9.1-15,7.28-13.65-5.92-24.57-12.74-16.83-9.55-33.67-12.74S385.94,866.51,380,860s-19.78-8.84-19.78-8.84-2.57-16.32-2.51-21.8C357.77,824.15,360.54,808.67,360.54,808.67Z"/><path d="M693.62,425.81s5.76-16,13.44-16,15.36,6.4,16.64,15.35,3.2,26.24.64,37.76-8.32,20.48-5.12,30.71,20.48,16,30.71,22.4,23,16,23,33.28,2.56,39-.64,55-9,35.83-12.16,34.55-9-1.92-5.12-21.11,1.92-37.76,1.28-48-3.84-25.59-7.67-30.71-7.68-3.84-8.32,1.28,2.56,19.84,0,20.48-5.89-1.16-12.16-10.24-18.5-13.29-24.32-11.52S684,544.84,684,544.84l-17.91-21.76,20.47-14.72,3.2-22.39,7.68-33.28Z"/><path class="cls-17" d="M596,579.91c-4.13-8.85-4.72-20.07,3.54-32.46s16.53-16.53,16.53-26.57-3.05-17.22-8.86-28.33-12.39-18.89-13.57-22.43,0-20.07,1.77-28.93-.59-13.58,4.13-19.48,12.4-2.95,16.53-5.9,18-4.13,17.88-11.81-.17-5.9-2.53-14.17-10-14.75,0-17.11,25.38,5.9,36,8.85,15.93,7.08,19.48,11.22S695,405.36,697,414s8.86,44.27,8.86,51.94-2.37,10.63-2.37,19.48,6.5,13.58-.59,26.57-31.28,14.76-31.28,14.76S600.14,588.77,596,579.91Z"/><path class="cls-18" d="M629,542.28S623,546,615.5,564s-15,22.5-15.75,39,3,39,12,36.74,10.5,0,15.75-9.75,3.75-20.25,11.25-27.74S665,585,669.5,582s20.66-45.64,20.66-45.64,1.09-14.36-12.41-15.86-23.25-8.25-31.5,1.5S629,542.28,629,542.28Z"/><path class="cls-19" d="M363.68,550.28s-2.36-10.39-9.45-10.87-16.54-1.41-23.62,5.2S314.07,563,311.71,563s-3.78-5.2-.48-18.9,17.49-36.38,18.43-46.31-3.78-25-3.78-35.43,0-27.41,2.84-43.48,6.61-19.84,9.92-36.85S340.53,349.94,349,341s27.41-18.43,33.08-18.9,17,4.73,6.61,11.34S359.9,353.25,359,358s-9.93,33.55-11.34,43,0,15.12,3.3,20.79,7.09,17,7.09,17l17.48,61.43,15.12,50.55Z"/><path class="cls-20" d="M451.15,595.8s13.3-5.44,14.51-12.09,1.82-16.93,0-21.77-22.37-21.76-29-30.23-13.3-15.11-13.9-18.74.6-27.81,1.81-35.67,3.63-12.69,7.86-9.07S440.27,482.14,436,487s-7.26,10.27-4.84,19.95,3.63,18.13,9.07,10.27,9.07-19.34,11.49-32.64,6-23.58,1.81-32-5.44-13.3-7.25-22.37-9.07-27.21-10.89-35.07-3-24.78-13.9-24.78-15.72-5.45-27.21,8.46-24.78,26-29.62,32.65-13.3,19.34-13.9,25.39-6.05,20.55-7.26,33.25-7.77,30.44-1.81,39.3,7.41,13.61,20.55,15.11S402.18,539,402.18,539Z"/><path class="cls-21" d="M428,540.43s16.67,24.12,22.81,34.21,10,15.56,9.21,24.57-6.14,25-7.89,30.27-2.64,6.58-6.14,5.26-2.64-4.39-2.64-7-5.7-3.07-6.14,4.83-.44,16.67-4.82,17.1-9.65-3.94-9.65-10.09.44-19.73,0-22.37S375.42,573.47,373,569s-5.84-17.22-6-24.17,3.13-14.73,8.45-18.83,9.42-5.73,16.38-5.73,19.66,7.37,19.66,7.37Z"/><path class="cls-6" d="M479.78,833.07S469.41,794.61,466,776.9s-7.78-30.68-8.64-52.29,6.48-48.39,17.71-58.33,21.18-10.37,37.6-10.37,15.12,2.16,40.62,2.59,30.24-.43,40.18,5.18S606.82,684,606,695.23s-13.83,65.25-14.26,76.91.87,30.25-.43,38-3.89,22.47-7.35,26.79S529,856.84,529,856.84Z"/><path class="cls-22" d="M381.66,532.79a16.13,16.13,0,0,0-1.21,8.24c.61,5.92,3.35,19.26,15.54,25.45,15.95,8.08,31.67,2.84,35.82-7.65s2.86-23.77-17.92-33.75c-16.47-7.91-25.32.34-29.25,3.62A11.19,11.19,0,0,0,381.66,532.79Z"/><path class="cls-23" d="M627.17,556.58s9.72,15.31,26.9,7.45,18.83-19.62,18.21-23.38-8.9-14.9-11.8-17-12.62-7.86-24,.41-12.21,22.35-11.38,26.08A35.26,35.26,0,0,0,627.17,556.58Z"/><path class="cls-24" d="M474.88,841s11.87,4.45,19.58,8,14.83,4.75,16.61,11.87,3.79,14.6,3.79,14.6,5.11-4.22,17-5.11,16,5,16,5,4.45-12.75,14.53-19.87,21.52-11.07,26.7-15.43c5.63-4.74,8-10.08,1.78-11.27s-18.39,3.86-26.7,7.12-17.2,8.9-28.47,10.09-23.73-2.67-30-7.42S488.82,828,482.89,828.57s-10.68,3-10.08,6.52A17.66,17.66,0,0,0,474.88,841Z"/><path class="cls-25" d="M372.24,838s8.93,6.83,16,12.09,9.73,5.26,22.08,7.63,24.19,7.88,32.34,9.46,24.19,3.94,28.92,2.37,9.46,2.62,5.52,6-8.94,8.68-19.72,7.1-21.56-3.16-36.28-5-42.59-19.19-47.05-24.18-8.17-9.65-5.26-13.67C370.94,836.92,372.24,838,372.24,838Z"/><path class="cls-26" d="M588.62,879.42s13.26-2.84,20.83-3.79,12,1,28.72-3.79,20.2-2.84,30.61-10.73,17-11,20.51-16.72,8.21-6.95,1.89-6.95-7.25.64-12.3,3.48-5,3.47-14.52,8.52-15.78,10.73-24.3,11.67-18.3,4.42-29,6-12.94-1-18,2.52-7.57,5-6.94,7.26A3.43,3.43,0,0,0,588.62,879.42Z"/><path class="cls-9" d="M367,544.79s4.86,2.86,8.29,16.31,8.59,16,14,20,15.17,9.73,24.32,11.16,11.73,2,13.45,4.29,3.14,6.87,3.14,17.74-2,17.16-3.43,17.74-9.73-1.15-12.3-7.16a174.44,174.44,0,0,0-10.87-20c-2-2.89-5.15-4.29-12.59-10.3s-18.88-16.88-22.89-21.74-8-13.67-8.87-18.6c-1.06-6.36-2.37-10.25,3.72-9.15C366.91,545.79,367,544.79,367,544.79Z"/><path class="cls-21" d="M317.91,593.23s-4.23-14.22,4.23-13.84,10.76,9.61,14.22,16.15,6.53,6.91,14.22,11.14,5.77,13.46,9.23,18.07,14.22,16.14,2.3,11.53-23.44-6.54-26.52-10.38-11.53-8.07-14.22-15.76A79.88,79.88,0,0,1,317.91,593.23Z"/><path class="cls-9" d="M627.79,620.69s1.71-18.5,2.74-23.3,2.74-6.17,8.22-7.54,18.51-5.48,25-9.94,18.16-16.45,19.53-22.27,3.09-20.91,6.86-21.25,7.88-3.77,7.88,4.46.16,25.47-4.8,31.52-15.42,13.37-24,17.82-16.79,4.12-19.87,12.68-2.74,18.51-8.57,20.22S629.84,626.52,627.79,620.69Z"/><path class="cls-9" d="M364.78,746.91s5.86-9,8.21-12.9,4.69-8.6,4.69-12.12,3.12-5.87-2.74-13.29-3.13-3.91-8.21-12.9-14.07-19.94-15.64-28.15.79-12.51-5.08-20.72-10.07-17.94-14.46-27-15.64-22.68-18-22.68-4.3,5.08-10.55,5.48-17.59-2.35-22.67-1.57-12.51-3.13-21.9-2.34-22.28,3.51-23.84,7.81,2,45.74,3.91,55.13,39.09,60.59,44.95,65.67,71.93,43.39,71.93,43.39,9.39-2.73,9.39-6.25Z"/><path class="cls-27" d="M273.18,569.3s7.9-34.09,15.8-47.4,12.06-11.23,13.3-10,7.49,2.91-.41,19.54-12.89,43.25-15,53.64-4.16,29.11-.83,37.43,3.74,18.29,7.9,23.28,12.06,5,16.21,5.41,17.47,9.14,22,12.89a164,164,0,0,1,18.71,19.12c5.41,6.66,7.49,10.82,2.91,13.31s-13.72-4.16-23.7-10.4S317.25,672,311.85,672s-13.31.83-13.31,7.07.42,20.37,5.41,25.36,12.06,11.23,18.71,12.89,11.64,5.41,18.29,7.49,15.8,7.48,16.64,10.81,2.08,7.48-4.58,7.48-21.62-9.56-29.94-13.3-27-17-35.34-25.79-15.23-13.26-15.38-22,5.4-11.23,6.23-17-2.49-16.22-3.32-26.2-3.75-27.44-3.75-37.84S273.18,569.3,273.18,569.3Z"/><path class="cls-27" d="M364.85,761.62s-2.37-2.7-12.4-6-19.48-8.56-26-10.33-12.1-6.49-21.84-9.14-16.23-9.45-20.36-12.69-15.94-10.92-15.94-10.92-8.26-5.9-11.21-15.05-8.56-17.12-9.44-25.68-5.61-14.75-5.32-25.08.6-21.84.6-28-.6-12.69.29-18,12.1-11.81,9.15-14.17-6.79-1.77-12.4-1.77-7.08-13.57-5-16.52,11.21-4.14,12.39-7.68-1.47-10-4.42-15.05-2.66-4.72-.3-12.39,3-8.56,2.36-13.58.3-4.42,3.54-10,6.79-4.43,11.81-8.56,5.6-6.19,5.9-12.39.59-10.62,5.31-13.58,1.77-4.42,1.77-11.21,2.95-5,6.2-8.85,2.36-11.22-3.84-9.45-18.59,5.32-25.67,6.2-13.28,5.61-12.1,12.1,3.83,10.92-.89,17.41-7.67,11.81-7.37,17.71,2.95,8.56-1.77,13.87-8,13.57-7.68,20.36-2.65,16.82-3.83,22.43-1.77,7.67-1.77,17.7,2.36,7.38,2.36,12.4,1.47,18.88.88,22.42-1.18,10.63-2.65,14.76,0,6.49,4.72,10.33-3.84,6.78-5.31,11.8,4.42,8,7.08,8.26,8.85-4.72,8.56,3.54-9.15,15.94-9.15,21.55.59,7.37,1.77,8.85,4.13,4.72-1.77,9.44-6.2,7.09-.59,7.09,11.21,1.18,11.51,6.49,3.24-4.43,8-.3,4.43,3.54,4.43,13,3.84,10.33,7.08,10.33,13.58-2.66,16.53-2.07-2.66,7.08-.59,8.56,5.9,8.85,11.8,8.85S297,748,299,750.36s1.48,2.07,7.09,2.07,7.37,7.08,10.62,9.73,14.46,3.25,18.59,3.25,9.15,2.66,14.17,6.49,9.73,10.33,11.5,10.33a56.77,56.77,0,0,0,6.89-1.08A20,20,0,0,1,366,774c-.22-3.92-1.83-6.68-1.14-8.75A5.23,5.23,0,0,0,364.85,761.62Z"/><path class="cls-28" d="M387.22,352.27s24.85-19.75,37.19-29.65,33.42-22.64,48.52-30.18,20.72-7.72,26.95-12.4,10.24-7.55,15.09-7,9.17,7,13.48,10.78,15.63,15.1,37.73,19.41,51.75,17.25,71.69,28,25.88,21,23.18,26.41-6.47,4.31-18.86-.54S612,339.33,604.45,335s-12.39-12.4-24.25-12.94a137.24,137.24,0,0,1-32.88-5.93c-8.63-2.69-18.87-8.62-17.25-2.15s11.32,11.86,17.78,14.55,36.09,8.11,37.5,10.37,3.95,17.5-4.23,12.7-15.52-4.23-28.78-11.57-19.76-24-20.6-16.37-4.2-9.67-4.2-13.38,2.34-7.2-2.34-5.26S517.31,306.75,511,308s-9.63,10.62-20.89,15.25S466.9,335.15,458,335.15s-6.62-7.29-13.25-6.62-18.88,8.28-22.19,11.59-23.53,26.17-29.82,27.5-14.58,2-15.24-1.33S387.22,352.27,387.22,352.27Z"/><path class="cls-29" d="M505.06,379s4-16,3.61-22.85,0-14.84,0-18.45-1.2-4.81-4.81.41-10,13.22-13.63,19.64-8.82,6.81-14.43,7.21a73.43,73.43,0,0,0-24.45,6c-10,4.41-28.87,14-37.28,20.84s-16.84,14.84-16.84,19.65,4.41,4.81,12.43,4.41,24.85-6,31.26-9.22,20.45-8.42,25.26-11.63S477,385.45,477,385.45s.4-6.82,4-6.41,3.21,5.61,11.23,5.21A20.76,20.76,0,0,0,505.06,379Z"/><path class="cls-30" d="M457.51,495.38a4.65,4.65,0,0,1-4.93-5.71c1.36-5.79,3.5-14.39,5.38-19.62,3-8.45,6.76-23,10.81-31.07s12.16-15.2,19.59-23,24.31-24,27.69-32.75,6.08-12.84,2.7-22.63-7.62-15.86-6.08-19.93,3.57-9.24,6.42-8.1,5.74,1,5.4,16.21c0,0,9.12,23.64,9.79,27.35s3.72,23.64,3.38,29.38-4.39,8.45-6.41,5.74-3.69-7-4.06-13.84-1.35-14.52-2.36-17.22-2,6.75-2.7,13.17A55.68,55.68,0,0,1,515,414c-3.38,5.4-6.08,6.08-6.76,10.47s-5.4,19.24-9.79,20.6-8.11-3.72-15.2,3-10.81,11.15-10.81,20.27,1,12.83-3.37,17.22-7.77,9.46-11.48,9.79Z"/><path d="M529.76,342.49s7.73,14.46,7.73,22.19,10.08,16.13,14.12,16.8,20.84-.33,25.54.67,21.51,21.85,28.57,21.18,20.17,1,28.24.67,14.78,3,17.14-.33,4.7-8.41-4.37-12.44-23-9.24-26.89-13.11-4.37-10.08-18.49-12.77-23.19-6.72-31.59-4-11.09,6.72-16.14,2.35-14.78-11.43-16.47-15.8-6.38-13.78-8.4-12.44S529.76,342.49,529.76,342.49Z"/><path d="M544,428.3s19.48,8.15,25.5,9.21,10.63,1.77,11,9.92,1.06,17,1.42,24.79,0,14.17,6,15.94,13.11-2.12,13.46-6.73,2.13-6-.35-13.1-7.44-14.88-10.28-21.26-1.77-15.58-6-19.48-11.69-11.34-17.35-13.11-3.55-2.48-13.11-1.77-12.75.36-12.4,6.38S544,428.3,544,428.3Z"/><path d="M520.79,439.19s2-7.49,4.9-7.21,4.61,6.06,3.75,10.67-1.45,9.52-2.89,14.13,0,8.84-4,8.37-6.35-4.33-5.48-12.4A41.07,41.07,0,0,1,520.79,439.19Z"/><path d="M466.57,522.24s7.21-10.67,10.38-14.7,6.06-6.64,10.67-8.65,8.37-2.6,8.37-7.79,5.48-11-1.45-8.94-11.82,3.46-17,6.92-6.92,5.77-9.52,12.4-3.46,5.19-5.47,12.4-1.83,9.12,0,8.94S466.57,522.24,466.57,522.24Z"/><path d="M545,475.24s-.29,8.36,2.59,11.25,8.94,0,8.65-5.48.58-8.08-2-14.13-4.62-8.08-6.92-11-4-2.88-5.48.58-.29,4,1.44,8.36S545,475.24,545,475.24Z"/><path d="M506,484.58a5.3,5.3,0,0,0,6.66,4.83c.94-.28,1.58-.82,1.49-1.77-.29-3.17,1-4.74-.86-10.09s-3.46-8.08-6.06-2.6C505.88,477.81,505.78,481.6,506,484.58Z"/><path d="M501.31,518.5s4.57-.17,2.87-7.19-4-2.87-5.46,0-5.46,7.19-3.16,8.63S501.31,518.5,501.31,518.5Z"/><path d="M555.63,506.74a5.44,5.44,0,0,0,1.92,6.18c1.73,1.26,3.82,2.56,5.26,2.7,2.87.29,2.3-2.87,1.72-6.61s-2.29-9.48-4.88-8.91C558.14,500.44,556.63,503.91,555.63,506.74Z"/><path class="cls-31" d="M679.53,732.72s1.68,16.84,9.1,17.52,24.6-6.4,28.3-6.4,15.59,6.23,24.38-.61S754.51,732,757,725.15s7.33-8.79,18.57-5.86,14.16,17.1,23.94,17.1,8.79-2.93,8.79-8.31-1.46-11.72-1-16.61,15.64,1.95,16.13-8.31a71.65,71.65,0,0,0-4.65-28.68c-3.06-7.44-13.56-6.56-9.63-14s11.82-1.75,13.13-7-2.19-3.06-.88-8.31,8.32-.44,10.5-8.75,3.07-2.63.44-11.38-5.69-12.69-1.75-14.44,5.69-3.94,4.38-8.31-5.25-3.06-5.69-9.19-.88-3.94,2.62-6.56-2.62-5.69-3.93-9.63-12.83-16.35-6.13-22.31,12.69-5.25,15.31-5.25,4.82-3.06-1.31-7.44-9.19-7.87-9.19-10.5-.43-9.19,4.38-11.37a7.41,7.41,0,0,0,1.31-12.69c-4.81-3.5-8.31-9.63-11.37-15.32s-.88-4.37-2.19-10.5-7-11.81-7-13.56-3.5-9.62-3.5-9.62-6.13-9.19-10.07-10.94-6.56-5.69-8.75-8.31-10.93-6.13-14-4.82-1.75,3.94.44,8.75,3.06,5.69,2.63,9.19-2.19,16.63,1.31,18.81,11.37,10.07,11.37,13.57S795.12,496.85,796,499s6.12,17.06,3.5,15.31-9.63-3.06-6.57,1.75,9.63,8.31,10.07,11.37,3.94,11.82,3.5,12.25,2.19,2.19-.88,4.38-9.62-2.63-3.06,2.19,12.69,7,10.5,8.75-13.56-2.19-13.13,2.19-.43,16.18-.43,19.68,3.06,8.32,1.31,11.38,5.86,2.18-1.75,3.06-13.56,1.31-7,5.69,10.06,10.5,10.06,14-10.69-8.31-11.12-2.19c0,0-.69,7,2.37,10.94s5.25,10.5,5.25,14,1.75,4.38-1.75,9.19-4.37,4.81-4.81,11.81,2.62,15.32-3.06,17.5S776.31,685,773.68,683.67a72.88,72.88,0,0,0-8.75-3.06s-6.46-7-6.06-14.65,6.83-12.46-3.21-15.27-7.63-5.62-15.27-2-21.84,16.2-30.74,16.2-23.13,8.31-7.12,8.31,24.91-3,29.66,0,7.11,7.71-3,20.76S713.8,714.71,718,715.89s13-8.3,14.24-5.93,11.27,14.24-.6,17.2S718,739,701.94,733.69,679.53,732.72,679.53,732.72Z"/><g class="cls-32"><path class="cls-33" d="M630.59,935.61a2.09,2.09,0,0,0-.92-.87c-3.16-1.53-18-8.64-20.54-8.39-2.84.28-12.08,1.13-15.1,2.26s4.78,4.84,7.17,6-3.77,2.27-10.19,2.27-6,3-3.78,7.93c1.64,3.54-6,.39-10.35-1.64a2.11,2.11,0,0,0-3,1.83l-.41,9.47a2.11,2.11,0,0,1-3.58,1.43l-13.67-13.13a2.11,2.11,0,0,0-3.41.69l-4.69,10.86a2.12,2.12,0,0,1-3.48.62l-9.8-10.33a2.12,2.12,0,0,0-3.38.4l-4.78,8.38a2.12,2.12,0,0,1-3.31.47l-7.68-7.42a2.12,2.12,0,0,0-2.75-.16L508.16,950a2.11,2.11,0,0,1-3.39-1.6l-.08-1.83a2.12,2.12,0,0,0-2.79-1.92l-7.19,2.4a2.11,2.11,0,0,1-2.38-.76l-2.49-3.39a2.12,2.12,0,0,0-2-.84l-12,1.76a2.13,2.13,0,0,1-2.42-1.91h0a2.11,2.11,0,0,0-2.11-1.92H460a2.12,2.12,0,0,1-2.07-2.53l.74-3.69c.22-1.12-3.35-3.83-5.82-5a2.71,2.71,0,0,0-3.07.49l-4.7,4.59a2.11,2.11,0,0,0-.88.45L412,961.34a2.1,2.1,0,0,0-.49,2.63l19.89,36.55a2.11,2.11,0,0,0,1.5,1.07L593,1028.85a2.14,2.14,0,0,0,1.9-.63L648.79,971a2.11,2.11,0,0,0,.3-2.49Z"/></g><path class="cls-17" d="M232.6,359.26a13,13,0,0,0,1.14.73c4.22,2.48,11.09,4.19,26.6,8,17,4.14,10.35-1.24,32.29-17.39s20.28-22.77,26.49-38.91-1.65-10.76-1.65-28.56S328.12,249.81,324,245s-23.25-20.87-34-26.23-25-18.48-41.73-17.29-27.43,17.29-33.39,31.59-10.13,25-10.13,25l-6.47,11.29a93.32,93.32,0,0,0,2.54,15.18c2,7.48,5,19.95,6.49,24.94s13.21,36.66,15,40.65S232.6,359.26,232.6,359.26Z"/><path class="cls-34" d="M716,266.4s12.42-18.84,23.55-28.26S750.29,221,769.13,215s24.4-6.42,30.4-5.13,15,9,20.12,17.55,15,13.7,15.42,21.41,3,15.84,0,24.41-.86,16.7-9.42,25.69-8.57,6.85-8.57,23.55-3.85,26.55-6,30.83-11.56,13.7-19.7,14.56-15.41,4.71-26.12,1.28-36-15-38.11-21.84,6.43-18.41,4.71-30.82.86-24.41-3-29.12-12-11.13-12-11.13S710.89,268.54,716,266.4Z"/><path class="cls-35" d="M391.52,243.5s-6.14,1.84-6.14,7.37,2.45,9.21,12.89,5.52a414.28,414.28,0,0,1,44.81-12.27c14.74-3.07,46.66-16.58,58.32-10.44s5.53,8.59,11.67,11,5.66-1.24,9.21-7.37,8-4.91,23.32-4.29S590.42,243.5,607,246s33.76,7.36,39.29,4.91-27.62-30.08-50.34-29.47-42.82.24-57.09-.61-24.56-7.37-12.28-9.82,24.56-5.53,35.61-6.76S584.89,195,584.89,195l1.77-1.37s-38.94-9.69-67.46-9.5-49.72,3.84-56.48,6c0,0,2.25,5.87,14.41,7.76s29.74,7.57,33,12.7c2.1,3.33,3.52,5.41,1.08,9.19s-3,3.52-11.89,3.52-52.17,1.08-63.25,3.78S391.52,243.5,391.52,243.5Z"/><path class="cls-36" d="M383.64,811.57s9.28,2.42,10.89,4,10.9,8.48,17.36,8.88,12.11,4,20.18,8.08,13.72,8.07,13.32,10.89-4.44,6.06-11.3,2.42-21-13.31-30.68-15.33-12.1-8.88-15.74-12.11A11.85,11.85,0,0,1,383.64,811.57Z"/><g class="cls-37"><path class="cls-6" d="M823.33,736.31s-13.61-5.51-18.88-12.75.66-36.85,5.92-39.49,13.82-18.42,17.77-18.42,11.19-11.19,11.19-11.19-2-15.79,2-16.45,25-21.06,19.09-24.35-14.48-1.31-13.82-13.16,17.76-19.74,12.5-32.24-2.63-2.64-5.27-12.51-5.26,2-2.63-9.87,7.24-6.58,0-19.08-14-3.37-18.86-19.45S821.86,481,818.75,481.53s-11.81-25.81-20.57-34.12-17.42-14.71-24-20.63-7.24-9.22-18.43-21.72-42.11-46.72-52-59.22-11.85-20.4-26.32-21.06-27.64-13.16-42.78-15.8-17.11,2-16.45-9.21,1.32-12.5,16.45-10.53,24.35,9.87,35.54,9.87,24.35,5.93,29.61,10.53,17.77,20.4,21.06,27S758.39,370.84,765,379.4s7.89,21.71,13.16,23,11.19,10.53,17.11,7.24,21.06-25,21.06-25l143.05,54.76-4.47,381.12Z"/></g></svg>