<svg xmlns="http://www.w3.org/2000/svg" viewBox="0 0 800 1200"><defs><style>.cls-1{fill:none;stroke:#fff;stroke-miterlimit:10;}</style></defs><g id="Layer_3" data-name="Layer 3"><rect x="-0.5" y="-0.5" width="800" height="1201"/></g><g id="Layer_2" data-name="Layer 2"><path class="cls-1" d="M233,366s7,2,10-3,12-39,12-39,13-23,26-29,30-14,35-15,11.5-4.5,11.5-4.5-20-1-26,1-19,3-27,8-25,18-30,24-17,18-18,25-6,18-4,24S233,366,233,366Z"/><path class="cls-1" d="M162.5,283.5c-.53,3.21,0,13,0,13s1,20,3,27,6,17,6,17l8,28,10,23,2,9s2,12,3,15,5,9,8,11,10,8,10,8,10,8,15,11,7,4,7,4l5,2,3,1s-1,7,0,10,4,20,2,26,0,14,0,14,1,8,8,11,22,3,22,3,3-1,4,1l5,10,7,8,5,7s5,3,5,5,4,9,6,11l7,6s9,5,12,5c0,0,5,15,8,16l8,4,4,1,28-6,29-4,44-2,37-2h8.08a8.41,8.41,0,0,0,6.44-3c5.7-6.79,19.34-23.07,22.48-27,4-5,11-12,11-12l6-10s-5-60,4-80,22.07-54.52,28-65c2.75-4.87,3-16-4-22,0,0,13-3,18-8s11-19,11-21,9-31,8-38-14-32-14-32S575.06,235,565.11,228a30.5,30.5,0,0,1-4.58-3.83c-3.59-3.79-12.23-10.82-26.87-10.82a43.5,43.5,0,0,1-6.25-.35c-2.53-.36-6.94-.1-10.91,4.53l-9,21s-18,37-45,31-66-34-66-34-69-23-88-28-37-10-70-4-49.21,20.53-58,35C174.21,248.86,164.47,271.54,162.5,283.5Z"/><path class="cls-1" d="M205.19,428.48l2.31-6s2-9,3-10,5.44-5.56,6-8c.52-2.25-1-6-7-6s-9.18,6.56-10,10S198.28,422,198.28,422"/><path class="cls-1" d="M565.5,357.5s-15-4-17-9a24,24,0,0,1-2-8"/><path class="cls-1" d="M525.5,220.5a29.56,29.56,0,0,0-2,9c0,4,2,12,2,12l6,12,5,12s3,8,8,10,7,8,7,8,1,6-1,6-8-5-9-6-3,3-3,3,1,5,4,6,2,10,2,10-1,7-2,8-2,7,1,10,8,1,8,1l5-8,5-11s4-9,6-9,10-4,11-7,3-12,3-12-3-9-7-11-10-4-13-6-3-4-9-4-11,1-13,1-9-3-6-6,9-5,11-7,8-7,6-9-7-4-10-4-9,0-11,1"/><path class="cls-1" d="M555.5,331.5s8-6,12-7"/><path class="cls-1" d="M276.5,501.5c1-4,2-8,11-12s14-4,18-2c2.53,1.26-2,5-8,8S275.5,505.5,276.5,501.5Z"/><path class="cls-1" d="M313.5,489.5s10-11,7-21-3-12-8-13"/><path class="cls-1" d="M216.19,401.84s10.31-1.34,12.31,1.66l11,14s3,10,3,17v18"/><path class="cls-1" d="M242.07,430.55s-5.57,4.95-5.57,6.95-1,7,0,9,3,5,3,5"/><path class="cls-1" d="M290.5,376.5s4,4,9,4,12-9,12-9,6-13,6-14c0-.75,5.35-9.64,7-13.07a.61.61,0,0,0-.87-.79C320,345.92,310,353,308.5,354.5c-2,2-12,8-12,8s-7,3-8,7A7.91,7.91,0,0,0,290.5,376.5Z"/><path class="cls-1" d="M283.5,371.5s-2-6-1-10,6-12,9-14,13-10,13-10,14-7,17-9,9-3,9-3"/><path class="cls-1" d="M302.5,385.5s10-4,12-7,11-11,14-19"/><path class="cls-1" d="M289.5,338.5s-11,9-12,14,0,13,1,15a18.66,18.66,0,0,0,3,4"/><path class="cls-1" d="M300.5,547.5s4-11,9-14,13-8,19-9,13-3,19-3,15-1,19,0,6,0,6,0-4,10-5,13-4,17-6,20-9,18-9,18-9,13-13,16"/><path class="cls-1" d="M325.5,569.5s0-8,3-12,7-12,11-15,13-11,18-13,15-8,15-8l2-3"/><path class="cls-1" d="M366.5,513.5s13,2,11,6"/><path class="cls-1" d="M537.5,524.5s3,17,12,23,10,15,26,15,23,3,36-2,33-16,33-16l15-21s15-16,24-18,44-7,64-4,52.59,7.1,52.59,7.1"/><path class="cls-1" d="M491.5,576.5s18,1,24,0,23-1,26-1"/><path class="cls-1" d="M1.5,786.5s39,29,62,34,74,22,84,22,108,9,124,8c3.66-.23,10.61,0,19.15.39,28.84,1.44,75.85,5.61,75.85,5.61s103,17,119,27,34,20,34,20"/><path class="cls-1" d="M-.5,326.5s12-37,14-45,12-43,12-43l25-68s4-21,45-62c0,0,30-32,36-39s25-27,30-34,31-36,31-36"/><path class="cls-1" d="M380.5-.5s4,11,4,14,2,9,2,12-8,17-8,17,1,17,2,19c.66,1.31,3.47,13.85,5.33,22.29A7.75,7.75,0,0,1,379.78,93l-2.28.46a29.05,29.05,0,0,1-14-2c-7-3-10-11-10-11s-6,8-8,9c-6,3-26,8-34,11s-29,5-41,8-37,13-37,13c-11,8-27,10-27,10s-28,2-37,4-17-1-30,1-26,12-38,28-13,44-13,44l-15,28s-15,54-27,66-21,51-21,62,14,42,14,42,12,22,16,32,12,43,13,54,23,52,27,59,12,47,12,47,1,30,1,38,5,15,5,15h19s22-3,32-5,52-1,52-1l26-4,23-14s22-13,34-19,46-18,46-18"/><path class="cls-1" d="M338.5,42.5s-13-13-14-17-5-7-5-7-19,6-28,2h-6s-7,9-15,11c0,0-20,11-22,11s-8,2-8,2,2,14,4,16c0,0,20-3,25-4s23-5,23-5,18-5,23-5c0,0,10-3,17-2a35.32,35.32,0,0,1,12,4v-4Z"/><path class="cls-1" d="M489.5-.5s65,20,71,28c0,0,53,41,56,51l54,57,39,42,35,41s27,52,35,73a133.56,133.56,0,0,0,21,36"/><path class="cls-1" d="M156.32,647.56s-3.82-19.06-.82-35.06,3-48,3-57-6-74-6-74-6-74-6-82-6-43-6-48v-35s21,38,24,43-4,42-4,42v63c0,12,9,64,9,64l12,56s6,44-5,61"/><path class="cls-1" d="M54.5,322.5s-13,20-13,27-1,30,1,37,20,52,20,52l6-43,3-13s-10-27-11-37a183.86,183.86,0,0,0-4-22Z"/><path class="cls-1" d="M53.74,817.61S36.5,851.5,36.5,877.5c0,0-2,29,2,57s9,52,10,58,10,51,9,63-2,43-2,43-2,44,5,64,13.71,37.61,13.71,37.61"/><path class="cls-1" d="M290.5,850.5l20,32s26,49,28,55,22,51,22,51l24,65,15,42,9,28,16,36,17.32,40.67"/><path class="cls-1" d="M48.5,950.5s14,62,18,68,16,43,16,43l17,36s19,53,20,56,8,31,8,31l4.58,15.15"/><path class="cls-1" d="M378,43s-2-12-7-17L361,9,352.5-.5"/><path class="cls-1" d="M344,48s6,6,8,12,2,15,2,15l-.5,5.5"/></g></svg>